<?xml version="1.0" encoding="UTF-8" standalone="no"?>
<!DOCTYPE svg PUBLIC "-//W3C//DTD SVG 1.1//EN"
 "http://www.w3.org/Graphics/SVG/1.1/DTD/svg11.dtd">
<!-- Generated by graphviz version 2.38.0 (20140413.2041)
 -->
<!-- Title: adb.adb_protocol.AdbMessage.Open Pages: 1 -->
<svg width="588pt" height="88pt"
 viewBox="0.00 0.00 588.00 88.00" xmlns="http://www.w3.org/2000/svg" xmlns:xlink="http://www.w3.org/1999/xlink">
<g id="graph0" class="graph" transform="scale(1 1) rotate(0) translate(4 84)">
<title>adb.adb_protocol.AdbMessage.Open</title>
<polygon fill="white" stroke="none" points="-4,4 -4,-84 584,-84 584,4 -4,4"/>
<!-- Node1 -->
<g id="node1" class="node"><title>Node1</title>
<polygon fill="#bfbfbf" stroke="black" points="0,-30 0,-49 177,-49 177,-30 0,-30"/>
<text text-anchor="middle" x="88.5" y="-37" font-family="Helvetica,sans-Serif" font-size="10.00">adb.adb_protocol.AdbMessage.Open</text>
</g>
<!-- Node2 -->
<g id="node2" class="node"><title>Node2</title>
<g id="a_node2"><a xlink:href="classadb_1_1adb__protocol_1_1AdbMessage.xhtml#adfc3951e5524f65d12c82f5e3c4aa98a" target="_top" xlink:title="adb.adb_protocol.AdbMessage.Read">
<polygon fill="white" stroke="black" points="213,-30 213,-49 390,-49 390,-30 213,-30"/>
<text text-anchor="middle" x="301.5" y="-37" font-family="Helvetica,sans-Serif" font-size="10.00">adb.adb_protocol.AdbMessage.Read</text>
</a>
</g>
</g>
<!-- Node1&#45;&gt;Node2 -->
<g id="edge1" class="edge"><title>Node1&#45;&gt;Node2</title>
<path fill="none" stroke="midnightblue" d="M177.15,-39.5C185.522,-39.5 194.048,-39.5 202.509,-39.5"/>
<polygon fill="midnightblue" stroke="midnightblue" points="202.783,-43.0001 212.783,-39.5 202.783,-36.0001 202.783,-43.0001"/>
</g>
<!-- Node3 -->
<g id="node3" class="node"><title>Node3</title>
<g id="a_node3"><a xlink:href="classadb_1_1adb__protocol_1_1AdbMessage.xhtml#ac35b31fd714c3c26d07a5cff9e31919f" target="_top" xlink:title="adb.adb_protocol.AdbMessage.\lUnpack">
<polygon fill="white" stroke="black" points="426,-49.5 426,-79.5 580,-79.5 580,-49.5 426,-49.5"/>
<text text-anchor="start" x="434" y="-67.5" font-family="Helvetica,sans-Serif" font-size="10.00">adb.adb_protocol.AdbMessage.</text>
<text text-anchor="middle" x="503" y="-56.5" font-family="Helvetica,sans-Serif" font-size="10.00">Unpack</text>
</a>
</g>
</g>
<!-- Node2&#45;&gt;Node3 -->
<g id="edge2" class="edge"><title>Node2&#45;&gt;Node3</title>
<path fill="none" stroke="midnightblue" d="M378.492,-49.0227C390.621,-50.5428 403.249,-52.1252 415.598,-53.6727"/>
<polygon fill="midnightblue" stroke="midnightblue" points="415.532,-57.1917 425.889,-54.9623 416.402,-50.246 415.532,-57.1917"/>
</g>
<!-- Node4 -->
<g id="node4" class="node"><title>Node4</title>
<g id="a_node4"><a xlink:href="classadb_1_1adb__protocol_1_1AdbMessage.xhtml#a94f0f744eab64603e9ee3f313ef0805f" target="_top" xlink:title="adb.adb_protocol.AdbMessage.\lCalculateChecksum">
<polygon fill="white" stroke="black" points="426,-0.5 426,-30.5 580,-30.5 580,-0.5 426,-0.5"/>
<text text-anchor="start" x="434" y="-18.5" font-family="Helvetica,sans-Serif" font-size="10.00">adb.adb_protocol.AdbMessage.</text>
<text text-anchor="middle" x="503" y="-7.5" font-family="Helvetica,sans-Serif" font-size="10.00">CalculateChecksum</text>
</a>
</g>
</g>
<!-- Node2&#45;&gt;Node4 -->
<g id="edge3" class="edge"><title>Node2&#45;&gt;Node4</title>
<path fill="none" stroke="midnightblue" d="M381.634,-29.9801C392.909,-28.6237 404.551,-27.2232 415.95,-25.8519"/>
<polygon fill="midnightblue" stroke="midnightblue" points="416.379,-29.3256 425.889,-24.6562 415.543,-22.3757 416.379,-29.3256"/>
</g>
</g>
</svg>
