<?xml version="1.0" encoding="UTF-8" standalone="no"?>
<!DOCTYPE svg PUBLIC "-//W3C//DTD SVG 1.1//EN"
 "http://www.w3.org/Graphics/SVG/1.1/DTD/svg11.dtd">
<!-- Generated by graphviz version 2.38.0 (20140413.2041)
 -->
<!-- Title: adb.sign_pycryptodome.PycryptodomeAuthSigner Pages: 1 -->
<svg width="194pt" height="151pt"
 viewBox="0.00 0.00 194.00 151.00" xmlns="http://www.w3.org/2000/svg" xmlns:xlink="http://www.w3.org/1999/xlink">
<g id="graph0" class="graph" transform="scale(1 1) rotate(0) translate(4 147)">
<title>adb.sign_pycryptodome.PycryptodomeAuthSigner</title>
<polygon fill="white" stroke="none" points="-4,4 -4,-147 190,-147 190,4 -4,4"/>
<!-- Node1 -->
<g id="node1" class="node"><title>Node1</title>
<polygon fill="#bfbfbf" stroke="black" points="-1.42109e-14,-0.5 -1.42109e-14,-30.5 186,-30.5 186,-0.5 -1.42109e-14,-0.5"/>
<text text-anchor="start" x="8" y="-18.5" font-family="Helvetica,sans-Serif" font-size="10.00">adb.sign_pycryptodome.Pycryptodome</text>
<text text-anchor="middle" x="93" y="-7.5" font-family="Helvetica,sans-Serif" font-size="10.00">AuthSigner</text>
</g>
<!-- Node2 -->
<g id="node2" class="node"><title>Node2</title>
<g id="a_node2"><a xlink:href="classadb_1_1adb__protocol_1_1AuthSigner.xhtml" target="_top" xlink:title="adb.adb_protocol.AuthSigner">
<polygon fill="white" stroke="black" points="22,-67.5 22,-86.5 164,-86.5 164,-67.5 22,-67.5"/>
<text text-anchor="middle" x="93" y="-74.5" font-family="Helvetica,sans-Serif" font-size="10.00">adb.adb_protocol.AuthSigner</text>
</a>
</g>
</g>
<!-- Node2&#45;&gt;Node1 -->
<g id="edge1" class="edge"><title>Node2&#45;&gt;Node1</title>
<path fill="none" stroke="midnightblue" d="M93,-57.2349C93,-48.5864 93,-38.4969 93,-30.523"/>
<polygon fill="midnightblue" stroke="midnightblue" points="89.5001,-57.4751 93,-67.4751 96.5001,-57.4751 89.5001,-57.4751"/>
</g>
<!-- Node3 -->
<g id="node3" class="node"><title>Node3</title>
<polygon fill="white" stroke="#bfbfbf" points="71.5,-123.5 71.5,-142.5 114.5,-142.5 114.5,-123.5 71.5,-123.5"/>
<text text-anchor="middle" x="93" y="-130.5" font-family="Helvetica,sans-Serif" font-size="10.00">object</text>
</g>
<!-- Node3&#45;&gt;Node2 -->
<g id="edge2" class="edge"><title>Node3&#45;&gt;Node2</title>
<path fill="none" stroke="midnightblue" d="M93,-112.805C93,-103.91 93,-93.7798 93,-86.7511"/>
<polygon fill="midnightblue" stroke="midnightblue" points="89.5001,-113.083 93,-123.083 96.5001,-113.083 89.5001,-113.083"/>
</g>
</g>
</svg>
