<?xml version="1.0" encoding="UTF-8" standalone="no"?>
<!DOCTYPE svg PUBLIC "-//W3C//DTD SVG 1.1//EN"
 "http://www.w3.org/Graphics/SVG/1.1/DTD/svg11.dtd">
<!-- Generated by graphviz version 2.38.0 (20140413.2041)
 -->
<!-- Title: adb.fastboot.FastbootProtocol.HandleSimpleResponses Pages: 1 -->
<svg width="720pt" height="88pt"
 viewBox="0.00 0.00 720.00 88.00" xmlns="http://www.w3.org/2000/svg" xmlns:xlink="http://www.w3.org/1999/xlink">
<g id="graph0" class="graph" transform="scale(1 1) rotate(0) translate(4 84)">
<title>adb.fastboot.FastbootProtocol.HandleSimpleResponses</title>
<polygon fill="white" stroke="none" points="-4,4 -4,-84 716,-84 716,4 -4,4"/>
<!-- Node1 -->
<g id="node1" class="node"><title>Node1</title>
<polygon fill="#bfbfbf" stroke="black" points="0,-27.5 0,-57.5 151,-57.5 151,-27.5 0,-27.5"/>
<text text-anchor="start" x="8" y="-45.5" font-family="Helvetica,sans-Serif" font-size="10.00">adb.fastboot.FastbootProtocol.</text>
<text text-anchor="middle" x="75.5" y="-34.5" font-family="Helvetica,sans-Serif" font-size="10.00">HandleSimpleResponses</text>
</g>
<!-- Node2 -->
<g id="node2" class="node"><title>Node2</title>
<g id="a_node2"><a xlink:href="classadb_1_1fastboot_1_1FastbootProtocol.xhtml#a96c5c454c9f618ad163f69e952f551c2" target="_top" xlink:title="adb.fastboot.FastbootProtocol.\l_AcceptResponses">
<polygon fill="white" stroke="black" points="374,-49.5 374,-79.5 525,-79.5 525,-49.5 374,-49.5"/>
<text text-anchor="start" x="382" y="-67.5" font-family="Helvetica,sans-Serif" font-size="10.00">adb.fastboot.FastbootProtocol.</text>
<text text-anchor="middle" x="449.5" y="-56.5" font-family="Helvetica,sans-Serif" font-size="10.00">_AcceptResponses</text>
</a>
</g>
</g>
<!-- Node1&#45;&gt;Node2 -->
<g id="edge1" class="edge"><title>Node1&#45;&gt;Node2</title>
<path fill="none" stroke="midnightblue" d="M151.332,-46.9256C212.757,-50.5582 299.732,-55.7019 363.722,-59.4863"/>
<polygon fill="midnightblue" stroke="midnightblue" points="363.598,-62.9849 373.787,-60.0815 364.011,-55.9972 363.598,-62.9849"/>
</g>
<!-- Node3 -->
<g id="node3" class="node"><title>Node3</title>
<g id="a_node3"><a xlink:href="classadb_1_1fastboot_1_1FastbootProtocol.xhtml#a56d1391c6905fd69174741b781a4e591" target="_top" xlink:title="adb.fastboot.FastbootProtocol.\lHandleDataSending">
<polygon fill="white" stroke="black" points="187,-5.5 187,-35.5 338,-35.5 338,-5.5 187,-5.5"/>
<text text-anchor="start" x="195" y="-23.5" font-family="Helvetica,sans-Serif" font-size="10.00">adb.fastboot.FastbootProtocol.</text>
<text text-anchor="middle" x="262.5" y="-12.5" font-family="Helvetica,sans-Serif" font-size="10.00">HandleDataSending</text>
</a>
</g>
</g>
<!-- Node1&#45;&gt;Node3 -->
<g id="edge2" class="edge"><title>Node1&#45;&gt;Node3</title>
<path fill="none" stroke="midnightblue" d="M151.213,-33.6152C159.646,-32.6123 168.284,-31.5851 176.833,-30.5686"/>
<polygon fill="midnightblue" stroke="midnightblue" points="177.292,-34.0387 186.809,-29.3822 176.465,-27.0877 177.292,-34.0387"/>
</g>
<!-- Node3&#45;&gt;Node2 -->
<g id="edge3" class="edge"><title>Node3&#45;&gt;Node2</title>
<path fill="none" stroke="midnightblue" d="M326.649,-35.5192C342.339,-39.2508 359.285,-43.2814 375.408,-47.116"/>
<polygon fill="midnightblue" stroke="midnightblue" points="374.783,-50.5649 385.322,-49.4738 376.403,-43.7549 374.783,-50.5649"/>
</g>
<!-- Node4 -->
<g id="node4" class="node"><title>Node4</title>
<g id="a_node4"><a xlink:href="classadb_1_1fastboot_1_1FastbootProtocol.xhtml#a71402fb9e36b946908876b7179c0499a" target="_top" xlink:title="adb.fastboot.FastbootProtocol.\l_Write">
<polygon fill="white" stroke="black" points="374,-0.5 374,-30.5 525,-30.5 525,-0.5 374,-0.5"/>
<text text-anchor="start" x="382" y="-18.5" font-family="Helvetica,sans-Serif" font-size="10.00">adb.fastboot.FastbootProtocol.</text>
<text text-anchor="middle" x="449.5" y="-7.5" font-family="Helvetica,sans-Serif" font-size="10.00">_Write</text>
</a>
</g>
</g>
<!-- Node3&#45;&gt;Node4 -->
<g id="edge4" class="edge"><title>Node3&#45;&gt;Node4</title>
<path fill="none" stroke="midnightblue" d="M338.213,-18.4807C346.555,-18.2553 355.097,-18.0244 363.554,-17.7958"/>
<polygon fill="midnightblue" stroke="midnightblue" points="363.907,-21.2877 373.809,-17.5187 363.718,-14.2902 363.907,-21.2877"/>
</g>
<!-- Node5 -->
<g id="node5" class="node"><title>Node5</title>
<g id="a_node5"><a xlink:href="classadb_1_1fastboot_1_1FastbootProtocol.xhtml#ac03a4063e78de6fdc4c636935499eb02" target="_top" xlink:title="adb.fastboot.FastbootProtocol.\l_HandleProgress">
<polygon fill="white" stroke="black" points="561,-0.5 561,-30.5 712,-30.5 712,-0.5 561,-0.5"/>
<text text-anchor="start" x="569" y="-18.5" font-family="Helvetica,sans-Serif" font-size="10.00">adb.fastboot.FastbootProtocol.</text>
<text text-anchor="middle" x="636.5" y="-7.5" font-family="Helvetica,sans-Serif" font-size="10.00">_HandleProgress</text>
</a>
</g>
</g>
<!-- Node4&#45;&gt;Node5 -->
<g id="edge5" class="edge"><title>Node4&#45;&gt;Node5</title>
<path fill="none" stroke="midnightblue" d="M525.213,-15.5C533.555,-15.5 542.097,-15.5 550.554,-15.5"/>
<polygon fill="midnightblue" stroke="midnightblue" points="550.809,-19.0001 560.809,-15.5 550.809,-12.0001 550.809,-19.0001"/>
</g>
</g>
</svg>
