<?xml version="1.0" encoding="UTF-8" standalone="no"?>
<!DOCTYPE svg PUBLIC "-//W3C//DTD SVG 1.1//EN"
 "http://www.w3.org/Graphics/SVG/1.1/DTD/svg11.dtd">
<!-- Generated by graphviz version 2.38.0 (20140413.2041)
 -->
<!-- Title: adb.fastboot.FastbootCommands.Download Pages: 1 -->
<svg width="797pt" height="323pt"
 viewBox="0.00 0.00 797.00 323.00" xmlns="http://www.w3.org/2000/svg" xmlns:xlink="http://www.w3.org/1999/xlink">
<g id="graph0" class="graph" transform="scale(1 1) rotate(0) translate(4 319)">
<title>adb.fastboot.FastbootCommands.Download</title>
<polygon fill="white" stroke="none" points="-4,4 -4,-319 793,-319 793,4 -4,4"/>
<!-- Node1 -->
<g id="node1" class="node"><title>Node1</title>
<polygon fill="#bfbfbf" stroke="black" points="0,-210.5 0,-240.5 165,-240.5 165,-210.5 0,-210.5"/>
<text text-anchor="start" x="8" y="-228.5" font-family="Helvetica,sans-Serif" font-size="10.00">adb.fastboot.FastbootCommands.</text>
<text text-anchor="middle" x="82.5" y="-217.5" font-family="Helvetica,sans-Serif" font-size="10.00">Download</text>
</g>
<!-- Node2 -->
<g id="node2" class="node"><title>Node2</title>
<g id="a_node2"><a xlink:href="classadb_1_1fastboot_1_1FastbootCommands.xhtml#a011e85b1ffc526bcda0808ddffb7f9e3" target="_top" xlink:title="adb.fastboot.FastbootCommands.\lFlashFromFile">
<polygon fill="white" stroke="black" points="201,-210.5 201,-240.5 366,-240.5 366,-210.5 201,-210.5"/>
<text text-anchor="start" x="209" y="-228.5" font-family="Helvetica,sans-Serif" font-size="10.00">adb.fastboot.FastbootCommands.</text>
<text text-anchor="middle" x="283.5" y="-217.5" font-family="Helvetica,sans-Serif" font-size="10.00">FlashFromFile</text>
</a>
</g>
</g>
<!-- Node1&#45;&gt;Node2 -->
<g id="edge1" class="edge"><title>Node1&#45;&gt;Node2</title>
<path fill="none" stroke="midnightblue" d="M175.045,-225.5C183.633,-225.5 192.301,-225.5 200.79,-225.5"/>
<polygon fill="midnightblue" stroke="midnightblue" points="175.015,-222 165.015,-225.5 175.015,-229 175.015,-222"/>
</g>
<!-- Node3 -->
<g id="node3" class="node"><title>Node3</title>
<g id="a_node3"><a xlink:href="classadb_1_1fastboot_1_1FastbootCommands.xhtml#a821780b7fa070da3ee3eb982447b38c8" target="_top" xlink:title="adb.fastboot.FastbootCommands.\l_SimpleCommand">
<polygon fill="white" stroke="black" points="402,-164.5 402,-194.5 567,-194.5 567,-164.5 402,-164.5"/>
<text text-anchor="start" x="410" y="-182.5" font-family="Helvetica,sans-Serif" font-size="10.00">adb.fastboot.FastbootCommands.</text>
<text text-anchor="middle" x="484.5" y="-171.5" font-family="Helvetica,sans-Serif" font-size="10.00">_SimpleCommand</text>
</a>
</g>
</g>
<!-- Node2&#45;&gt;Node3 -->
<g id="edge2" class="edge"><title>Node2&#45;&gt;Node3</title>
<path fill="none" stroke="midnightblue" d="M359.657,-208.127C379.034,-203.648 399.724,-198.865 418.534,-194.517"/>
<polygon fill="midnightblue" stroke="midnightblue" points="358.615,-204.776 349.66,-210.438 360.191,-211.596 358.615,-204.776"/>
</g>
<!-- Node4 -->
<g id="node4" class="node"><title>Node4</title>
<g id="a_node4"><a xlink:href="classadb_1_1fastboot_1_1FastbootCommands.xhtml#a621a92ec5fa925375f0a1dd9be48fcaf" target="_top" xlink:title="adb.fastboot.FastbootCommands.\lFlash">
<polygon fill="white" stroke="black" points="613.5,-284.5 613.5,-314.5 778.5,-314.5 778.5,-284.5 613.5,-284.5"/>
<text text-anchor="start" x="621.5" y="-302.5" font-family="Helvetica,sans-Serif" font-size="10.00">adb.fastboot.FastbootCommands.</text>
<text text-anchor="middle" x="696" y="-291.5" font-family="Helvetica,sans-Serif" font-size="10.00">Flash</text>
</a>
</g>
</g>
<!-- Node3&#45;&gt;Node4 -->
<g id="edge3" class="edge"><title>Node3&#45;&gt;Node4</title>
<path fill="none" stroke="midnightblue" d="M507.234,-201.811C529.427,-223.373 565.809,-255.486 603,-274.5 610.516,-278.343 618.688,-281.646 626.958,-284.474"/>
<polygon fill="midnightblue" stroke="midnightblue" points="509.572,-199.201 499.998,-194.664 504.653,-204.181 509.572,-199.201"/>
</g>
<!-- Node5 -->
<g id="node5" class="node"><title>Node5</title>
<g id="a_node5"><a xlink:href="classadb_1_1fastboot_1_1FastbootCommands.xhtml#ae98daefe59adf63f0b9a45d31fd9aace" target="_top" xlink:title="adb.fastboot.FastbootCommands.\lErase">
<polygon fill="white" stroke="black" points="613.5,-235.5 613.5,-265.5 778.5,-265.5 778.5,-235.5 613.5,-235.5"/>
<text text-anchor="start" x="621.5" y="-253.5" font-family="Helvetica,sans-Serif" font-size="10.00">adb.fastboot.FastbootCommands.</text>
<text text-anchor="middle" x="696" y="-242.5" font-family="Helvetica,sans-Serif" font-size="10.00">Erase</text>
</a>
</g>
</g>
<!-- Node3&#45;&gt;Node5 -->
<g id="edge5" class="edge"><title>Node3&#45;&gt;Node5</title>
<path fill="none" stroke="midnightblue" d="M530.19,-198.306C551.956,-207.128 578.63,-217.445 603,-225.5 613.529,-228.98 624.849,-232.351 635.824,-235.432"/>
<polygon fill="midnightblue" stroke="midnightblue" points="531.455,-195.042 520.874,-194.501 528.808,-201.522 531.455,-195.042"/>
</g>
<!-- Node6 -->
<g id="node6" class="node"><title>Node6</title>
<g id="a_node6"><a xlink:href="classadb_1_1fastboot_1_1FastbootCommands.xhtml#abbe9134624a5d38960628017c8b82dbd" target="_top" xlink:title="adb.fastboot.FastbootCommands.\lGetvar">
<polygon fill="white" stroke="black" points="613.5,-186.5 613.5,-216.5 778.5,-216.5 778.5,-186.5 613.5,-186.5"/>
<text text-anchor="start" x="621.5" y="-204.5" font-family="Helvetica,sans-Serif" font-size="10.00">adb.fastboot.FastbootCommands.</text>
<text text-anchor="middle" x="696" y="-193.5" font-family="Helvetica,sans-Serif" font-size="10.00">Getvar</text>
</a>
</g>
</g>
<!-- Node3&#45;&gt;Node6 -->
<g id="edge6" class="edge"><title>Node3&#45;&gt;Node6</title>
<path fill="none" stroke="midnightblue" d="M577.134,-189.123C589.164,-190.386 601.429,-191.674 613.28,-192.918"/>
<polygon fill="midnightblue" stroke="midnightblue" points="577.409,-185.632 567.098,-188.069 576.678,-192.594 577.409,-185.632"/>
</g>
<!-- Node7 -->
<g id="node7" class="node"><title>Node7</title>
<g id="a_node7"><a xlink:href="classadb_1_1fastboot_1_1FastbootCommands.xhtml#ad8c8eaeeb56ca2ef483bd67c5f7f9176" target="_top" xlink:title="adb.fastboot.FastbootCommands.Oem">
<polygon fill="white" stroke="black" points="603,-148 603,-167 789,-167 789,-148 603,-148"/>
<text text-anchor="middle" x="696" y="-155" font-family="Helvetica,sans-Serif" font-size="10.00">adb.fastboot.FastbootCommands.Oem</text>
</a>
</g>
</g>
<!-- Node3&#45;&gt;Node7 -->
<g id="edge7" class="edge"><title>Node3&#45;&gt;Node7</title>
<path fill="none" stroke="midnightblue" d="M577.172,-169.873C586.157,-168.93 595.272,-167.973 604.248,-167.03"/>
<polygon fill="midnightblue" stroke="midnightblue" points="576.678,-166.406 567.098,-170.931 577.409,-173.368 576.678,-166.406"/>
</g>
<!-- Node8 -->
<g id="node8" class="node"><title>Node8</title>
<g id="a_node8"><a xlink:href="classadb_1_1fastboot_1_1FastbootCommands.xhtml#aaf7cfd47a3a38581b1b2ba258671194a" target="_top" xlink:title="adb.fastboot.FastbootCommands.\lContinue">
<polygon fill="white" stroke="black" points="613.5,-98.5 613.5,-128.5 778.5,-128.5 778.5,-98.5 613.5,-98.5"/>
<text text-anchor="start" x="621.5" y="-116.5" font-family="Helvetica,sans-Serif" font-size="10.00">adb.fastboot.FastbootCommands.</text>
<text text-anchor="middle" x="696" y="-105.5" font-family="Helvetica,sans-Serif" font-size="10.00">Continue</text>
</a>
</g>
</g>
<!-- Node3&#45;&gt;Node8 -->
<g id="edge8" class="edge"><title>Node3&#45;&gt;Node8</title>
<path fill="none" stroke="midnightblue" d="M535.86,-161.053C556.552,-153.703 580.819,-145.374 603,-138.5 613.909,-135.119 625.62,-131.745 636.91,-128.619"/>
<polygon fill="midnightblue" stroke="midnightblue" points="534.56,-157.801 526.321,-164.463 536.916,-164.393 534.56,-157.801"/>
</g>
<!-- Node9 -->
<g id="node9" class="node"><title>Node9</title>
<g id="a_node9"><a xlink:href="classadb_1_1fastboot_1_1FastbootCommands.xhtml#a878c0f4df9a02a78eb292c7a59f2e8d9" target="_top" xlink:title="adb.fastboot.FastbootCommands.\lReboot">
<polygon fill="white" stroke="black" points="613.5,-49.5 613.5,-79.5 778.5,-79.5 778.5,-49.5 613.5,-49.5"/>
<text text-anchor="start" x="621.5" y="-67.5" font-family="Helvetica,sans-Serif" font-size="10.00">adb.fastboot.FastbootCommands.</text>
<text text-anchor="middle" x="696" y="-56.5" font-family="Helvetica,sans-Serif" font-size="10.00">Reboot</text>
</a>
</g>
</g>
<!-- Node3&#45;&gt;Node9 -->
<g id="edge9" class="edge"><title>Node3&#45;&gt;Node9</title>
<path fill="none" stroke="midnightblue" d="M508.13,-157.392C530.492,-136.722 566.548,-106.428 603,-88.5 609.962,-85.0761 617.468,-82.1004 625.085,-79.5238"/>
<polygon fill="midnightblue" stroke="midnightblue" points="505.706,-154.867 500.814,-164.265 510.499,-159.969 505.706,-154.867"/>
</g>
<!-- Node10 -->
<g id="node10" class="node"><title>Node10</title>
<g id="a_node10"><a xlink:href="classadb_1_1fastboot_1_1FastbootCommands.xhtml#a8ca0516e86ee1740e9b5ddce2c65ef9a" target="_top" xlink:title="adb.fastboot.FastbootCommands.\lRebootBootloader">
<polygon fill="white" stroke="black" points="613.5,-0.5 613.5,-30.5 778.5,-30.5 778.5,-0.5 613.5,-0.5"/>
<text text-anchor="start" x="621.5" y="-18.5" font-family="Helvetica,sans-Serif" font-size="10.00">adb.fastboot.FastbootCommands.</text>
<text text-anchor="middle" x="696" y="-7.5" font-family="Helvetica,sans-Serif" font-size="10.00">RebootBootloader</text>
</a>
</g>
</g>
<!-- Node3&#45;&gt;Node10 -->
<g id="edge10" class="edge"><title>Node3&#45;&gt;Node10</title>
<path fill="none" stroke="midnightblue" d="M499.281,-155.185C518.432,-123.645 556.091,-69.1628 603,-39.5 608.441,-36.0593 614.359,-33.11 620.484,-30.5821"/>
<polygon fill="midnightblue" stroke="midnightblue" points="496.034,-153.798 493.941,-164.184 502.054,-157.37 496.034,-153.798"/>
</g>
<!-- Node4&#45;&gt;Node2 -->
<g id="edge4" class="edge"><title>Node4&#45;&gt;Node2</title>
<path fill="none" stroke="midnightblue" d="M603.357,-282.98C532.233,-270.158 434.538,-252.547 366.092,-240.208"/>
<polygon fill="midnightblue" stroke="midnightblue" points="602.749,-286.426 613.211,-284.756 603.991,-279.537 602.749,-286.426"/>
</g>
</g>
</svg>
