<?xml version="1.0" encoding="UTF-8" standalone="no"?>
<!DOCTYPE svg PUBLIC "-//W3C//DTD SVG 1.1//EN"
 "http://www.w3.org/Graphics/SVG/1.1/DTD/svg11.dtd">
<!-- Generated by graphviz version 2.38.0 (20140413.2041)
 -->
<!-- Title: adb.adb_commands.AdbCommands.Push Pages: 1 -->
<svg width="422pt" height="52pt"
 viewBox="0.00 0.00 422.00 51.50" xmlns="http://www.w3.org/2000/svg" xmlns:xlink="http://www.w3.org/1999/xlink">
<g id="graph0" class="graph" transform="scale(1 1) rotate(0) translate(4 47.5)">
<title>adb.adb_commands.AdbCommands.Push</title>
<polygon fill="white" stroke="none" points="-4,4 -4,-47.5 418,-47.5 418,4 -4,4"/>
<!-- Node1 -->
<g id="node1" class="node"><title>Node1</title>
<polygon fill="#bfbfbf" stroke="black" points="0,-6 0,-25 200,-25 200,-6 0,-6"/>
<text text-anchor="middle" x="100" y="-13" font-family="Helvetica,sans-Serif" font-size="10.00">adb.adb_commands.AdbCommands.Push</text>
</g>
<!-- Node1&#45;&gt;Node1 -->
<g id="edge2" class="edge"><title>Node1&#45;&gt;Node1</title>
<path fill="none" stroke="midnightblue" d="M65.7545,-25.1119C48.5536,-33.9613 59.9688,-43.5 100,-43.5 130.023,-43.5 143.95,-38.1345 141.781,-31.7184"/>
<polygon fill="midnightblue" stroke="midnightblue" points="144.072,-29.0727 134.245,-25.1119 139.457,-34.3362 144.072,-29.0727"/>
</g>
<!-- Node2 -->
<g id="node2" class="node"><title>Node2</title>
<g id="a_node2"><a xlink:href="classadb_1_1adb__commands_1_1AdbCommands.xhtml#aa495aaa8320b21e5e308a60b5bbbfc63" target="_top" xlink:title="adb.adb_commands.AdbCommands.\lShell">
<polygon fill="white" stroke="black" points="236,-0.5 236,-30.5 414,-30.5 414,-0.5 236,-0.5"/>
<text text-anchor="start" x="244" y="-18.5" font-family="Helvetica,sans-Serif" font-size="10.00">adb.adb_commands.AdbCommands.</text>
<text text-anchor="middle" x="325" y="-7.5" font-family="Helvetica,sans-Serif" font-size="10.00">Shell</text>
</a>
</g>
</g>
<!-- Node1&#45;&gt;Node2 -->
<g id="edge1" class="edge"><title>Node1&#45;&gt;Node2</title>
<path fill="none" stroke="midnightblue" d="M200.11,-15.5C208.545,-15.5 217.076,-15.5 225.507,-15.5"/>
<polygon fill="midnightblue" stroke="midnightblue" points="225.727,-19.0001 235.727,-15.5 225.727,-12.0001 225.727,-19.0001"/>
</g>
</g>
</svg>
