<?xml version="1.0" encoding="UTF-8" standalone="no"?>
<!DOCTYPE svg PUBLIC "-//W3C//DTD SVG 1.1//EN"
 "http://www.w3.org/Graphics/SVG/1.1/DTD/svg11.dtd">
<!-- Generated by graphviz version 2.38.0 (20140413.2041)
 -->
<!-- Title: adb.common.UsbHandle.SerialMatcher Pages: 1 -->
<svg width="524pt" height="39pt"
 viewBox="0.00 0.00 524.00 39.00" xmlns="http://www.w3.org/2000/svg" xmlns:xlink="http://www.w3.org/1999/xlink">
<g id="graph0" class="graph" transform="scale(1 1) rotate(0) translate(4 35)">
<title>adb.common.UsbHandle.SerialMatcher</title>
<polygon fill="white" stroke="none" points="-4,4 -4,-35 520,-35 520,4 -4,4"/>
<!-- Node1 -->
<g id="node1" class="node"><title>Node1</title>
<polygon fill="#bfbfbf" stroke="black" points="0,-0.5 0,-30.5 152,-30.5 152,-0.5 0,-0.5"/>
<text text-anchor="start" x="8" y="-18.5" font-family="Helvetica,sans-Serif" font-size="10.00">adb.common.UsbHandle.Serial</text>
<text text-anchor="middle" x="76" y="-7.5" font-family="Helvetica,sans-Serif" font-size="10.00">Matcher</text>
</g>
<!-- Node2 -->
<g id="node2" class="node"><title>Node2</title>
<g id="a_node2"><a xlink:href="classadb_1_1common_1_1UsbHandle.xhtml#a22f17ee4faf2e43f5171ceb104405ff3" target="_top" xlink:title="adb.common.UsbHandle.Find">
<polygon fill="white" stroke="black" points="188,-6 188,-25 334,-25 334,-6 188,-6"/>
<text text-anchor="middle" x="261" y="-13" font-family="Helvetica,sans-Serif" font-size="10.00">adb.common.UsbHandle.Find</text>
</a>
</g>
</g>
<!-- Node1&#45;&gt;Node2 -->
<g id="edge1" class="edge"><title>Node1&#45;&gt;Node2</title>
<path fill="none" stroke="midnightblue" d="M162.472,-15.5C170.915,-15.5 179.428,-15.5 187.72,-15.5"/>
<polygon fill="midnightblue" stroke="midnightblue" points="162.225,-12.0001 152.225,-15.5 162.225,-19.0001 162.225,-12.0001"/>
</g>
<!-- Node3 -->
<g id="node3" class="node"><title>Node3</title>
<g id="a_node3"><a xlink:href="classadb_1_1common_1_1UsbHandle.xhtml#a23d22bc155db86b2f3bf7ccbc4a6adef" target="_top" xlink:title="adb.common.UsbHandle.Find\lAndOpen">
<polygon fill="white" stroke="black" points="370,-0.5 370,-30.5 516,-30.5 516,-0.5 370,-0.5"/>
<text text-anchor="start" x="378" y="-18.5" font-family="Helvetica,sans-Serif" font-size="10.00">adb.common.UsbHandle.Find</text>
<text text-anchor="middle" x="443" y="-7.5" font-family="Helvetica,sans-Serif" font-size="10.00">AndOpen</text>
</a>
</g>
</g>
<!-- Node2&#45;&gt;Node3 -->
<g id="edge2" class="edge"><title>Node2&#45;&gt;Node3</title>
<path fill="none" stroke="midnightblue" d="M344.439,-15.5C352.906,-15.5 361.464,-15.5 369.808,-15.5"/>
<polygon fill="midnightblue" stroke="midnightblue" points="344.176,-12.0001 334.176,-15.5 344.176,-19.0001 344.176,-12.0001"/>
</g>
</g>
</svg>
