<?xml version="1.0" encoding="UTF-8" standalone="no"?>
<!DOCTYPE svg PUBLIC "-//W3C//DTD SVG 1.1//EN"
 "http://www.w3.org/Graphics/SVG/1.1/DTD/svg11.dtd">
<!-- Generated by graphviz version 2.38.0 (20140413.2041)
 -->
<!-- Title: adb.common.UsbHandle.FindDevices Pages: 1 -->
<svg width="700pt" height="39pt"
 viewBox="0.00 0.00 700.00 39.00" xmlns="http://www.w3.org/2000/svg" xmlns:xlink="http://www.w3.org/1999/xlink">
<g id="graph0" class="graph" transform="scale(1 1) rotate(0) translate(4 35)">
<title>adb.common.UsbHandle.FindDevices</title>
<polygon fill="white" stroke="none" points="-4,4 -4,-35 696,-35 696,4 -4,4"/>
<!-- Node1 -->
<g id="node1" class="node"><title>Node1</title>
<polygon fill="#bfbfbf" stroke="black" points="0,-0.5 0,-30.5 146,-30.5 146,-0.5 0,-0.5"/>
<text text-anchor="start" x="8" y="-18.5" font-family="Helvetica,sans-Serif" font-size="10.00">adb.common.UsbHandle.Find</text>
<text text-anchor="middle" x="73" y="-7.5" font-family="Helvetica,sans-Serif" font-size="10.00">Devices</text>
</g>
<!-- Node2 -->
<g id="node2" class="node"><title>Node2</title>
<g id="a_node2"><a xlink:href="classadb_1_1common_1_1UsbHandle.xhtml#adbb1f5a37322ab8165ceb3dbbbf3175f" target="_top" xlink:title="adb.common.UsbHandle.Find\lFirst">
<polygon fill="white" stroke="black" points="182,-0.5 182,-30.5 328,-30.5 328,-0.5 182,-0.5"/>
<text text-anchor="start" x="190" y="-18.5" font-family="Helvetica,sans-Serif" font-size="10.00">adb.common.UsbHandle.Find</text>
<text text-anchor="middle" x="255" y="-7.5" font-family="Helvetica,sans-Serif" font-size="10.00">First</text>
</a>
</g>
</g>
<!-- Node1&#45;&gt;Node2 -->
<g id="edge1" class="edge"><title>Node1&#45;&gt;Node2</title>
<path fill="none" stroke="midnightblue" d="M156.439,-15.5C164.906,-15.5 173.464,-15.5 181.808,-15.5"/>
<polygon fill="midnightblue" stroke="midnightblue" points="156.176,-12.0001 146.176,-15.5 156.176,-19.0001 156.176,-12.0001"/>
</g>
<!-- Node3 -->
<g id="node3" class="node"><title>Node3</title>
<g id="a_node3"><a xlink:href="classadb_1_1common_1_1UsbHandle.xhtml#a22f17ee4faf2e43f5171ceb104405ff3" target="_top" xlink:title="adb.common.UsbHandle.Find">
<polygon fill="white" stroke="black" points="364,-6 364,-25 510,-25 510,-6 364,-6"/>
<text text-anchor="middle" x="437" y="-13" font-family="Helvetica,sans-Serif" font-size="10.00">adb.common.UsbHandle.Find</text>
</a>
</g>
</g>
<!-- Node2&#45;&gt;Node3 -->
<g id="edge2" class="edge"><title>Node2&#45;&gt;Node3</title>
<path fill="none" stroke="midnightblue" d="M338.439,-15.5C346.906,-15.5 355.464,-15.5 363.808,-15.5"/>
<polygon fill="midnightblue" stroke="midnightblue" points="338.176,-12.0001 328.176,-15.5 338.176,-19.0001 338.176,-12.0001"/>
</g>
<!-- Node4 -->
<g id="node4" class="node"><title>Node4</title>
<g id="a_node4"><a xlink:href="classadb_1_1common_1_1UsbHandle.xhtml#a23d22bc155db86b2f3bf7ccbc4a6adef" target="_top" xlink:title="adb.common.UsbHandle.Find\lAndOpen">
<polygon fill="white" stroke="black" points="546,-0.5 546,-30.5 692,-30.5 692,-0.5 546,-0.5"/>
<text text-anchor="start" x="554" y="-18.5" font-family="Helvetica,sans-Serif" font-size="10.00">adb.common.UsbHandle.Find</text>
<text text-anchor="middle" x="619" y="-7.5" font-family="Helvetica,sans-Serif" font-size="10.00">AndOpen</text>
</a>
</g>
</g>
<!-- Node3&#45;&gt;Node4 -->
<g id="edge3" class="edge"><title>Node3&#45;&gt;Node4</title>
<path fill="none" stroke="midnightblue" d="M520.439,-15.5C528.906,-15.5 537.464,-15.5 545.808,-15.5"/>
<polygon fill="midnightblue" stroke="midnightblue" points="520.176,-12.0001 510.176,-15.5 520.176,-19.0001 520.176,-12.0001"/>
</g>
</g>
</svg>
