<?xml version="1.0" encoding="UTF-8" standalone="no"?>
<!DOCTYPE svg PUBLIC "-//W3C//DTD SVG 1.1//EN"
 "http://www.w3.org/Graphics/SVG/1.1/DTD/svg11.dtd">
<!-- Generated by graphviz version 2.38.0 (20140413.2041)
 -->
<!-- Title: adb.usb_exceptions.LibusbWrappingError Pages: 1 -->
<svg width="312pt" height="229pt"
 viewBox="0.00 0.00 312.00 229.00" xmlns="http://www.w3.org/2000/svg" xmlns:xlink="http://www.w3.org/1999/xlink">
<g id="graph0" class="graph" transform="scale(1 1) rotate(0) translate(4 225)">
<title>adb.usb_exceptions.LibusbWrappingError</title>
<polygon fill="white" stroke="none" points="-4,4 -4,-225 308,-225 308,4 -4,4"/>
<!-- Node1 -->
<g id="node1" class="node"><title>Node1</title>
<polygon fill="#bfbfbf" stroke="black" points="90.5,-67.5 90.5,-97.5 225.5,-97.5 225.5,-67.5 90.5,-67.5"/>
<text text-anchor="start" x="98.5" y="-85.5" font-family="Helvetica,sans-Serif" font-size="10.00">adb.usb_exceptions.Libusb</text>
<text text-anchor="middle" x="158" y="-74.5" font-family="Helvetica,sans-Serif" font-size="10.00">WrappingError</text>
</g>
<!-- Node4 -->
<g id="node4" class="node"><title>Node4</title>
<g id="a_node4"><a xlink:href="classadb_1_1usb__exceptions_1_1ReadFailedError.xhtml" target="_top" xlink:title="adb.usb_exceptions.ReadFailed\lError">
<polygon fill="white" stroke="black" points="0,-0.5 0,-30.5 156,-30.5 156,-0.5 0,-0.5"/>
<text text-anchor="start" x="8" y="-18.5" font-family="Helvetica,sans-Serif" font-size="10.00">adb.usb_exceptions.ReadFailed</text>
<text text-anchor="middle" x="78" y="-7.5" font-family="Helvetica,sans-Serif" font-size="10.00">Error</text>
</a>
</g>
</g>
<!-- Node1&#45;&gt;Node4 -->
<g id="edge3" class="edge"><title>Node1&#45;&gt;Node4</title>
<path fill="none" stroke="midnightblue" d="M132.625,-60.8832C120.468,-51.0054 106.221,-39.4293 95.3249,-30.5765"/>
<polygon fill="midnightblue" stroke="midnightblue" points="130.673,-63.8064 140.641,-67.396 135.087,-58.3736 130.673,-63.8064"/>
</g>
<!-- Node5 -->
<g id="node5" class="node"><title>Node5</title>
<g id="a_node5"><a xlink:href="classadb_1_1usb__exceptions_1_1WriteFailedError.xhtml" target="_top" xlink:title="adb.usb_exceptions.Write\lFailedError">
<polygon fill="white" stroke="black" points="174,-0.5 174,-30.5 304,-30.5 304,-0.5 174,-0.5"/>
<text text-anchor="start" x="182" y="-18.5" font-family="Helvetica,sans-Serif" font-size="10.00">adb.usb_exceptions.Write</text>
<text text-anchor="middle" x="239" y="-7.5" font-family="Helvetica,sans-Serif" font-size="10.00">FailedError</text>
</a>
</g>
</g>
<!-- Node1&#45;&gt;Node5 -->
<g id="edge4" class="edge"><title>Node1&#45;&gt;Node5</title>
<path fill="none" stroke="midnightblue" d="M183.692,-60.8832C196.001,-51.0054 210.427,-39.4293 221.459,-30.5765"/>
<polygon fill="midnightblue" stroke="midnightblue" points="181.185,-58.4075 175.576,-67.396 185.566,-63.867 181.185,-58.4075"/>
</g>
<!-- Node2 -->
<g id="node2" class="node"><title>Node2</title>
<g id="a_node2"><a xlink:href="classadb_1_1usb__exceptions_1_1CommonUsbError.xhtml" target="_top" xlink:title="adb.usb_exceptions.Common\lUsbError">
<polygon fill="white" stroke="black" points="85,-134.5 85,-164.5 231,-164.5 231,-134.5 85,-134.5"/>
<text text-anchor="start" x="93" y="-152.5" font-family="Helvetica,sans-Serif" font-size="10.00">adb.usb_exceptions.Common</text>
<text text-anchor="middle" x="158" y="-141.5" font-family="Helvetica,sans-Serif" font-size="10.00">UsbError</text>
</a>
</g>
</g>
<!-- Node2&#45;&gt;Node1 -->
<g id="edge1" class="edge"><title>Node2&#45;&gt;Node1</title>
<path fill="none" stroke="midnightblue" d="M158,-124.108C158,-115.154 158,-105.323 158,-97.5765"/>
<polygon fill="midnightblue" stroke="midnightblue" points="154.5,-124.396 158,-134.396 161.5,-124.396 154.5,-124.396"/>
</g>
<!-- Node3 -->
<g id="node3" class="node"><title>Node3</title>
<polygon fill="white" stroke="#bfbfbf" points="128,-201.5 128,-220.5 188,-220.5 188,-201.5 128,-201.5"/>
<text text-anchor="middle" x="158" y="-208.5" font-family="Helvetica,sans-Serif" font-size="10.00">Exception</text>
</g>
<!-- Node3&#45;&gt;Node2 -->
<g id="edge2" class="edge"><title>Node3&#45;&gt;Node2</title>
<path fill="none" stroke="midnightblue" d="M158,-191.235C158,-182.586 158,-172.497 158,-164.523"/>
<polygon fill="midnightblue" stroke="midnightblue" points="154.5,-191.475 158,-201.475 161.5,-191.475 154.5,-191.475"/>
</g>
</g>
</svg>
