<?xml version="1.0" encoding="UTF-8" standalone="no"?>
<!DOCTYPE svg PUBLIC "-//W3C//DTD SVG 1.1//EN"
 "http://www.w3.org/Graphics/SVG/1.1/DTD/svg11.dtd">
<!-- Generated by graphviz version 2.38.0 (20140413.2041)
 -->
<!-- Title: adb.adb_protocol.AuthSigner Pages: 1 -->
<svg width="451pt" height="137pt"
 viewBox="0.00 0.00 451.00 137.00" xmlns="http://www.w3.org/2000/svg" xmlns:xlink="http://www.w3.org/1999/xlink">
<g id="graph0" class="graph" transform="scale(1 1) rotate(0) translate(4 133)">
<title>adb.adb_protocol.AuthSigner</title>
<polygon fill="white" stroke="none" points="-4,4 -4,-133 447,-133 447,4 -4,4"/>
<!-- Node1 -->
<g id="node1" class="node"><title>Node1</title>
<polygon fill="#bfbfbf" stroke="black" points="79,-55 79,-74 221,-74 221,-55 79,-55"/>
<text text-anchor="middle" x="150" y="-62" font-family="Helvetica,sans-Serif" font-size="10.00">adb.adb_protocol.AuthSigner</text>
</g>
<!-- Node3 -->
<g id="node3" class="node"><title>Node3</title>
<g id="a_node3"><a xlink:href="classadb_1_1sign__cryptography_1_1CryptographySigner.xhtml" target="_top" xlink:title="adb.sign_cryptography.Cryptography\lSigner">
<polygon fill="white" stroke="black" points="262,-98.5 262,-128.5 438,-128.5 438,-98.5 262,-98.5"/>
<text text-anchor="start" x="270" y="-116.5" font-family="Helvetica,sans-Serif" font-size="10.00">adb.sign_cryptography.Cryptography</text>
<text text-anchor="middle" x="350" y="-105.5" font-family="Helvetica,sans-Serif" font-size="10.00">Signer</text>
</a>
</g>
</g>
<!-- Node1&#45;&gt;Node3 -->
<g id="edge2" class="edge"><title>Node1&#45;&gt;Node3</title>
<path fill="none" stroke="midnightblue" d="M199.547,-76.5142C226.301,-83.135 259.763,-91.4161 288.238,-98.463"/>
<polygon fill="midnightblue" stroke="midnightblue" points="200.194,-73.0689 189.646,-74.064 198.513,-79.8639 200.194,-73.0689"/>
</g>
<!-- Node4 -->
<g id="node4" class="node"><title>Node4</title>
<g id="a_node4"><a xlink:href="classadb_1_1sign__pycryptodome_1_1PycryptodomeAuthSigner.xhtml" target="_top" xlink:title="adb.sign_pycryptodome.Pycryptodome\lAuthSigner">
<polygon fill="white" stroke="black" points="257,-49.5 257,-79.5 443,-79.5 443,-49.5 257,-49.5"/>
<text text-anchor="start" x="265" y="-67.5" font-family="Helvetica,sans-Serif" font-size="10.00">adb.sign_pycryptodome.Pycryptodome</text>
<text text-anchor="middle" x="350" y="-56.5" font-family="Helvetica,sans-Serif" font-size="10.00">AuthSigner</text>
</a>
</g>
</g>
<!-- Node1&#45;&gt;Node4 -->
<g id="edge3" class="edge"><title>Node1&#45;&gt;Node4</title>
<path fill="none" stroke="midnightblue" d="M231.247,-64.5C239.667,-64.5 248.275,-64.5 256.816,-64.5"/>
<polygon fill="midnightblue" stroke="midnightblue" points="231.086,-61.0001 221.086,-64.5 231.086,-68.0001 231.086,-61.0001"/>
</g>
<!-- Node5 -->
<g id="node5" class="node"><title>Node5</title>
<g id="a_node5"><a xlink:href="classadb_1_1sign__pythonrsa_1_1PythonRSASigner.xhtml" target="_top" xlink:title="adb.sign_pythonrsa.Python\lRSASigner">
<polygon fill="white" stroke="black" points="282.5,-0.5 282.5,-30.5 417.5,-30.5 417.5,-0.5 282.5,-0.5"/>
<text text-anchor="start" x="290.5" y="-18.5" font-family="Helvetica,sans-Serif" font-size="10.00">adb.sign_pythonrsa.Python</text>
<text text-anchor="middle" x="350" y="-7.5" font-family="Helvetica,sans-Serif" font-size="10.00">RSASigner</text>
</a>
</g>
</g>
<!-- Node1&#45;&gt;Node5 -->
<g id="edge4" class="edge"><title>Node1&#45;&gt;Node5</title>
<path fill="none" stroke="midnightblue" d="M199.547,-52.4858C226.301,-45.865 259.763,-37.5839 288.238,-30.537"/>
<polygon fill="midnightblue" stroke="midnightblue" points="198.513,-49.1361 189.646,-54.936 200.194,-55.9311 198.513,-49.1361"/>
</g>
<!-- Node2 -->
<g id="node2" class="node"><title>Node2</title>
<polygon fill="white" stroke="#bfbfbf" points="0,-55 0,-74 43,-74 43,-55 0,-55"/>
<text text-anchor="middle" x="21.5" y="-62" font-family="Helvetica,sans-Serif" font-size="10.00">object</text>
</g>
<!-- Node2&#45;&gt;Node1 -->
<g id="edge1" class="edge"><title>Node2&#45;&gt;Node1</title>
<path fill="none" stroke="midnightblue" d="M53.2041,-64.5C61.0809,-64.5 69.8834,-64.5 78.8733,-64.5"/>
<polygon fill="midnightblue" stroke="midnightblue" points="53.106,-61.0001 43.106,-64.5 53.1059,-68.0001 53.106,-61.0001"/>
</g>
</g>
</svg>
