<?xml version="1.0" encoding="UTF-8" standalone="no"?>
<!DOCTYPE svg PUBLIC "-//W3C//DTD SVG 1.1//EN"
 "http://www.w3.org/Graphics/SVG/1.1/DTD/svg11.dtd">
<!-- Generated by graphviz version 2.38.0 (20140413.2041)
 -->
<!-- Title: adb.fastboot.FastbootProtocol.SendCommand Pages: 1 -->
<svg width="533pt" height="39pt"
 viewBox="0.00 0.00 533.00 39.00" xmlns="http://www.w3.org/2000/svg" xmlns:xlink="http://www.w3.org/1999/xlink">
<g id="graph0" class="graph" transform="scale(1 1) rotate(0) translate(4 35)">
<title>adb.fastboot.FastbootProtocol.SendCommand</title>
<polygon fill="white" stroke="none" points="-4,4 -4,-35 529,-35 529,4 -4,4"/>
<!-- Node1 -->
<g id="node1" class="node"><title>Node1</title>
<polygon fill="#bfbfbf" stroke="black" points="0,-0.5 0,-30.5 151,-30.5 151,-0.5 0,-0.5"/>
<text text-anchor="start" x="8" y="-18.5" font-family="Helvetica,sans-Serif" font-size="10.00">adb.fastboot.FastbootProtocol.</text>
<text text-anchor="middle" x="75.5" y="-7.5" font-family="Helvetica,sans-Serif" font-size="10.00">SendCommand</text>
</g>
<!-- Node2 -->
<g id="node2" class="node"><title>Node2</title>
<g id="a_node2"><a xlink:href="classadb_1_1fastboot_1_1FastbootProtocol.xhtml#a71402fb9e36b946908876b7179c0499a" target="_top" xlink:title="adb.fastboot.FastbootProtocol.\l_Write">
<polygon fill="white" stroke="black" points="187,-0.5 187,-30.5 338,-30.5 338,-0.5 187,-0.5"/>
<text text-anchor="start" x="195" y="-18.5" font-family="Helvetica,sans-Serif" font-size="10.00">adb.fastboot.FastbootProtocol.</text>
<text text-anchor="middle" x="262.5" y="-7.5" font-family="Helvetica,sans-Serif" font-size="10.00">_Write</text>
</a>
</g>
</g>
<!-- Node1&#45;&gt;Node2 -->
<g id="edge1" class="edge"><title>Node1&#45;&gt;Node2</title>
<path fill="none" stroke="midnightblue" d="M151.213,-15.5C159.555,-15.5 168.097,-15.5 176.554,-15.5"/>
<polygon fill="midnightblue" stroke="midnightblue" points="176.809,-19.0001 186.809,-15.5 176.809,-12.0001 176.809,-19.0001"/>
</g>
<!-- Node3 -->
<g id="node3" class="node"><title>Node3</title>
<g id="a_node3"><a xlink:href="classadb_1_1fastboot_1_1FastbootProtocol.xhtml#ac03a4063e78de6fdc4c636935499eb02" target="_top" xlink:title="adb.fastboot.FastbootProtocol.\l_HandleProgress">
<polygon fill="white" stroke="black" points="374,-0.5 374,-30.5 525,-30.5 525,-0.5 374,-0.5"/>
<text text-anchor="start" x="382" y="-18.5" font-family="Helvetica,sans-Serif" font-size="10.00">adb.fastboot.FastbootProtocol.</text>
<text text-anchor="middle" x="449.5" y="-7.5" font-family="Helvetica,sans-Serif" font-size="10.00">_HandleProgress</text>
</a>
</g>
</g>
<!-- Node2&#45;&gt;Node3 -->
<g id="edge2" class="edge"><title>Node2&#45;&gt;Node3</title>
<path fill="none" stroke="midnightblue" d="M338.213,-15.5C346.555,-15.5 355.097,-15.5 363.554,-15.5"/>
<polygon fill="midnightblue" stroke="midnightblue" points="363.809,-19.0001 373.809,-15.5 363.809,-12.0001 363.809,-19.0001"/>
</g>
</g>
</svg>
