<?xml version="1.0" encoding="UTF-8" standalone="no"?>
<!DOCTYPE svg PUBLIC "-//W3C//DTD SVG 1.1//EN"
 "http://www.w3.org/Graphics/SVG/1.1/DTD/svg11.dtd">
<!-- Generated by graphviz version 2.38.0 (20140413.2041)
 -->
<!-- Title: adb.usb_exceptions.FormatMessageWithArgumentsException Pages: 1 -->
<svg width="175pt" height="162pt"
 viewBox="0.00 0.00 175.00 162.00" xmlns="http://www.w3.org/2000/svg" xmlns:xlink="http://www.w3.org/1999/xlink">
<g id="graph0" class="graph" transform="scale(1 1) rotate(0) translate(4 158)">
<title>adb.usb_exceptions.FormatMessageWithArgumentsException</title>
<polygon fill="white" stroke="none" points="-4,4 -4,-158 171,-158 171,4 -4,4"/>
<!-- Node1 -->
<g id="node1" class="node"><title>Node1</title>
<polygon fill="#bfbfbf" stroke="black" points="-1.42109e-14,-0.5 -1.42109e-14,-30.5 167,-30.5 167,-0.5 -1.42109e-14,-0.5"/>
<text text-anchor="start" x="8" y="-18.5" font-family="Helvetica,sans-Serif" font-size="10.00">adb.usb_exceptions.Format</text>
<text text-anchor="middle" x="83.5" y="-7.5" font-family="Helvetica,sans-Serif" font-size="10.00">MessageWithArgumentsException</text>
</g>
<!-- Node2 -->
<g id="node2" class="node"><title>Node2</title>
<g id="a_node2"><a xlink:href="classadb_1_1usb__exceptions_1_1CommonUsbError.xhtml" target="_top" xlink:title="adb.usb_exceptions.Common\lUsbError">
<polygon fill="white" stroke="black" points="10.5,-67.5 10.5,-97.5 156.5,-97.5 156.5,-67.5 10.5,-67.5"/>
<text text-anchor="start" x="18.5" y="-85.5" font-family="Helvetica,sans-Serif" font-size="10.00">adb.usb_exceptions.Common</text>
<text text-anchor="middle" x="83.5" y="-74.5" font-family="Helvetica,sans-Serif" font-size="10.00">UsbError</text>
</a>
</g>
</g>
<!-- Node2&#45;&gt;Node1 -->
<g id="edge1" class="edge"><title>Node2&#45;&gt;Node1</title>
<path fill="none" stroke="midnightblue" d="M83.5,-57.1081C83.5,-48.1539 83.5,-38.3227 83.5,-30.5765"/>
<polygon fill="midnightblue" stroke="midnightblue" points="80.0001,-57.3959 83.5,-67.396 87.0001,-57.396 80.0001,-57.3959"/>
</g>
<!-- Node3 -->
<g id="node3" class="node"><title>Node3</title>
<polygon fill="white" stroke="#bfbfbf" points="53.5,-134.5 53.5,-153.5 113.5,-153.5 113.5,-134.5 53.5,-134.5"/>
<text text-anchor="middle" x="83.5" y="-141.5" font-family="Helvetica,sans-Serif" font-size="10.00">Exception</text>
</g>
<!-- Node3&#45;&gt;Node2 -->
<g id="edge2" class="edge"><title>Node3&#45;&gt;Node2</title>
<path fill="none" stroke="midnightblue" d="M83.5,-124.235C83.5,-115.586 83.5,-105.497 83.5,-97.523"/>
<polygon fill="midnightblue" stroke="midnightblue" points="80.0001,-124.475 83.5,-134.475 87.0001,-124.475 80.0001,-124.475"/>
</g>
</g>
</svg>
