<?xml version="1.0" encoding="UTF-8" standalone="no"?>
<!DOCTYPE svg PUBLIC "-//W3C//DTD SVG 1.1//EN"
 "http://www.w3.org/Graphics/SVG/1.1/DTD/svg11.dtd">
<!-- Generated by graphviz version 2.38.0 (20140413.2041)
 -->
<!-- Title: adb.filesync_protocol.FilesyncProtocol._HandleProgress Pages: 1 -->
<svg width="342pt" height="88pt"
 viewBox="0.00 0.00 342.00 88.00" xmlns="http://www.w3.org/2000/svg" xmlns:xlink="http://www.w3.org/1999/xlink">
<g id="graph0" class="graph" transform="scale(1 1) rotate(0) translate(4 84)">
<title>adb.filesync_protocol.FilesyncProtocol._HandleProgress</title>
<polygon fill="white" stroke="none" points="-4,4 -4,-84 338,-84 338,4 -4,4"/>
<!-- Node1 -->
<g id="node1" class="node"><title>Node1</title>
<polygon fill="#bfbfbf" stroke="black" points="0,-0.5 0,-30.5 149,-30.5 149,-0.5 0,-0.5"/>
<text text-anchor="start" x="8" y="-18.5" font-family="Helvetica,sans-Serif" font-size="10.00">adb.filesync_protocol.Filesync</text>
<text text-anchor="middle" x="74.5" y="-7.5" font-family="Helvetica,sans-Serif" font-size="10.00">Protocol._HandleProgress</text>
</g>
<!-- Node2 -->
<g id="node2" class="node"><title>Node2</title>
<g id="a_node2"><a xlink:href="classadb_1_1filesync__protocol_1_1FilesyncProtocol.xhtml#abcc6bbd810c790c2f44533b1870a80d2" target="_top" xlink:title="adb.filesync_protocol.Filesync\lProtocol.Pull">
<polygon fill="white" stroke="black" points="185,-49.5 185,-79.5 334,-79.5 334,-49.5 185,-49.5"/>
<text text-anchor="start" x="193" y="-67.5" font-family="Helvetica,sans-Serif" font-size="10.00">adb.filesync_protocol.Filesync</text>
<text text-anchor="middle" x="259.5" y="-56.5" font-family="Helvetica,sans-Serif" font-size="10.00">Protocol.Pull</text>
</a>
</g>
</g>
<!-- Node1&#45;&gt;Node2 -->
<g id="edge1" class="edge"><title>Node1&#45;&gt;Node2</title>
<path fill="none" stroke="midnightblue" d="M141.785,-33.2485C161.619,-38.5591 183.167,-44.3288 202.287,-49.4484"/>
<polygon fill="midnightblue" stroke="midnightblue" points="142.464,-29.8071 131.899,-30.6014 140.654,-36.5689 142.464,-29.8071"/>
</g>
<!-- Node3 -->
<g id="node3" class="node"><title>Node3</title>
<g id="a_node3"><a xlink:href="classadb_1_1filesync__protocol_1_1FilesyncProtocol.xhtml#a401144725c14adfae4c52a01b54c9323" target="_top" xlink:title="adb.filesync_protocol.Filesync\lProtocol.Push">
<polygon fill="white" stroke="black" points="185,-0.5 185,-30.5 334,-30.5 334,-0.5 185,-0.5"/>
<text text-anchor="start" x="193" y="-18.5" font-family="Helvetica,sans-Serif" font-size="10.00">adb.filesync_protocol.Filesync</text>
<text text-anchor="middle" x="259.5" y="-7.5" font-family="Helvetica,sans-Serif" font-size="10.00">Protocol.Push</text>
</a>
</g>
</g>
<!-- Node1&#45;&gt;Node3 -->
<g id="edge2" class="edge"><title>Node1&#45;&gt;Node3</title>
<path fill="none" stroke="midnightblue" d="M159.387,-8.77081C167.838,-8.72451 176.376,-8.75547 184.711,-8.86367"/>
<polygon fill="midnightblue" stroke="midnightblue" points="159.109,-5.27314 149.142,-8.86559 159.174,-12.2728 159.109,-5.27314"/>
</g>
<!-- Node3&#45;&gt;Node1 -->
<g id="edge3" class="edge"><title>Node3&#45;&gt;Node1</title>
<path fill="none" stroke="midnightblue" d="M174.463,-22.23C166.011,-22.2754 157.474,-22.2435 149.142,-22.1344"/>
<polygon fill="midnightblue" stroke="midnightblue" points="174.743,-25.7277 184.711,-22.1363 174.679,-18.728 174.743,-25.7277"/>
</g>
</g>
</svg>
