<?xml version="1.0" encoding="UTF-8" standalone="no"?>
<!DOCTYPE svg PUBLIC "-//W3C//DTD SVG 1.1//EN"
 "http://www.w3.org/Graphics/SVG/1.1/DTD/svg11.dtd">
<!-- Generated by graphviz version 2.38.0 (20140413.2041)
 -->
<!-- Title: adb.adb_commands.AdbCommands.Shell Pages: 1 -->
<svg width="850pt" height="113pt"
 viewBox="0.00 0.00 850.00 112.95" xmlns="http://www.w3.org/2000/svg" xmlns:xlink="http://www.w3.org/1999/xlink">
<g id="graph0" class="graph" transform="scale(1 1) rotate(0) translate(4 108.947)">
<title>adb.adb_commands.AdbCommands.Shell</title>
<polygon fill="white" stroke="none" points="-4,4 -4,-108.947 846,-108.947 846,4 -4,4"/>
<!-- Node1 -->
<g id="node1" class="node"><title>Node1</title>
<polygon fill="#bfbfbf" stroke="black" points="0,-57 0,-87 178,-87 178,-57 0,-57"/>
<text text-anchor="start" x="8" y="-75" font-family="Helvetica,sans-Serif" font-size="10.00">adb.adb_commands.AdbCommands.</text>
<text text-anchor="middle" x="89" y="-64" font-family="Helvetica,sans-Serif" font-size="10.00">Shell</text>
</g>
<!-- Node2 -->
<g id="node2" class="node"><title>Node2</title>
<g id="a_node2"><a xlink:href="classadb_1_1adb__commands_1_1AdbCommands.xhtml#aa7e962039a7fce95ec02bd2ea531a43e" target="_top" xlink:title="adb.adb_commands.AdbCommands.\lInstall">
<polygon fill="white" stroke="black" points="450,-48 450,-78 628,-78 628,-48 450,-48"/>
<text text-anchor="start" x="458" y="-66" font-family="Helvetica,sans-Serif" font-size="10.00">adb.adb_commands.AdbCommands.</text>
<text text-anchor="middle" x="539" y="-55" font-family="Helvetica,sans-Serif" font-size="10.00">Install</text>
</a>
</g>
</g>
<!-- Node1&#45;&gt;Node2 -->
<g id="edge1" class="edge"><title>Node1&#45;&gt;Node2</title>
<path fill="none" stroke="midnightblue" d="M161.928,-89.0174C178.906,-92.3332 197.011,-95.3045 214,-97 302.449,-105.827 325.906,-108.859 414,-97 441.211,-93.337 470.899,-85.3451 494.403,-78.0296"/>
<polygon fill="midnightblue" stroke="midnightblue" points="162.573,-85.5772 152.079,-87.0323 161.19,-92.4392 162.573,-85.5772"/>
</g>
<!-- Node4 -->
<g id="node4" class="node"><title>Node4</title>
<g id="a_node4"><a xlink:href="classadb_1_1adb__commands_1_1AdbCommands.xhtml#a97fca1f43954fbca7d0d9b349fbee52b" target="_top" xlink:title="adb.adb_commands.AdbCommands.\lUninstall">
<polygon fill="white" stroke="black" points="225,-57 225,-87 403,-87 403,-57 225,-57"/>
<text text-anchor="start" x="233" y="-75" font-family="Helvetica,sans-Serif" font-size="10.00">adb.adb_commands.AdbCommands.</text>
<text text-anchor="middle" x="314" y="-64" font-family="Helvetica,sans-Serif" font-size="10.00">Uninstall</text>
</a>
</g>
</g>
<!-- Node1&#45;&gt;Node4 -->
<g id="edge3" class="edge"><title>Node1&#45;&gt;Node4</title>
<path fill="none" stroke="midnightblue" d="M188.278,-72C200.427,-72 212.788,-72 224.774,-72"/>
<polygon fill="midnightblue" stroke="midnightblue" points="188.136,-68.5001 178.136,-72 188.135,-75.5001 188.136,-68.5001"/>
</g>
<!-- Node5 -->
<g id="node5" class="node"><title>Node5</title>
<g id="a_node5"><a xlink:href="classadb_1_1adb__commands_1_1AdbCommands.xhtml#ae415c7d42450a1f43115df806432e19d" target="_top" xlink:title="adb.adb_commands.AdbCommands.Push">
<polygon fill="white" stroke="black" points="214,-0.5 214,-19.5 414,-19.5 414,-0.5 214,-0.5"/>
<text text-anchor="middle" x="314" y="-7.5" font-family="Helvetica,sans-Serif" font-size="10.00">adb.adb_commands.AdbCommands.Push</text>
</a>
</g>
</g>
<!-- Node1&#45;&gt;Node5 -->
<g id="edge4" class="edge"><title>Node1&#45;&gt;Node5</title>
<path fill="none" stroke="midnightblue" d="M153.799,-54.2621C194.408,-42.9716 245.421,-28.7888 278.595,-19.5654"/>
<polygon fill="midnightblue" stroke="midnightblue" points="152.679,-50.9407 143.982,-56.9915 154.554,-57.6849 152.679,-50.9407"/>
</g>
<!-- Node3 -->
<g id="node3" class="node"><title>Node3</title>
<g id="a_node3"><a xlink:href="classadb_1_1adb__commands_1_1AdbCommands.xhtml#ab754a751f333f18e5567feddb0f8b0b4" target="_top" xlink:title="adb.adb_commands.AdbCommands.\lGetState">
<polygon fill="white" stroke="black" points="664,-48 664,-78 842,-78 842,-48 664,-48"/>
<text text-anchor="start" x="672" y="-66" font-family="Helvetica,sans-Serif" font-size="10.00">adb.adb_commands.AdbCommands.</text>
<text text-anchor="middle" x="753" y="-55" font-family="Helvetica,sans-Serif" font-size="10.00">GetState</text>
</a>
</g>
</g>
<!-- Node2&#45;&gt;Node3 -->
<g id="edge2" class="edge"><title>Node2&#45;&gt;Node3</title>
<path fill="none" stroke="midnightblue" d="M638.107,-63C646.7,-63 655.363,-63 663.868,-63"/>
<polygon fill="midnightblue" stroke="midnightblue" points="638.065,-59.5001 628.065,-63 638.065,-66.5001 638.065,-59.5001"/>
</g>
<!-- Node5&#45;&gt;Node2 -->
<g id="edge5" class="edge"><title>Node5&#45;&gt;Node2</title>
<path fill="none" stroke="midnightblue" d="M365.256,-21.9442C397.606,-29.6328 439.928,-39.6913 474.584,-47.928"/>
<polygon fill="midnightblue" stroke="midnightblue" points="365.664,-18.4437 355.125,-19.5365 364.045,-25.254 365.664,-18.4437"/>
</g>
<!-- Node5&#45;&gt;Node5 -->
<g id="edge6" class="edge"><title>Node5&#45;&gt;Node5</title>
<path fill="none" stroke="midnightblue" d="M272.219,-26.2184C270.05,-32.6345 283.977,-38 314,-38 354.031,-38 365.446,-28.4613 348.245,-19.6119"/>
<polygon fill="midnightblue" stroke="midnightblue" points="274.543,-28.8362 279.755,-19.6119 269.928,-23.5727 274.543,-28.8362"/>
</g>
</g>
</svg>
