<?xml version="1.0" encoding="UTF-8" standalone="no"?>
<!DOCTYPE svg PUBLIC "-//W3C//DTD SVG 1.1//EN"
 "http://www.w3.org/Graphics/SVG/1.1/DTD/svg11.dtd">
<!-- Generated by graphviz version 2.38.0 (20140413.2041)
 -->
<!-- Title: adb.common.TcpHandle.TimeoutSeconds Pages: 1 -->
<svg width="374pt" height="127pt"
 viewBox="0.00 0.00 374.00 126.50" xmlns="http://www.w3.org/2000/svg" xmlns:xlink="http://www.w3.org/1999/xlink">
<g id="graph0" class="graph" transform="scale(1 1) rotate(0) translate(4 122.5)">
<title>adb.common.TcpHandle.TimeoutSeconds</title>
<polygon fill="white" stroke="none" points="-4,4 -4,-122.5 370,-122.5 370,4 -4,4"/>
<!-- Node1 -->
<g id="node1" class="node"><title>Node1</title>
<polygon fill="#bfbfbf" stroke="black" points="0,-39 0,-69 161,-69 161,-39 0,-39"/>
<text text-anchor="start" x="8" y="-57" font-family="Helvetica,sans-Serif" font-size="10.00">adb.common.TcpHandle.Timeout</text>
<text text-anchor="middle" x="80.5" y="-46" font-family="Helvetica,sans-Serif" font-size="10.00">Seconds</text>
</g>
<!-- Node2 -->
<g id="node2" class="node"><title>Node2</title>
<g id="a_node2"><a xlink:href="classadb_1_1common_1_1TcpHandle.xhtml#a7daa53e4d419c908a0eddf7d1bf9170b" target="_top" xlink:title="adb.common.TcpHandle.\l_connect">
<polygon fill="white" stroke="black" points="218.5,-88 218.5,-118 344.5,-118 344.5,-88 218.5,-88"/>
<text text-anchor="start" x="226.5" y="-106" font-family="Helvetica,sans-Serif" font-size="10.00">adb.common.TcpHandle.</text>
<text text-anchor="middle" x="281.5" y="-95" font-family="Helvetica,sans-Serif" font-size="10.00">_connect</text>
</a>
</g>
</g>
<!-- Node1&#45;&gt;Node2 -->
<g id="edge1" class="edge"><title>Node1&#45;&gt;Node2</title>
<path fill="none" stroke="midnightblue" d="M152.477,-71.4768C174.411,-76.8775 198.364,-82.7755 219.557,-87.9938"/>
<polygon fill="midnightblue" stroke="midnightblue" points="153.106,-68.0271 142.559,-69.0346 151.432,-74.8241 153.106,-68.0271"/>
</g>
<!-- Node3 -->
<g id="node3" class="node"><title>Node3</title>
<g id="a_node3"><a xlink:href="classadb_1_1common_1_1TcpHandle.xhtml#a737245feff629b8bb2f4c609768ff81d" target="_top" xlink:title="adb.common.TcpHandle.Bulk\lWrite">
<polygon fill="white" stroke="black" points="208.5,-39 208.5,-69 354.5,-69 354.5,-39 208.5,-39"/>
<text text-anchor="start" x="216.5" y="-57" font-family="Helvetica,sans-Serif" font-size="10.00">adb.common.TcpHandle.Bulk</text>
<text text-anchor="middle" x="281.5" y="-46" font-family="Helvetica,sans-Serif" font-size="10.00">Write</text>
</a>
</g>
</g>
<!-- Node1&#45;&gt;Node3 -->
<g id="edge2" class="edge"><title>Node1&#45;&gt;Node3</title>
<path fill="none" stroke="midnightblue" d="M171.32,-54C183.672,-54 196.225,-54 208.208,-54"/>
<polygon fill="midnightblue" stroke="midnightblue" points="171.008,-50.5001 161.008,-54 171.008,-57.5001 171.008,-50.5001"/>
</g>
<!-- Node4 -->
<g id="node4" class="node"><title>Node4</title>
<g id="a_node4"><a xlink:href="classadb_1_1common_1_1TcpHandle.xhtml#a767253f525b34a5fe4e629120b03c24e" target="_top" xlink:title="adb.common.TcpHandle.BulkRead">
<polygon fill="white" stroke="black" points="197,-0.5 197,-19.5 366,-19.5 366,-0.5 197,-0.5"/>
<text text-anchor="middle" x="281.5" y="-7.5" font-family="Helvetica,sans-Serif" font-size="10.00">adb.common.TcpHandle.BulkRead</text>
</a>
</g>
</g>
<!-- Node1&#45;&gt;Node4 -->
<g id="edge3" class="edge"><title>Node1&#45;&gt;Node4</title>
<path fill="none" stroke="midnightblue" d="M159.477,-36.7588C186.015,-30.8911 214.699,-24.549 237.478,-19.5124"/>
<polygon fill="midnightblue" stroke="midnightblue" points="158.436,-33.4043 149.428,-38.9808 159.948,-40.2392 158.436,-33.4043"/>
</g>
</g>
</svg>
