<?xml version="1.0" encoding="UTF-8" standalone="no"?>
<!DOCTYPE svg PUBLIC "-//W3C//DTD SVG 1.1//EN"
 "http://www.w3.org/Graphics/SVG/1.1/DTD/svg11.dtd">
<!-- Generated by graphviz version 2.38.0 (20140413.2041)
 -->
<!-- Title: adb.usb_exceptions.FormatMessageWithArgumentsException Pages: 1 -->
<svg width="647pt" height="333pt"
 viewBox="0.00 0.00 647.00 333.00" xmlns="http://www.w3.org/2000/svg" xmlns:xlink="http://www.w3.org/1999/xlink">
<g id="graph0" class="graph" transform="scale(1 1) rotate(0) translate(4 329)">
<title>adb.usb_exceptions.FormatMessageWithArgumentsException</title>
<polygon fill="white" stroke="none" points="-4,4 -4,-329 643,-329 643,4 -4,4"/>
<!-- Node1 -->
<g id="node1" class="node"><title>Node1</title>
<polygon fill="#bfbfbf" stroke="black" points="278,-147.5 278,-177.5 445,-177.5 445,-147.5 278,-147.5"/>
<text text-anchor="start" x="286" y="-165.5" font-family="Helvetica,sans-Serif" font-size="10.00">adb.usb_exceptions.Format</text>
<text text-anchor="middle" x="361.5" y="-154.5" font-family="Helvetica,sans-Serif" font-size="10.00">MessageWithArgumentsException</text>
</g>
<!-- Node4 -->
<g id="node4" class="node"><title>Node4</title>
<g id="a_node4"><a xlink:href="classadb_1_1fastboot_1_1FastbootInvalidResponse.xhtml" target="_top" xlink:title="adb.fastboot.FastbootInvalid\lResponse">
<polygon fill="white" stroke="black" points="490,-294.5 490,-324.5 630,-324.5 630,-294.5 490,-294.5"/>
<text text-anchor="start" x="498" y="-312.5" font-family="Helvetica,sans-Serif" font-size="10.00">adb.fastboot.FastbootInvalid</text>
<text text-anchor="middle" x="560" y="-301.5" font-family="Helvetica,sans-Serif" font-size="10.00">Response</text>
</a>
</g>
</g>
<!-- Node1&#45;&gt;Node4 -->
<g id="edge3" class="edge"><title>Node1&#45;&gt;Node4</title>
<path fill="none" stroke="midnightblue" d="M379.228,-186.054C400.054,-213.713 438.15,-259.154 481,-285.5 486.552,-288.914 492.627,-291.875 498.858,-294.437"/>
<polygon fill="midnightblue" stroke="midnightblue" points="381.847,-183.708 373.089,-177.745 376.217,-187.867 381.847,-183.708"/>
</g>
<!-- Node5 -->
<g id="node5" class="node"><title>Node5</title>
<g id="a_node5"><a xlink:href="classadb_1_1fastboot_1_1FastbootRemoteFailure.xhtml" target="_top" xlink:title="adb.fastboot.FastbootRemote\lFailure">
<polygon fill="white" stroke="black" points="487,-245.5 487,-275.5 633,-275.5 633,-245.5 487,-245.5"/>
<text text-anchor="start" x="495" y="-263.5" font-family="Helvetica,sans-Serif" font-size="10.00">adb.fastboot.FastbootRemote</text>
<text text-anchor="middle" x="560" y="-252.5" font-family="Helvetica,sans-Serif" font-size="10.00">Failure</text>
</a>
</g>
</g>
<!-- Node1&#45;&gt;Node5 -->
<g id="edge4" class="edge"><title>Node1&#45;&gt;Node5</title>
<path fill="none" stroke="midnightblue" d="M391.345,-183.497C414.631,-199.697 448.719,-221.759 481,-236.5 488.217,-239.796 496.009,-242.798 503.78,-245.477"/>
<polygon fill="midnightblue" stroke="midnightblue" points="393.166,-180.499 382.975,-177.602 389.136,-186.222 393.166,-180.499"/>
</g>
<!-- Node6 -->
<g id="node6" class="node"><title>Node6</title>
<g id="a_node6"><a xlink:href="classadb_1_1fastboot_1_1FastbootStateMismatch.xhtml" target="_top" xlink:title="adb.fastboot.FastbootState\lMismatch">
<polygon fill="white" stroke="black" points="492.5,-196.5 492.5,-226.5 627.5,-226.5 627.5,-196.5 492.5,-196.5"/>
<text text-anchor="start" x="500.5" y="-214.5" font-family="Helvetica,sans-Serif" font-size="10.00">adb.fastboot.FastbootState</text>
<text text-anchor="middle" x="560" y="-203.5" font-family="Helvetica,sans-Serif" font-size="10.00">Mismatch</text>
</a>
</g>
</g>
<!-- Node1&#45;&gt;Node6 -->
<g id="edge5" class="edge"><title>Node1&#45;&gt;Node6</title>
<path fill="none" stroke="midnightblue" d="M432.586,-179.977C454.243,-185.377 477.896,-191.276 498.822,-196.494"/>
<polygon fill="midnightblue" stroke="midnightblue" points="433.342,-176.558 422.792,-177.535 431.648,-183.35 433.342,-176.558"/>
</g>
<!-- Node7 -->
<g id="node7" class="node"><title>Node7</title>
<g id="a_node7"><a xlink:href="classadb_1_1fastboot_1_1FastbootTransferError.xhtml" target="_top" xlink:title="adb.fastboot.FastbootTransfer\lError">
<polygon fill="white" stroke="black" points="486,-147.5 486,-177.5 634,-177.5 634,-147.5 486,-147.5"/>
<text text-anchor="start" x="494" y="-165.5" font-family="Helvetica,sans-Serif" font-size="10.00">adb.fastboot.FastbootTransfer</text>
<text text-anchor="middle" x="560" y="-154.5" font-family="Helvetica,sans-Serif" font-size="10.00">Error</text>
</a>
</g>
</g>
<!-- Node1&#45;&gt;Node7 -->
<g id="edge6" class="edge"><title>Node1&#45;&gt;Node7</title>
<path fill="none" stroke="midnightblue" d="M455.471,-162.5C465.72,-162.5 476.045,-162.5 486,-162.5"/>
<polygon fill="midnightblue" stroke="midnightblue" points="455.264,-159 445.264,-162.5 455.264,-166 455.264,-159"/>
</g>
<!-- Node8 -->
<g id="node8" class="node"><title>Node8</title>
<g id="a_node8"><a xlink:href="classadb_1_1usb__exceptions_1_1DeviceAuthError.xhtml" target="_top" xlink:title="adb.usb_exceptions.Device\lAuthError">
<polygon fill="white" stroke="black" points="491.5,-98.5 491.5,-128.5 628.5,-128.5 628.5,-98.5 491.5,-98.5"/>
<text text-anchor="start" x="499.5" y="-116.5" font-family="Helvetica,sans-Serif" font-size="10.00">adb.usb_exceptions.Device</text>
<text text-anchor="middle" x="560" y="-105.5" font-family="Helvetica,sans-Serif" font-size="10.00">AuthError</text>
</a>
</g>
</g>
<!-- Node1&#45;&gt;Node8 -->
<g id="edge7" class="edge"><title>Node1&#45;&gt;Node8</title>
<path fill="none" stroke="midnightblue" d="M432.586,-145.023C454.243,-139.623 477.896,-133.724 498.822,-128.506"/>
<polygon fill="midnightblue" stroke="midnightblue" points="431.648,-141.65 422.792,-147.465 433.342,-148.442 431.648,-141.65"/>
</g>
<!-- Node9 -->
<g id="node9" class="node"><title>Node9</title>
<g id="a_node9"><a xlink:href="classadb_1_1usb__exceptions_1_1DeviceNotFoundError.xhtml" target="_top" xlink:title="adb.usb_exceptions.Device\lNotFoundError">
<polygon fill="white" stroke="black" points="491.5,-49.5 491.5,-79.5 628.5,-79.5 628.5,-49.5 491.5,-49.5"/>
<text text-anchor="start" x="499.5" y="-67.5" font-family="Helvetica,sans-Serif" font-size="10.00">adb.usb_exceptions.Device</text>
<text text-anchor="middle" x="560" y="-56.5" font-family="Helvetica,sans-Serif" font-size="10.00">NotFoundError</text>
</a>
</g>
</g>
<!-- Node1&#45;&gt;Node9 -->
<g id="edge8" class="edge"><title>Node1&#45;&gt;Node9</title>
<path fill="none" stroke="midnightblue" d="M391.345,-141.503C414.631,-125.303 448.719,-103.241 481,-88.5 488.217,-85.2043 496.009,-82.202 503.78,-79.5225"/>
<polygon fill="midnightblue" stroke="midnightblue" points="389.136,-138.778 382.975,-147.398 393.166,-144.501 389.136,-138.778"/>
</g>
<!-- Node10 -->
<g id="node10" class="node"><title>Node10</title>
<g id="a_node10"><a xlink:href="classadb_1_1usb__exceptions_1_1TcpTimeoutException.xhtml" target="_top" xlink:title="adb.usb_exceptions.TcpTimeout\lException">
<polygon fill="white" stroke="black" points="481,-0.5 481,-30.5 639,-30.5 639,-0.5 481,-0.5"/>
<text text-anchor="start" x="489" y="-18.5" font-family="Helvetica,sans-Serif" font-size="10.00">adb.usb_exceptions.TcpTimeout</text>
<text text-anchor="middle" x="560" y="-7.5" font-family="Helvetica,sans-Serif" font-size="10.00">Exception</text>
</a>
</g>
</g>
<!-- Node1&#45;&gt;Node10 -->
<g id="edge9" class="edge"><title>Node1&#45;&gt;Node10</title>
<path fill="none" stroke="midnightblue" d="M379.228,-138.946C400.054,-111.287 438.15,-65.8464 481,-39.5 486.552,-36.0864 492.627,-33.1247 498.858,-30.5627"/>
<polygon fill="midnightblue" stroke="midnightblue" points="376.217,-137.133 373.089,-147.255 381.847,-141.292 376.217,-137.133"/>
</g>
<!-- Node2 -->
<g id="node2" class="node"><title>Node2</title>
<g id="a_node2"><a xlink:href="classadb_1_1usb__exceptions_1_1CommonUsbError.xhtml" target="_top" xlink:title="adb.usb_exceptions.Common\lUsbError">
<polygon fill="white" stroke="black" points="96,-147.5 96,-177.5 242,-177.5 242,-147.5 96,-147.5"/>
<text text-anchor="start" x="104" y="-165.5" font-family="Helvetica,sans-Serif" font-size="10.00">adb.usb_exceptions.Common</text>
<text text-anchor="middle" x="169" y="-154.5" font-family="Helvetica,sans-Serif" font-size="10.00">UsbError</text>
</a>
</g>
</g>
<!-- Node2&#45;&gt;Node1 -->
<g id="edge1" class="edge"><title>Node2&#45;&gt;Node1</title>
<path fill="none" stroke="midnightblue" d="M252.268,-162.5C260.742,-162.5 269.355,-162.5 277.833,-162.5"/>
<polygon fill="midnightblue" stroke="midnightblue" points="252.02,-159 242.02,-162.5 252.02,-166 252.02,-159"/>
</g>
<!-- Node3 -->
<g id="node3" class="node"><title>Node3</title>
<polygon fill="white" stroke="#bfbfbf" points="0,-153 0,-172 60,-172 60,-153 0,-153"/>
<text text-anchor="middle" x="30" y="-160" font-family="Helvetica,sans-Serif" font-size="10.00">Exception</text>
</g>
<!-- Node3&#45;&gt;Node2 -->
<g id="edge2" class="edge"><title>Node3&#45;&gt;Node2</title>
<path fill="none" stroke="midnightblue" d="M70.2299,-162.5C78.3005,-162.5 87.0388,-162.5 95.8579,-162.5"/>
<polygon fill="midnightblue" stroke="midnightblue" points="70.0542,-159 60.0542,-162.5 70.0541,-166 70.0542,-159"/>
</g>
</g>
</svg>
