<?xml version="1.0" encoding="UTF-8" standalone="no"?>
<!DOCTYPE svg PUBLIC "-//W3C//DTD SVG 1.1//EN"
 "http://www.w3.org/Graphics/SVG/1.1/DTD/svg11.dtd">
<!-- Generated by graphviz version 2.38.0 (20140413.2041)
 -->
<!-- Title: adb.fastboot.FastbootCommands.FlashFromFile Pages: 1 -->
<svg width="596pt" height="323pt"
 viewBox="0.00 0.00 596.00 323.00" xmlns="http://www.w3.org/2000/svg" xmlns:xlink="http://www.w3.org/1999/xlink">
<g id="graph0" class="graph" transform="scale(1 1) rotate(0) translate(4 319)">
<title>adb.fastboot.FastbootCommands.FlashFromFile</title>
<polygon fill="white" stroke="none" points="-4,4 -4,-319 592,-319 592,4 -4,4"/>
<!-- Node1 -->
<g id="node1" class="node"><title>Node1</title>
<polygon fill="#bfbfbf" stroke="black" points="0,-210.5 0,-240.5 165,-240.5 165,-210.5 0,-210.5"/>
<text text-anchor="start" x="8" y="-228.5" font-family="Helvetica,sans-Serif" font-size="10.00">adb.fastboot.FastbootCommands.</text>
<text text-anchor="middle" x="82.5" y="-217.5" font-family="Helvetica,sans-Serif" font-size="10.00">FlashFromFile</text>
</g>
<!-- Node2 -->
<g id="node2" class="node"><title>Node2</title>
<g id="a_node2"><a xlink:href="classadb_1_1fastboot_1_1FastbootCommands.xhtml#a821780b7fa070da3ee3eb982447b38c8" target="_top" xlink:title="adb.fastboot.FastbootCommands.\l_SimpleCommand">
<polygon fill="white" stroke="black" points="201,-164.5 201,-194.5 366,-194.5 366,-164.5 201,-164.5"/>
<text text-anchor="start" x="209" y="-182.5" font-family="Helvetica,sans-Serif" font-size="10.00">adb.fastboot.FastbootCommands.</text>
<text text-anchor="middle" x="283.5" y="-171.5" font-family="Helvetica,sans-Serif" font-size="10.00">_SimpleCommand</text>
</a>
</g>
</g>
<!-- Node1&#45;&gt;Node2 -->
<g id="edge1" class="edge"><title>Node1&#45;&gt;Node2</title>
<path fill="none" stroke="midnightblue" d="M158.657,-208.127C178.034,-203.648 198.724,-198.865 217.534,-194.517"/>
<polygon fill="midnightblue" stroke="midnightblue" points="157.615,-204.776 148.66,-210.438 159.191,-211.596 157.615,-204.776"/>
</g>
<!-- Node3 -->
<g id="node3" class="node"><title>Node3</title>
<g id="a_node3"><a xlink:href="classadb_1_1fastboot_1_1FastbootCommands.xhtml#a621a92ec5fa925375f0a1dd9be48fcaf" target="_top" xlink:title="adb.fastboot.FastbootCommands.\lFlash">
<polygon fill="white" stroke="black" points="412.5,-284.5 412.5,-314.5 577.5,-314.5 577.5,-284.5 412.5,-284.5"/>
<text text-anchor="start" x="420.5" y="-302.5" font-family="Helvetica,sans-Serif" font-size="10.00">adb.fastboot.FastbootCommands.</text>
<text text-anchor="middle" x="495" y="-291.5" font-family="Helvetica,sans-Serif" font-size="10.00">Flash</text>
</a>
</g>
</g>
<!-- Node2&#45;&gt;Node3 -->
<g id="edge2" class="edge"><title>Node2&#45;&gt;Node3</title>
<path fill="none" stroke="midnightblue" d="M306.234,-201.811C328.427,-223.373 364.809,-255.486 402,-274.5 409.516,-278.343 417.688,-281.646 425.958,-284.474"/>
<polygon fill="midnightblue" stroke="midnightblue" points="308.572,-199.201 298.998,-194.664 303.653,-204.181 308.572,-199.201"/>
</g>
<!-- Node4 -->
<g id="node4" class="node"><title>Node4</title>
<g id="a_node4"><a xlink:href="classadb_1_1fastboot_1_1FastbootCommands.xhtml#ae98daefe59adf63f0b9a45d31fd9aace" target="_top" xlink:title="adb.fastboot.FastbootCommands.\lErase">
<polygon fill="white" stroke="black" points="412.5,-235.5 412.5,-265.5 577.5,-265.5 577.5,-235.5 412.5,-235.5"/>
<text text-anchor="start" x="420.5" y="-253.5" font-family="Helvetica,sans-Serif" font-size="10.00">adb.fastboot.FastbootCommands.</text>
<text text-anchor="middle" x="495" y="-242.5" font-family="Helvetica,sans-Serif" font-size="10.00">Erase</text>
</a>
</g>
</g>
<!-- Node2&#45;&gt;Node4 -->
<g id="edge4" class="edge"><title>Node2&#45;&gt;Node4</title>
<path fill="none" stroke="midnightblue" d="M329.19,-198.306C350.956,-207.128 377.63,-217.445 402,-225.5 412.529,-228.98 423.849,-232.351 434.824,-235.432"/>
<polygon fill="midnightblue" stroke="midnightblue" points="330.455,-195.042 319.874,-194.501 327.808,-201.522 330.455,-195.042"/>
</g>
<!-- Node5 -->
<g id="node5" class="node"><title>Node5</title>
<g id="a_node5"><a xlink:href="classadb_1_1fastboot_1_1FastbootCommands.xhtml#abbe9134624a5d38960628017c8b82dbd" target="_top" xlink:title="adb.fastboot.FastbootCommands.\lGetvar">
<polygon fill="white" stroke="black" points="412.5,-186.5 412.5,-216.5 577.5,-216.5 577.5,-186.5 412.5,-186.5"/>
<text text-anchor="start" x="420.5" y="-204.5" font-family="Helvetica,sans-Serif" font-size="10.00">adb.fastboot.FastbootCommands.</text>
<text text-anchor="middle" x="495" y="-193.5" font-family="Helvetica,sans-Serif" font-size="10.00">Getvar</text>
</a>
</g>
</g>
<!-- Node2&#45;&gt;Node5 -->
<g id="edge5" class="edge"><title>Node2&#45;&gt;Node5</title>
<path fill="none" stroke="midnightblue" d="M376.134,-189.123C388.164,-190.386 400.429,-191.674 412.28,-192.918"/>
<polygon fill="midnightblue" stroke="midnightblue" points="376.409,-185.632 366.098,-188.069 375.678,-192.594 376.409,-185.632"/>
</g>
<!-- Node6 -->
<g id="node6" class="node"><title>Node6</title>
<g id="a_node6"><a xlink:href="classadb_1_1fastboot_1_1FastbootCommands.xhtml#ad8c8eaeeb56ca2ef483bd67c5f7f9176" target="_top" xlink:title="adb.fastboot.FastbootCommands.Oem">
<polygon fill="white" stroke="black" points="402,-148 402,-167 588,-167 588,-148 402,-148"/>
<text text-anchor="middle" x="495" y="-155" font-family="Helvetica,sans-Serif" font-size="10.00">adb.fastboot.FastbootCommands.Oem</text>
</a>
</g>
</g>
<!-- Node2&#45;&gt;Node6 -->
<g id="edge6" class="edge"><title>Node2&#45;&gt;Node6</title>
<path fill="none" stroke="midnightblue" d="M376.172,-169.873C385.157,-168.93 394.272,-167.973 403.248,-167.03"/>
<polygon fill="midnightblue" stroke="midnightblue" points="375.678,-166.406 366.098,-170.931 376.409,-173.368 375.678,-166.406"/>
</g>
<!-- Node7 -->
<g id="node7" class="node"><title>Node7</title>
<g id="a_node7"><a xlink:href="classadb_1_1fastboot_1_1FastbootCommands.xhtml#aaf7cfd47a3a38581b1b2ba258671194a" target="_top" xlink:title="adb.fastboot.FastbootCommands.\lContinue">
<polygon fill="white" stroke="black" points="412.5,-98.5 412.5,-128.5 577.5,-128.5 577.5,-98.5 412.5,-98.5"/>
<text text-anchor="start" x="420.5" y="-116.5" font-family="Helvetica,sans-Serif" font-size="10.00">adb.fastboot.FastbootCommands.</text>
<text text-anchor="middle" x="495" y="-105.5" font-family="Helvetica,sans-Serif" font-size="10.00">Continue</text>
</a>
</g>
</g>
<!-- Node2&#45;&gt;Node7 -->
<g id="edge7" class="edge"><title>Node2&#45;&gt;Node7</title>
<path fill="none" stroke="midnightblue" d="M334.86,-161.053C355.552,-153.703 379.819,-145.374 402,-138.5 412.909,-135.119 424.62,-131.745 435.91,-128.619"/>
<polygon fill="midnightblue" stroke="midnightblue" points="333.56,-157.801 325.321,-164.463 335.916,-164.393 333.56,-157.801"/>
</g>
<!-- Node8 -->
<g id="node8" class="node"><title>Node8</title>
<g id="a_node8"><a xlink:href="classadb_1_1fastboot_1_1FastbootCommands.xhtml#a878c0f4df9a02a78eb292c7a59f2e8d9" target="_top" xlink:title="adb.fastboot.FastbootCommands.\lReboot">
<polygon fill="white" stroke="black" points="412.5,-49.5 412.5,-79.5 577.5,-79.5 577.5,-49.5 412.5,-49.5"/>
<text text-anchor="start" x="420.5" y="-67.5" font-family="Helvetica,sans-Serif" font-size="10.00">adb.fastboot.FastbootCommands.</text>
<text text-anchor="middle" x="495" y="-56.5" font-family="Helvetica,sans-Serif" font-size="10.00">Reboot</text>
</a>
</g>
</g>
<!-- Node2&#45;&gt;Node8 -->
<g id="edge8" class="edge"><title>Node2&#45;&gt;Node8</title>
<path fill="none" stroke="midnightblue" d="M307.13,-157.392C329.492,-136.722 365.548,-106.428 402,-88.5 408.962,-85.0761 416.468,-82.1004 424.085,-79.5238"/>
<polygon fill="midnightblue" stroke="midnightblue" points="304.706,-154.867 299.814,-164.265 309.499,-159.969 304.706,-154.867"/>
</g>
<!-- Node9 -->
<g id="node9" class="node"><title>Node9</title>
<g id="a_node9"><a xlink:href="classadb_1_1fastboot_1_1FastbootCommands.xhtml#a8ca0516e86ee1740e9b5ddce2c65ef9a" target="_top" xlink:title="adb.fastboot.FastbootCommands.\lRebootBootloader">
<polygon fill="white" stroke="black" points="412.5,-0.5 412.5,-30.5 577.5,-30.5 577.5,-0.5 412.5,-0.5"/>
<text text-anchor="start" x="420.5" y="-18.5" font-family="Helvetica,sans-Serif" font-size="10.00">adb.fastboot.FastbootCommands.</text>
<text text-anchor="middle" x="495" y="-7.5" font-family="Helvetica,sans-Serif" font-size="10.00">RebootBootloader</text>
</a>
</g>
</g>
<!-- Node2&#45;&gt;Node9 -->
<g id="edge9" class="edge"><title>Node2&#45;&gt;Node9</title>
<path fill="none" stroke="midnightblue" d="M298.281,-155.185C317.432,-123.645 355.091,-69.1628 402,-39.5 407.441,-36.0593 413.359,-33.11 419.484,-30.5821"/>
<polygon fill="midnightblue" stroke="midnightblue" points="295.034,-153.798 292.941,-164.184 301.054,-157.37 295.034,-153.798"/>
</g>
<!-- Node3&#45;&gt;Node1 -->
<g id="edge3" class="edge"><title>Node3&#45;&gt;Node1</title>
<path fill="none" stroke="midnightblue" d="M402.357,-282.98C331.233,-270.158 233.538,-252.547 165.092,-240.208"/>
<polygon fill="midnightblue" stroke="midnightblue" points="401.749,-286.426 412.211,-284.756 402.991,-279.537 401.749,-286.426"/>
</g>
</g>
</svg>
