<?xml version="1.0" encoding="UTF-8" standalone="no"?>
<!DOCTYPE svg PUBLIC "-//W3C//DTD SVG 1.1//EN"
 "http://www.w3.org/Graphics/SVG/1.1/DTD/svg11.dtd">
<!-- Generated by graphviz version 2.38.0 (20140413.2041)
 -->
<!-- Title: adb.common.UsbHandle.serial_number Pages: 1 -->
<svg width="753pt" height="122pt"
 viewBox="0.00 0.00 753.00 121.50" xmlns="http://www.w3.org/2000/svg" xmlns:xlink="http://www.w3.org/1999/xlink">
<g id="graph0" class="graph" transform="scale(1 1) rotate(0) translate(4 117.5)">
<title>adb.common.UsbHandle.serial_number</title>
<polygon fill="white" stroke="none" points="-4,4 -4,-117.5 749,-117.5 749,4 -4,4"/>
<!-- Node1 -->
<g id="node1" class="node"><title>Node1</title>
<polygon fill="#bfbfbf" stroke="black" points="0,-22.5 0,-52.5 151,-52.5 151,-22.5 0,-22.5"/>
<text text-anchor="start" x="8" y="-40.5" font-family="Helvetica,sans-Serif" font-size="10.00">adb.common.UsbHandle.serial</text>
<text text-anchor="middle" x="75.5" y="-29.5" font-family="Helvetica,sans-Serif" font-size="10.00">_number</text>
</g>
<!-- Node2 -->
<g id="node2" class="node"><title>Node2</title>
<g id="a_node2"><a xlink:href="classadb_1_1common_1_1UsbHandle.xhtml#a8853067620b240c229c1efe8ac04ce88" target="_top" xlink:title="adb.common.UsbHandle.usb_info">
<polygon fill="white" stroke="black" points="187,-50 187,-69 351,-69 351,-50 187,-50"/>
<text text-anchor="middle" x="269" y="-57" font-family="Helvetica,sans-Serif" font-size="10.00">adb.common.UsbHandle.usb_info</text>
</a>
</g>
</g>
<!-- Node1&#45;&gt;Node2 -->
<g id="edge1" class="edge"><title>Node1&#45;&gt;Node2</title>
<path fill="none" stroke="midnightblue" d="M161.101,-47.2192C169.693,-48.2063 178.407,-49.2073 186.96,-50.19"/>
<polygon fill="midnightblue" stroke="midnightblue" points="161.421,-43.733 151.087,-46.0688 160.622,-50.6873 161.421,-43.733"/>
</g>
<!-- Node8 -->
<g id="node8" class="node"><title>Node8</title>
<g id="a_node8"><a xlink:href="classadb_1_1common_1_1TcpHandle.xhtml#a737245feff629b8bb2f4c609768ff81d" target="_top" xlink:title="adb.common.TcpHandle.Bulk\lWrite">
<polygon fill="white" stroke="black" points="196,-0.5 196,-30.5 342,-30.5 342,-0.5 196,-0.5"/>
<text text-anchor="start" x="204" y="-18.5" font-family="Helvetica,sans-Serif" font-size="10.00">adb.common.TcpHandle.Bulk</text>
<text text-anchor="middle" x="269" y="-7.5" font-family="Helvetica,sans-Serif" font-size="10.00">Write</text>
</a>
</g>
</g>
<!-- Node1&#45;&gt;Node8 -->
<g id="edge7" class="edge"><title>Node1&#45;&gt;Node8</title>
<path fill="none" stroke="midnightblue" d="M161.171,-27.7728C172.73,-26.4449 184.506,-25.092 195.815,-23.7928"/>
<polygon fill="midnightblue" stroke="midnightblue" points="160.622,-24.3127 151.087,-28.9312 161.421,-31.267 160.622,-24.3127"/>
</g>
<!-- Node3 -->
<g id="node3" class="node"><title>Node3</title>
<g id="a_node3"><a xlink:href="classadb_1_1common_1_1UsbHandle.xhtml#aa4dcc7335abc4e231eb6a9f7cc5dede6" target="_top" xlink:title="adb.common.UsbHandle.Close">
<polygon fill="white" stroke="black" points="395.5,-94 395.5,-113 548.5,-113 548.5,-94 395.5,-94"/>
<text text-anchor="middle" x="472" y="-101" font-family="Helvetica,sans-Serif" font-size="10.00">adb.common.UsbHandle.Close</text>
</a>
</g>
</g>
<!-- Node2&#45;&gt;Node3 -->
<g id="edge2" class="edge"><title>Node2&#45;&gt;Node3</title>
<path fill="none" stroke="midnightblue" d="M323.411,-71.192C355.926,-78.3096 396.937,-87.2872 427.471,-93.9713"/>
<polygon fill="midnightblue" stroke="midnightblue" points="324.131,-67.7668 313.614,-69.0473 322.634,-74.6049 324.131,-67.7668"/>
</g>
<!-- Node5 -->
<g id="node5" class="node"><title>Node5</title>
<g id="a_node5"><a xlink:href="classadb_1_1common_1_1UsbHandle.xhtml#a94a038e0d680e1b279f4d289b98f6352" target="_top" xlink:title="adb.common.UsbHandle.Bulk\lWrite">
<polygon fill="white" stroke="black" points="398.5,-44.5 398.5,-74.5 545.5,-74.5 545.5,-44.5 398.5,-44.5"/>
<text text-anchor="start" x="406.5" y="-62.5" font-family="Helvetica,sans-Serif" font-size="10.00">adb.common.UsbHandle.Bulk</text>
<text text-anchor="middle" x="472" y="-51.5" font-family="Helvetica,sans-Serif" font-size="10.00">Write</text>
</a>
</g>
</g>
<!-- Node2&#45;&gt;Node5 -->
<g id="edge4" class="edge"><title>Node2&#45;&gt;Node5</title>
<path fill="none" stroke="midnightblue" d="M361.476,-59.5C373.809,-59.5 386.326,-59.5 398.273,-59.5"/>
<polygon fill="midnightblue" stroke="midnightblue" points="361.175,-56.0001 351.175,-59.5 361.175,-63.0001 361.175,-56.0001"/>
</g>
<!-- Node6 -->
<g id="node6" class="node"><title>Node6</title>
<g id="a_node6"><a xlink:href="classadb_1_1common_1_1UsbHandle.xhtml#a35dde138b9f918cf936affe61a44ac6f" target="_top" xlink:title="adb.common.UsbHandle.BulkRead">
<polygon fill="white" stroke="black" points="387,-6 387,-25 557,-25 557,-6 387,-6"/>
<text text-anchor="middle" x="472" y="-13" font-family="Helvetica,sans-Serif" font-size="10.00">adb.common.UsbHandle.BulkRead</text>
</a>
</g>
</g>
<!-- Node2&#45;&gt;Node6 -->
<g id="edge5" class="edge"><title>Node2&#45;&gt;Node6</title>
<path fill="none" stroke="midnightblue" d="M323.411,-47.808C355.926,-40.6904 396.937,-31.7128 427.471,-25.0287"/>
<polygon fill="midnightblue" stroke="midnightblue" points="322.634,-44.3951 313.614,-49.9527 324.131,-51.2332 322.634,-44.3951"/>
</g>
<!-- Node4 -->
<g id="node4" class="node"><title>Node4</title>
<g id="a_node4"><a xlink:href="classadb_1_1common_1_1UsbHandle.xhtml#a70a5840c62e032635a221637cde99f4d" target="_top" xlink:title="adb.common.UsbHandle.Open">
<polygon fill="white" stroke="black" points="593.5,-94 593.5,-113 744.5,-113 744.5,-94 593.5,-94"/>
<text text-anchor="middle" x="669" y="-101" font-family="Helvetica,sans-Serif" font-size="10.00">adb.common.UsbHandle.Open</text>
</a>
</g>
</g>
<!-- Node3&#45;&gt;Node4 -->
<g id="edge3" class="edge"><title>Node3&#45;&gt;Node4</title>
<path fill="none" stroke="midnightblue" d="M558.73,-103.5C570.261,-103.5 582.015,-103.5 593.334,-103.5"/>
<polygon fill="midnightblue" stroke="midnightblue" points="558.671,-100 548.671,-103.5 558.671,-107 558.671,-100"/>
</g>
<!-- Node7 -->
<g id="node7" class="node"><title>Node7</title>
<g id="a_node7"><a xlink:href="classadb_1_1common_1_1UsbHandle.xhtml#a08cae62ee61ff4fc0f6424caac9d8de6" target="_top" xlink:title="adb.common.UsbHandle.Flush\lBuffers">
<polygon fill="white" stroke="black" points="593,-0.5 593,-30.5 745,-30.5 745,-0.5 593,-0.5"/>
<text text-anchor="start" x="601" y="-18.5" font-family="Helvetica,sans-Serif" font-size="10.00">adb.common.UsbHandle.Flush</text>
<text text-anchor="middle" x="669" y="-7.5" font-family="Helvetica,sans-Serif" font-size="10.00">Buffers</text>
</a>
</g>
</g>
<!-- Node6&#45;&gt;Node7 -->
<g id="edge6" class="edge"><title>Node6&#45;&gt;Node7</title>
<path fill="none" stroke="midnightblue" d="M567.162,-15.5C575.75,-15.5 584.373,-15.5 592.763,-15.5"/>
<polygon fill="midnightblue" stroke="midnightblue" points="567.112,-12.0001 557.112,-15.5 567.112,-19.0001 567.112,-12.0001"/>
</g>
</g>
</svg>
