<?xml version="1.0" encoding="UTF-8" standalone="no"?>
<!DOCTYPE svg PUBLIC "-//W3C//DTD SVG 1.1//EN"
 "http://www.w3.org/Graphics/SVG/1.1/DTD/svg11.dtd">
<!-- Generated by graphviz version 2.38.0 (20140413.2041)
 -->
<!-- Title: adb.common.UsbHandle.Open Pages: 1 -->
<svg width="1048pt" height="200pt"
 viewBox="0.00 0.00 1048.00 199.50" xmlns="http://www.w3.org/2000/svg" xmlns:xlink="http://www.w3.org/1999/xlink">
<g id="graph0" class="graph" transform="scale(1 1) rotate(0) translate(4 195.5)">
<title>adb.common.UsbHandle.Open</title>
<polygon fill="white" stroke="none" points="-4,4 -4,-195.5 1044,-195.5 1044,4 -4,4"/>
<!-- Node1 -->
<g id="node1" class="node"><title>Node1</title>
<polygon fill="#bfbfbf" stroke="black" points="0,-103 0,-122 151,-122 151,-103 0,-103"/>
<text text-anchor="middle" x="75.5" y="-110" font-family="Helvetica,sans-Serif" font-size="10.00">adb.common.UsbHandle.Open</text>
</g>
<!-- Node2 -->
<g id="node2" class="node"><title>Node2</title>
<g id="a_node2"><a xlink:href="classadb_1_1common_1_1UsbHandle.xhtml#af3dd6044e8742ab4975d750f2819aa2e" target="_top" xlink:title="adb.common.UsbHandle.port_path">
<polygon fill="white" stroke="black" points="192,-172 192,-191 360,-191 360,-172 192,-172"/>
<text text-anchor="middle" x="276" y="-179" font-family="Helvetica,sans-Serif" font-size="10.00">adb.common.UsbHandle.port_path</text>
</a>
</g>
</g>
<!-- Node1&#45;&gt;Node2 -->
<g id="edge1" class="edge"><title>Node1&#45;&gt;Node2</title>
<path fill="none" stroke="midnightblue" d="M94.4034,-122.035C115.875,-133.129 153.207,-151.347 187,-162.5 195.001,-165.141 203.534,-167.512 212.021,-169.61"/>
<polygon fill="midnightblue" stroke="midnightblue" points="211.391,-173.057 221.928,-171.947 212.999,-166.244 211.391,-173.057"/>
</g>
<!-- Node3 -->
<g id="node3" class="node"><title>Node3</title>
<g id="a_node3"><a xlink:href="classadb_1_1adb__commands_1_1AdbCommands.xhtml#a4368536c2d9564e579c4fc7714667aa1" target="_top" xlink:title="adb.adb_commands.AdbCommands.\lClose">
<polygon fill="white" stroke="black" points="187,-122.5 187,-152.5 365,-152.5 365,-122.5 187,-122.5"/>
<text text-anchor="start" x="195" y="-140.5" font-family="Helvetica,sans-Serif" font-size="10.00">adb.adb_commands.AdbCommands.</text>
<text text-anchor="middle" x="276" y="-129.5" font-family="Helvetica,sans-Serif" font-size="10.00">Close</text>
</a>
</g>
</g>
<!-- Node1&#45;&gt;Node3 -->
<g id="edge2" class="edge"><title>Node1&#45;&gt;Node3</title>
<path fill="none" stroke="midnightblue" d="M151.261,-121.916C159.634,-122.97 168.256,-124.056 176.865,-125.14"/>
<polygon fill="midnightblue" stroke="midnightblue" points="176.593,-128.634 186.952,-126.411 177.468,-121.689 176.593,-128.634"/>
</g>
<!-- Node6 -->
<g id="node6" class="node"><title>Node6</title>
<g id="a_node6"><a xlink:href="classadb_1_1adb__protocol_1_1__AdbConnection.xhtml#a3bcf4458221c2c30fd7db3171794ed74" target="_top" xlink:title="adb.adb_protocol._AdbConnection.\lClose">
<polygon fill="white" stroke="black" points="191.5,-73.5 191.5,-103.5 360.5,-103.5 360.5,-73.5 191.5,-73.5"/>
<text text-anchor="start" x="199.5" y="-91.5" font-family="Helvetica,sans-Serif" font-size="10.00">adb.adb_protocol._AdbConnection.</text>
<text text-anchor="middle" x="276" y="-80.5" font-family="Helvetica,sans-Serif" font-size="10.00">Close</text>
</a>
</g>
</g>
<!-- Node1&#45;&gt;Node6 -->
<g id="edge5" class="edge"><title>Node1&#45;&gt;Node6</title>
<path fill="none" stroke="midnightblue" d="M151.261,-103.461C161.07,-102.275 171.219,-101.048 181.292,-99.83"/>
<polygon fill="midnightblue" stroke="midnightblue" points="181.816,-103.292 191.323,-98.6171 180.975,-96.3428 181.816,-103.292"/>
</g>
<!-- Node10 -->
<g id="node10" class="node"><title>Node10</title>
<g id="a_node10"><a xlink:href="classadb_1_1common_1_1UsbHandle.xhtml#aa4dcc7335abc4e231eb6a9f7cc5dede6" target="_top" xlink:title="adb.common.UsbHandle.Close">
<polygon fill="white" stroke="black" points="199.5,-16 199.5,-35 352.5,-35 352.5,-16 199.5,-16"/>
<text text-anchor="middle" x="276" y="-23" font-family="Helvetica,sans-Serif" font-size="10.00">adb.common.UsbHandle.Close</text>
</a>
</g>
</g>
<!-- Node1&#45;&gt;Node10 -->
<g id="edge10" class="edge"><title>Node1&#45;&gt;Node10</title>
<path fill="none" stroke="midnightblue" d="M98.0696,-102.861C120.322,-92.9339 156.047,-77.0454 187,-63.5 205.607,-55.3575 226.473,-46.3419 243.216,-39.1364"/>
<polygon fill="midnightblue" stroke="midnightblue" points="244.745,-42.2889 252.549,-35.1233 241.979,-35.8582 244.745,-42.2889"/>
</g>
<!-- Node4 -->
<g id="node4" class="node"><title>Node4</title>
<g id="a_node4"><a xlink:href="classadb_1_1adb__commands_1_1AdbCommands.xhtml#ad6f4ddfcb99529b1345ad2005e8f2be4" target="_top" xlink:title="adb.adb_commands.AdbCommands.\l__reset">
<polygon fill="white" stroke="black" points="401,-132.5 401,-162.5 579,-162.5 579,-132.5 401,-132.5"/>
<text text-anchor="start" x="409" y="-150.5" font-family="Helvetica,sans-Serif" font-size="10.00">adb.adb_commands.AdbCommands.</text>
<text text-anchor="middle" x="490" y="-139.5" font-family="Helvetica,sans-Serif" font-size="10.00">__reset</text>
</a>
</g>
</g>
<!-- Node3&#45;&gt;Node4 -->
<g id="edge3" class="edge"><title>Node3&#45;&gt;Node4</title>
<path fill="none" stroke="midnightblue" d="M365.065,-141.654C373.569,-142.055 382.232,-142.464 390.825,-142.869"/>
<polygon fill="midnightblue" stroke="midnightblue" points="390.714,-146.368 400.868,-143.343 391.044,-139.375 390.714,-146.368"/>
</g>
<!-- Node5 -->
<g id="node5" class="node"><title>Node5</title>
<g id="a_node5"><a xlink:href="classadb_1_1adb__commands_1_1AdbCommands.xhtml#a703b12c1f82f8260b17043aa97f2424a" target="_top" xlink:title="adb.adb_commands.AdbCommands.\l__init__">
<polygon fill="white" stroke="black" points="622,-132.5 622,-162.5 800,-162.5 800,-132.5 622,-132.5"/>
<text text-anchor="start" x="630" y="-150.5" font-family="Helvetica,sans-Serif" font-size="10.00">adb.adb_commands.AdbCommands.</text>
<text text-anchor="middle" x="711" y="-139.5" font-family="Helvetica,sans-Serif" font-size="10.00">__init__</text>
</a>
</g>
</g>
<!-- Node4&#45;&gt;Node5 -->
<g id="edge4" class="edge"><title>Node4&#45;&gt;Node5</title>
<path fill="none" stroke="midnightblue" d="M579.129,-147.5C589.757,-147.5 600.665,-147.5 611.431,-147.5"/>
<polygon fill="midnightblue" stroke="midnightblue" points="611.695,-151 621.695,-147.5 611.695,-144 611.695,-151"/>
</g>
<!-- Node7 -->
<g id="node7" class="node"><title>Node7</title>
<g id="a_node7"><a xlink:href="classadb_1_1adb__protocol_1_1__AdbConnection.xhtml#afaf68a0fc17b74faeb6e21984d059c89" target="_top" xlink:title="adb.adb_protocol._AdbConnection._Send">
<polygon fill="white" stroke="black" points="843,-73 843,-92 1040,-92 1040,-73 843,-73"/>
<text text-anchor="middle" x="941.5" y="-80" font-family="Helvetica,sans-Serif" font-size="10.00">adb.adb_protocol._AdbConnection._Send</text>
</a>
</g>
</g>
<!-- Node6&#45;&gt;Node7 -->
<g id="edge6" class="edge"><title>Node6&#45;&gt;Node7</title>
<path fill="none" stroke="midnightblue" d="M360.697,-87.7431C480.468,-86.6601 700.811,-84.6675 832.663,-83.4752"/>
<polygon fill="midnightblue" stroke="midnightblue" points="832.816,-86.974 842.784,-83.3836 832.753,-79.9743 832.816,-86.974"/>
</g>
<!-- Node8 -->
<g id="node8" class="node"><title>Node8</title>
<g id="a_node8"><a xlink:href="classadb_1_1adb__protocol_1_1__AdbConnection.xhtml#a398196cc2511e4ea2a3581cb2395a0a8" target="_top" xlink:title="adb.adb_protocol._AdbConnection.\lReadUntil">
<polygon fill="white" stroke="black" points="405.5,-44.5 405.5,-74.5 574.5,-74.5 574.5,-44.5 405.5,-44.5"/>
<text text-anchor="start" x="413.5" y="-62.5" font-family="Helvetica,sans-Serif" font-size="10.00">adb.adb_protocol._AdbConnection.</text>
<text text-anchor="middle" x="490" y="-51.5" font-family="Helvetica,sans-Serif" font-size="10.00">ReadUntil</text>
</a>
</g>
</g>
<!-- Node6&#45;&gt;Node8 -->
<g id="edge7" class="edge"><title>Node6&#45;&gt;Node8</title>
<path fill="none" stroke="midnightblue" d="M360.788,-77.0384C372.157,-75.4833 383.882,-73.8794 395.409,-72.3026"/>
<polygon fill="midnightblue" stroke="midnightblue" points="396.04,-75.7489 405.474,-70.9258 395.091,-68.8135 396.04,-75.7489"/>
</g>
<!-- Node9 -->
<g id="node9" class="node"><title>Node9</title>
<g id="a_node9"><a xlink:href="classadb_1_1adb__protocol_1_1__AdbConnection.xhtml#a3f8e837ace6e380c85d5d7867b964f29" target="_top" xlink:title="adb.adb_protocol._AdbConnection.Okay">
<polygon fill="white" stroke="black" points="615,-53 615,-72 807,-72 807,-53 615,-53"/>
<text text-anchor="middle" x="711" y="-60" font-family="Helvetica,sans-Serif" font-size="10.00">adb.adb_protocol._AdbConnection.Okay</text>
</a>
</g>
</g>
<!-- Node8&#45;&gt;Node9 -->
<g id="edge8" class="edge"><title>Node8&#45;&gt;Node9</title>
<path fill="none" stroke="midnightblue" d="M574.732,-60.647C584.603,-60.7822 594.771,-60.9215 604.889,-61.0601"/>
<polygon fill="midnightblue" stroke="midnightblue" points="604.93,-64.5609 614.977,-61.1983 605.025,-57.5616 604.93,-64.5609"/>
</g>
<!-- Node9&#45;&gt;Node7 -->
<g id="edge9" class="edge"><title>Node9&#45;&gt;Node7</title>
<path fill="none" stroke="midnightblue" d="M807.25,-70.837C815.699,-71.5765 824.292,-72.3286 832.835,-73.0763"/>
<polygon fill="midnightblue" stroke="midnightblue" points="832.562,-76.5658 842.829,-73.9511 833.172,-69.5924 832.562,-76.5658"/>
</g>
<!-- Node11 -->
<g id="node11" class="node"><title>Node11</title>
<g id="a_node11"><a xlink:href="classadb_1_1common_1_1UsbHandle.xhtml#a8853067620b240c229c1efe8ac04ce88" target="_top" xlink:title="adb.common.UsbHandle.usb_info">
<polygon fill="white" stroke="black" points="408,-6 408,-25 572,-25 572,-6 408,-6"/>
<text text-anchor="middle" x="490" y="-13" font-family="Helvetica,sans-Serif" font-size="10.00">adb.common.UsbHandle.usb_info</text>
</a>
</g>
</g>
<!-- Node10&#45;&gt;Node11 -->
<g id="edge11" class="edge"><title>Node10&#45;&gt;Node11</title>
<path fill="none" stroke="midnightblue" d="M352.639,-21.9321C367.132,-21.2485 382.451,-20.5259 397.382,-19.8216"/>
<polygon fill="midnightblue" stroke="midnightblue" points="397.819,-23.305 407.643,-19.3376 397.489,-16.3128 397.819,-23.305"/>
</g>
<!-- Node12 -->
<g id="node12" class="node"><title>Node12</title>
<g id="a_node12"><a xlink:href="classadb_1_1common_1_1UsbHandle.xhtml#a182ca356bc1ba1aaccfbed946b4b43a4" target="_top" xlink:title="adb.common.UsbHandle.serial\l_number">
<polygon fill="white" stroke="black" points="635.5,-0.5 635.5,-30.5 786.5,-30.5 786.5,-0.5 635.5,-0.5"/>
<text text-anchor="start" x="643.5" y="-18.5" font-family="Helvetica,sans-Serif" font-size="10.00">adb.common.UsbHandle.serial</text>
<text text-anchor="middle" x="711" y="-7.5" font-family="Helvetica,sans-Serif" font-size="10.00">_number</text>
</a>
</g>
</g>
<!-- Node11&#45;&gt;Node12 -->
<g id="edge12" class="edge"><title>Node11&#45;&gt;Node12</title>
<path fill="none" stroke="midnightblue" d="M572.236,-15.5C589.535,-15.5 607.844,-15.5 625.27,-15.5"/>
<polygon fill="midnightblue" stroke="midnightblue" points="625.414,-19.0001 635.414,-15.5 625.414,-12.0001 625.414,-19.0001"/>
</g>
</g>
</svg>
