<?xml version="1.0" encoding="UTF-8" standalone="no"?>
<!DOCTYPE svg PUBLIC "-//W3C//DTD SVG 1.1//EN"
 "http://www.w3.org/Graphics/SVG/1.1/DTD/svg11.dtd">
<!-- Generated by graphviz version 2.38.0 (20140413.2041)
 -->
<!-- Title: adb.common.UsbHandle.Find Pages: 1 -->
<svg width="524pt" height="137pt"
 viewBox="0.00 0.00 524.00 137.00" xmlns="http://www.w3.org/2000/svg" xmlns:xlink="http://www.w3.org/1999/xlink">
<g id="graph0" class="graph" transform="scale(1 1) rotate(0) translate(4 133)">
<title>adb.common.UsbHandle.Find</title>
<polygon fill="white" stroke="none" points="-4,4 -4,-133 520,-133 520,4 -4,4"/>
<!-- Node1 -->
<g id="node1" class="node"><title>Node1</title>
<polygon fill="#bfbfbf" stroke="black" points="0,-55 0,-74 146,-74 146,-55 0,-55"/>
<text text-anchor="middle" x="73" y="-62" font-family="Helvetica,sans-Serif" font-size="10.00">adb.common.UsbHandle.Find</text>
</g>
<!-- Node2 -->
<g id="node2" class="node"><title>Node2</title>
<g id="a_node2"><a xlink:href="classadb_1_1common_1_1UsbHandle.xhtml#a5ece9b880d91e858f68bb245c2b67062" target="_top" xlink:title="adb.common.UsbHandle.Port\lPathMatcher">
<polygon fill="white" stroke="black" points="185,-98.5 185,-128.5 331,-128.5 331,-98.5 185,-98.5"/>
<text text-anchor="start" x="193" y="-116.5" font-family="Helvetica,sans-Serif" font-size="10.00">adb.common.UsbHandle.Port</text>
<text text-anchor="middle" x="258" y="-105.5" font-family="Helvetica,sans-Serif" font-size="10.00">PathMatcher</text>
</a>
</g>
</g>
<!-- Node1&#45;&gt;Node2 -->
<g id="edge1" class="edge"><title>Node1&#45;&gt;Node2</title>
<path fill="none" stroke="midnightblue" d="M109.719,-74.064C132.786,-80.2405 163.502,-88.4649 190.913,-95.8045"/>
<polygon fill="midnightblue" stroke="midnightblue" points="190.277,-99.2574 200.842,-98.463 192.087,-92.4956 190.277,-99.2574"/>
</g>
<!-- Node3 -->
<g id="node3" class="node"><title>Node3</title>
<g id="a_node3"><a xlink:href="classadb_1_1common_1_1UsbHandle.xhtml#a6d32add3d17a3af3f8905f3b3fcf4a16" target="_top" xlink:title="adb.common.UsbHandle.Serial\lMatcher">
<polygon fill="white" stroke="black" points="182,-49.5 182,-79.5 334,-79.5 334,-49.5 182,-49.5"/>
<text text-anchor="start" x="190" y="-67.5" font-family="Helvetica,sans-Serif" font-size="10.00">adb.common.UsbHandle.Serial</text>
<text text-anchor="middle" x="258" y="-56.5" font-family="Helvetica,sans-Serif" font-size="10.00">Matcher</text>
</a>
</g>
</g>
<!-- Node1&#45;&gt;Node3 -->
<g id="edge2" class="edge"><title>Node1&#45;&gt;Node3</title>
<path fill="none" stroke="midnightblue" d="M146.064,-64.5C154.547,-64.5 163.263,-64.5 171.903,-64.5"/>
<polygon fill="midnightblue" stroke="midnightblue" points="171.992,-68.0001 181.992,-64.5 171.992,-61.0001 171.992,-68.0001"/>
</g>
<!-- Node4 -->
<g id="node4" class="node"><title>Node4</title>
<g id="a_node4"><a xlink:href="classadb_1_1common_1_1UsbHandle.xhtml#adbb1f5a37322ab8165ceb3dbbbf3175f" target="_top" xlink:title="adb.common.UsbHandle.Find\lFirst">
<polygon fill="white" stroke="black" points="185,-0.5 185,-30.5 331,-30.5 331,-0.5 185,-0.5"/>
<text text-anchor="start" x="193" y="-18.5" font-family="Helvetica,sans-Serif" font-size="10.00">adb.common.UsbHandle.Find</text>
<text text-anchor="middle" x="258" y="-7.5" font-family="Helvetica,sans-Serif" font-size="10.00">First</text>
</a>
</g>
</g>
<!-- Node1&#45;&gt;Node4 -->
<g id="edge3" class="edge"><title>Node1&#45;&gt;Node4</title>
<path fill="none" stroke="midnightblue" d="M109.719,-54.936C132.786,-48.7595 163.502,-40.5351 190.913,-33.1955"/>
<polygon fill="midnightblue" stroke="midnightblue" points="192.087,-36.5044 200.842,-30.537 190.277,-29.7426 192.087,-36.5044"/>
</g>
<!-- Node5 -->
<g id="node5" class="node"><title>Node5</title>
<g id="a_node5"><a xlink:href="classadb_1_1common_1_1UsbHandle.xhtml#a01407813410d8d0a5366f50f0d410e44" target="_top" xlink:title="adb.common.UsbHandle.Find\lDevices">
<polygon fill="white" stroke="black" points="370,-0.5 370,-30.5 516,-30.5 516,-0.5 370,-0.5"/>
<text text-anchor="start" x="378" y="-18.5" font-family="Helvetica,sans-Serif" font-size="10.00">adb.common.UsbHandle.Find</text>
<text text-anchor="middle" x="443" y="-7.5" font-family="Helvetica,sans-Serif" font-size="10.00">Devices</text>
</a>
</g>
</g>
<!-- Node4&#45;&gt;Node5 -->
<g id="edge4" class="edge"><title>Node4&#45;&gt;Node5</title>
<path fill="none" stroke="midnightblue" d="M331.064,-15.5C340.392,-15.5 350.003,-15.5 359.484,-15.5"/>
<polygon fill="midnightblue" stroke="midnightblue" points="359.702,-19.0001 369.702,-15.5 359.702,-12.0001 359.702,-19.0001"/>
</g>
</g>
</svg>
