<?xml version="1.0" encoding="UTF-8" standalone="no"?>
<!DOCTYPE svg PUBLIC "-//W3C//DTD SVG 1.1//EN"
 "http://www.w3.org/Graphics/SVG/1.1/DTD/svg11.dtd">
<!-- Generated by graphviz version 2.38.0 (20140413.2041)
 -->
<!-- Title: adb.common.UsbHandle.usb_info Pages: 1 -->
<svg width="566pt" height="122pt"
 viewBox="0.00 0.00 566.00 121.50" xmlns="http://www.w3.org/2000/svg" xmlns:xlink="http://www.w3.org/1999/xlink">
<g id="graph0" class="graph" transform="scale(1 1) rotate(0) translate(4 117.5)">
<title>adb.common.UsbHandle.usb_info</title>
<polygon fill="white" stroke="none" points="-4,4 -4,-117.5 562,-117.5 562,4 -4,4"/>
<!-- Node1 -->
<g id="node1" class="node"><title>Node1</title>
<polygon fill="#bfbfbf" stroke="black" points="0,-50 0,-69 164,-69 164,-50 0,-50"/>
<text text-anchor="middle" x="82" y="-57" font-family="Helvetica,sans-Serif" font-size="10.00">adb.common.UsbHandle.usb_info</text>
</g>
<!-- Node2 -->
<g id="node2" class="node"><title>Node2</title>
<g id="a_node2"><a xlink:href="classadb_1_1common_1_1UsbHandle.xhtml#aa4dcc7335abc4e231eb6a9f7cc5dede6" target="_top" xlink:title="adb.common.UsbHandle.Close">
<polygon fill="white" stroke="black" points="208.5,-94 208.5,-113 361.5,-113 361.5,-94 208.5,-94"/>
<text text-anchor="middle" x="285" y="-101" font-family="Helvetica,sans-Serif" font-size="10.00">adb.common.UsbHandle.Close</text>
</a>
</g>
</g>
<!-- Node1&#45;&gt;Node2 -->
<g id="edge1" class="edge"><title>Node1&#45;&gt;Node2</title>
<path fill="none" stroke="midnightblue" d="M136.411,-71.192C168.926,-78.3096 209.937,-87.2872 240.471,-93.9713"/>
<polygon fill="midnightblue" stroke="midnightblue" points="137.131,-67.7668 126.614,-69.0473 135.634,-74.6049 137.131,-67.7668"/>
</g>
<!-- Node4 -->
<g id="node4" class="node"><title>Node4</title>
<g id="a_node4"><a xlink:href="classadb_1_1common_1_1UsbHandle.xhtml#a94a038e0d680e1b279f4d289b98f6352" target="_top" xlink:title="adb.common.UsbHandle.Bulk\lWrite">
<polygon fill="white" stroke="black" points="211.5,-44.5 211.5,-74.5 358.5,-74.5 358.5,-44.5 211.5,-44.5"/>
<text text-anchor="start" x="219.5" y="-62.5" font-family="Helvetica,sans-Serif" font-size="10.00">adb.common.UsbHandle.Bulk</text>
<text text-anchor="middle" x="285" y="-51.5" font-family="Helvetica,sans-Serif" font-size="10.00">Write</text>
</a>
</g>
</g>
<!-- Node1&#45;&gt;Node4 -->
<g id="edge3" class="edge"><title>Node1&#45;&gt;Node4</title>
<path fill="none" stroke="midnightblue" d="M174.476,-59.5C186.809,-59.5 199.326,-59.5 211.273,-59.5"/>
<polygon fill="midnightblue" stroke="midnightblue" points="174.175,-56.0001 164.175,-59.5 174.175,-63.0001 174.175,-56.0001"/>
</g>
<!-- Node5 -->
<g id="node5" class="node"><title>Node5</title>
<g id="a_node5"><a xlink:href="classadb_1_1common_1_1UsbHandle.xhtml#a35dde138b9f918cf936affe61a44ac6f" target="_top" xlink:title="adb.common.UsbHandle.BulkRead">
<polygon fill="white" stroke="black" points="200,-6 200,-25 370,-25 370,-6 200,-6"/>
<text text-anchor="middle" x="285" y="-13" font-family="Helvetica,sans-Serif" font-size="10.00">adb.common.UsbHandle.BulkRead</text>
</a>
</g>
</g>
<!-- Node1&#45;&gt;Node5 -->
<g id="edge4" class="edge"><title>Node1&#45;&gt;Node5</title>
<path fill="none" stroke="midnightblue" d="M136.411,-47.808C168.926,-40.6904 209.937,-31.7128 240.471,-25.0287"/>
<polygon fill="midnightblue" stroke="midnightblue" points="135.634,-44.3951 126.614,-49.9527 137.131,-51.2332 135.634,-44.3951"/>
</g>
<!-- Node3 -->
<g id="node3" class="node"><title>Node3</title>
<g id="a_node3"><a xlink:href="classadb_1_1common_1_1UsbHandle.xhtml#a70a5840c62e032635a221637cde99f4d" target="_top" xlink:title="adb.common.UsbHandle.Open">
<polygon fill="white" stroke="black" points="406.5,-94 406.5,-113 557.5,-113 557.5,-94 406.5,-94"/>
<text text-anchor="middle" x="482" y="-101" font-family="Helvetica,sans-Serif" font-size="10.00">adb.common.UsbHandle.Open</text>
</a>
</g>
</g>
<!-- Node2&#45;&gt;Node3 -->
<g id="edge2" class="edge"><title>Node2&#45;&gt;Node3</title>
<path fill="none" stroke="midnightblue" d="M371.73,-103.5C383.261,-103.5 395.015,-103.5 406.334,-103.5"/>
<polygon fill="midnightblue" stroke="midnightblue" points="371.671,-100 361.671,-103.5 371.671,-107 371.671,-100"/>
</g>
<!-- Node6 -->
<g id="node6" class="node"><title>Node6</title>
<g id="a_node6"><a xlink:href="classadb_1_1common_1_1UsbHandle.xhtml#a08cae62ee61ff4fc0f6424caac9d8de6" target="_top" xlink:title="adb.common.UsbHandle.Flush\lBuffers">
<polygon fill="white" stroke="black" points="406,-0.5 406,-30.5 558,-30.5 558,-0.5 406,-0.5"/>
<text text-anchor="start" x="414" y="-18.5" font-family="Helvetica,sans-Serif" font-size="10.00">adb.common.UsbHandle.Flush</text>
<text text-anchor="middle" x="482" y="-7.5" font-family="Helvetica,sans-Serif" font-size="10.00">Buffers</text>
</a>
</g>
</g>
<!-- Node5&#45;&gt;Node6 -->
<g id="edge5" class="edge"><title>Node5&#45;&gt;Node6</title>
<path fill="none" stroke="midnightblue" d="M380.162,-15.5C388.75,-15.5 397.373,-15.5 405.763,-15.5"/>
<polygon fill="midnightblue" stroke="midnightblue" points="380.112,-12.0001 370.112,-15.5 380.112,-19.0001 380.112,-12.0001"/>
</g>
</g>
</svg>
