<?xml version="1.0" encoding="UTF-8" standalone="no"?>
<!DOCTYPE svg PUBLIC "-//W3C//DTD SVG 1.1//EN"
 "http://www.w3.org/Graphics/SVG/1.1/DTD/svg11.dtd">
<!-- Generated by graphviz version 2.38.0 (20140413.2041)
 -->
<!-- Title: adb.adb_protocol.AdbMessage.Pack Pages: 1 -->
<svg width="609pt" height="39pt"
 viewBox="0.00 0.00 609.00 39.00" xmlns="http://www.w3.org/2000/svg" xmlns:xlink="http://www.w3.org/1999/xlink">
<g id="graph0" class="graph" transform="scale(1 1) rotate(0) translate(4 35)">
<title>adb.adb_protocol.AdbMessage.Pack</title>
<polygon fill="white" stroke="none" points="-4,4 -4,-35 605,-35 605,4 -4,4"/>
<!-- Node1 -->
<g id="node1" class="node"><title>Node1</title>
<polygon fill="#bfbfbf" stroke="black" points="0,-6 0,-25 176,-25 176,-6 0,-6"/>
<text text-anchor="middle" x="88" y="-13" font-family="Helvetica,sans-Serif" font-size="10.00">adb.adb_protocol.AdbMessage.Pack</text>
</g>
<!-- Node2 -->
<g id="node2" class="node"><title>Node2</title>
<g id="a_node2"><a xlink:href="classadb_1_1adb__protocol_1_1AdbMessage.xhtml#a3a1045afa24675a62da96834dd11197c" target="_top" xlink:title="adb.adb_protocol.AdbMessage.checksum">
<polygon fill="white" stroke="black" points="212,-6 212,-25 411,-25 411,-6 212,-6"/>
<text text-anchor="middle" x="311.5" y="-13" font-family="Helvetica,sans-Serif" font-size="10.00">adb.adb_protocol.AdbMessage.checksum</text>
</a>
</g>
</g>
<!-- Node1&#45;&gt;Node2 -->
<g id="edge1" class="edge"><title>Node1&#45;&gt;Node2</title>
<path fill="none" stroke="midnightblue" d="M176.225,-15.5C184.487,-15.5 192.933,-15.5 201.366,-15.5"/>
<polygon fill="midnightblue" stroke="midnightblue" points="201.633,-19.0001 211.633,-15.5 201.633,-12.0001 201.633,-19.0001"/>
</g>
<!-- Node3 -->
<g id="node3" class="node"><title>Node3</title>
<g id="a_node3"><a xlink:href="classadb_1_1adb__protocol_1_1AdbMessage.xhtml#a94f0f744eab64603e9ee3f313ef0805f" target="_top" xlink:title="adb.adb_protocol.AdbMessage.\lCalculateChecksum">
<polygon fill="white" stroke="black" points="447,-0.5 447,-30.5 601,-30.5 601,-0.5 447,-0.5"/>
<text text-anchor="start" x="455" y="-18.5" font-family="Helvetica,sans-Serif" font-size="10.00">adb.adb_protocol.AdbMessage.</text>
<text text-anchor="middle" x="524" y="-7.5" font-family="Helvetica,sans-Serif" font-size="10.00">CalculateChecksum</text>
</a>
</g>
</g>
<!-- Node2&#45;&gt;Node3 -->
<g id="edge2" class="edge"><title>Node2&#45;&gt;Node3</title>
<path fill="none" stroke="midnightblue" d="M411.278,-15.5C419.784,-15.5 428.346,-15.5 436.741,-15.5"/>
<polygon fill="midnightblue" stroke="midnightblue" points="436.884,-19.0001 446.884,-15.5 436.884,-12.0001 436.884,-19.0001"/>
</g>
</g>
</svg>
