<?xml version="1.0" encoding="UTF-8" standalone="no"?>
<!DOCTYPE svg PUBLIC "-//W3C//DTD SVG 1.1//EN"
 "http://www.w3.org/Graphics/SVG/1.1/DTD/svg11.dtd">
<!-- Generated by graphviz version 2.38.0 (20140413.2041)
 -->
<!-- Title: adb.filesync_protocol.FileSyncConnection.Read Pages: 1 -->
<svg width="329pt" height="88pt"
 viewBox="0.00 0.00 329.00 88.00" xmlns="http://www.w3.org/2000/svg" xmlns:xlink="http://www.w3.org/1999/xlink">
<g id="graph0" class="graph" transform="scale(1 1) rotate(0) translate(4 84)">
<title>adb.filesync_protocol.FileSyncConnection.Read</title>
<polygon fill="white" stroke="none" points="-4,4 -4,-84 325,-84 325,4 -4,4"/>
<!-- Node1 -->
<g id="node1" class="node"><title>Node1</title>
<polygon fill="#bfbfbf" stroke="black" points="0,-24.5 0,-54.5 128,-54.5 128,-24.5 0,-24.5"/>
<text text-anchor="start" x="8" y="-42.5" font-family="Helvetica,sans-Serif" font-size="10.00">adb.filesync_protocol.File</text>
<text text-anchor="middle" x="64" y="-31.5" font-family="Helvetica,sans-Serif" font-size="10.00">SyncConnection.Read</text>
</g>
<!-- Node2 -->
<g id="node2" class="node"><title>Node2</title>
<g id="a_node2"><a xlink:href="classadb_1_1filesync__protocol_1_1FileSyncConnection.xhtml#a8535c89f6541e5cb17028755fb89afdf" target="_top" xlink:title="adb.filesync_protocol.File\lSyncConnection._Flush">
<polygon fill="white" stroke="black" points="178.5,-49.5 178.5,-79.5 306.5,-79.5 306.5,-49.5 178.5,-49.5"/>
<text text-anchor="start" x="186.5" y="-67.5" font-family="Helvetica,sans-Serif" font-size="10.00">adb.filesync_protocol.File</text>
<text text-anchor="middle" x="242.5" y="-56.5" font-family="Helvetica,sans-Serif" font-size="10.00">SyncConnection._Flush</text>
</a>
</g>
</g>
<!-- Node1&#45;&gt;Node2 -->
<g id="edge1" class="edge"><title>Node1&#45;&gt;Node2</title>
<path fill="none" stroke="midnightblue" d="M128.222,-48.455C141.228,-50.2972 155.024,-52.2513 168.348,-54.1385"/>
<polygon fill="midnightblue" stroke="midnightblue" points="168.031,-57.6285 178.423,-55.5656 169.013,-50.6976 168.031,-57.6285"/>
</g>
<!-- Node3 -->
<g id="node3" class="node"><title>Node3</title>
<g id="a_node3"><a xlink:href="classadb_1_1filesync__protocol_1_1FileSyncConnection.xhtml#a2a9bd4e3fa23967f98a1ed095bd3c92c" target="_top" xlink:title="adb.filesync_protocol.File\lSyncConnection._ReadBuffered">
<polygon fill="white" stroke="black" points="164,-0.5 164,-30.5 321,-30.5 321,-0.5 164,-0.5"/>
<text text-anchor="start" x="172" y="-18.5" font-family="Helvetica,sans-Serif" font-size="10.00">adb.filesync_protocol.File</text>
<text text-anchor="middle" x="242.5" y="-7.5" font-family="Helvetica,sans-Serif" font-size="10.00">SyncConnection._ReadBuffered</text>
</a>
</g>
</g>
<!-- Node1&#45;&gt;Node3 -->
<g id="edge2" class="edge"><title>Node1&#45;&gt;Node3</title>
<path fill="none" stroke="midnightblue" d="M128.222,-30.9032C136.54,-29.7722 145.182,-28.5971 153.816,-27.423"/>
<polygon fill="midnightblue" stroke="midnightblue" points="154.492,-30.8634 163.929,-26.0479 153.549,-23.9273 154.492,-30.8634"/>
</g>
</g>
</svg>
