<?xml version="1.0" encoding="UTF-8" standalone="no"?>
<!DOCTYPE svg PUBLIC "-//W3C//DTD SVG 1.1//EN"
 "http://www.w3.org/Graphics/SVG/1.1/DTD/svg11.dtd">
<!-- Generated by graphviz version 2.38.0 (20140413.2041)
 -->
<!-- Title: adb.fastboot.FastbootCommands._SimpleCommand Pages: 1 -->
<svg width="596pt" height="358pt"
 viewBox="0.00 0.00 596.00 358.09" xmlns="http://www.w3.org/2000/svg" xmlns:xlink="http://www.w3.org/1999/xlink">
<g id="graph0" class="graph" transform="scale(1 1) rotate(0) translate(4 354.087)">
<title>adb.fastboot.FastbootCommands._SimpleCommand</title>
<polygon fill="white" stroke="none" points="-4,4 -4,-354.087 592,-354.087 592,4 -4,4"/>
<!-- Node1 -->
<g id="node1" class="node"><title>Node1</title>
<polygon fill="#bfbfbf" stroke="black" points="0,-155.587 0,-185.587 165,-185.587 165,-155.587 0,-155.587"/>
<text text-anchor="start" x="8" y="-173.587" font-family="Helvetica,sans-Serif" font-size="10.00">adb.fastboot.FastbootCommands.</text>
<text text-anchor="middle" x="82.5" y="-162.587" font-family="Helvetica,sans-Serif" font-size="10.00">_SimpleCommand</text>
</g>
<!-- Node2 -->
<g id="node2" class="node"><title>Node2</title>
<g id="a_node2"><a xlink:href="classadb_1_1fastboot_1_1FastbootCommands.xhtml#a621a92ec5fa925375f0a1dd9be48fcaf" target="_top" xlink:title="adb.fastboot.FastbootCommands.\lFlash">
<polygon fill="white" stroke="black" points="211.5,-319.587 211.5,-349.587 376.5,-349.587 376.5,-319.587 211.5,-319.587"/>
<text text-anchor="start" x="219.5" y="-337.587" font-family="Helvetica,sans-Serif" font-size="10.00">adb.fastboot.FastbootCommands.</text>
<text text-anchor="middle" x="294" y="-326.587" font-family="Helvetica,sans-Serif" font-size="10.00">Flash</text>
</a>
</g>
</g>
<!-- Node1&#45;&gt;Node2 -->
<g id="edge1" class="edge"><title>Node1&#45;&gt;Node2</title>
<path fill="none" stroke="midnightblue" d="M97.2806,-194.902C116.432,-226.443 154.091,-280.925 201,-310.587 206.441,-314.028 212.359,-316.977 218.484,-319.505"/>
<polygon fill="midnightblue" stroke="midnightblue" points="100.054,-192.718 91.9414,-185.904 94.034,-196.29 100.054,-192.718"/>
</g>
<!-- Node4 -->
<g id="node4" class="node"><title>Node4</title>
<g id="a_node4"><a xlink:href="classadb_1_1fastboot_1_1FastbootCommands.xhtml#ae98daefe59adf63f0b9a45d31fd9aace" target="_top" xlink:title="adb.fastboot.FastbootCommands.\lErase">
<polygon fill="white" stroke="black" points="211.5,-270.587 211.5,-300.587 376.5,-300.587 376.5,-270.587 211.5,-270.587"/>
<text text-anchor="start" x="219.5" y="-288.587" font-family="Helvetica,sans-Serif" font-size="10.00">adb.fastboot.FastbootCommands.</text>
<text text-anchor="middle" x="294" y="-277.587" font-family="Helvetica,sans-Serif" font-size="10.00">Erase</text>
</a>
</g>
</g>
<!-- Node1&#45;&gt;Node4 -->
<g id="edge4" class="edge"><title>Node1&#45;&gt;Node4</title>
<path fill="none" stroke="midnightblue" d="M106.13,-192.696C128.492,-213.365 164.548,-243.66 201,-261.587 207.962,-265.011 215.468,-267.987 223.085,-270.564"/>
<polygon fill="midnightblue" stroke="midnightblue" points="108.499,-190.118 98.8139,-185.822 103.706,-195.22 108.499,-190.118"/>
</g>
<!-- Node5 -->
<g id="node5" class="node"><title>Node5</title>
<g id="a_node5"><a xlink:href="classadb_1_1fastboot_1_1FastbootCommands.xhtml#abbe9134624a5d38960628017c8b82dbd" target="_top" xlink:title="adb.fastboot.FastbootCommands.\lGetvar">
<polygon fill="white" stroke="black" points="211.5,-221.587 211.5,-251.587 376.5,-251.587 376.5,-221.587 211.5,-221.587"/>
<text text-anchor="start" x="219.5" y="-239.587" font-family="Helvetica,sans-Serif" font-size="10.00">adb.fastboot.FastbootCommands.</text>
<text text-anchor="middle" x="294" y="-228.587" font-family="Helvetica,sans-Serif" font-size="10.00">Getvar</text>
</a>
</g>
</g>
<!-- Node1&#45;&gt;Node5 -->
<g id="edge5" class="edge"><title>Node1&#45;&gt;Node5</title>
<path fill="none" stroke="midnightblue" d="M133.86,-189.034C154.552,-196.384 178.819,-204.713 201,-211.587 211.909,-214.968 223.62,-218.343 234.91,-221.469"/>
<polygon fill="midnightblue" stroke="midnightblue" points="134.916,-185.694 124.321,-185.625 132.56,-192.286 134.916,-185.694"/>
</g>
<!-- Node6 -->
<g id="node6" class="node"><title>Node6</title>
<g id="a_node6"><a xlink:href="classadb_1_1fastboot_1_1FastbootCommands.xhtml#ad8c8eaeeb56ca2ef483bd67c5f7f9176" target="_top" xlink:title="adb.fastboot.FastbootCommands.Oem">
<polygon fill="white" stroke="black" points="201,-183.087 201,-202.087 387,-202.087 387,-183.087 201,-183.087"/>
<text text-anchor="middle" x="294" y="-190.087" font-family="Helvetica,sans-Serif" font-size="10.00">adb.fastboot.FastbootCommands.Oem</text>
</a>
</g>
</g>
<!-- Node1&#45;&gt;Node6 -->
<g id="edge6" class="edge"><title>Node1&#45;&gt;Node6</title>
<path fill="none" stroke="midnightblue" d="M175.172,-180.214C184.157,-181.158 193.272,-182.115 202.248,-183.057"/>
<polygon fill="midnightblue" stroke="midnightblue" points="175.409,-176.72 165.098,-179.156 174.678,-183.681 175.409,-176.72"/>
</g>
<!-- Node7 -->
<g id="node7" class="node"><title>Node7</title>
<g id="a_node7"><a xlink:href="classadb_1_1fastboot_1_1FastbootCommands.xhtml#aaf7cfd47a3a38581b1b2ba258671194a" target="_top" xlink:title="adb.fastboot.FastbootCommands.\lContinue">
<polygon fill="white" stroke="black" points="211.5,-133.587 211.5,-163.587 376.5,-163.587 376.5,-133.587 211.5,-133.587"/>
<text text-anchor="start" x="219.5" y="-151.587" font-family="Helvetica,sans-Serif" font-size="10.00">adb.fastboot.FastbootCommands.</text>
<text text-anchor="middle" x="294" y="-140.587" font-family="Helvetica,sans-Serif" font-size="10.00">Continue</text>
</a>
</g>
</g>
<!-- Node1&#45;&gt;Node7 -->
<g id="edge7" class="edge"><title>Node1&#45;&gt;Node7</title>
<path fill="none" stroke="midnightblue" d="M175.134,-160.965C187.164,-159.701 199.429,-158.413 211.28,-157.169"/>
<polygon fill="midnightblue" stroke="midnightblue" points="174.678,-157.493 165.098,-162.019 175.409,-164.455 174.678,-157.493"/>
</g>
<!-- Node8 -->
<g id="node8" class="node"><title>Node8</title>
<g id="a_node8"><a xlink:href="classadb_1_1fastboot_1_1FastbootCommands.xhtml#a878c0f4df9a02a78eb292c7a59f2e8d9" target="_top" xlink:title="adb.fastboot.FastbootCommands.\lReboot">
<polygon fill="white" stroke="black" points="211.5,-84.5874 211.5,-114.587 376.5,-114.587 376.5,-84.5874 211.5,-84.5874"/>
<text text-anchor="start" x="219.5" y="-102.587" font-family="Helvetica,sans-Serif" font-size="10.00">adb.fastboot.FastbootCommands.</text>
<text text-anchor="middle" x="294" y="-91.5874" font-family="Helvetica,sans-Serif" font-size="10.00">Reboot</text>
</a>
</g>
</g>
<!-- Node1&#45;&gt;Node8 -->
<g id="edge8" class="edge"><title>Node1&#45;&gt;Node8</title>
<path fill="none" stroke="midnightblue" d="M128.19,-151.781C149.956,-142.96 176.63,-132.643 201,-124.587 211.529,-121.107 222.849,-117.736 233.824,-114.655"/>
<polygon fill="midnightblue" stroke="midnightblue" points="126.808,-148.565 118.874,-155.587 129.455,-155.045 126.808,-148.565"/>
</g>
<!-- Node9 -->
<g id="node9" class="node"><title>Node9</title>
<g id="a_node9"><a xlink:href="classadb_1_1fastboot_1_1FastbootCommands.xhtml#a8ca0516e86ee1740e9b5ddce2c65ef9a" target="_top" xlink:title="adb.fastboot.FastbootCommands.\lRebootBootloader">
<polygon fill="white" stroke="black" points="211.5,-35.5874 211.5,-65.5874 376.5,-65.5874 376.5,-35.5874 211.5,-35.5874"/>
<text text-anchor="start" x="219.5" y="-53.5874" font-family="Helvetica,sans-Serif" font-size="10.00">adb.fastboot.FastbootCommands.</text>
<text text-anchor="middle" x="294" y="-42.5874" font-family="Helvetica,sans-Serif" font-size="10.00">RebootBootloader</text>
</a>
</g>
</g>
<!-- Node1&#45;&gt;Node9 -->
<g id="edge9" class="edge"><title>Node1&#45;&gt;Node9</title>
<path fill="none" stroke="midnightblue" d="M105.234,-148.276C127.427,-126.714 163.809,-94.6017 201,-75.5874 208.516,-71.7448 216.688,-68.441 224.958,-65.6138"/>
<polygon fill="midnightblue" stroke="midnightblue" points="102.653,-145.906 97.9982,-155.424 107.572,-150.886 102.653,-145.906"/>
</g>
<!-- Node3 -->
<g id="node3" class="node"><title>Node3</title>
<g id="a_node3"><a xlink:href="classadb_1_1fastboot_1_1FastbootCommands.xhtml#a011e85b1ffc526bcda0808ddffb7f9e3" target="_top" xlink:title="adb.fastboot.FastbootCommands.\lFlashFromFile">
<polygon fill="white" stroke="black" points="423,-155.587 423,-185.587 588,-185.587 588,-155.587 423,-155.587"/>
<text text-anchor="start" x="431" y="-173.587" font-family="Helvetica,sans-Serif" font-size="10.00">adb.fastboot.FastbootCommands.</text>
<text text-anchor="middle" x="505.5" y="-162.587" font-family="Helvetica,sans-Serif" font-size="10.00">FlashFromFile</text>
</a>
</g>
</g>
<!-- Node2&#45;&gt;Node3 -->
<g id="edge2" class="edge"><title>Node2&#45;&gt;Node3</title>
<path fill="none" stroke="midnightblue" d="M378.788,-315.249C381.617,-313.805 384.364,-312.254 387,-310.587 438.761,-277.856 479.26,-214.905 496.059,-185.904"/>
<polygon fill="midnightblue" stroke="midnightblue" points="377.145,-312.153 369.516,-319.505 380.065,-318.514 377.145,-312.153"/>
</g>
<!-- Node3&#45;&gt;Node1 -->
<g id="edge3" class="edge"><title>Node3&#45;&gt;Node1</title>
<path fill="none" stroke="midnightblue" d="M493.253,-146.236C475.957,-112.093 439.265,-51.3969 387,-26.5874 312.32,8.86246 275.68,8.86246 201,-26.5874 143.576,-53.8459 104.95,-124.426 90.1962,-155.51"/>
<polygon fill="midnightblue" stroke="midnightblue" points="490.256,-148.075 497.804,-155.51 496.541,-144.991 490.256,-148.075"/>
</g>
</g>
</svg>
