<?xml version="1.0" encoding="UTF-8" standalone="no"?>
<!DOCTYPE svg PUBLIC "-//W3C//DTD SVG 1.1//EN"
 "http://www.w3.org/Graphics/SVG/1.1/DTD/svg11.dtd">
<!-- Generated by graphviz version 2.38.0 (20140413.2041)
 -->
<!-- Title: adb.adb_commands.AdbCommands.__init__ Pages: 1 -->
<svg width="801pt" height="88pt"
 viewBox="0.00 0.00 801.00 88.00" xmlns="http://www.w3.org/2000/svg" xmlns:xlink="http://www.w3.org/1999/xlink">
<g id="graph0" class="graph" transform="scale(1 1) rotate(0) translate(4 84)">
<title>adb.adb_commands.AdbCommands.__init__</title>
<polygon fill="white" stroke="none" points="-4,4 -4,-84 797,-84 797,4 -4,4"/>
<!-- Node1 -->
<g id="node1" class="node"><title>Node1</title>
<polygon fill="#bfbfbf" stroke="black" points="0,-24.5 0,-54.5 178,-54.5 178,-24.5 0,-24.5"/>
<text text-anchor="start" x="8" y="-42.5" font-family="Helvetica,sans-Serif" font-size="10.00">adb.adb_commands.AdbCommands.</text>
<text text-anchor="middle" x="89" y="-31.5" font-family="Helvetica,sans-Serif" font-size="10.00">__init__</text>
</g>
<!-- Node2 -->
<g id="node2" class="node"><title>Node2</title>
<g id="a_node2"><a xlink:href="classadb_1_1adb__commands_1_1AdbCommands.xhtml#ad6f4ddfcb99529b1345ad2005e8f2be4" target="_top" xlink:title="adb.adb_commands.AdbCommands.\l__reset">
<polygon fill="white" stroke="black" points="214,-49.5 214,-79.5 392,-79.5 392,-49.5 214,-49.5"/>
<text text-anchor="start" x="222" y="-67.5" font-family="Helvetica,sans-Serif" font-size="10.00">adb.adb_commands.AdbCommands.</text>
<text text-anchor="middle" x="303" y="-56.5" font-family="Helvetica,sans-Serif" font-size="10.00">__reset</text>
</a>
</g>
</g>
<!-- Node1&#45;&gt;Node2 -->
<g id="edge1" class="edge"><title>Node1&#45;&gt;Node2</title>
<path fill="none" stroke="midnightblue" d="M188.107,-51.0693C196.7,-52.0826 205.363,-53.1041 213.868,-54.107"/>
<polygon fill="midnightblue" stroke="midnightblue" points="188.406,-47.5804 178.065,-49.8851 187.587,-54.5322 188.406,-47.5804"/>
</g>
<!-- Node5 -->
<g id="node5" class="node"><title>Node5</title>
<g id="a_node5"><a xlink:href="classadb_1_1fastboot_1_1FastbootCommands.xhtml#a3a9e448a2f09c5e81cd9805c2b101de1" target="_top" xlink:title="adb.fastboot.FastbootCommands.\l__reset">
<polygon fill="white" stroke="black" points="220.5,-0.5 220.5,-30.5 385.5,-30.5 385.5,-0.5 220.5,-0.5"/>
<text text-anchor="start" x="228.5" y="-18.5" font-family="Helvetica,sans-Serif" font-size="10.00">adb.fastboot.FastbootCommands.</text>
<text text-anchor="middle" x="303" y="-7.5" font-family="Helvetica,sans-Serif" font-size="10.00">__reset</text>
</a>
</g>
</g>
<!-- Node1&#45;&gt;Node5 -->
<g id="edge4" class="edge"><title>Node1&#45;&gt;Node5</title>
<path fill="none" stroke="midnightblue" d="M188.293,-28.3725C199.01,-27.1593 209.832,-25.9341 220.318,-24.747"/>
<polygon fill="midnightblue" stroke="midnightblue" points="187.608,-24.9276 178.065,-29.5303 188.396,-31.8831 187.608,-24.9276"/>
</g>
<!-- Node3 -->
<g id="node3" class="node"><title>Node3</title>
<g id="a_node3"><a xlink:href="classadb_1_1adb__commands_1_1AdbCommands.xhtml#a4368536c2d9564e579c4fc7714667aa1" target="_top" xlink:title="adb.adb_commands.AdbCommands.\lClose">
<polygon fill="white" stroke="black" points="428,-49.5 428,-79.5 606,-79.5 606,-49.5 428,-49.5"/>
<text text-anchor="start" x="436" y="-67.5" font-family="Helvetica,sans-Serif" font-size="10.00">adb.adb_commands.AdbCommands.</text>
<text text-anchor="middle" x="517" y="-56.5" font-family="Helvetica,sans-Serif" font-size="10.00">Close</text>
</a>
</g>
</g>
<!-- Node2&#45;&gt;Node3 -->
<g id="edge2" class="edge"><title>Node2&#45;&gt;Node3</title>
<path fill="none" stroke="midnightblue" d="M402.107,-64.5C410.7,-64.5 419.363,-64.5 427.868,-64.5"/>
<polygon fill="midnightblue" stroke="midnightblue" points="402.065,-61.0001 392.065,-64.5 402.065,-68.0001 402.065,-61.0001"/>
</g>
<!-- Node4 -->
<g id="node4" class="node"><title>Node4</title>
<g id="a_node4"><a xlink:href="classadb_1_1common_1_1UsbHandle.xhtml#a70a5840c62e032635a221637cde99f4d" target="_top" xlink:title="adb.common.UsbHandle.Open">
<polygon fill="white" stroke="black" points="642,-55 642,-74 793,-74 793,-55 642,-55"/>
<text text-anchor="middle" x="717.5" y="-62" font-family="Helvetica,sans-Serif" font-size="10.00">adb.common.UsbHandle.Open</text>
</a>
</g>
</g>
<!-- Node3&#45;&gt;Node4 -->
<g id="edge3" class="edge"><title>Node3&#45;&gt;Node4</title>
<path fill="none" stroke="midnightblue" d="M616.303,-64.5C624.909,-64.5 633.524,-64.5 641.89,-64.5"/>
<polygon fill="midnightblue" stroke="midnightblue" points="616.221,-61.0001 606.221,-64.5 616.221,-68.0001 616.221,-61.0001"/>
</g>
</g>
</svg>
