<?xml version="1.0" encoding="UTF-8" standalone="no"?>
<!DOCTYPE svg PUBLIC "-//W3C//DTD SVG 1.1//EN"
 "http://www.w3.org/Graphics/SVG/1.1/DTD/svg11.dtd">
<!-- Generated by graphviz version 2.38.0 (20140413.2041)
 -->
<!-- Title: adb.common.UsbHandle.FindAndOpen Pages: 1 -->
<svg width="706pt" height="137pt"
 viewBox="0.00 0.00 706.00 137.00" xmlns="http://www.w3.org/2000/svg" xmlns:xlink="http://www.w3.org/1999/xlink">
<g id="graph0" class="graph" transform="scale(1 1) rotate(0) translate(4 133)">
<title>adb.common.UsbHandle.FindAndOpen</title>
<polygon fill="white" stroke="none" points="-4,4 -4,-133 702,-133 702,4 -4,4"/>
<!-- Node1 -->
<g id="node1" class="node"><title>Node1</title>
<polygon fill="#bfbfbf" stroke="black" points="0,-49.5 0,-79.5 146,-79.5 146,-49.5 0,-49.5"/>
<text text-anchor="start" x="8" y="-67.5" font-family="Helvetica,sans-Serif" font-size="10.00">adb.common.UsbHandle.Find</text>
<text text-anchor="middle" x="73" y="-56.5" font-family="Helvetica,sans-Serif" font-size="10.00">AndOpen</text>
</g>
<!-- Node2 -->
<g id="node2" class="node"><title>Node2</title>
<g id="a_node2"><a xlink:href="classadb_1_1common_1_1UsbHandle.xhtml#a22f17ee4faf2e43f5171ceb104405ff3" target="_top" xlink:title="adb.common.UsbHandle.Find">
<polygon fill="white" stroke="black" points="182,-55 182,-74 328,-74 328,-55 182,-55"/>
<text text-anchor="middle" x="255" y="-62" font-family="Helvetica,sans-Serif" font-size="10.00">adb.common.UsbHandle.Find</text>
</a>
</g>
</g>
<!-- Node1&#45;&gt;Node2 -->
<g id="edge1" class="edge"><title>Node1&#45;&gt;Node2</title>
<path fill="none" stroke="midnightblue" d="M146.176,-64.5C154.52,-64.5 163.077,-64.5 171.544,-64.5"/>
<polygon fill="midnightblue" stroke="midnightblue" points="171.808,-68.0001 181.808,-64.5 171.808,-61.0001 171.808,-68.0001"/>
</g>
<!-- Node3 -->
<g id="node3" class="node"><title>Node3</title>
<g id="a_node3"><a xlink:href="classadb_1_1common_1_1UsbHandle.xhtml#a5ece9b880d91e858f68bb245c2b67062" target="_top" xlink:title="adb.common.UsbHandle.Port\lPathMatcher">
<polygon fill="white" stroke="black" points="367,-98.5 367,-128.5 513,-128.5 513,-98.5 367,-98.5"/>
<text text-anchor="start" x="375" y="-116.5" font-family="Helvetica,sans-Serif" font-size="10.00">adb.common.UsbHandle.Port</text>
<text text-anchor="middle" x="440" y="-105.5" font-family="Helvetica,sans-Serif" font-size="10.00">PathMatcher</text>
</a>
</g>
</g>
<!-- Node2&#45;&gt;Node3 -->
<g id="edge2" class="edge"><title>Node2&#45;&gt;Node3</title>
<path fill="none" stroke="midnightblue" d="M291.719,-74.064C314.786,-80.2405 345.502,-88.4649 372.913,-95.8045"/>
<polygon fill="midnightblue" stroke="midnightblue" points="372.277,-99.2574 382.842,-98.463 374.087,-92.4956 372.277,-99.2574"/>
</g>
<!-- Node4 -->
<g id="node4" class="node"><title>Node4</title>
<g id="a_node4"><a xlink:href="classadb_1_1common_1_1UsbHandle.xhtml#a6d32add3d17a3af3f8905f3b3fcf4a16" target="_top" xlink:title="adb.common.UsbHandle.Serial\lMatcher">
<polygon fill="white" stroke="black" points="364,-49.5 364,-79.5 516,-79.5 516,-49.5 364,-49.5"/>
<text text-anchor="start" x="372" y="-67.5" font-family="Helvetica,sans-Serif" font-size="10.00">adb.common.UsbHandle.Serial</text>
<text text-anchor="middle" x="440" y="-56.5" font-family="Helvetica,sans-Serif" font-size="10.00">Matcher</text>
</a>
</g>
</g>
<!-- Node2&#45;&gt;Node4 -->
<g id="edge3" class="edge"><title>Node2&#45;&gt;Node4</title>
<path fill="none" stroke="midnightblue" d="M328.064,-64.5C336.547,-64.5 345.263,-64.5 353.903,-64.5"/>
<polygon fill="midnightblue" stroke="midnightblue" points="353.992,-68.0001 363.992,-64.5 353.992,-61.0001 353.992,-68.0001"/>
</g>
<!-- Node5 -->
<g id="node5" class="node"><title>Node5</title>
<g id="a_node5"><a xlink:href="classadb_1_1common_1_1UsbHandle.xhtml#adbb1f5a37322ab8165ceb3dbbbf3175f" target="_top" xlink:title="adb.common.UsbHandle.Find\lFirst">
<polygon fill="white" stroke="black" points="367,-0.5 367,-30.5 513,-30.5 513,-0.5 367,-0.5"/>
<text text-anchor="start" x="375" y="-18.5" font-family="Helvetica,sans-Serif" font-size="10.00">adb.common.UsbHandle.Find</text>
<text text-anchor="middle" x="440" y="-7.5" font-family="Helvetica,sans-Serif" font-size="10.00">First</text>
</a>
</g>
</g>
<!-- Node2&#45;&gt;Node5 -->
<g id="edge4" class="edge"><title>Node2&#45;&gt;Node5</title>
<path fill="none" stroke="midnightblue" d="M291.719,-54.936C314.786,-48.7595 345.502,-40.5351 372.913,-33.1955"/>
<polygon fill="midnightblue" stroke="midnightblue" points="374.087,-36.5044 382.842,-30.537 372.277,-29.7426 374.087,-36.5044"/>
</g>
<!-- Node6 -->
<g id="node6" class="node"><title>Node6</title>
<g id="a_node6"><a xlink:href="classadb_1_1common_1_1UsbHandle.xhtml#a01407813410d8d0a5366f50f0d410e44" target="_top" xlink:title="adb.common.UsbHandle.Find\lDevices">
<polygon fill="white" stroke="black" points="552,-0.5 552,-30.5 698,-30.5 698,-0.5 552,-0.5"/>
<text text-anchor="start" x="560" y="-18.5" font-family="Helvetica,sans-Serif" font-size="10.00">adb.common.UsbHandle.Find</text>
<text text-anchor="middle" x="625" y="-7.5" font-family="Helvetica,sans-Serif" font-size="10.00">Devices</text>
</a>
</g>
</g>
<!-- Node5&#45;&gt;Node6 -->
<g id="edge5" class="edge"><title>Node5&#45;&gt;Node6</title>
<path fill="none" stroke="midnightblue" d="M513.064,-15.5C522.392,-15.5 532.003,-15.5 541.484,-15.5"/>
<polygon fill="midnightblue" stroke="midnightblue" points="541.702,-19.0001 551.702,-15.5 541.702,-12.0001 541.702,-19.0001"/>
</g>
</g>
</svg>
