<?xml version="1.0" encoding="UTF-8" standalone="no"?>
<!DOCTYPE svg PUBLIC "-//W3C//DTD SVG 1.1//EN"
 "http://www.w3.org/Graphics/SVG/1.1/DTD/svg11.dtd">
<!-- Generated by graphviz version 2.38.0 (20140413.2041)
 -->
<!-- Title: adb.fastboot.FastbootProtocol._HandleProgress Pages: 1 -->
<svg width="720pt" height="176pt"
 viewBox="0.00 0.00 720.00 176.00" xmlns="http://www.w3.org/2000/svg" xmlns:xlink="http://www.w3.org/1999/xlink">
<g id="graph0" class="graph" transform="scale(1 1) rotate(0) translate(4 172)">
<title>adb.fastboot.FastbootProtocol._HandleProgress</title>
<polygon fill="white" stroke="none" points="-4,4 -4,-172 716,-172 716,4 -4,4"/>
<!-- Node1 -->
<g id="node1" class="node"><title>Node1</title>
<polygon fill="#bfbfbf" stroke="black" points="0,-44.5 0,-74.5 151,-74.5 151,-44.5 0,-44.5"/>
<text text-anchor="start" x="8" y="-62.5" font-family="Helvetica,sans-Serif" font-size="10.00">adb.fastboot.FastbootProtocol.</text>
<text text-anchor="middle" x="75.5" y="-51.5" font-family="Helvetica,sans-Serif" font-size="10.00">_HandleProgress</text>
</g>
<!-- Node2 -->
<g id="node2" class="node"><title>Node2</title>
<g id="a_node2"><a xlink:href="classadb_1_1fastboot_1_1FastbootProtocol.xhtml#a71402fb9e36b946908876b7179c0499a" target="_top" xlink:title="adb.fastboot.FastbootProtocol.\l_Write">
<polygon fill="white" stroke="black" points="187,-88.5 187,-118.5 338,-118.5 338,-88.5 187,-88.5"/>
<text text-anchor="start" x="195" y="-106.5" font-family="Helvetica,sans-Serif" font-size="10.00">adb.fastboot.FastbootProtocol.</text>
<text text-anchor="middle" x="262.5" y="-95.5" font-family="Helvetica,sans-Serif" font-size="10.00">_Write</text>
</a>
</g>
</g>
<!-- Node1&#45;&gt;Node2 -->
<g id="edge1" class="edge"><title>Node1&#45;&gt;Node2</title>
<path fill="none" stroke="midnightblue" d="M149.562,-76.8769C165.684,-80.7112 182.63,-84.7418 198.322,-88.4738"/>
<polygon fill="midnightblue" stroke="midnightblue" points="150.188,-73.4281 139.649,-74.5192 148.568,-80.2382 150.188,-73.4281"/>
</g>
<!-- Node6 -->
<g id="node6" class="node"><title>Node6</title>
<g id="a_node6"><a xlink:href="classadb_1_1filesync__protocol_1_1FilesyncProtocol.xhtml#abcc6bbd810c790c2f44533b1870a80d2" target="_top" xlink:title="adb.filesync_protocol.Filesync\lProtocol.Pull">
<polygon fill="white" stroke="black" points="562,-20.5 562,-50.5 711,-50.5 711,-20.5 562,-20.5"/>
<text text-anchor="start" x="570" y="-38.5" font-family="Helvetica,sans-Serif" font-size="10.00">adb.filesync_protocol.Filesync</text>
<text text-anchor="middle" x="636.5" y="-27.5" font-family="Helvetica,sans-Serif" font-size="10.00">Protocol.Pull</text>
</a>
</g>
</g>
<!-- Node1&#45;&gt;Node6 -->
<g id="edge5" class="edge"><title>Node1&#45;&gt;Node6</title>
<path fill="none" stroke="midnightblue" d="M161.337,-55.8576C270.541,-51.1691 458.503,-43.0992 561.937,-38.6583"/>
<polygon fill="midnightblue" stroke="midnightblue" points="160.86,-52.3748 151.02,-56.3006 161.161,-59.3683 160.86,-52.3748"/>
</g>
<!-- Node7 -->
<g id="node7" class="node"><title>Node7</title>
<g id="a_node7"><a xlink:href="classadb_1_1filesync__protocol_1_1FilesyncProtocol.xhtml#a401144725c14adfae4c52a01b54c9323" target="_top" xlink:title="adb.filesync_protocol.Filesync\lProtocol.Push">
<polygon fill="white" stroke="black" points="188,-0.5 188,-30.5 337,-30.5 337,-0.5 188,-0.5"/>
<text text-anchor="start" x="196" y="-18.5" font-family="Helvetica,sans-Serif" font-size="10.00">adb.filesync_protocol.Filesync</text>
<text text-anchor="middle" x="262.5" y="-7.5" font-family="Helvetica,sans-Serif" font-size="10.00">Protocol.Push</text>
</a>
</g>
</g>
<!-- Node1&#45;&gt;Node7 -->
<g id="edge6" class="edge"><title>Node1&#45;&gt;Node7</title>
<path fill="none" stroke="midnightblue" d="M149.562,-42.1231C165.684,-38.2888 182.63,-34.2582 198.322,-30.5262"/>
<polygon fill="midnightblue" stroke="midnightblue" points="148.568,-38.7618 139.649,-44.4808 150.188,-45.5719 148.568,-38.7618"/>
</g>
<!-- Node3 -->
<g id="node3" class="node"><title>Node3</title>
<g id="a_node3"><a xlink:href="classadb_1_1fastboot_1_1FastbootProtocol.xhtml#a21b2337de28be4769861786ef78838cd" target="_top" xlink:title="adb.fastboot.FastbootProtocol.\lSendCommand">
<polygon fill="white" stroke="black" points="374,-137.5 374,-167.5 525,-167.5 525,-137.5 374,-137.5"/>
<text text-anchor="start" x="382" y="-155.5" font-family="Helvetica,sans-Serif" font-size="10.00">adb.fastboot.FastbootProtocol.</text>
<text text-anchor="middle" x="449.5" y="-144.5" font-family="Helvetica,sans-Serif" font-size="10.00">SendCommand</text>
</a>
</g>
</g>
<!-- Node2&#45;&gt;Node3 -->
<g id="edge2" class="edge"><title>Node2&#45;&gt;Node3</title>
<path fill="none" stroke="midnightblue" d="M330.035,-121.123C350.275,-126.484 372.32,-132.323 391.844,-137.494"/>
<polygon fill="midnightblue" stroke="midnightblue" points="330.826,-117.712 320.263,-118.535 329.034,-124.478 330.826,-117.712"/>
</g>
<!-- Node4 -->
<g id="node4" class="node"><title>Node4</title>
<g id="a_node4"><a xlink:href="classadb_1_1fastboot_1_1FastbootProtocol.xhtml#a56d1391c6905fd69174741b781a4e591" target="_top" xlink:title="adb.fastboot.FastbootProtocol.\lHandleDataSending">
<polygon fill="white" stroke="black" points="374,-88.5 374,-118.5 525,-118.5 525,-88.5 374,-88.5"/>
<text text-anchor="start" x="382" y="-106.5" font-family="Helvetica,sans-Serif" font-size="10.00">adb.fastboot.FastbootProtocol.</text>
<text text-anchor="middle" x="449.5" y="-95.5" font-family="Helvetica,sans-Serif" font-size="10.00">HandleDataSending</text>
</a>
</g>
</g>
<!-- Node2&#45;&gt;Node4 -->
<g id="edge3" class="edge"><title>Node2&#45;&gt;Node4</title>
<path fill="none" stroke="midnightblue" d="M348.468,-103.5C356.926,-103.5 365.467,-103.5 373.809,-103.5"/>
<polygon fill="midnightblue" stroke="midnightblue" points="348.213,-100 338.213,-103.5 348.213,-107 348.213,-100"/>
</g>
<!-- Node5 -->
<g id="node5" class="node"><title>Node5</title>
<g id="a_node5"><a xlink:href="classadb_1_1fastboot_1_1FastbootProtocol.xhtml#a7450c6429e7449af9c1bcb3061cbe789" target="_top" xlink:title="adb.fastboot.FastbootProtocol.\lHandleSimpleResponses">
<polygon fill="white" stroke="black" points="561,-88.5 561,-118.5 712,-118.5 712,-88.5 561,-88.5"/>
<text text-anchor="start" x="569" y="-106.5" font-family="Helvetica,sans-Serif" font-size="10.00">adb.fastboot.FastbootProtocol.</text>
<text text-anchor="middle" x="636.5" y="-95.5" font-family="Helvetica,sans-Serif" font-size="10.00">HandleSimpleResponses</text>
</a>
</g>
</g>
<!-- Node4&#45;&gt;Node5 -->
<g id="edge4" class="edge"><title>Node4&#45;&gt;Node5</title>
<path fill="none" stroke="midnightblue" d="M535.468,-103.5C543.926,-103.5 552.467,-103.5 560.809,-103.5"/>
<polygon fill="midnightblue" stroke="midnightblue" points="535.213,-100 525.213,-103.5 535.213,-107 535.213,-100"/>
</g>
<!-- Node8 -->
<g id="node8" class="node"><title>Node8</title>
<g id="a_node8"><a xlink:href="classadb_1_1filesync__protocol_1_1FilesyncProtocol.xhtml#a4a449bbb99428aa0d55a7bca9177922d" target="_top" xlink:title="adb.filesync_protocol.Filesync\lProtocol._HandleProgress">
<polygon fill="white" stroke="black" points="375,-0.5 375,-30.5 524,-30.5 524,-0.5 375,-0.5"/>
<text text-anchor="start" x="383" y="-18.5" font-family="Helvetica,sans-Serif" font-size="10.00">adb.filesync_protocol.Filesync</text>
<text text-anchor="middle" x="449.5" y="-7.5" font-family="Helvetica,sans-Serif" font-size="10.00">Protocol._HandleProgress</text>
</a>
</g>
</g>
<!-- Node7&#45;&gt;Node8 -->
<g id="edge7" class="edge"><title>Node7&#45;&gt;Node8</title>
<path fill="none" stroke="midnightblue" d="M347.402,-8.77599C356.543,-8.72059 365.797,-8.75376 374.803,-8.87551"/>
<polygon fill="midnightblue" stroke="midnightblue" points="347.114,-5.27854 337.148,-8.87617 347.182,-12.2782 347.114,-5.27854"/>
</g>
<!-- Node8&#45;&gt;Node6 -->
<g id="edge8" class="edge"><title>Node8&#45;&gt;Node6</title>
<path fill="none" stroke="midnightblue" d="M534.107,-24.5386C543.344,-25.5372 552.7,-26.5487 561.803,-27.5327"/>
<polygon fill="midnightblue" stroke="midnightblue" points="534.467,-21.0572 524.148,-23.462 533.714,-28.0166 534.467,-21.0572"/>
</g>
<!-- Node8&#45;&gt;Node7 -->
<g id="edge9" class="edge"><title>Node8&#45;&gt;Node7</title>
<path fill="none" stroke="midnightblue" d="M364.549,-22.2243C355.407,-22.2794 346.153,-22.2459 337.148,-22.1238"/>
<polygon fill="midnightblue" stroke="midnightblue" points="364.837,-25.7218 374.803,-22.1245 364.769,-18.7221 364.837,-25.7218"/>
</g>
</g>
</svg>
