<?xml version="1.0" encoding="UTF-8" standalone="no"?>
<!DOCTYPE svg PUBLIC "-//W3C//DTD SVG 1.1//EN"
 "http://www.w3.org/Graphics/SVG/1.1/DTD/svg11.dtd">
<!-- Generated by graphviz version 2.38.0 (20140413.2041)
 -->
<!-- Title: adb.fastboot.FastbootCommands.Flash Pages: 1 -->
<svg width="797pt" height="274pt"
 viewBox="0.00 0.00 797.00 274.00" xmlns="http://www.w3.org/2000/svg" xmlns:xlink="http://www.w3.org/1999/xlink">
<g id="graph0" class="graph" transform="scale(1 1) rotate(0) translate(4 270)">
<title>adb.fastboot.FastbootCommands.Flash</title>
<polygon fill="white" stroke="none" points="-4,4 -4,-270 793,-270 793,4 -4,4"/>
<!-- Node1 -->
<g id="node1" class="node"><title>Node1</title>
<polygon fill="#bfbfbf" stroke="black" points="0,-120.5 0,-150.5 165,-150.5 165,-120.5 0,-120.5"/>
<text text-anchor="start" x="8" y="-138.5" font-family="Helvetica,sans-Serif" font-size="10.00">adb.fastboot.FastbootCommands.</text>
<text text-anchor="middle" x="82.5" y="-127.5" font-family="Helvetica,sans-Serif" font-size="10.00">Flash</text>
</g>
<!-- Node2 -->
<g id="node2" class="node"><title>Node2</title>
<g id="a_node2"><a xlink:href="classadb_1_1fastboot_1_1FastbootCommands.xhtml#a011e85b1ffc526bcda0808ddffb7f9e3" target="_top" xlink:title="adb.fastboot.FastbootCommands.\lFlashFromFile">
<polygon fill="white" stroke="black" points="201,-142.5 201,-172.5 366,-172.5 366,-142.5 201,-142.5"/>
<text text-anchor="start" x="209" y="-160.5" font-family="Helvetica,sans-Serif" font-size="10.00">adb.fastboot.FastbootCommands.</text>
<text text-anchor="middle" x="283.5" y="-149.5" font-family="Helvetica,sans-Serif" font-size="10.00">FlashFromFile</text>
</a>
</g>
</g>
<!-- Node1&#45;&gt;Node2 -->
<g id="edge1" class="edge"><title>Node1&#45;&gt;Node2</title>
<path fill="none" stroke="midnightblue" d="M175.045,-145.621C183.633,-146.57 192.301,-147.528 200.79,-148.467"/>
<polygon fill="midnightblue" stroke="midnightblue" points="175.339,-142.132 165.015,-144.512 174.57,-149.089 175.339,-142.132"/>
</g>
<!-- Node3 -->
<g id="node3" class="node"><title>Node3</title>
<g id="a_node3"><a xlink:href="classadb_1_1fastboot_1_1FastbootCommands.xhtml#a821780b7fa070da3ee3eb982447b38c8" target="_top" xlink:title="adb.fastboot.FastbootCommands.\l_SimpleCommand">
<polygon fill="white" stroke="black" points="402,-120.5 402,-150.5 567,-150.5 567,-120.5 402,-120.5"/>
<text text-anchor="start" x="410" y="-138.5" font-family="Helvetica,sans-Serif" font-size="10.00">adb.fastboot.FastbootCommands.</text>
<text text-anchor="middle" x="484.5" y="-127.5" font-family="Helvetica,sans-Serif" font-size="10.00">_SimpleCommand</text>
</a>
</g>
</g>
<!-- Node2&#45;&gt;Node3 -->
<g id="edge2" class="edge"><title>Node2&#45;&gt;Node3</title>
<path fill="none" stroke="midnightblue" d="M376.045,-147.379C384.633,-146.43 393.301,-145.472 401.79,-144.533"/>
<polygon fill="midnightblue" stroke="midnightblue" points="375.57,-143.911 366.015,-148.488 376.339,-150.868 375.57,-143.911"/>
</g>
<!-- Node3&#45;&gt;Node1 -->
<g id="edge3" class="edge"><title>Node3&#45;&gt;Node1</title>
<path fill="none" stroke="midnightblue" d="M391.756,-133.788C383.051,-133.671 374.358,-133.571 366,-133.5 292.669,-132.876 274.331,-132.876 201,-133.5 189.371,-133.599 177.096,-133.753 165.038,-133.933"/>
<polygon fill="midnightblue" stroke="midnightblue" points="391.913,-137.29 401.962,-133.933 392.013,-130.291 391.913,-137.29"/>
</g>
<!-- Node4 -->
<g id="node4" class="node"><title>Node4</title>
<g id="a_node4"><a xlink:href="classadb_1_1fastboot_1_1FastbootCommands.xhtml#ae98daefe59adf63f0b9a45d31fd9aace" target="_top" xlink:title="adb.fastboot.FastbootCommands.\lErase">
<polygon fill="white" stroke="black" points="613.5,-235.5 613.5,-265.5 778.5,-265.5 778.5,-235.5 613.5,-235.5"/>
<text text-anchor="start" x="621.5" y="-253.5" font-family="Helvetica,sans-Serif" font-size="10.00">adb.fastboot.FastbootCommands.</text>
<text text-anchor="middle" x="696" y="-242.5" font-family="Helvetica,sans-Serif" font-size="10.00">Erase</text>
</a>
</g>
</g>
<!-- Node3&#45;&gt;Node4 -->
<g id="edge4" class="edge"><title>Node3&#45;&gt;Node4</title>
<path fill="none" stroke="midnightblue" d="M508.13,-157.608C530.492,-178.278 566.548,-208.572 603,-226.5 609.962,-229.924 617.468,-232.9 625.085,-235.476"/>
<polygon fill="midnightblue" stroke="midnightblue" points="510.499,-155.031 500.814,-150.735 505.706,-160.133 510.499,-155.031"/>
</g>
<!-- Node5 -->
<g id="node5" class="node"><title>Node5</title>
<g id="a_node5"><a xlink:href="classadb_1_1fastboot_1_1FastbootCommands.xhtml#abbe9134624a5d38960628017c8b82dbd" target="_top" xlink:title="adb.fastboot.FastbootCommands.\lGetvar">
<polygon fill="white" stroke="black" points="613.5,-186.5 613.5,-216.5 778.5,-216.5 778.5,-186.5 613.5,-186.5"/>
<text text-anchor="start" x="621.5" y="-204.5" font-family="Helvetica,sans-Serif" font-size="10.00">adb.fastboot.FastbootCommands.</text>
<text text-anchor="middle" x="696" y="-193.5" font-family="Helvetica,sans-Serif" font-size="10.00">Getvar</text>
</a>
</g>
</g>
<!-- Node3&#45;&gt;Node5 -->
<g id="edge5" class="edge"><title>Node3&#45;&gt;Node5</title>
<path fill="none" stroke="midnightblue" d="M535.86,-153.947C556.552,-161.297 580.819,-169.626 603,-176.5 613.909,-179.881 625.62,-183.255 636.91,-186.381"/>
<polygon fill="midnightblue" stroke="midnightblue" points="536.916,-150.607 526.321,-150.537 534.56,-157.199 536.916,-150.607"/>
</g>
<!-- Node6 -->
<g id="node6" class="node"><title>Node6</title>
<g id="a_node6"><a xlink:href="classadb_1_1fastboot_1_1FastbootCommands.xhtml#ad8c8eaeeb56ca2ef483bd67c5f7f9176" target="_top" xlink:title="adb.fastboot.FastbootCommands.Oem">
<polygon fill="white" stroke="black" points="603,-148 603,-167 789,-167 789,-148 603,-148"/>
<text text-anchor="middle" x="696" y="-155" font-family="Helvetica,sans-Serif" font-size="10.00">adb.fastboot.FastbootCommands.Oem</text>
</a>
</g>
</g>
<!-- Node3&#45;&gt;Node6 -->
<g id="edge6" class="edge"><title>Node3&#45;&gt;Node6</title>
<path fill="none" stroke="midnightblue" d="M577.172,-145.127C586.157,-146.07 595.272,-147.027 604.248,-147.97"/>
<polygon fill="midnightblue" stroke="midnightblue" points="577.409,-141.632 567.098,-144.069 576.678,-148.594 577.409,-141.632"/>
</g>
<!-- Node7 -->
<g id="node7" class="node"><title>Node7</title>
<g id="a_node7"><a xlink:href="classadb_1_1fastboot_1_1FastbootCommands.xhtml#aaf7cfd47a3a38581b1b2ba258671194a" target="_top" xlink:title="adb.fastboot.FastbootCommands.\lContinue">
<polygon fill="white" stroke="black" points="613.5,-98.5 613.5,-128.5 778.5,-128.5 778.5,-98.5 613.5,-98.5"/>
<text text-anchor="start" x="621.5" y="-116.5" font-family="Helvetica,sans-Serif" font-size="10.00">adb.fastboot.FastbootCommands.</text>
<text text-anchor="middle" x="696" y="-105.5" font-family="Helvetica,sans-Serif" font-size="10.00">Continue</text>
</a>
</g>
</g>
<!-- Node3&#45;&gt;Node7 -->
<g id="edge7" class="edge"><title>Node3&#45;&gt;Node7</title>
<path fill="none" stroke="midnightblue" d="M577.134,-125.877C589.164,-124.614 601.429,-123.326 613.28,-122.082"/>
<polygon fill="midnightblue" stroke="midnightblue" points="576.678,-122.406 567.098,-126.931 577.409,-129.368 576.678,-122.406"/>
</g>
<!-- Node8 -->
<g id="node8" class="node"><title>Node8</title>
<g id="a_node8"><a xlink:href="classadb_1_1fastboot_1_1FastbootCommands.xhtml#a878c0f4df9a02a78eb292c7a59f2e8d9" target="_top" xlink:title="adb.fastboot.FastbootCommands.\lReboot">
<polygon fill="white" stroke="black" points="613.5,-49.5 613.5,-79.5 778.5,-79.5 778.5,-49.5 613.5,-49.5"/>
<text text-anchor="start" x="621.5" y="-67.5" font-family="Helvetica,sans-Serif" font-size="10.00">adb.fastboot.FastbootCommands.</text>
<text text-anchor="middle" x="696" y="-56.5" font-family="Helvetica,sans-Serif" font-size="10.00">Reboot</text>
</a>
</g>
</g>
<!-- Node3&#45;&gt;Node8 -->
<g id="edge8" class="edge"><title>Node3&#45;&gt;Node8</title>
<path fill="none" stroke="midnightblue" d="M529.151,-116.524C551.072,-107.384 578.184,-96.6643 603,-88.5 612.565,-85.3532 622.795,-82.3434 632.83,-79.5839"/>
<polygon fill="midnightblue" stroke="midnightblue" points="527.644,-113.36 519.784,-120.464 530.359,-119.813 527.644,-113.36"/>
</g>
<!-- Node9 -->
<g id="node9" class="node"><title>Node9</title>
<g id="a_node9"><a xlink:href="classadb_1_1fastboot_1_1FastbootCommands.xhtml#a8ca0516e86ee1740e9b5ddce2c65ef9a" target="_top" xlink:title="adb.fastboot.FastbootCommands.\lRebootBootloader">
<polygon fill="white" stroke="black" points="613.5,-0.5 613.5,-30.5 778.5,-30.5 778.5,-0.5 613.5,-0.5"/>
<text text-anchor="start" x="621.5" y="-18.5" font-family="Helvetica,sans-Serif" font-size="10.00">adb.fastboot.FastbootCommands.</text>
<text text-anchor="middle" x="696" y="-7.5" font-family="Helvetica,sans-Serif" font-size="10.00">RebootBootloader</text>
</a>
</g>
</g>
<!-- Node3&#45;&gt;Node9 -->
<g id="edge9" class="edge"><title>Node3&#45;&gt;Node9</title>
<path fill="none" stroke="midnightblue" d="M506.776,-113.229C528.865,-91.3686 565.396,-58.6065 603,-39.5 609.769,-36.0605 617.077,-33.0821 624.51,-30.5102"/>
<polygon fill="midnightblue" stroke="midnightblue" points="504.151,-110.905 499.586,-120.467 509.117,-115.838 504.151,-110.905"/>
</g>
</g>
</svg>
