<?xml version="1.0" encoding="UTF-8" standalone="no"?>
<!DOCTYPE svg PUBLIC "-//W3C//DTD SVG 1.1//EN"
 "http://www.w3.org/Graphics/SVG/1.1/DTD/svg11.dtd">
<!-- Generated by graphviz version 2.38.0 (20140413.2041)
 -->
<!-- Title: adb.common.TcpHandle.Timeout Pages: 1 -->
<svg width="571pt" height="127pt"
 viewBox="0.00 0.00 571.00 126.50" xmlns="http://www.w3.org/2000/svg" xmlns:xlink="http://www.w3.org/1999/xlink">
<g id="graph0" class="graph" transform="scale(1 1) rotate(0) translate(4 122.5)">
<title>adb.common.TcpHandle.Timeout</title>
<polygon fill="white" stroke="none" points="-4,4 -4,-122.5 567,-122.5 567,4 -4,4"/>
<!-- Node1 -->
<g id="node1" class="node"><title>Node1</title>
<polygon fill="#bfbfbf" stroke="black" points="0,-44.5 0,-63.5 161,-63.5 161,-44.5 0,-44.5"/>
<text text-anchor="middle" x="80.5" y="-51.5" font-family="Helvetica,sans-Serif" font-size="10.00">adb.common.TcpHandle.Timeout</text>
</g>
<!-- Node2 -->
<g id="node2" class="node"><title>Node2</title>
<g id="a_node2"><a xlink:href="classadb_1_1common_1_1TcpHandle.xhtml#ab9f9d10bfb8c6fb7c0a16d879e85378f" target="_top" xlink:title="adb.common.TcpHandle.Timeout\lSeconds">
<polygon fill="white" stroke="black" points="197,-39 197,-69 358,-69 358,-39 197,-39"/>
<text text-anchor="start" x="205" y="-57" font-family="Helvetica,sans-Serif" font-size="10.00">adb.common.TcpHandle.Timeout</text>
<text text-anchor="middle" x="277.5" y="-46" font-family="Helvetica,sans-Serif" font-size="10.00">Seconds</text>
</a>
</g>
</g>
<!-- Node1&#45;&gt;Node2 -->
<g id="edge1" class="edge"><title>Node1&#45;&gt;Node2</title>
<path fill="none" stroke="midnightblue" d="M171.117,-54C179.7,-54 188.365,-54 196.843,-54"/>
<polygon fill="midnightblue" stroke="midnightblue" points="171.095,-50.5001 161.095,-54 171.095,-57.5001 171.095,-50.5001"/>
</g>
<!-- Node3 -->
<g id="node3" class="node"><title>Node3</title>
<g id="a_node3"><a xlink:href="classadb_1_1common_1_1TcpHandle.xhtml#a7daa53e4d419c908a0eddf7d1bf9170b" target="_top" xlink:title="adb.common.TcpHandle.\l_connect">
<polygon fill="white" stroke="black" points="415.5,-88 415.5,-118 541.5,-118 541.5,-88 415.5,-88"/>
<text text-anchor="start" x="423.5" y="-106" font-family="Helvetica,sans-Serif" font-size="10.00">adb.common.TcpHandle.</text>
<text text-anchor="middle" x="478.5" y="-95" font-family="Helvetica,sans-Serif" font-size="10.00">_connect</text>
</a>
</g>
</g>
<!-- Node2&#45;&gt;Node3 -->
<g id="edge2" class="edge"><title>Node2&#45;&gt;Node3</title>
<path fill="none" stroke="midnightblue" d="M349.477,-71.4768C371.411,-76.8775 395.364,-82.7755 416.557,-87.9938"/>
<polygon fill="midnightblue" stroke="midnightblue" points="350.106,-68.0271 339.559,-69.0346 348.432,-74.8241 350.106,-68.0271"/>
</g>
<!-- Node4 -->
<g id="node4" class="node"><title>Node4</title>
<g id="a_node4"><a xlink:href="classadb_1_1common_1_1TcpHandle.xhtml#a737245feff629b8bb2f4c609768ff81d" target="_top" xlink:title="adb.common.TcpHandle.Bulk\lWrite">
<polygon fill="white" stroke="black" points="405.5,-39 405.5,-69 551.5,-69 551.5,-39 405.5,-39"/>
<text text-anchor="start" x="413.5" y="-57" font-family="Helvetica,sans-Serif" font-size="10.00">adb.common.TcpHandle.Bulk</text>
<text text-anchor="middle" x="478.5" y="-46" font-family="Helvetica,sans-Serif" font-size="10.00">Write</text>
</a>
</g>
</g>
<!-- Node2&#45;&gt;Node4 -->
<g id="edge3" class="edge"><title>Node2&#45;&gt;Node4</title>
<path fill="none" stroke="midnightblue" d="M368.32,-54C380.672,-54 393.225,-54 405.208,-54"/>
<polygon fill="midnightblue" stroke="midnightblue" points="368.008,-50.5001 358.008,-54 368.008,-57.5001 368.008,-50.5001"/>
</g>
<!-- Node5 -->
<g id="node5" class="node"><title>Node5</title>
<g id="a_node5"><a xlink:href="classadb_1_1common_1_1TcpHandle.xhtml#a767253f525b34a5fe4e629120b03c24e" target="_top" xlink:title="adb.common.TcpHandle.BulkRead">
<polygon fill="white" stroke="black" points="394,-0.5 394,-19.5 563,-19.5 563,-0.5 394,-0.5"/>
<text text-anchor="middle" x="478.5" y="-7.5" font-family="Helvetica,sans-Serif" font-size="10.00">adb.common.TcpHandle.BulkRead</text>
</a>
</g>
</g>
<!-- Node2&#45;&gt;Node5 -->
<g id="edge4" class="edge"><title>Node2&#45;&gt;Node5</title>
<path fill="none" stroke="midnightblue" d="M356.477,-36.7588C383.015,-30.8911 411.699,-24.549 434.478,-19.5124"/>
<polygon fill="midnightblue" stroke="midnightblue" points="355.436,-33.4043 346.428,-38.9808 356.948,-40.2392 355.436,-33.4043"/>
</g>
</g>
</svg>
