<?xml version="1.0" encoding="UTF-8" standalone="no"?>
<!DOCTYPE svg PUBLIC "-//W3C//DTD SVG 1.1//EN"
 "http://www.w3.org/Graphics/SVG/1.1/DTD/svg11.dtd">
<!-- Generated by graphviz version 2.38.0 (20140413.2041)
 -->
<!-- Title: adb.fastboot.FastbootCommands.Oem Pages: 1 -->
<svg width="797pt" height="88pt"
 viewBox="0.00 0.00 797.00 88.00" xmlns="http://www.w3.org/2000/svg" xmlns:xlink="http://www.w3.org/1999/xlink">
<g id="graph0" class="graph" transform="scale(1 1) rotate(0) translate(4 84)">
<title>adb.fastboot.FastbootCommands.Oem</title>
<polygon fill="white" stroke="none" points="-4,4 -4,-84 793,-84 793,4 -4,4"/>
<!-- Node1 -->
<g id="node1" class="node"><title>Node1</title>
<polygon fill="#bfbfbf" stroke="black" points="0,-28 0,-47 186,-47 186,-28 0,-28"/>
<text text-anchor="middle" x="93" y="-35" font-family="Helvetica,sans-Serif" font-size="10.00">adb.fastboot.FastbootCommands.Oem</text>
</g>
<!-- Node2 -->
<g id="node2" class="node"><title>Node2</title>
<g id="a_node2"><a xlink:href="classadb_1_1fastboot_1_1FastbootCommands.xhtml#a821780b7fa070da3ee3eb982447b38c8" target="_top" xlink:title="adb.fastboot.FastbootCommands.\l_SimpleCommand">
<polygon fill="white" stroke="black" points="222,-22.5 222,-52.5 387,-52.5 387,-22.5 222,-22.5"/>
<text text-anchor="start" x="230" y="-40.5" font-family="Helvetica,sans-Serif" font-size="10.00">adb.fastboot.FastbootCommands.</text>
<text text-anchor="middle" x="304.5" y="-29.5" font-family="Helvetica,sans-Serif" font-size="10.00">_SimpleCommand</text>
</a>
</g>
</g>
<!-- Node1&#45;&gt;Node2 -->
<g id="edge1" class="edge"><title>Node1&#45;&gt;Node2</title>
<path fill="none" stroke="midnightblue" d="M186.195,-37.5C194.624,-37.5 203.162,-37.5 211.589,-37.5"/>
<polygon fill="midnightblue" stroke="midnightblue" points="211.796,-41.0001 221.796,-37.5 211.796,-34.0001 211.796,-41.0001"/>
</g>
<!-- Node3 -->
<g id="node3" class="node"><title>Node3</title>
<g id="a_node3"><a xlink:href="classadb_1_1fastboot_1_1FastbootCommands.xhtml#a011e85b1ffc526bcda0808ddffb7f9e3" target="_top" xlink:title="adb.fastboot.FastbootCommands.\lFlashFromFile">
<polygon fill="white" stroke="black" points="423,-44.5 423,-74.5 588,-74.5 588,-44.5 423,-44.5"/>
<text text-anchor="start" x="431" y="-62.5" font-family="Helvetica,sans-Serif" font-size="10.00">adb.fastboot.FastbootCommands.</text>
<text text-anchor="middle" x="505.5" y="-51.5" font-family="Helvetica,sans-Serif" font-size="10.00">FlashFromFile</text>
</a>
</g>
</g>
<!-- Node2&#45;&gt;Node3 -->
<g id="edge2" class="edge"><title>Node2&#45;&gt;Node3</title>
<path fill="none" stroke="midnightblue" d="M387.015,-46.5117C395.501,-47.4499 404.168,-48.4081 412.758,-49.3576"/>
<polygon fill="midnightblue" stroke="midnightblue" points="412.466,-52.8466 422.79,-50.4667 413.235,-45.889 412.466,-52.8466"/>
</g>
<!-- Node4 -->
<g id="node4" class="node"><title>Node4</title>
<g id="a_node4"><a xlink:href="classadb_1_1fastboot_1_1FastbootCommands.xhtml#af4086276b55840c8e02c091b8af676c4" target="_top" xlink:title="adb.fastboot.FastbootCommands.\lDownload">
<polygon fill="white" stroke="black" points="624,-49.5 624,-79.5 789,-79.5 789,-49.5 624,-49.5"/>
<text text-anchor="start" x="632" y="-67.5" font-family="Helvetica,sans-Serif" font-size="10.00">adb.fastboot.FastbootCommands.</text>
<text text-anchor="middle" x="706.5" y="-56.5" font-family="Helvetica,sans-Serif" font-size="10.00">Download</text>
</a>
</g>
</g>
<!-- Node3&#45;&gt;Node4 -->
<g id="edge3" class="edge"><title>Node3&#45;&gt;Node4</title>
<path fill="none" stroke="midnightblue" d="M588.015,-61.5481C596.501,-61.7613 605.168,-61.9791 613.758,-62.1949"/>
<polygon fill="midnightblue" stroke="midnightblue" points="613.705,-65.6946 623.79,-62.447 613.881,-58.6968 613.705,-65.6946"/>
</g>
<!-- Node5 -->
<g id="node5" class="node"><title>Node5</title>
<g id="a_node5"><a xlink:href="classadb_1_1fastboot_1_1FastbootCommands.xhtml#a621a92ec5fa925375f0a1dd9be48fcaf" target="_top" xlink:title="adb.fastboot.FastbootCommands.\lFlash">
<polygon fill="white" stroke="black" points="624,-0.5 624,-30.5 789,-30.5 789,-0.5 624,-0.5"/>
<text text-anchor="start" x="632" y="-18.5" font-family="Helvetica,sans-Serif" font-size="10.00">adb.fastboot.FastbootCommands.</text>
<text text-anchor="middle" x="706.5" y="-7.5" font-family="Helvetica,sans-Serif" font-size="10.00">Flash</text>
</a>
</g>
</g>
<!-- Node3&#45;&gt;Node5 -->
<g id="edge4" class="edge"><title>Node3&#45;&gt;Node5</title>
<path fill="none" stroke="midnightblue" d="M574.428,-44.4808C591.464,-40.714 609.878,-36.6426 627.367,-32.7756"/>
<polygon fill="midnightblue" stroke="midnightblue" points="628.532,-36.1027 637.541,-30.5262 627.021,-29.2677 628.532,-36.1027"/>
</g>
<!-- Node5&#45;&gt;Node2 -->
<g id="edge5" class="edge"><title>Node5&#45;&gt;Node2</title>
<path fill="none" stroke="midnightblue" d="M623.698,-19.9991C558.072,-23.6086 465.964,-28.6745 397.725,-32.4276"/>
<polygon fill="midnightblue" stroke="midnightblue" points="397.204,-28.9509 387.411,-32.9949 397.588,-35.9403 397.204,-28.9509"/>
</g>
</g>
</svg>
