<?xml version="1.0" encoding="UTF-8" standalone="no"?>
<!DOCTYPE svg PUBLIC "-//W3C//DTD SVG 1.1//EN"
 "http://www.w3.org/Graphics/SVG/1.1/DTD/svg11.dtd">
<!-- Generated by graphviz version 2.38.0 (20140413.2041)
 -->
<!-- Title: adb.usb_exceptions.CommonUsbError Pages: 1 -->
<svg width="647pt" height="431pt"
 viewBox="0.00 0.00 647.00 431.00" xmlns="http://www.w3.org/2000/svg" xmlns:xlink="http://www.w3.org/1999/xlink">
<g id="graph0" class="graph" transform="scale(1 1) rotate(0) translate(4 427)">
<title>adb.usb_exceptions.CommonUsbError</title>
<polygon fill="white" stroke="none" points="-4,4 -4,-427 643,-427 643,4 -4,4"/>
<!-- Node1 -->
<g id="node1" class="node"><title>Node1</title>
<polygon fill="#bfbfbf" stroke="black" points="96,-122.5 96,-152.5 242,-152.5 242,-122.5 96,-122.5"/>
<text text-anchor="start" x="104" y="-140.5" font-family="Helvetica,sans-Serif" font-size="10.00">adb.usb_exceptions.Common</text>
<text text-anchor="middle" x="169" y="-129.5" font-family="Helvetica,sans-Serif" font-size="10.00">UsbError</text>
</g>
<!-- Node3 -->
<g id="node3" class="node"><title>Node3</title>
<g id="a_node3"><a xlink:href="classadb_1_1usb__exceptions_1_1FormatMessageWithArgumentsException.xhtml" target="_top" xlink:title="adb.usb_exceptions.Format\lMessageWithArgumentsException">
<polygon fill="white" stroke="black" points="278,-220.5 278,-250.5 445,-250.5 445,-220.5 278,-220.5"/>
<text text-anchor="start" x="286" y="-238.5" font-family="Helvetica,sans-Serif" font-size="10.00">adb.usb_exceptions.Format</text>
<text text-anchor="middle" x="361.5" y="-227.5" font-family="Helvetica,sans-Serif" font-size="10.00">MessageWithArgumentsException</text>
</a>
</g>
</g>
<!-- Node1&#45;&gt;Node3 -->
<g id="edge2" class="edge"><title>Node1&#45;&gt;Node3</title>
<path fill="none" stroke="midnightblue" d="M208.623,-157.369C244.853,-176.007 298.243,-203.473 331.119,-220.385"/>
<polygon fill="midnightblue" stroke="midnightblue" points="209.842,-154.06 199.348,-152.598 206.639,-160.285 209.842,-154.06"/>
</g>
<!-- Node11 -->
<g id="node11" class="node"><title>Node11</title>
<g id="a_node11"><a xlink:href="classadb_1_1usb__exceptions_1_1LibusbWrappingError.xhtml" target="_top" xlink:title="adb.usb_exceptions.Libusb\lWrappingError">
<polygon fill="white" stroke="black" points="294,-49.5 294,-79.5 429,-79.5 429,-49.5 294,-49.5"/>
<text text-anchor="start" x="302" y="-67.5" font-family="Helvetica,sans-Serif" font-size="10.00">adb.usb_exceptions.Libusb</text>
<text text-anchor="middle" x="361.5" y="-56.5" font-family="Helvetica,sans-Serif" font-size="10.00">WrappingError</text>
</a>
</g>
</g>
<!-- Node1&#45;&gt;Node11 -->
<g id="edge10" class="edge"><title>Node1&#45;&gt;Node11</title>
<path fill="none" stroke="midnightblue" d="M219.002,-118.722C250.716,-106.57 291.462,-90.9555 321.079,-79.6063"/>
<polygon fill="midnightblue" stroke="midnightblue" points="217.557,-115.528 209.472,-122.374 220.062,-122.064 217.557,-115.528"/>
</g>
<!-- Node2 -->
<g id="node2" class="node"><title>Node2</title>
<polygon fill="white" stroke="#bfbfbf" points="0,-128 0,-147 60,-147 60,-128 0,-128"/>
<text text-anchor="middle" x="30" y="-135" font-family="Helvetica,sans-Serif" font-size="10.00">Exception</text>
</g>
<!-- Node2&#45;&gt;Node1 -->
<g id="edge1" class="edge"><title>Node2&#45;&gt;Node1</title>
<path fill="none" stroke="midnightblue" d="M70.2299,-137.5C78.3005,-137.5 87.0388,-137.5 95.8579,-137.5"/>
<polygon fill="midnightblue" stroke="midnightblue" points="70.0542,-134 60.0542,-137.5 70.0541,-141 70.0542,-134"/>
</g>
<!-- Node4 -->
<g id="node4" class="node"><title>Node4</title>
<g id="a_node4"><a xlink:href="classadb_1_1fastboot_1_1FastbootInvalidResponse.xhtml" target="_top" xlink:title="adb.fastboot.FastbootInvalid\lResponse">
<polygon fill="white" stroke="black" points="490,-392.5 490,-422.5 630,-422.5 630,-392.5 490,-392.5"/>
<text text-anchor="start" x="498" y="-410.5" font-family="Helvetica,sans-Serif" font-size="10.00">adb.fastboot.FastbootInvalid</text>
<text text-anchor="middle" x="560" y="-399.5" font-family="Helvetica,sans-Serif" font-size="10.00">Response</text>
</a>
</g>
</g>
<!-- Node3&#45;&gt;Node4 -->
<g id="edge3" class="edge"><title>Node3&#45;&gt;Node4</title>
<path fill="none" stroke="midnightblue" d="M375.47,-259.459C394.408,-292.217 432.688,-350.655 481,-383.5 486.038,-386.925 491.585,-389.877 497.326,-392.418"/>
<polygon fill="midnightblue" stroke="midnightblue" points="378.406,-257.54 370.437,-250.558 372.313,-260.985 378.406,-257.54"/>
</g>
<!-- Node5 -->
<g id="node5" class="node"><title>Node5</title>
<g id="a_node5"><a xlink:href="classadb_1_1fastboot_1_1FastbootRemoteFailure.xhtml" target="_top" xlink:title="adb.fastboot.FastbootRemote\lFailure">
<polygon fill="white" stroke="black" points="487,-343.5 487,-373.5 633,-373.5 633,-343.5 487,-343.5"/>
<text text-anchor="start" x="495" y="-361.5" font-family="Helvetica,sans-Serif" font-size="10.00">adb.fastboot.FastbootRemote</text>
<text text-anchor="middle" x="560" y="-350.5" font-family="Helvetica,sans-Serif" font-size="10.00">Failure</text>
</a>
</g>
</g>
<!-- Node3&#45;&gt;Node5 -->
<g id="edge4" class="edge"><title>Node3&#45;&gt;Node5</title>
<path fill="none" stroke="midnightblue" d="M384.039,-258.142C406.381,-280.433 443.273,-314.025 481,-334.5 487.226,-337.879 493.996,-340.854 500.859,-343.453"/>
<polygon fill="midnightblue" stroke="midnightblue" points="386.281,-255.43 376.766,-250.769 381.297,-260.346 386.281,-255.43"/>
</g>
<!-- Node6 -->
<g id="node6" class="node"><title>Node6</title>
<g id="a_node6"><a xlink:href="classadb_1_1fastboot_1_1FastbootStateMismatch.xhtml" target="_top" xlink:title="adb.fastboot.FastbootState\lMismatch">
<polygon fill="white" stroke="black" points="492.5,-294.5 492.5,-324.5 627.5,-324.5 627.5,-294.5 492.5,-294.5"/>
<text text-anchor="start" x="500.5" y="-312.5" font-family="Helvetica,sans-Serif" font-size="10.00">adb.fastboot.FastbootState</text>
<text text-anchor="middle" x="560" y="-301.5" font-family="Helvetica,sans-Serif" font-size="10.00">Mismatch</text>
</a>
</g>
</g>
<!-- Node3&#45;&gt;Node6 -->
<g id="edge5" class="edge"><title>Node3&#45;&gt;Node6</title>
<path fill="none" stroke="midnightblue" d="M404.836,-254.587C427.258,-264.383 455.386,-276.183 481,-285.5 489.521,-288.6 498.657,-291.65 507.567,-294.481"/>
<polygon fill="midnightblue" stroke="midnightblue" points="406.163,-251.347 395.6,-250.524 403.344,-257.754 406.163,-251.347"/>
</g>
<!-- Node7 -->
<g id="node7" class="node"><title>Node7</title>
<g id="a_node7"><a xlink:href="classadb_1_1fastboot_1_1FastbootTransferError.xhtml" target="_top" xlink:title="adb.fastboot.FastbootTransfer\lError">
<polygon fill="white" stroke="black" points="486,-245.5 486,-275.5 634,-275.5 634,-245.5 486,-245.5"/>
<text text-anchor="start" x="494" y="-263.5" font-family="Helvetica,sans-Serif" font-size="10.00">adb.fastboot.FastbootTransfer</text>
<text text-anchor="middle" x="560" y="-252.5" font-family="Helvetica,sans-Serif" font-size="10.00">Error</text>
</a>
</g>
</g>
<!-- Node3&#45;&gt;Node7 -->
<g id="edge6" class="edge"><title>Node3&#45;&gt;Node7</title>
<path fill="none" stroke="midnightblue" d="M455.471,-247.328C465.72,-248.632 476.045,-249.946 486,-251.212"/>
<polygon fill="midnightblue" stroke="midnightblue" points="455.626,-243.82 445.264,-246.03 454.742,-250.764 455.626,-243.82"/>
</g>
<!-- Node8 -->
<g id="node8" class="node"><title>Node8</title>
<g id="a_node8"><a xlink:href="classadb_1_1usb__exceptions_1_1DeviceAuthError.xhtml" target="_top" xlink:title="adb.usb_exceptions.Device\lAuthError">
<polygon fill="white" stroke="black" points="491.5,-196.5 491.5,-226.5 628.5,-226.5 628.5,-196.5 491.5,-196.5"/>
<text text-anchor="start" x="499.5" y="-214.5" font-family="Helvetica,sans-Serif" font-size="10.00">adb.usb_exceptions.Device</text>
<text text-anchor="middle" x="560" y="-203.5" font-family="Helvetica,sans-Serif" font-size="10.00">AuthError</text>
</a>
</g>
</g>
<!-- Node3&#45;&gt;Node8 -->
<g id="edge7" class="edge"><title>Node3&#45;&gt;Node8</title>
<path fill="none" stroke="midnightblue" d="M455.371,-224.157C467.454,-222.681 479.644,-221.192 491.21,-219.78"/>
<polygon fill="midnightblue" stroke="midnightblue" points="454.766,-220.705 445.264,-225.391 455.615,-227.653 454.766,-220.705"/>
</g>
<!-- Node9 -->
<g id="node9" class="node"><title>Node9</title>
<g id="a_node9"><a xlink:href="classadb_1_1usb__exceptions_1_1DeviceNotFoundError.xhtml" target="_top" xlink:title="adb.usb_exceptions.Device\lNotFoundError">
<polygon fill="white" stroke="black" points="491.5,-147.5 491.5,-177.5 628.5,-177.5 628.5,-147.5 491.5,-147.5"/>
<text text-anchor="start" x="499.5" y="-165.5" font-family="Helvetica,sans-Serif" font-size="10.00">adb.usb_exceptions.Device</text>
<text text-anchor="middle" x="560" y="-154.5" font-family="Helvetica,sans-Serif" font-size="10.00">NotFoundError</text>
</a>
</g>
</g>
<!-- Node3&#45;&gt;Node9 -->
<g id="edge8" class="edge"><title>Node3&#45;&gt;Node9</title>
<path fill="none" stroke="midnightblue" d="M407.192,-216.477C429.258,-207.321 456.367,-196.423 481,-187.5 490.359,-184.11 500.432,-180.705 510.128,-177.546"/>
<polygon fill="midnightblue" stroke="midnightblue" points="405.634,-213.335 397.752,-220.415 408.329,-219.795 405.634,-213.335"/>
</g>
<!-- Node10 -->
<g id="node10" class="node"><title>Node10</title>
<g id="a_node10"><a xlink:href="classadb_1_1usb__exceptions_1_1TcpTimeoutException.xhtml" target="_top" xlink:title="adb.usb_exceptions.TcpTimeout\lException">
<polygon fill="white" stroke="black" points="481,-98.5 481,-128.5 639,-128.5 639,-98.5 481,-98.5"/>
<text text-anchor="start" x="489" y="-116.5" font-family="Helvetica,sans-Serif" font-size="10.00">adb.usb_exceptions.TcpTimeout</text>
<text text-anchor="middle" x="560" y="-105.5" font-family="Helvetica,sans-Serif" font-size="10.00">Exception</text>
</a>
</g>
</g>
<!-- Node3&#45;&gt;Node10 -->
<g id="edge9" class="edge"><title>Node3&#45;&gt;Node10</title>
<path fill="none" stroke="midnightblue" d="M384.555,-213.066C407.04,-191.315 443.81,-158.723 481,-138.5 487.871,-134.764 495.39,-131.479 502.961,-128.624"/>
<polygon fill="midnightblue" stroke="midnightblue" points="381.903,-210.765 377.22,-220.269 386.808,-215.759 381.903,-210.765"/>
</g>
<!-- Node12 -->
<g id="node12" class="node"><title>Node12</title>
<g id="a_node12"><a xlink:href="classadb_1_1usb__exceptions_1_1ReadFailedError.xhtml" target="_top" xlink:title="adb.usb_exceptions.ReadFailed\lError">
<polygon fill="white" stroke="black" points="482,-49.5 482,-79.5 638,-79.5 638,-49.5 482,-49.5"/>
<text text-anchor="start" x="490" y="-67.5" font-family="Helvetica,sans-Serif" font-size="10.00">adb.usb_exceptions.ReadFailed</text>
<text text-anchor="middle" x="560" y="-56.5" font-family="Helvetica,sans-Serif" font-size="10.00">Error</text>
</a>
</g>
</g>
<!-- Node11&#45;&gt;Node12 -->
<g id="edge11" class="edge"><title>Node11&#45;&gt;Node12</title>
<path fill="none" stroke="midnightblue" d="M439.086,-64.5C453.075,-64.5 467.681,-64.5 481.691,-64.5"/>
<polygon fill="midnightblue" stroke="midnightblue" points="439.026,-61.0001 429.026,-64.5 439.026,-68.0001 439.026,-61.0001"/>
</g>
<!-- Node13 -->
<g id="node13" class="node"><title>Node13</title>
<g id="a_node13"><a xlink:href="classadb_1_1usb__exceptions_1_1WriteFailedError.xhtml" target="_top" xlink:title="adb.usb_exceptions.Write\lFailedError">
<polygon fill="white" stroke="black" points="495,-0.5 495,-30.5 625,-30.5 625,-0.5 495,-0.5"/>
<text text-anchor="start" x="503" y="-18.5" font-family="Helvetica,sans-Serif" font-size="10.00">adb.usb_exceptions.Write</text>
<text text-anchor="middle" x="560" y="-7.5" font-family="Helvetica,sans-Serif" font-size="10.00">FailedError</text>
</a>
</g>
</g>
<!-- Node11&#45;&gt;Node13 -->
<g id="edge12" class="edge"><title>Node11&#45;&gt;Node13</title>
<path fill="none" stroke="midnightblue" d="M432.586,-47.0232C454.243,-41.6225 477.896,-35.7245 498.822,-30.5062"/>
<polygon fill="midnightblue" stroke="midnightblue" points="431.648,-43.6498 422.792,-49.4654 433.342,-50.4418 431.648,-43.6498"/>
</g>
</g>
</svg>
