<?xml version="1.0" encoding="UTF-8" standalone="no"?>
<!DOCTYPE svg PUBLIC "-//W3C//DTD SVG 1.1//EN"
 "http://www.w3.org/Graphics/SVG/1.1/DTD/svg11.dtd">
<!-- Generated by graphviz version 2.38.0 (20140413.2041)
 -->
<!-- Title: adb.adb_commands.AdbCommands.Install Pages: 1 -->
<svg width="636pt" height="71pt"
 viewBox="0.00 0.00 636.00 70.50" xmlns="http://www.w3.org/2000/svg" xmlns:xlink="http://www.w3.org/1999/xlink">
<g id="graph0" class="graph" transform="scale(1 1) rotate(0) translate(4 66.5)">
<title>adb.adb_commands.AdbCommands.Install</title>
<polygon fill="white" stroke="none" points="-4,4 -4,-66.5 632,-66.5 632,4 -4,4"/>
<!-- Node1 -->
<g id="node1" class="node"><title>Node1</title>
<polygon fill="#bfbfbf" stroke="black" points="0,-0.5 0,-30.5 178,-30.5 178,-0.5 0,-0.5"/>
<text text-anchor="start" x="8" y="-18.5" font-family="Helvetica,sans-Serif" font-size="10.00">adb.adb_commands.AdbCommands.</text>
<text text-anchor="middle" x="89" y="-7.5" font-family="Helvetica,sans-Serif" font-size="10.00">Install</text>
</g>
<!-- Node2 -->
<g id="node2" class="node"><title>Node2</title>
<g id="a_node2"><a xlink:href="classadb_1_1adb__commands_1_1AdbCommands.xhtml#ae415c7d42450a1f43115df806432e19d" target="_top" xlink:title="adb.adb_commands.AdbCommands.Push">
<polygon fill="white" stroke="black" points="214,-25 214,-44 414,-44 414,-25 214,-25"/>
<text text-anchor="middle" x="314" y="-32" font-family="Helvetica,sans-Serif" font-size="10.00">adb.adb_commands.AdbCommands.Push</text>
</a>
</g>
</g>
<!-- Node1&#45;&gt;Node2 -->
<g id="edge1" class="edge"><title>Node1&#45;&gt;Node2</title>
<path fill="none" stroke="midnightblue" d="M178.136,-23.0093C186.536,-23.725 195.121,-24.4565 203.69,-25.1866"/>
<polygon fill="midnightblue" stroke="midnightblue" points="203.467,-28.6802 213.728,-26.0418 204.061,-21.7054 203.467,-28.6802"/>
</g>
<!-- Node3 -->
<g id="node3" class="node"><title>Node3</title>
<g id="a_node3"><a xlink:href="classadb_1_1adb__commands_1_1AdbCommands.xhtml#aa495aaa8320b21e5e308a60b5bbbfc63" target="_top" xlink:title="adb.adb_commands.AdbCommands.\lShell">
<polygon fill="white" stroke="black" points="450,-0.5 450,-30.5 628,-30.5 628,-0.5 450,-0.5"/>
<text text-anchor="start" x="458" y="-18.5" font-family="Helvetica,sans-Serif" font-size="10.00">adb.adb_commands.AdbCommands.</text>
<text text-anchor="middle" x="539" y="-7.5" font-family="Helvetica,sans-Serif" font-size="10.00">Shell</text>
</a>
</g>
</g>
<!-- Node1&#45;&gt;Node3 -->
<g id="edge4" class="edge"><title>Node1&#45;&gt;Node3</title>
<path fill="none" stroke="midnightblue" d="M178.243,-15.5C253.505,-15.5 361.595,-15.5 439.626,-15.5"/>
<polygon fill="midnightblue" stroke="midnightblue" points="439.949,-19.0001 449.949,-15.5 439.949,-12.0001 439.949,-19.0001"/>
</g>
<!-- Node2&#45;&gt;Node2 -->
<g id="edge3" class="edge"><title>Node2&#45;&gt;Node2</title>
<path fill="none" stroke="midnightblue" d="M279.755,-44.1119C262.554,-52.9613 273.969,-62.5 314,-62.5 344.023,-62.5 357.95,-57.1345 355.781,-50.7184"/>
<polygon fill="midnightblue" stroke="midnightblue" points="358.072,-48.0727 348.245,-44.1119 353.457,-53.3362 358.072,-48.0727"/>
</g>
<!-- Node2&#45;&gt;Node3 -->
<g id="edge2" class="edge"><title>Node2&#45;&gt;Node3</title>
<path fill="none" stroke="midnightblue" d="M414.11,-26.0557C422.545,-25.337 431.076,-24.6101 439.507,-23.8918"/>
<polygon fill="midnightblue" stroke="midnightblue" points="440.06,-27.3574 449.727,-23.021 439.466,-20.3827 440.06,-27.3574"/>
</g>
</g>
</svg>
