<?xml version="1.0" encoding="UTF-8" standalone="no"?>
<!DOCTYPE svg PUBLIC "-//W3C//DTD SVG 1.1//EN"
 "http://www.w3.org/Graphics/SVG/1.1/DTD/svg11.dtd">
<!-- Generated by graphviz version 2.38.0 (20140413.2041)
 -->
<!-- Title: adb.fastboot.FastbootCommands._SimpleCommand Pages: 1 -->
<svg width="575pt" height="88pt"
 viewBox="0.00 0.00 575.00 88.00" xmlns="http://www.w3.org/2000/svg" xmlns:xlink="http://www.w3.org/1999/xlink">
<g id="graph0" class="graph" transform="scale(1 1) rotate(0) translate(4 84)">
<title>adb.fastboot.FastbootCommands._SimpleCommand</title>
<polygon fill="white" stroke="none" points="-4,4 -4,-84 571,-84 571,4 -4,4"/>
<!-- Node1 -->
<g id="node1" class="node"><title>Node1</title>
<polygon fill="#bfbfbf" stroke="black" points="0,-22.5 0,-52.5 165,-52.5 165,-22.5 0,-22.5"/>
<text text-anchor="start" x="8" y="-40.5" font-family="Helvetica,sans-Serif" font-size="10.00">adb.fastboot.FastbootCommands.</text>
<text text-anchor="middle" x="82.5" y="-29.5" font-family="Helvetica,sans-Serif" font-size="10.00">_SimpleCommand</text>
</g>
<!-- Node2 -->
<g id="node2" class="node"><title>Node2</title>
<g id="a_node2"><a xlink:href="classadb_1_1fastboot_1_1FastbootCommands.xhtml#a011e85b1ffc526bcda0808ddffb7f9e3" target="_top" xlink:title="adb.fastboot.FastbootCommands.\lFlashFromFile">
<polygon fill="white" stroke="black" points="201,-44.5 201,-74.5 366,-74.5 366,-44.5 201,-44.5"/>
<text text-anchor="start" x="209" y="-62.5" font-family="Helvetica,sans-Serif" font-size="10.00">adb.fastboot.FastbootCommands.</text>
<text text-anchor="middle" x="283.5" y="-51.5" font-family="Helvetica,sans-Serif" font-size="10.00">FlashFromFile</text>
</a>
</g>
</g>
<!-- Node1&#45;&gt;Node2 -->
<g id="edge1" class="edge"><title>Node1&#45;&gt;Node2</title>
<path fill="none" stroke="midnightblue" d="M165.015,-46.5117C173.501,-47.4499 182.168,-48.4081 190.758,-49.3576"/>
<polygon fill="midnightblue" stroke="midnightblue" points="190.466,-52.8466 200.79,-50.4667 191.235,-45.889 190.466,-52.8466"/>
</g>
<!-- Node3 -->
<g id="node3" class="node"><title>Node3</title>
<g id="a_node3"><a xlink:href="classadb_1_1fastboot_1_1FastbootCommands.xhtml#af4086276b55840c8e02c091b8af676c4" target="_top" xlink:title="adb.fastboot.FastbootCommands.\lDownload">
<polygon fill="white" stroke="black" points="402,-49.5 402,-79.5 567,-79.5 567,-49.5 402,-49.5"/>
<text text-anchor="start" x="410" y="-67.5" font-family="Helvetica,sans-Serif" font-size="10.00">adb.fastboot.FastbootCommands.</text>
<text text-anchor="middle" x="484.5" y="-56.5" font-family="Helvetica,sans-Serif" font-size="10.00">Download</text>
</a>
</g>
</g>
<!-- Node2&#45;&gt;Node3 -->
<g id="edge2" class="edge"><title>Node2&#45;&gt;Node3</title>
<path fill="none" stroke="midnightblue" d="M366.015,-61.5481C374.501,-61.7613 383.168,-61.9791 391.758,-62.1949"/>
<polygon fill="midnightblue" stroke="midnightblue" points="391.705,-65.6946 401.79,-62.447 391.881,-58.6968 391.705,-65.6946"/>
</g>
<!-- Node4 -->
<g id="node4" class="node"><title>Node4</title>
<g id="a_node4"><a xlink:href="classadb_1_1fastboot_1_1FastbootCommands.xhtml#a621a92ec5fa925375f0a1dd9be48fcaf" target="_top" xlink:title="adb.fastboot.FastbootCommands.\lFlash">
<polygon fill="white" stroke="black" points="402,-0.5 402,-30.5 567,-30.5 567,-0.5 402,-0.5"/>
<text text-anchor="start" x="410" y="-18.5" font-family="Helvetica,sans-Serif" font-size="10.00">adb.fastboot.FastbootCommands.</text>
<text text-anchor="middle" x="484.5" y="-7.5" font-family="Helvetica,sans-Serif" font-size="10.00">Flash</text>
</a>
</g>
</g>
<!-- Node2&#45;&gt;Node4 -->
<g id="edge3" class="edge"><title>Node2&#45;&gt;Node4</title>
<path fill="none" stroke="midnightblue" d="M352.428,-44.4808C369.464,-40.714 387.878,-36.6426 405.367,-32.7756"/>
<polygon fill="midnightblue" stroke="midnightblue" points="406.532,-36.1027 415.541,-30.5262 405.021,-29.2677 406.532,-36.1027"/>
</g>
<!-- Node4&#45;&gt;Node1 -->
<g id="edge4" class="edge"><title>Node4&#45;&gt;Node1</title>
<path fill="none" stroke="midnightblue" d="M401.698,-19.9991C336.072,-23.6086 243.964,-28.6745 175.725,-32.4276"/>
<polygon fill="midnightblue" stroke="midnightblue" points="175.204,-28.9509 165.411,-32.9949 175.588,-35.9403 175.204,-28.9509"/>
</g>
</g>
</svg>
