<?xml version="1.0" encoding="UTF-8" standalone="no"?>
<!DOCTYPE svg PUBLIC "-//W3C//DTD SVG 1.1//EN"
 "http://www.w3.org/Graphics/SVG/1.1/DTD/svg11.dtd">
<!-- Generated by graphviz version 2.38.0 (20140413.2041)
 -->
<!-- Title: adb.filesync_protocol.FileSyncConnection.Send Pages: 1 -->
<svg width="364pt" height="88pt"
 viewBox="0.00 0.00 364.00 88.00" xmlns="http://www.w3.org/2000/svg" xmlns:xlink="http://www.w3.org/1999/xlink">
<g id="graph0" class="graph" transform="scale(1 1) rotate(0) translate(4 84)">
<title>adb.filesync_protocol.FileSyncConnection.Send</title>
<polygon fill="white" stroke="none" points="-4,4 -4,-84 360,-84 360,4 -4,4"/>
<!-- Node1 -->
<g id="node1" class="node"><title>Node1</title>
<polygon fill="#bfbfbf" stroke="black" points="0,-24.5 0,-54.5 128,-54.5 128,-24.5 0,-24.5"/>
<text text-anchor="start" x="8" y="-42.5" font-family="Helvetica,sans-Serif" font-size="10.00">adb.filesync_protocol.File</text>
<text text-anchor="middle" x="64" y="-31.5" font-family="Helvetica,sans-Serif" font-size="10.00">SyncConnection.Send</text>
</g>
<!-- Node2 -->
<g id="node2" class="node"><title>Node2</title>
<g id="a_node2"><a xlink:href="classadb_1_1filesync__protocol_1_1FileSyncConnection.xhtml#a0c060d0248f7cce1913423cf7678ce1c" target="_top" xlink:title="adb.filesync_protocol.File\lSyncConnection._CanAddToSendBuffer">
<polygon fill="white" stroke="black" points="164,-49.5 164,-79.5 356,-79.5 356,-49.5 164,-49.5"/>
<text text-anchor="start" x="172" y="-67.5" font-family="Helvetica,sans-Serif" font-size="10.00">adb.filesync_protocol.File</text>
<text text-anchor="middle" x="260" y="-56.5" font-family="Helvetica,sans-Serif" font-size="10.00">SyncConnection._CanAddToSendBuffer</text>
</a>
</g>
</g>
<!-- Node1&#45;&gt;Node2 -->
<g id="edge1" class="edge"><title>Node1&#45;&gt;Node2</title>
<path fill="none" stroke="midnightblue" d="M128.254,-47.6513C136.44,-48.7062 144.992,-49.8083 153.634,-50.9219"/>
<polygon fill="midnightblue" stroke="midnightblue" points="153.437,-54.4254 163.802,-52.2322 154.331,-47.4828 153.437,-54.4254"/>
</g>
<!-- Node3 -->
<g id="node3" class="node"><title>Node3</title>
<g id="a_node3"><a xlink:href="classadb_1_1filesync__protocol_1_1FileSyncConnection.xhtml#a8535c89f6541e5cb17028755fb89afdf" target="_top" xlink:title="adb.filesync_protocol.File\lSyncConnection._Flush">
<polygon fill="white" stroke="black" points="196,-0.5 196,-30.5 324,-30.5 324,-0.5 196,-0.5"/>
<text text-anchor="start" x="204" y="-18.5" font-family="Helvetica,sans-Serif" font-size="10.00">adb.filesync_protocol.File</text>
<text text-anchor="middle" x="260" y="-7.5" font-family="Helvetica,sans-Serif" font-size="10.00">SyncConnection._Flush</text>
</a>
</g>
</g>
<!-- Node1&#45;&gt;Node3 -->
<g id="edge2" class="edge"><title>Node1&#45;&gt;Node3</title>
<path fill="none" stroke="midnightblue" d="M128.254,-31.6747C146.625,-29.4021 166.84,-26.9012 185.769,-24.5595"/>
<polygon fill="midnightblue" stroke="midnightblue" points="186.337,-28.016 195.832,-23.3147 185.477,-21.069 186.337,-28.016"/>
</g>
</g>
</svg>
