<?xml version="1.0" encoding="UTF-8" standalone="no"?>
<!DOCTYPE svg PUBLIC "-//W3C//DTD SVG 1.1//EN"
 "http://www.w3.org/Graphics/SVG/1.1/DTD/svg11.dtd">
<!-- Generated by graphviz version 2.38.0 (20140413.2041)
 -->
<!-- Title: adb.adb_protocol._AdbConnection.ReadUntil Pages: 1 -->
<svg width="638pt" height="39pt"
 viewBox="0.00 0.00 638.00 39.00" xmlns="http://www.w3.org/2000/svg" xmlns:xlink="http://www.w3.org/1999/xlink">
<g id="graph0" class="graph" transform="scale(1 1) rotate(0) translate(4 35)">
<title>adb.adb_protocol._AdbConnection.ReadUntil</title>
<polygon fill="white" stroke="none" points="-4,4 -4,-35 634,-35 634,4 -4,4"/>
<!-- Node1 -->
<g id="node1" class="node"><title>Node1</title>
<polygon fill="#bfbfbf" stroke="black" points="0,-0.5 0,-30.5 169,-30.5 169,-0.5 0,-0.5"/>
<text text-anchor="start" x="8" y="-18.5" font-family="Helvetica,sans-Serif" font-size="10.00">adb.adb_protocol._AdbConnection.</text>
<text text-anchor="middle" x="84.5" y="-7.5" font-family="Helvetica,sans-Serif" font-size="10.00">ReadUntil</text>
</g>
<!-- Node2 -->
<g id="node2" class="node"><title>Node2</title>
<g id="a_node2"><a xlink:href="classadb_1_1adb__protocol_1_1__AdbConnection.xhtml#a3f8e837ace6e380c85d5d7867b964f29" target="_top" xlink:title="adb.adb_protocol._AdbConnection.Okay">
<polygon fill="white" stroke="black" points="205,-6 205,-25 397,-25 397,-6 205,-6"/>
<text text-anchor="middle" x="301" y="-13" font-family="Helvetica,sans-Serif" font-size="10.00">adb.adb_protocol._AdbConnection.Okay</text>
</a>
</g>
</g>
<!-- Node1&#45;&gt;Node2 -->
<g id="edge1" class="edge"><title>Node1&#45;&gt;Node2</title>
<path fill="none" stroke="midnightblue" d="M169.046,-15.5C177.5,-15.5 186.162,-15.5 194.806,-15.5"/>
<polygon fill="midnightblue" stroke="midnightblue" points="194.932,-19.0001 204.932,-15.5 194.932,-12.0001 194.932,-19.0001"/>
</g>
<!-- Node3 -->
<g id="node3" class="node"><title>Node3</title>
<g id="a_node3"><a xlink:href="classadb_1_1adb__protocol_1_1__AdbConnection.xhtml#afaf68a0fc17b74faeb6e21984d059c89" target="_top" xlink:title="adb.adb_protocol._AdbConnection._Send">
<polygon fill="white" stroke="black" points="433,-6 433,-25 630,-25 630,-6 433,-6"/>
<text text-anchor="middle" x="531.5" y="-13" font-family="Helvetica,sans-Serif" font-size="10.00">adb.adb_protocol._AdbConnection._Send</text>
</a>
</g>
</g>
<!-- Node2&#45;&gt;Node3 -->
<g id="edge2" class="edge"><title>Node2&#45;&gt;Node3</title>
<path fill="none" stroke="midnightblue" d="M397.25,-15.5C405.608,-15.5 414.105,-15.5 422.556,-15.5"/>
<polygon fill="midnightblue" stroke="midnightblue" points="422.829,-19.0001 432.829,-15.5 422.829,-12.0001 422.829,-19.0001"/>
</g>
</g>
</svg>
