<?xml version="1.0" encoding="UTF-8" standalone="no"?>
<!DOCTYPE svg PUBLIC "-//W3C//DTD SVG 1.1//EN"
 "http://www.w3.org/Graphics/SVG/1.1/DTD/svg11.dtd">
<!-- Generated by graphviz version 2.38.0 (20140413.2041)
 -->
<!-- Title: adb.adb_protocol.AdbMessage.Read Pages: 1 -->
<svg width="375pt" height="88pt"
 viewBox="0.00 0.00 375.00 88.00" xmlns="http://www.w3.org/2000/svg" xmlns:xlink="http://www.w3.org/1999/xlink">
<g id="graph0" class="graph" transform="scale(1 1) rotate(0) translate(4 84)">
<title>adb.adb_protocol.AdbMessage.Read</title>
<polygon fill="white" stroke="none" points="-4,4 -4,-84 371,-84 371,4 -4,4"/>
<!-- Node1 -->
<g id="node1" class="node"><title>Node1</title>
<polygon fill="#bfbfbf" stroke="black" points="0,-30 0,-49 177,-49 177,-30 0,-30"/>
<text text-anchor="middle" x="88.5" y="-37" font-family="Helvetica,sans-Serif" font-size="10.00">adb.adb_protocol.AdbMessage.Read</text>
</g>
<!-- Node2 -->
<g id="node2" class="node"><title>Node2</title>
<g id="a_node2"><a xlink:href="classadb_1_1adb__protocol_1_1AdbMessage.xhtml#ac35b31fd714c3c26d07a5cff9e31919f" target="_top" xlink:title="adb.adb_protocol.AdbMessage.\lUnpack">
<polygon fill="white" stroke="black" points="213,-49.5 213,-79.5 367,-79.5 367,-49.5 213,-49.5"/>
<text text-anchor="start" x="221" y="-67.5" font-family="Helvetica,sans-Serif" font-size="10.00">adb.adb_protocol.AdbMessage.</text>
<text text-anchor="middle" x="290" y="-56.5" font-family="Helvetica,sans-Serif" font-size="10.00">Unpack</text>
</a>
</g>
</g>
<!-- Node1&#45;&gt;Node2 -->
<g id="edge1" class="edge"><title>Node1&#45;&gt;Node2</title>
<path fill="none" stroke="midnightblue" d="M165.492,-49.0227C177.621,-50.5428 190.249,-52.1252 202.598,-53.6727"/>
<polygon fill="midnightblue" stroke="midnightblue" points="202.532,-57.1917 212.889,-54.9623 203.402,-50.246 202.532,-57.1917"/>
</g>
<!-- Node3 -->
<g id="node3" class="node"><title>Node3</title>
<g id="a_node3"><a xlink:href="classadb_1_1adb__protocol_1_1AdbMessage.xhtml#a94f0f744eab64603e9ee3f313ef0805f" target="_top" xlink:title="adb.adb_protocol.AdbMessage.\lCalculateChecksum">
<polygon fill="white" stroke="black" points="213,-0.5 213,-30.5 367,-30.5 367,-0.5 213,-0.5"/>
<text text-anchor="start" x="221" y="-18.5" font-family="Helvetica,sans-Serif" font-size="10.00">adb.adb_protocol.AdbMessage.</text>
<text text-anchor="middle" x="290" y="-7.5" font-family="Helvetica,sans-Serif" font-size="10.00">CalculateChecksum</text>
</a>
</g>
</g>
<!-- Node1&#45;&gt;Node3 -->
<g id="edge2" class="edge"><title>Node1&#45;&gt;Node3</title>
<path fill="none" stroke="midnightblue" d="M168.634,-29.9801C179.909,-28.6237 191.551,-27.2232 202.95,-25.8519"/>
<polygon fill="midnightblue" stroke="midnightblue" points="203.379,-29.3256 212.889,-24.6562 202.543,-22.3757 203.379,-29.3256"/>
</g>
</g>
</svg>
