<?xml version="1.0" encoding="UTF-8" standalone="no"?>
<!DOCTYPE svg PUBLIC "-//W3C//DTD SVG 1.1//EN"
 "http://www.w3.org/Graphics/SVG/1.1/DTD/svg11.dtd">
<!-- Generated by graphviz version 2.38.0 (20140413.2041)
 -->
<!-- Title: adb.adb_commands.AdbCommands.GetState Pages: 1 -->
<svg width="850pt" height="71pt"
 viewBox="0.00 0.00 850.00 70.50" xmlns="http://www.w3.org/2000/svg" xmlns:xlink="http://www.w3.org/1999/xlink">
<g id="graph0" class="graph" transform="scale(1 1) rotate(0) translate(4 66.5)">
<title>adb.adb_commands.AdbCommands.GetState</title>
<polygon fill="white" stroke="none" points="-4,4 -4,-66.5 846,-66.5 846,4 -4,4"/>
<!-- Node1 -->
<g id="node1" class="node"><title>Node1</title>
<polygon fill="#bfbfbf" stroke="black" points="0,-0.5 0,-30.5 178,-30.5 178,-0.5 0,-0.5"/>
<text text-anchor="start" x="8" y="-18.5" font-family="Helvetica,sans-Serif" font-size="10.00">adb.adb_commands.AdbCommands.</text>
<text text-anchor="middle" x="89" y="-7.5" font-family="Helvetica,sans-Serif" font-size="10.00">GetState</text>
</g>
<!-- Node2 -->
<g id="node2" class="node"><title>Node2</title>
<g id="a_node2"><a xlink:href="classadb_1_1adb__commands_1_1AdbCommands.xhtml#aa7e962039a7fce95ec02bd2ea531a43e" target="_top" xlink:title="adb.adb_commands.AdbCommands.\lInstall">
<polygon fill="white" stroke="black" points="214,-0.5 214,-30.5 392,-30.5 392,-0.5 214,-0.5"/>
<text text-anchor="start" x="222" y="-18.5" font-family="Helvetica,sans-Serif" font-size="10.00">adb.adb_commands.AdbCommands.</text>
<text text-anchor="middle" x="303" y="-7.5" font-family="Helvetica,sans-Serif" font-size="10.00">Install</text>
</a>
</g>
</g>
<!-- Node1&#45;&gt;Node2 -->
<g id="edge1" class="edge"><title>Node1&#45;&gt;Node2</title>
<path fill="none" stroke="midnightblue" d="M178.065,-15.5C186.569,-15.5 195.232,-15.5 203.825,-15.5"/>
<polygon fill="midnightblue" stroke="midnightblue" points="203.868,-19.0001 213.868,-15.5 203.868,-12.0001 203.868,-19.0001"/>
</g>
<!-- Node3 -->
<g id="node3" class="node"><title>Node3</title>
<g id="a_node3"><a xlink:href="classadb_1_1adb__commands_1_1AdbCommands.xhtml#ae415c7d42450a1f43115df806432e19d" target="_top" xlink:title="adb.adb_commands.AdbCommands.Push">
<polygon fill="white" stroke="black" points="428,-25 428,-44 628,-44 628,-25 428,-25"/>
<text text-anchor="middle" x="528" y="-32" font-family="Helvetica,sans-Serif" font-size="10.00">adb.adb_commands.AdbCommands.Push</text>
</a>
</g>
</g>
<!-- Node2&#45;&gt;Node3 -->
<g id="edge2" class="edge"><title>Node2&#45;&gt;Node3</title>
<path fill="none" stroke="midnightblue" d="M392.136,-23.0093C400.536,-23.725 409.121,-24.4565 417.69,-25.1866"/>
<polygon fill="midnightblue" stroke="midnightblue" points="417.467,-28.6802 427.728,-26.0418 418.061,-21.7054 417.467,-28.6802"/>
</g>
<!-- Node4 -->
<g id="node4" class="node"><title>Node4</title>
<g id="a_node4"><a xlink:href="classadb_1_1adb__commands_1_1AdbCommands.xhtml#aa495aaa8320b21e5e308a60b5bbbfc63" target="_top" xlink:title="adb.adb_commands.AdbCommands.\lShell">
<polygon fill="white" stroke="black" points="664,-0.5 664,-30.5 842,-30.5 842,-0.5 664,-0.5"/>
<text text-anchor="start" x="672" y="-18.5" font-family="Helvetica,sans-Serif" font-size="10.00">adb.adb_commands.AdbCommands.</text>
<text text-anchor="middle" x="753" y="-7.5" font-family="Helvetica,sans-Serif" font-size="10.00">Shell</text>
</a>
</g>
</g>
<!-- Node2&#45;&gt;Node4 -->
<g id="edge5" class="edge"><title>Node2&#45;&gt;Node4</title>
<path fill="none" stroke="midnightblue" d="M392.243,-15.5C467.505,-15.5 575.595,-15.5 653.626,-15.5"/>
<polygon fill="midnightblue" stroke="midnightblue" points="653.949,-19.0001 663.949,-15.5 653.949,-12.0001 653.949,-19.0001"/>
</g>
<!-- Node3&#45;&gt;Node3 -->
<g id="edge4" class="edge"><title>Node3&#45;&gt;Node3</title>
<path fill="none" stroke="midnightblue" d="M493.755,-44.1119C476.554,-52.9613 487.969,-62.5 528,-62.5 558.023,-62.5 571.95,-57.1345 569.781,-50.7184"/>
<polygon fill="midnightblue" stroke="midnightblue" points="572.072,-48.0727 562.245,-44.1119 567.457,-53.3362 572.072,-48.0727"/>
</g>
<!-- Node3&#45;&gt;Node4 -->
<g id="edge3" class="edge"><title>Node3&#45;&gt;Node4</title>
<path fill="none" stroke="midnightblue" d="M628.11,-26.0557C636.545,-25.337 645.076,-24.6101 653.507,-23.8918"/>
<polygon fill="midnightblue" stroke="midnightblue" points="654.06,-27.3574 663.727,-23.021 653.466,-20.3827 654.06,-27.3574"/>
</g>
</g>
</svg>
