<?xml version="1.0" encoding="UTF-8" standalone="no"?>
<!DOCTYPE svg PUBLIC "-//W3C//DTD SVG 1.1//EN"
 "http://www.w3.org/Graphics/SVG/1.1/DTD/svg11.dtd">
<!-- Generated by graphviz version 2.38.0 (20140413.2041)
 -->
<!-- Title: adb.adb_protocol.AdbMessage.Command Pages: 1 -->
<svg width="968pt" height="88pt"
 viewBox="0.00 0.00 968.00 88.00" xmlns="http://www.w3.org/2000/svg" xmlns:xlink="http://www.w3.org/1999/xlink">
<g id="graph0" class="graph" transform="scale(1 1) rotate(0) translate(4 84)">
<title>adb.adb_protocol.AdbMessage.Command</title>
<polygon fill="white" stroke="none" points="-4,4 -4,-84 964,-84 964,4 -4,4"/>
<!-- Node1 -->
<g id="node1" class="node"><title>Node1</title>
<polygon fill="#bfbfbf" stroke="black" points="0,-24.5 0,-54.5 154,-54.5 154,-24.5 0,-24.5"/>
<text text-anchor="start" x="8" y="-42.5" font-family="Helvetica,sans-Serif" font-size="10.00">adb.adb_protocol.AdbMessage.</text>
<text text-anchor="middle" x="77" y="-31.5" font-family="Helvetica,sans-Serif" font-size="10.00">Command</text>
</g>
<!-- Node2 -->
<g id="node2" class="node"><title>Node2</title>
<g id="a_node2"><a xlink:href="classadb_1_1adb__protocol_1_1AdbMessage.xhtml#a7dd74c37b5e308f9c01d5f2816cefc2e" target="_top" xlink:title="adb.adb_protocol.AdbMessage.\lStreamingCommand">
<polygon fill="white" stroke="black" points="190,-24.5 190,-54.5 344,-54.5 344,-24.5 190,-24.5"/>
<text text-anchor="start" x="198" y="-42.5" font-family="Helvetica,sans-Serif" font-size="10.00">adb.adb_protocol.AdbMessage.</text>
<text text-anchor="middle" x="267" y="-31.5" font-family="Helvetica,sans-Serif" font-size="10.00">StreamingCommand</text>
</a>
</g>
</g>
<!-- Node1&#45;&gt;Node2 -->
<g id="edge1" class="edge"><title>Node1&#45;&gt;Node2</title>
<path fill="none" stroke="midnightblue" d="M154.196,-39.5C162.517,-39.5 171.032,-39.5 179.466,-39.5"/>
<polygon fill="midnightblue" stroke="midnightblue" points="179.696,-43.0001 189.696,-39.5 179.696,-36.0001 179.696,-43.0001"/>
</g>
<!-- Node3 -->
<g id="node3" class="node"><title>Node3</title>
<g id="a_node3"><a xlink:href="classadb_1_1adb__protocol_1_1AdbMessage.xhtml#a077d593719bdc1220b3c368944c6e724" target="_top" xlink:title="adb.adb_protocol.AdbMessage.Open">
<polygon fill="white" stroke="black" points="380,-30 380,-49 557,-49 557,-30 380,-30"/>
<text text-anchor="middle" x="468.5" y="-37" font-family="Helvetica,sans-Serif" font-size="10.00">adb.adb_protocol.AdbMessage.Open</text>
</a>
</g>
</g>
<!-- Node2&#45;&gt;Node3 -->
<g id="edge2" class="edge"><title>Node2&#45;&gt;Node3</title>
<path fill="none" stroke="midnightblue" d="M344.276,-39.5C352.657,-39.5 361.272,-39.5 369.866,-39.5"/>
<polygon fill="midnightblue" stroke="midnightblue" points="369.93,-43.0001 379.929,-39.5 369.929,-36.0001 369.93,-43.0001"/>
</g>
<!-- Node4 -->
<g id="node4" class="node"><title>Node4</title>
<g id="a_node4"><a xlink:href="classadb_1_1adb__protocol_1_1AdbMessage.xhtml#adfc3951e5524f65d12c82f5e3c4aa98a" target="_top" xlink:title="adb.adb_protocol.AdbMessage.Read">
<polygon fill="white" stroke="black" points="593,-30 593,-49 770,-49 770,-30 593,-30"/>
<text text-anchor="middle" x="681.5" y="-37" font-family="Helvetica,sans-Serif" font-size="10.00">adb.adb_protocol.AdbMessage.Read</text>
</a>
</g>
</g>
<!-- Node3&#45;&gt;Node4 -->
<g id="edge3" class="edge"><title>Node3&#45;&gt;Node4</title>
<path fill="none" stroke="midnightblue" d="M557.15,-39.5C565.522,-39.5 574.048,-39.5 582.509,-39.5"/>
<polygon fill="midnightblue" stroke="midnightblue" points="582.783,-43.0001 592.783,-39.5 582.783,-36.0001 582.783,-43.0001"/>
</g>
<!-- Node5 -->
<g id="node5" class="node"><title>Node5</title>
<g id="a_node5"><a xlink:href="classadb_1_1adb__protocol_1_1AdbMessage.xhtml#ac35b31fd714c3c26d07a5cff9e31919f" target="_top" xlink:title="adb.adb_protocol.AdbMessage.\lUnpack">
<polygon fill="white" stroke="black" points="806,-49.5 806,-79.5 960,-79.5 960,-49.5 806,-49.5"/>
<text text-anchor="start" x="814" y="-67.5" font-family="Helvetica,sans-Serif" font-size="10.00">adb.adb_protocol.AdbMessage.</text>
<text text-anchor="middle" x="883" y="-56.5" font-family="Helvetica,sans-Serif" font-size="10.00">Unpack</text>
</a>
</g>
</g>
<!-- Node4&#45;&gt;Node5 -->
<g id="edge4" class="edge"><title>Node4&#45;&gt;Node5</title>
<path fill="none" stroke="midnightblue" d="M758.492,-49.0227C770.621,-50.5428 783.249,-52.1252 795.598,-53.6727"/>
<polygon fill="midnightblue" stroke="midnightblue" points="795.532,-57.1917 805.889,-54.9623 796.402,-50.246 795.532,-57.1917"/>
</g>
<!-- Node6 -->
<g id="node6" class="node"><title>Node6</title>
<g id="a_node6"><a xlink:href="classadb_1_1adb__protocol_1_1AdbMessage.xhtml#a94f0f744eab64603e9ee3f313ef0805f" target="_top" xlink:title="adb.adb_protocol.AdbMessage.\lCalculateChecksum">
<polygon fill="white" stroke="black" points="806,-0.5 806,-30.5 960,-30.5 960,-0.5 806,-0.5"/>
<text text-anchor="start" x="814" y="-18.5" font-family="Helvetica,sans-Serif" font-size="10.00">adb.adb_protocol.AdbMessage.</text>
<text text-anchor="middle" x="883" y="-7.5" font-family="Helvetica,sans-Serif" font-size="10.00">CalculateChecksum</text>
</a>
</g>
</g>
<!-- Node4&#45;&gt;Node6 -->
<g id="edge5" class="edge"><title>Node4&#45;&gt;Node6</title>
<path fill="none" stroke="midnightblue" d="M761.634,-29.9801C772.909,-28.6237 784.551,-27.2232 795.95,-25.8519"/>
<polygon fill="midnightblue" stroke="midnightblue" points="796.379,-29.3256 805.889,-24.6562 795.543,-22.3757 796.379,-29.3256"/>
</g>
</g>
</svg>
