<?xml version="1.0" encoding="UTF-8" standalone="no"?>
<!DOCTYPE svg PUBLIC "-//W3C//DTD SVG 1.1//EN"
 "http://www.w3.org/Graphics/SVG/1.1/DTD/svg11.dtd">
<!-- Generated by graphviz version 2.38.0 (20140413.2041)
 -->
<!-- Title: adb.common.UsbHandle.Timeout Pages: 1 -->
<svg width="582pt" height="206pt"
 viewBox="0.00 0.00 582.00 205.50" xmlns="http://www.w3.org/2000/svg" xmlns:xlink="http://www.w3.org/1999/xlink">
<g id="graph0" class="graph" transform="scale(1 1) rotate(0) translate(4 201.5)">
<title>adb.common.UsbHandle.Timeout</title>
<polygon fill="white" stroke="none" points="-4,4 -4,-201.5 578,-201.5 578,4 -4,4"/>
<!-- Node1 -->
<g id="node1" class="node"><title>Node1</title>
<polygon fill="#bfbfbf" stroke="black" points="0,-128.5 0,-147.5 163,-147.5 163,-128.5 0,-128.5"/>
<text text-anchor="middle" x="81.5" y="-135.5" font-family="Helvetica,sans-Serif" font-size="10.00">adb.common.UsbHandle.Timeout</text>
</g>
<!-- Node2 -->
<g id="node2" class="node"><title>Node2</title>
<g id="a_node2"><a xlink:href="classadb_1_1common_1_1UsbHandle.xhtml#a94a038e0d680e1b279f4d289b98f6352" target="_top" xlink:title="adb.common.UsbHandle.Bulk\lWrite">
<polygon fill="white" stroke="black" points="210.5,-167 210.5,-197 357.5,-197 357.5,-167 210.5,-167"/>
<text text-anchor="start" x="218.5" y="-185" font-family="Helvetica,sans-Serif" font-size="10.00">adb.common.UsbHandle.Bulk</text>
<text text-anchor="middle" x="284" y="-174" font-family="Helvetica,sans-Serif" font-size="10.00">Write</text>
</a>
</g>
</g>
<!-- Node1&#45;&gt;Node2 -->
<g id="edge1" class="edge"><title>Node1&#45;&gt;Node2</title>
<path fill="none" stroke="midnightblue" d="M136.008,-149.742C160.06,-155.021 188.738,-161.314 214.35,-166.935"/>
<polygon fill="midnightblue" stroke="midnightblue" points="136.523,-146.272 126.006,-147.547 135.023,-153.11 136.523,-146.272"/>
</g>
<!-- Node3 -->
<g id="node3" class="node"><title>Node3</title>
<g id="a_node3"><a xlink:href="classadb_1_1common_1_1UsbHandle.xhtml#a35dde138b9f918cf936affe61a44ac6f" target="_top" xlink:title="adb.common.UsbHandle.BulkRead">
<polygon fill="white" stroke="black" points="199,-128.5 199,-147.5 369,-147.5 369,-128.5 199,-128.5"/>
<text text-anchor="middle" x="284" y="-135.5" font-family="Helvetica,sans-Serif" font-size="10.00">adb.common.UsbHandle.BulkRead</text>
</a>
</g>
</g>
<!-- Node1&#45;&gt;Node3 -->
<g id="edge2" class="edge"><title>Node1&#45;&gt;Node3</title>
<path fill="none" stroke="midnightblue" d="M173.453,-138C181.921,-138 190.478,-138 198.88,-138"/>
<polygon fill="midnightblue" stroke="midnightblue" points="173.184,-134.5 163.184,-138 173.184,-141.5 173.184,-134.5"/>
</g>
<!-- Node5 -->
<g id="node5" class="node"><title>Node5</title>
<g id="a_node5"><a xlink:href="classadb_1_1common_1_1TcpHandle.xhtml#ab9f9d10bfb8c6fb7c0a16d879e85378f" target="_top" xlink:title="adb.common.TcpHandle.Timeout\lSeconds">
<polygon fill="white" stroke="black" points="203.5,-52 203.5,-82 364.5,-82 364.5,-52 203.5,-52"/>
<text text-anchor="start" x="211.5" y="-70" font-family="Helvetica,sans-Serif" font-size="10.00">adb.common.TcpHandle.Timeout</text>
<text text-anchor="middle" x="284" y="-59" font-family="Helvetica,sans-Serif" font-size="10.00">Seconds</text>
</a>
</g>
</g>
<!-- Node1&#45;&gt;Node5 -->
<g id="edge4" class="edge"><title>Node1&#45;&gt;Node5</title>
<path fill="none" stroke="midnightblue" d="M119.139,-125.026C153.315,-112.924 204.294,-94.8708 240.299,-82.1211"/>
<polygon fill="midnightblue" stroke="midnightblue" points="117.798,-121.787 109.54,-128.425 120.135,-128.386 117.798,-121.787"/>
</g>
<!-- Node4 -->
<g id="node4" class="node"><title>Node4</title>
<g id="a_node4"><a xlink:href="classadb_1_1common_1_1UsbHandle.xhtml#a08cae62ee61ff4fc0f6424caac9d8de6" target="_top" xlink:title="adb.common.UsbHandle.Flush\lBuffers">
<polygon fill="white" stroke="black" points="413.5,-137 413.5,-167 565.5,-167 565.5,-137 413.5,-137"/>
<text text-anchor="start" x="421.5" y="-155" font-family="Helvetica,sans-Serif" font-size="10.00">adb.common.UsbHandle.Flush</text>
<text text-anchor="middle" x="489.5" y="-144" font-family="Helvetica,sans-Serif" font-size="10.00">Buffers</text>
</a>
</g>
</g>
<!-- Node3&#45;&gt;Node4 -->
<g id="edge3" class="edge"><title>Node3&#45;&gt;Node4</title>
<path fill="none" stroke="midnightblue" d="M379.261,-144.485C390.719,-145.273 402.303,-146.07 413.43,-146.835"/>
<polygon fill="midnightblue" stroke="midnightblue" points="379.457,-140.99 369.24,-143.795 378.976,-147.974 379.457,-140.99"/>
</g>
<!-- Node6 -->
<g id="node6" class="node"><title>Node6</title>
<g id="a_node6"><a xlink:href="classadb_1_1common_1_1TcpHandle.xhtml#a7daa53e4d419c908a0eddf7d1bf9170b" target="_top" xlink:title="adb.common.TcpHandle.\l_connect">
<polygon fill="white" stroke="black" points="426.5,-88 426.5,-118 552.5,-118 552.5,-88 426.5,-88"/>
<text text-anchor="start" x="434.5" y="-106" font-family="Helvetica,sans-Serif" font-size="10.00">adb.common.TcpHandle.</text>
<text text-anchor="middle" x="489.5" y="-95" font-family="Helvetica,sans-Serif" font-size="10.00">_connect</text>
</a>
</g>
</g>
<!-- Node5&#45;&gt;Node6 -->
<g id="edge5" class="edge"><title>Node5&#45;&gt;Node6</title>
<path fill="none" stroke="midnightblue" d="M374.735,-82.8745C392.148,-85.955 410.038,-89.1197 426.325,-92.0009"/>
<polygon fill="midnightblue" stroke="midnightblue" points="375.01,-79.3688 364.553,-81.0732 373.79,-86.2618 375.01,-79.3688"/>
</g>
<!-- Node7 -->
<g id="node7" class="node"><title>Node7</title>
<g id="a_node7"><a xlink:href="classadb_1_1common_1_1TcpHandle.xhtml#a737245feff629b8bb2f4c609768ff81d" target="_top" xlink:title="adb.common.TcpHandle.Bulk\lWrite">
<polygon fill="white" stroke="black" points="416.5,-39 416.5,-69 562.5,-69 562.5,-39 416.5,-39"/>
<text text-anchor="start" x="424.5" y="-57" font-family="Helvetica,sans-Serif" font-size="10.00">adb.common.TcpHandle.Bulk</text>
<text text-anchor="middle" x="489.5" y="-46" font-family="Helvetica,sans-Serif" font-size="10.00">Write</text>
</a>
</g>
</g>
<!-- Node5&#45;&gt;Node7 -->
<g id="edge6" class="edge"><title>Node5&#45;&gt;Node7</title>
<path fill="none" stroke="midnightblue" d="M374.631,-61.2742C388.568,-60.3839 402.813,-59.4739 416.299,-58.6124"/>
<polygon fill="midnightblue" stroke="midnightblue" points="374.309,-57.7875 364.553,-61.918 374.756,-64.7733 374.309,-57.7875"/>
</g>
<!-- Node8 -->
<g id="node8" class="node"><title>Node8</title>
<g id="a_node8"><a xlink:href="classadb_1_1common_1_1TcpHandle.xhtml#a767253f525b34a5fe4e629120b03c24e" target="_top" xlink:title="adb.common.TcpHandle.BulkRead">
<polygon fill="white" stroke="black" points="405,-0.5 405,-19.5 574,-19.5 574,-0.5 405,-0.5"/>
<text text-anchor="middle" x="489.5" y="-7.5" font-family="Helvetica,sans-Serif" font-size="10.00">adb.common.TcpHandle.BulkRead</text>
</a>
</g>
</g>
<!-- Node5&#45;&gt;Node8 -->
<g id="edge7" class="edge"><title>Node5&#45;&gt;Node8</title>
<path fill="none" stroke="midnightblue" d="M339.26,-48.7675C359.75,-42.1602 383.343,-34.8822 405,-29 417.339,-25.6488 430.811,-22.4049 443.262,-19.5745"/>
<polygon fill="midnightblue" stroke="midnightblue" points="337.902,-45.5288 329.473,-51.9482 340.065,-52.1861 337.902,-45.5288"/>
</g>
</g>
</svg>
