<?xml version="1.0" encoding="UTF-8" standalone="no"?>
<!DOCTYPE svg PUBLIC "-//W3C//DTD SVG 1.1//EN"
 "http://www.w3.org/Graphics/SVG/1.1/DTD/svg11.dtd">
<!-- Generated by graphviz version 2.38.0 (20140413.2041)
 -->
<!-- Title: adb.adb_protocol._AdbConnection.Close Pages: 1 -->
<svg width="843pt" height="61pt"
 viewBox="0.00 0.00 843.00 61.00" xmlns="http://www.w3.org/2000/svg" xmlns:xlink="http://www.w3.org/1999/xlink">
<g id="graph0" class="graph" transform="scale(1 1) rotate(0) translate(4 57)">
<title>adb.adb_protocol._AdbConnection.Close</title>
<polygon fill="white" stroke="none" points="-4,4 -4,-57 839,-57 839,4 -4,4"/>
<!-- Node1 -->
<g id="node1" class="node"><title>Node1</title>
<polygon fill="#bfbfbf" stroke="black" points="0,-22.5 0,-52.5 169,-52.5 169,-22.5 0,-22.5"/>
<text text-anchor="start" x="8" y="-40.5" font-family="Helvetica,sans-Serif" font-size="10.00">adb.adb_protocol._AdbConnection.</text>
<text text-anchor="middle" x="84.5" y="-29.5" font-family="Helvetica,sans-Serif" font-size="10.00">Close</text>
</g>
<!-- Node2 -->
<g id="node2" class="node"><title>Node2</title>
<g id="a_node2"><a xlink:href="classadb_1_1adb__protocol_1_1__AdbConnection.xhtml#afaf68a0fc17b74faeb6e21984d059c89" target="_top" xlink:title="adb.adb_protocol._AdbConnection._Send">
<polygon fill="white" stroke="black" points="638,-29 638,-48 835,-48 835,-29 638,-29"/>
<text text-anchor="middle" x="736.5" y="-36" font-family="Helvetica,sans-Serif" font-size="10.00">adb.adb_protocol._AdbConnection._Send</text>
</a>
</g>
</g>
<!-- Node1&#45;&gt;Node2 -->
<g id="edge1" class="edge"><title>Node1&#45;&gt;Node2</title>
<path fill="none" stroke="midnightblue" d="M169.071,-39.0767C181.127,-39.2524 193.381,-39.4028 205,-39.5 351.32,-40.7244 520.349,-40.0439 627.545,-39.3513"/>
<polygon fill="midnightblue" stroke="midnightblue" points="627.746,-42.8501 637.722,-39.2843 627.7,-35.8503 627.746,-42.8501"/>
</g>
<!-- Node3 -->
<g id="node3" class="node"><title>Node3</title>
<g id="a_node3"><a xlink:href="classadb_1_1adb__protocol_1_1__AdbConnection.xhtml#a398196cc2511e4ea2a3581cb2395a0a8" target="_top" xlink:title="adb.adb_protocol._AdbConnection.\lReadUntil">
<polygon fill="white" stroke="black" points="205,-0.5 205,-30.5 374,-30.5 374,-0.5 205,-0.5"/>
<text text-anchor="start" x="213" y="-18.5" font-family="Helvetica,sans-Serif" font-size="10.00">adb.adb_protocol._AdbConnection.</text>
<text text-anchor="middle" x="289.5" y="-7.5" font-family="Helvetica,sans-Serif" font-size="10.00">ReadUntil</text>
</a>
</g>
</g>
<!-- Node1&#45;&gt;Node3 -->
<g id="edge2" class="edge"><title>Node1&#45;&gt;Node3</title>
<path fill="none" stroke="midnightblue" d="M169.24,-28.4247C177.718,-27.506 186.366,-26.5687 194.939,-25.6396"/>
<polygon fill="midnightblue" stroke="midnightblue" points="195.388,-29.1116 204.953,-24.5544 194.634,-22.1523 195.388,-29.1116"/>
</g>
<!-- Node4 -->
<g id="node4" class="node"><title>Node4</title>
<g id="a_node4"><a xlink:href="classadb_1_1adb__protocol_1_1__AdbConnection.xhtml#a3f8e837ace6e380c85d5d7867b964f29" target="_top" xlink:title="adb.adb_protocol._AdbConnection.Okay">
<polygon fill="white" stroke="black" points="410,-9 410,-28 602,-28 602,-9 410,-9"/>
<text text-anchor="middle" x="506" y="-16" font-family="Helvetica,sans-Serif" font-size="10.00">adb.adb_protocol._AdbConnection.Okay</text>
</a>
</g>
</g>
<!-- Node3&#45;&gt;Node4 -->
<g id="edge3" class="edge"><title>Node3&#45;&gt;Node4</title>
<path fill="none" stroke="midnightblue" d="M374.046,-16.6685C382.5,-16.7867 391.162,-16.9079 399.806,-17.0288"/>
<polygon fill="midnightblue" stroke="midnightblue" points="399.884,-20.5301 409.932,-17.1704 399.982,-13.5308 399.884,-20.5301"/>
</g>
<!-- Node4&#45;&gt;Node2 -->
<g id="edge4" class="edge"><title>Node4&#45;&gt;Node2</title>
<path fill="none" stroke="midnightblue" d="M602.25,-26.837C610.699,-27.5765 619.292,-28.3286 627.835,-29.0763"/>
<polygon fill="midnightblue" stroke="midnightblue" points="627.562,-32.5658 637.829,-29.9511 628.172,-25.5924 627.562,-32.5658"/>
</g>
</g>
</svg>
