<?xml version="1.0" encoding="UTF-8" standalone="no"?>
<!DOCTYPE svg PUBLIC "-//W3C//DTD SVG 1.1//EN"
 "http://www.w3.org/Graphics/SVG/1.1/DTD/svg11.dtd">
<!-- Generated by graphviz version 2.38.0 (20140413.2041)
 -->
<!-- Title: adb.fastboot.FastbootProtocol._AcceptResponses Pages: 1 -->
<svg width="533pt" height="61pt"
 viewBox="0.00 0.00 533.00 61.00" xmlns="http://www.w3.org/2000/svg" xmlns:xlink="http://www.w3.org/1999/xlink">
<g id="graph0" class="graph" transform="scale(1 1) rotate(0) translate(4 57)">
<title>adb.fastboot.FastbootProtocol._AcceptResponses</title>
<polygon fill="white" stroke="none" points="-4,4 -4,-57 529,-57 529,4 -4,4"/>
<!-- Node1 -->
<g id="node1" class="node"><title>Node1</title>
<polygon fill="#bfbfbf" stroke="black" points="0,-22.5 0,-52.5 151,-52.5 151,-22.5 0,-22.5"/>
<text text-anchor="start" x="8" y="-40.5" font-family="Helvetica,sans-Serif" font-size="10.00">adb.fastboot.FastbootProtocol.</text>
<text text-anchor="middle" x="75.5" y="-29.5" font-family="Helvetica,sans-Serif" font-size="10.00">_AcceptResponses</text>
</g>
<!-- Node2 -->
<g id="node2" class="node"><title>Node2</title>
<g id="a_node2"><a xlink:href="classadb_1_1fastboot_1_1FastbootProtocol.xhtml#a7450c6429e7449af9c1bcb3061cbe789" target="_top" xlink:title="adb.fastboot.FastbootProtocol.\lHandleSimpleResponses">
<polygon fill="white" stroke="black" points="374,-22.5 374,-52.5 525,-52.5 525,-22.5 374,-22.5"/>
<text text-anchor="start" x="382" y="-40.5" font-family="Helvetica,sans-Serif" font-size="10.00">adb.fastboot.FastbootProtocol.</text>
<text text-anchor="middle" x="449.5" y="-29.5" font-family="Helvetica,sans-Serif" font-size="10.00">HandleSimpleResponses</text>
</a>
</g>
</g>
<!-- Node1&#45;&gt;Node2 -->
<g id="edge1" class="edge"><title>Node1&#45;&gt;Node2</title>
<path fill="none" stroke="midnightblue" d="M161.267,-40.0356C169.958,-40.2254 178.656,-40.3867 187,-40.5 254.105,-41.4108 270.895,-41.4108 338,-40.5 349.61,-40.3424 361.903,-40.0918 373.909,-39.8009"/>
<polygon fill="midnightblue" stroke="midnightblue" points="161.169,-36.5325 151.091,-39.8009 161.007,-43.5306 161.169,-36.5325"/>
</g>
<!-- Node3 -->
<g id="node3" class="node"><title>Node3</title>
<g id="a_node3"><a xlink:href="classadb_1_1fastboot_1_1FastbootProtocol.xhtml#a56d1391c6905fd69174741b781a4e591" target="_top" xlink:title="adb.fastboot.FastbootProtocol.\lHandleDataSending">
<polygon fill="white" stroke="black" points="187,-0.5 187,-30.5 338,-30.5 338,-0.5 187,-0.5"/>
<text text-anchor="start" x="195" y="-18.5" font-family="Helvetica,sans-Serif" font-size="10.00">adb.fastboot.FastbootProtocol.</text>
<text text-anchor="middle" x="262.5" y="-7.5" font-family="Helvetica,sans-Serif" font-size="10.00">HandleDataSending</text>
</a>
</g>
</g>
<!-- Node1&#45;&gt;Node3 -->
<g id="edge2" class="edge"><title>Node1&#45;&gt;Node3</title>
<path fill="none" stroke="midnightblue" d="M161.19,-27.4288C169.738,-26.4123 178.376,-25.385 186.809,-24.3822"/>
<polygon fill="midnightblue" stroke="midnightblue" points="160.73,-23.9587 151.213,-28.6152 161.557,-30.9097 160.73,-23.9587"/>
</g>
<!-- Node3&#45;&gt;Node2 -->
<g id="edge3" class="edge"><title>Node3&#45;&gt;Node2</title>
<path fill="none" stroke="midnightblue" d="M348.19,-25.5712C356.738,-26.5877 365.376,-27.615 373.809,-28.6178"/>
<polygon fill="midnightblue" stroke="midnightblue" points="348.557,-22.0903 338.213,-24.3848 347.73,-29.0413 348.557,-22.0903"/>
</g>
</g>
</svg>
