<?xml version="1.0" encoding="UTF-8" standalone="no"?>
<!DOCTYPE svg PUBLIC "-//W3C//DTD SVG 1.1//EN"
 "http://www.w3.org/Graphics/SVG/1.1/DTD/svg11.dtd">
<!-- Generated by graphviz version 2.38.0 (20140413.2041)
 -->
<!-- Title: adb.common.TcpHandle.BulkWrite Pages: 1 -->
<svg width="550pt" height="151pt"
 viewBox="0.00 0.00 550.00 150.50" xmlns="http://www.w3.org/2000/svg" xmlns:xlink="http://www.w3.org/1999/xlink">
<g id="graph0" class="graph" transform="scale(1 1) rotate(0) translate(4 146.5)">
<title>adb.common.TcpHandle.BulkWrite</title>
<polygon fill="white" stroke="none" points="-4,4 -4,-146.5 546,-146.5 546,4 -4,4"/>
<!-- Node1 -->
<g id="node1" class="node"><title>Node1</title>
<polygon fill="#bfbfbf" stroke="black" points="0,-49.5 0,-79.5 146,-79.5 146,-49.5 0,-49.5"/>
<text text-anchor="start" x="8" y="-67.5" font-family="Helvetica,sans-Serif" font-size="10.00">adb.common.TcpHandle.Bulk</text>
<text text-anchor="middle" x="73" y="-56.5" font-family="Helvetica,sans-Serif" font-size="10.00">Write</text>
</g>
<!-- Node2 -->
<g id="node2" class="node"><title>Node2</title>
<g id="a_node2"><a xlink:href="classadb_1_1common_1_1TcpHandle.xhtml#ab9f9d10bfb8c6fb7c0a16d879e85378f" target="_top" xlink:title="adb.common.TcpHandle.Timeout\lSeconds">
<polygon fill="white" stroke="black" points="182,-98.5 182,-128.5 343,-128.5 343,-98.5 182,-98.5"/>
<text text-anchor="start" x="190" y="-116.5" font-family="Helvetica,sans-Serif" font-size="10.00">adb.common.TcpHandle.Timeout</text>
<text text-anchor="middle" x="262.5" y="-105.5" font-family="Helvetica,sans-Serif" font-size="10.00">Seconds</text>
</a>
</g>
</g>
<!-- Node1&#45;&gt;Node2 -->
<g id="edge1" class="edge"><title>Node1&#45;&gt;Node2</title>
<path fill="none" stroke="midnightblue" d="M131.53,-79.5346C151.328,-84.7083 173.672,-90.5475 194.178,-95.9066"/>
<polygon fill="midnightblue" stroke="midnightblue" points="193.518,-99.3516 204.078,-98.4938 195.288,-92.579 193.518,-99.3516"/>
</g>
<!-- Node5 -->
<g id="node5" class="node"><title>Node5</title>
<g id="a_node5"><a xlink:href="classadb_1_1common_1_1UsbHandle.xhtml#a182ca356bc1ba1aaccfbed946b4b43a4" target="_top" xlink:title="adb.common.UsbHandle.serial\l_number">
<polygon fill="white" stroke="black" points="187,-49.5 187,-79.5 338,-79.5 338,-49.5 187,-49.5"/>
<text text-anchor="start" x="195" y="-67.5" font-family="Helvetica,sans-Serif" font-size="10.00">adb.common.UsbHandle.serial</text>
<text text-anchor="middle" x="262.5" y="-56.5" font-family="Helvetica,sans-Serif" font-size="10.00">_number</text>
</a>
</g>
</g>
<!-- Node1&#45;&gt;Node5 -->
<g id="edge4" class="edge"><title>Node1&#45;&gt;Node5</title>
<path fill="none" stroke="midnightblue" d="M146.224,-64.5C156.205,-64.5 166.53,-64.5 176.713,-64.5"/>
<polygon fill="midnightblue" stroke="midnightblue" points="176.831,-68.0001 186.83,-64.5 176.83,-61.0001 176.831,-68.0001"/>
</g>
<!-- Node6 -->
<g id="node6" class="node"><title>Node6</title>
<g id="a_node6"><a xlink:href="classadb_1_1common_1_1TcpHandle.xhtml#aa81db3e7746a0a769fb541f2eb9f0fc7" target="_top" xlink:title="adb.common.TcpHandle.serial\l_number">
<polygon fill="white" stroke="black" points="188,-0.5 188,-30.5 337,-30.5 337,-0.5 188,-0.5"/>
<text text-anchor="start" x="196" y="-18.5" font-family="Helvetica,sans-Serif" font-size="10.00">adb.common.TcpHandle.serial</text>
<text text-anchor="middle" x="262.5" y="-7.5" font-family="Helvetica,sans-Serif" font-size="10.00">_number</text>
</a>
</g>
</g>
<!-- Node1&#45;&gt;Node6 -->
<g id="edge5" class="edge"><title>Node1&#45;&gt;Node6</title>
<path fill="none" stroke="midnightblue" d="M131.53,-49.4654C151.328,-44.2917 173.672,-38.4525 194.178,-33.0934"/>
<polygon fill="midnightblue" stroke="midnightblue" points="195.288,-36.421 204.078,-30.5062 193.518,-29.6484 195.288,-36.421"/>
</g>
<!-- Node3 -->
<g id="node3" class="node"><title>Node3</title>
<g id="a_node3"><a xlink:href="classadb_1_1common_1_1UsbHandle.xhtml#ae07d2d4446bdcbbb4766dcbf91451b8a" target="_top" xlink:title="adb.common.UsbHandle.Timeout">
<polygon fill="white" stroke="black" points="379,-123 379,-142 542,-142 542,-123 379,-123"/>
<text text-anchor="middle" x="460.5" y="-130" font-family="Helvetica,sans-Serif" font-size="10.00">adb.common.UsbHandle.Timeout</text>
</a>
</g>
</g>
<!-- Node2&#45;&gt;Node3 -->
<g id="edge2" class="edge"><title>Node2&#45;&gt;Node3</title>
<path fill="none" stroke="midnightblue" d="M343.221,-121.228C351.676,-122.048 360.32,-122.886 368.888,-123.716"/>
<polygon fill="midnightblue" stroke="midnightblue" points="368.604,-127.205 378.895,-124.686 369.28,-120.238 368.604,-127.205"/>
</g>
<!-- Node4 -->
<g id="node4" class="node"><title>Node4</title>
<g id="a_node4"><a xlink:href="classadb_1_1common_1_1TcpHandle.xhtml#a42dc961f0383b36b4dc0283bc98d1993" target="_top" xlink:title="adb.common.TcpHandle.Timeout">
<polygon fill="white" stroke="black" points="380,-85 380,-104 541,-104 541,-85 380,-85"/>
<text text-anchor="middle" x="460.5" y="-92" font-family="Helvetica,sans-Serif" font-size="10.00">adb.common.TcpHandle.Timeout</text>
</a>
</g>
</g>
<!-- Node2&#45;&gt;Node4 -->
<g id="edge3" class="edge"><title>Node2&#45;&gt;Node4</title>
<path fill="none" stroke="midnightblue" d="M343.221,-105.772C351.999,-104.921 360.98,-104.05 369.869,-103.189"/>
<polygon fill="midnightblue" stroke="midnightblue" points="370.234,-106.67 379.85,-102.221 369.559,-99.7025 370.234,-106.67"/>
</g>
</g>
</svg>
