<?xml version="1.0" encoding="UTF-8" standalone="no"?>
<!DOCTYPE svg PUBLIC "-//W3C//DTD SVG 1.1//EN"
 "http://www.w3.org/Graphics/SVG/1.1/DTD/svg11.dtd">
<!-- Generated by graphviz version 2.38.0 (20140413.2041)
 -->
<!-- Title: Graphical Class Hierarchy Pages: 1 -->
<svg width="670pt" height="663pt"
 viewBox="0.00 0.00 670.00 663.00" xmlns="http://www.w3.org/2000/svg" xmlns:xlink="http://www.w3.org/1999/xlink">
<g id="graph0" class="graph" transform="scale(1 1) rotate(0) translate(4 659)">
<title>Graphical Class Hierarchy</title>
<polygon fill="white" stroke="none" points="-4,4 -4,-659 666,-659 666,4 -4,4"/>
<!-- Node1 -->
<g id="node1" class="node"><title>Node1</title>
<polygon fill="white" stroke="#bfbfbf" points="0,-385 0,-404 60,-404 60,-385 0,-385"/>
<text text-anchor="middle" x="30" y="-392" font-family="Helvetica,sans-Serif" font-size="10.00">Exception</text>
</g>
<!-- Node2 -->
<g id="node2" class="node"><title>Node2</title>
<g id="a_node2"><a xlink:href="classadb_1_1adb__protocol_1_1InterleavedDataError.xhtml" target="_top" xlink:title="adb.adb_protocol.Interleaved\lDataError">
<polygon fill="white" stroke="black" points="109.5,-624.5 109.5,-654.5 251.5,-654.5 251.5,-624.5 109.5,-624.5"/>
<text text-anchor="start" x="117.5" y="-642.5" font-family="Helvetica,sans-Serif" font-size="10.00">adb.adb_protocol.Interleaved</text>
<text text-anchor="middle" x="180.5" y="-631.5" font-family="Helvetica,sans-Serif" font-size="10.00">DataError</text>
</a>
</g>
</g>
<!-- Node1&#45;&gt;Node2 -->
<g id="edge1" class="edge"><title>Node1&#45;&gt;Node2</title>
<path fill="none" stroke="midnightblue" d="M30.8393,-414.291C31.6033,-457.206 39.6143,-559.461 96,-615.5 99.9584,-619.434 104.517,-622.732 109.419,-625.496"/>
<polygon fill="midnightblue" stroke="midnightblue" points="34.338,-414.045 30.7802,-404.065 27.3381,-414.085 34.338,-414.045"/>
</g>
<!-- Node3 -->
<g id="node3" class="node"><title>Node3</title>
<g id="a_node3"><a xlink:href="classadb_1_1adb__protocol_1_1InvalidChecksumError.xhtml" target="_top" xlink:title="adb.adb_protocol.Invalid\lChecksumError">
<polygon fill="white" stroke="black" points="119.5,-575.5 119.5,-605.5 241.5,-605.5 241.5,-575.5 119.5,-575.5"/>
<text text-anchor="start" x="127.5" y="-593.5" font-family="Helvetica,sans-Serif" font-size="10.00">adb.adb_protocol.Invalid</text>
<text text-anchor="middle" x="180.5" y="-582.5" font-family="Helvetica,sans-Serif" font-size="10.00">ChecksumError</text>
</a>
</g>
</g>
<!-- Node1&#45;&gt;Node3 -->
<g id="edge2" class="edge"><title>Node1&#45;&gt;Node3</title>
<path fill="none" stroke="midnightblue" d="M32.8135,-414.483C37.1406,-450.249 51.3095,-525.308 96,-566.5 102.655,-572.634 110.777,-577.21 119.313,-580.623"/>
<polygon fill="midnightblue" stroke="midnightblue" points="36.2728,-413.915 31.7282,-404.344 29.3125,-414.66 36.2728,-413.915"/>
</g>
<!-- Node4 -->
<g id="node4" class="node"><title>Node4</title>
<g id="a_node4"><a xlink:href="classadb_1_1adb__protocol_1_1InvalidCommandError.xhtml" target="_top" xlink:title="adb.adb_protocol.Invalid\lCommandError">
<polygon fill="white" stroke="black" points="119.5,-526.5 119.5,-556.5 241.5,-556.5 241.5,-526.5 119.5,-526.5"/>
<text text-anchor="start" x="127.5" y="-544.5" font-family="Helvetica,sans-Serif" font-size="10.00">adb.adb_protocol.Invalid</text>
<text text-anchor="middle" x="180.5" y="-533.5" font-family="Helvetica,sans-Serif" font-size="10.00">CommandError</text>
</a>
</g>
</g>
<!-- Node1&#45;&gt;Node4 -->
<g id="edge3" class="edge"><title>Node1&#45;&gt;Node4</title>
<path fill="none" stroke="midnightblue" d="M36.0756,-414.056C44.1554,-441.286 62.5539,-490.328 96,-517.5 102.79,-523.016 110.789,-527.265 119.102,-530.537"/>
<polygon fill="midnightblue" stroke="midnightblue" points="39.3721,-412.848 33.3112,-404.158 32.6301,-414.731 39.3721,-412.848"/>
</g>
<!-- Node5 -->
<g id="node5" class="node"><title>Node5</title>
<g id="a_node5"><a xlink:href="classadb_1_1adb__protocol_1_1InvalidResponseError.xhtml" target="_top" xlink:title="adb.adb_protocol.Invalid\lResponseError">
<polygon fill="white" stroke="black" points="119.5,-477.5 119.5,-507.5 241.5,-507.5 241.5,-477.5 119.5,-477.5"/>
<text text-anchor="start" x="127.5" y="-495.5" font-family="Helvetica,sans-Serif" font-size="10.00">adb.adb_protocol.Invalid</text>
<text text-anchor="middle" x="180.5" y="-484.5" font-family="Helvetica,sans-Serif" font-size="10.00">ResponseError</text>
</a>
</g>
</g>
<!-- Node1&#45;&gt;Node5 -->
<g id="edge4" class="edge"><title>Node1&#45;&gt;Node5</title>
<path fill="none" stroke="midnightblue" d="M42.4848,-412.712C54.0306,-429.57 73.3344,-454.132 96,-468.5 103.134,-473.022 111.143,-476.715 119.302,-479.723"/>
<polygon fill="midnightblue" stroke="midnightblue" points="45.3289,-410.668 36.8965,-404.253 39.4883,-414.526 45.3289,-410.668"/>
</g>
<!-- Node6 -->
<g id="node6" class="node"><title>Node6</title>
<g id="a_node6"><a xlink:href="classadb_1_1filesync__protocol_1_1InterleavedDataError.xhtml" target="_top" xlink:title="adb.filesync_protocol.Interleaved\lDataError">
<polygon fill="white" stroke="black" points="100.5,-428.5 100.5,-458.5 260.5,-458.5 260.5,-428.5 100.5,-428.5"/>
<text text-anchor="start" x="108.5" y="-446.5" font-family="Helvetica,sans-Serif" font-size="10.00">adb.filesync_protocol.Interleaved</text>
<text text-anchor="middle" x="180.5" y="-435.5" font-family="Helvetica,sans-Serif" font-size="10.00">DataError</text>
</a>
</g>
</g>
<!-- Node1&#45;&gt;Node6 -->
<g id="edge5" class="edge"><title>Node1&#45;&gt;Node6</title>
<path fill="none" stroke="midnightblue" d="M63.7138,-407.722C73.9809,-411.699 85.4018,-415.946 96,-419.5 105.153,-422.569 114.948,-425.603 124.492,-428.429"/>
<polygon fill="midnightblue" stroke="midnightblue" points="64.8756,-404.418 54.2881,-404.024 62.3188,-410.935 64.8756,-404.418"/>
</g>
<!-- Node7 -->
<g id="node7" class="node"><title>Node7</title>
<g id="a_node7"><a xlink:href="classadb_1_1filesync__protocol_1_1InvalidChecksumError.xhtml" target="_top" xlink:title="adb.filesync_protocol.Invalid\lChecksumError">
<polygon fill="white" stroke="black" points="110.5,-379.5 110.5,-409.5 250.5,-409.5 250.5,-379.5 110.5,-379.5"/>
<text text-anchor="start" x="118.5" y="-397.5" font-family="Helvetica,sans-Serif" font-size="10.00">adb.filesync_protocol.Invalid</text>
<text text-anchor="middle" x="180.5" y="-386.5" font-family="Helvetica,sans-Serif" font-size="10.00">ChecksumError</text>
</a>
</g>
</g>
<!-- Node1&#45;&gt;Node7 -->
<g id="edge6" class="edge"><title>Node1&#45;&gt;Node7</title>
<path fill="none" stroke="midnightblue" d="M70.6129,-394.5C82.829,-394.5 96.6571,-394.5 110.26,-394.5"/>
<polygon fill="midnightblue" stroke="midnightblue" points="70.3389,-391 60.3388,-394.5 70.3388,-398 70.3389,-391"/>
</g>
<!-- Node8 -->
<g id="node8" class="node"><title>Node8</title>
<g id="a_node8"><a xlink:href="classadb_1_1filesync__protocol_1_1PullFailedError.xhtml" target="_top" xlink:title="adb.filesync_protocol.Pull\lFailedError">
<polygon fill="white" stroke="black" points="116.5,-330.5 116.5,-360.5 244.5,-360.5 244.5,-330.5 116.5,-330.5"/>
<text text-anchor="start" x="124.5" y="-348.5" font-family="Helvetica,sans-Serif" font-size="10.00">adb.filesync_protocol.Pull</text>
<text text-anchor="middle" x="180.5" y="-337.5" font-family="Helvetica,sans-Serif" font-size="10.00">FailedError</text>
</a>
</g>
</g>
<!-- Node1&#45;&gt;Node8 -->
<g id="edge7" class="edge"><title>Node1&#45;&gt;Node8</title>
<path fill="none" stroke="midnightblue" d="M65.3501,-381.359C75.2023,-377.715 85.9878,-373.844 96,-370.5 106.047,-367.145 116.843,-363.755 127.227,-360.601"/>
<polygon fill="midnightblue" stroke="midnightblue" points="64.0149,-378.122 55.8721,-384.9 66.4646,-384.679 64.0149,-378.122"/>
</g>
<!-- Node9 -->
<g id="node9" class="node"><title>Node9</title>
<g id="a_node9"><a xlink:href="classadb_1_1filesync__protocol_1_1PushFailedError.xhtml" target="_top" xlink:title="adb.filesync_protocol.Push\lFailedError">
<polygon fill="white" stroke="black" points="113.5,-281.5 113.5,-311.5 247.5,-311.5 247.5,-281.5 113.5,-281.5"/>
<text text-anchor="start" x="121.5" y="-299.5" font-family="Helvetica,sans-Serif" font-size="10.00">adb.filesync_protocol.Push</text>
<text text-anchor="middle" x="180.5" y="-288.5" font-family="Helvetica,sans-Serif" font-size="10.00">FailedError</text>
</a>
</g>
</g>
<!-- Node1&#45;&gt;Node9 -->
<g id="edge8" class="edge"><title>Node1&#45;&gt;Node9</title>
<path fill="none" stroke="midnightblue" d="M42.576,-376.593C54.1876,-360.006 73.5374,-335.806 96,-321.5 101.999,-317.679 108.609,-314.419 115.405,-311.642"/>
<polygon fill="midnightblue" stroke="midnightblue" points="39.652,-374.669 36.9505,-384.914 45.451,-378.59 39.652,-374.669"/>
</g>
<!-- Node10 -->
<g id="node10" class="node"><title>Node10</title>
<g id="a_node10"><a xlink:href="classadb_1_1usb__exceptions_1_1AdbCommandFailureException.xhtml" target="_top" xlink:title="adb.usb_exceptions.AdbCommand\lFailureException">
<polygon fill="white" stroke="black" points="96,-232.5 96,-262.5 265,-262.5 265,-232.5 96,-232.5"/>
<text text-anchor="start" x="104" y="-250.5" font-family="Helvetica,sans-Serif" font-size="10.00">adb.usb_exceptions.AdbCommand</text>
<text text-anchor="middle" x="180.5" y="-239.5" font-family="Helvetica,sans-Serif" font-size="10.00">FailureException</text>
</a>
</g>
</g>
<!-- Node1&#45;&gt;Node10 -->
<g id="edge9" class="edge"><title>Node1&#45;&gt;Node10</title>
<path fill="none" stroke="midnightblue" d="M36.1626,-375.151C44.3468,-348.201 62.8697,-299.626 96,-272.5 100.683,-268.665 105.942,-265.419 111.481,-262.67"/>
<polygon fill="midnightblue" stroke="midnightblue" points="32.7459,-374.369 33.3575,-384.946 39.4754,-376.296 32.7459,-374.369"/>
</g>
<!-- Node11 -->
<g id="node11" class="node"><title>Node11</title>
<g id="a_node11"><a xlink:href="classadb_1_1usb__exceptions_1_1AdbOperationException.xhtml" target="_top" xlink:title="adb.usb_exceptions.AdbOperation\lException">
<polygon fill="white" stroke="black" points="97.5,-183.5 97.5,-213.5 263.5,-213.5 263.5,-183.5 97.5,-183.5"/>
<text text-anchor="start" x="105.5" y="-201.5" font-family="Helvetica,sans-Serif" font-size="10.00">adb.usb_exceptions.AdbOperation</text>
<text text-anchor="middle" x="180.5" y="-190.5" font-family="Helvetica,sans-Serif" font-size="10.00">Exception</text>
</a>
</g>
</g>
<!-- Node1&#45;&gt;Node11 -->
<g id="edge10" class="edge"><title>Node1&#45;&gt;Node11</title>
<path fill="none" stroke="midnightblue" d="M32.8951,-374.679C37.3528,-339.194 51.7236,-264.684 96,-223.5 100.1,-219.687 104.758,-216.453 109.729,-213.712"/>
<polygon fill="midnightblue" stroke="midnightblue" points="29.4034,-374.41 31.7707,-384.737 36.3601,-375.188 29.4034,-374.41"/>
</g>
<!-- Node12 -->
<g id="node12" class="node"><title>Node12</title>
<g id="a_node12"><a xlink:href="classadb_1_1usb__exceptions_1_1CommonUsbError.xhtml" target="_top" xlink:title="adb.usb_exceptions.Common\lUsbError">
<polygon fill="white" stroke="black" points="107.5,-134.5 107.5,-164.5 253.5,-164.5 253.5,-134.5 107.5,-134.5"/>
<text text-anchor="start" x="115.5" y="-152.5" font-family="Helvetica,sans-Serif" font-size="10.00">adb.usb_exceptions.Common</text>
<text text-anchor="middle" x="180.5" y="-141.5" font-family="Helvetica,sans-Serif" font-size="10.00">UsbError</text>
</a>
</g>
</g>
<!-- Node1&#45;&gt;Node12 -->
<g id="edge11" class="edge"><title>Node1&#45;&gt;Node12</title>
<path fill="none" stroke="midnightblue" d="M30.9225,-374.524C31.8723,-331.704 40.262,-230.44 96,-174.5 99.8451,-170.641 104.26,-167.373 109.008,-164.606"/>
<polygon fill="midnightblue" stroke="midnightblue" points="27.4227,-374.492 30.8177,-384.529 34.4224,-374.566 27.4227,-374.492"/>
</g>
<!-- Node13 -->
<g id="node13" class="node"><title>Node13</title>
<g id="a_node13"><a xlink:href="classadb_1_1usb__exceptions_1_1FormatMessageWithArgumentsException.xhtml" target="_top" xlink:title="adb.usb_exceptions.Format\lMessageWithArgumentsException">
<polygon fill="white" stroke="black" points="301,-220.5 301,-250.5 468,-250.5 468,-220.5 301,-220.5"/>
<text text-anchor="start" x="309" y="-238.5" font-family="Helvetica,sans-Serif" font-size="10.00">adb.usb_exceptions.Format</text>
<text text-anchor="middle" x="384.5" y="-227.5" font-family="Helvetica,sans-Serif" font-size="10.00">MessageWithArgumentsException</text>
</a>
</g>
</g>
<!-- Node12&#45;&gt;Node13 -->
<g id="edge12" class="edge"><title>Node12&#45;&gt;Node13</title>
<path fill="none" stroke="midnightblue" d="M246.931,-167.821C253.091,-169.926 259.197,-172.161 265,-174.5 297.835,-187.735 333.749,-206.939 357.334,-220.249"/>
<polygon fill="midnightblue" stroke="midnightblue" points="247.834,-164.434 237.241,-164.626 245.642,-171.082 247.834,-164.434"/>
</g>
<!-- Node21 -->
<g id="node21" class="node"><title>Node21</title>
<g id="a_node21"><a xlink:href="classadb_1_1usb__exceptions_1_1LibusbWrappingError.xhtml" target="_top" xlink:title="adb.usb_exceptions.Libusb\lWrappingError">
<polygon fill="white" stroke="black" points="317,-49.5 317,-79.5 452,-79.5 452,-49.5 317,-49.5"/>
<text text-anchor="start" x="325" y="-67.5" font-family="Helvetica,sans-Serif" font-size="10.00">adb.usb_exceptions.Libusb</text>
<text text-anchor="middle" x="384.5" y="-56.5" font-family="Helvetica,sans-Serif" font-size="10.00">WrappingError</text>
</a>
</g>
</g>
<!-- Node12&#45;&gt;Node21 -->
<g id="edge20" class="edge"><title>Node12&#45;&gt;Node21</title>
<path fill="none" stroke="midnightblue" d="M226.564,-130.537C263.04,-115.188 313.734,-93.8572 347.528,-79.6366"/>
<polygon fill="midnightblue" stroke="midnightblue" points="225.008,-127.395 217.149,-134.499 227.723,-133.847 225.008,-127.395"/>
</g>
<!-- Node14 -->
<g id="node14" class="node"><title>Node14</title>
<g id="a_node14"><a xlink:href="classadb_1_1fastboot_1_1FastbootInvalidResponse.xhtml" target="_top" xlink:title="adb.fastboot.FastbootInvalid\lResponse">
<polygon fill="white" stroke="black" points="513,-392.5 513,-422.5 653,-422.5 653,-392.5 513,-392.5"/>
<text text-anchor="start" x="521" y="-410.5" font-family="Helvetica,sans-Serif" font-size="10.00">adb.fastboot.FastbootInvalid</text>
<text text-anchor="middle" x="583" y="-399.5" font-family="Helvetica,sans-Serif" font-size="10.00">Response</text>
</a>
</g>
</g>
<!-- Node13&#45;&gt;Node14 -->
<g id="edge13" class="edge"><title>Node13&#45;&gt;Node14</title>
<path fill="none" stroke="midnightblue" d="M398.47,-259.459C417.408,-292.217 455.688,-350.655 504,-383.5 509.038,-386.925 514.585,-389.877 520.326,-392.418"/>
<polygon fill="midnightblue" stroke="midnightblue" points="401.406,-257.54 393.437,-250.558 395.313,-260.985 401.406,-257.54"/>
</g>
<!-- Node15 -->
<g id="node15" class="node"><title>Node15</title>
<g id="a_node15"><a xlink:href="classadb_1_1fastboot_1_1FastbootRemoteFailure.xhtml" target="_top" xlink:title="adb.fastboot.FastbootRemote\lFailure">
<polygon fill="white" stroke="black" points="510,-343.5 510,-373.5 656,-373.5 656,-343.5 510,-343.5"/>
<text text-anchor="start" x="518" y="-361.5" font-family="Helvetica,sans-Serif" font-size="10.00">adb.fastboot.FastbootRemote</text>
<text text-anchor="middle" x="583" y="-350.5" font-family="Helvetica,sans-Serif" font-size="10.00">Failure</text>
</a>
</g>
</g>
<!-- Node13&#45;&gt;Node15 -->
<g id="edge14" class="edge"><title>Node13&#45;&gt;Node15</title>
<path fill="none" stroke="midnightblue" d="M407.039,-258.142C429.381,-280.433 466.273,-314.025 504,-334.5 510.226,-337.879 516.996,-340.854 523.859,-343.453"/>
<polygon fill="midnightblue" stroke="midnightblue" points="409.281,-255.43 399.766,-250.769 404.297,-260.346 409.281,-255.43"/>
</g>
<!-- Node16 -->
<g id="node16" class="node"><title>Node16</title>
<g id="a_node16"><a xlink:href="classadb_1_1fastboot_1_1FastbootStateMismatch.xhtml" target="_top" xlink:title="adb.fastboot.FastbootState\lMismatch">
<polygon fill="white" stroke="black" points="515.5,-294.5 515.5,-324.5 650.5,-324.5 650.5,-294.5 515.5,-294.5"/>
<text text-anchor="start" x="523.5" y="-312.5" font-family="Helvetica,sans-Serif" font-size="10.00">adb.fastboot.FastbootState</text>
<text text-anchor="middle" x="583" y="-301.5" font-family="Helvetica,sans-Serif" font-size="10.00">Mismatch</text>
</a>
</g>
</g>
<!-- Node13&#45;&gt;Node16 -->
<g id="edge15" class="edge"><title>Node13&#45;&gt;Node16</title>
<path fill="none" stroke="midnightblue" d="M427.836,-254.587C450.258,-264.383 478.386,-276.183 504,-285.5 512.521,-288.6 521.657,-291.65 530.567,-294.481"/>
<polygon fill="midnightblue" stroke="midnightblue" points="429.163,-251.347 418.6,-250.524 426.344,-257.754 429.163,-251.347"/>
</g>
<!-- Node17 -->
<g id="node17" class="node"><title>Node17</title>
<g id="a_node17"><a xlink:href="classadb_1_1fastboot_1_1FastbootTransferError.xhtml" target="_top" xlink:title="adb.fastboot.FastbootTransfer\lError">
<polygon fill="white" stroke="black" points="509,-245.5 509,-275.5 657,-275.5 657,-245.5 509,-245.5"/>
<text text-anchor="start" x="517" y="-263.5" font-family="Helvetica,sans-Serif" font-size="10.00">adb.fastboot.FastbootTransfer</text>
<text text-anchor="middle" x="583" y="-252.5" font-family="Helvetica,sans-Serif" font-size="10.00">Error</text>
</a>
</g>
</g>
<!-- Node13&#45;&gt;Node17 -->
<g id="edge16" class="edge"><title>Node13&#45;&gt;Node17</title>
<path fill="none" stroke="midnightblue" d="M478.471,-247.328C488.72,-248.632 499.045,-249.946 509,-251.212"/>
<polygon fill="midnightblue" stroke="midnightblue" points="478.626,-243.82 468.264,-246.03 477.742,-250.764 478.626,-243.82"/>
</g>
<!-- Node18 -->
<g id="node18" class="node"><title>Node18</title>
<g id="a_node18"><a xlink:href="classadb_1_1usb__exceptions_1_1DeviceAuthError.xhtml" target="_top" xlink:title="adb.usb_exceptions.Device\lAuthError">
<polygon fill="white" stroke="black" points="514.5,-196.5 514.5,-226.5 651.5,-226.5 651.5,-196.5 514.5,-196.5"/>
<text text-anchor="start" x="522.5" y="-214.5" font-family="Helvetica,sans-Serif" font-size="10.00">adb.usb_exceptions.Device</text>
<text text-anchor="middle" x="583" y="-203.5" font-family="Helvetica,sans-Serif" font-size="10.00">AuthError</text>
</a>
</g>
</g>
<!-- Node13&#45;&gt;Node18 -->
<g id="edge17" class="edge"><title>Node13&#45;&gt;Node18</title>
<path fill="none" stroke="midnightblue" d="M478.371,-224.157C490.454,-222.681 502.644,-221.192 514.21,-219.78"/>
<polygon fill="midnightblue" stroke="midnightblue" points="477.766,-220.705 468.264,-225.391 478.615,-227.653 477.766,-220.705"/>
</g>
<!-- Node19 -->
<g id="node19" class="node"><title>Node19</title>
<g id="a_node19"><a xlink:href="classadb_1_1usb__exceptions_1_1DeviceNotFoundError.xhtml" target="_top" xlink:title="adb.usb_exceptions.Device\lNotFoundError">
<polygon fill="white" stroke="black" points="514.5,-147.5 514.5,-177.5 651.5,-177.5 651.5,-147.5 514.5,-147.5"/>
<text text-anchor="start" x="522.5" y="-165.5" font-family="Helvetica,sans-Serif" font-size="10.00">adb.usb_exceptions.Device</text>
<text text-anchor="middle" x="583" y="-154.5" font-family="Helvetica,sans-Serif" font-size="10.00">NotFoundError</text>
</a>
</g>
</g>
<!-- Node13&#45;&gt;Node19 -->
<g id="edge18" class="edge"><title>Node13&#45;&gt;Node19</title>
<path fill="none" stroke="midnightblue" d="M430.192,-216.477C452.258,-207.321 479.367,-196.423 504,-187.5 513.359,-184.11 523.432,-180.705 533.128,-177.546"/>
<polygon fill="midnightblue" stroke="midnightblue" points="428.634,-213.335 420.752,-220.415 431.329,-219.795 428.634,-213.335"/>
</g>
<!-- Node20 -->
<g id="node20" class="node"><title>Node20</title>
<g id="a_node20"><a xlink:href="classadb_1_1usb__exceptions_1_1TcpTimeoutException.xhtml" target="_top" xlink:title="adb.usb_exceptions.TcpTimeout\lException">
<polygon fill="white" stroke="black" points="504,-98.5 504,-128.5 662,-128.5 662,-98.5 504,-98.5"/>
<text text-anchor="start" x="512" y="-116.5" font-family="Helvetica,sans-Serif" font-size="10.00">adb.usb_exceptions.TcpTimeout</text>
<text text-anchor="middle" x="583" y="-105.5" font-family="Helvetica,sans-Serif" font-size="10.00">Exception</text>
</a>
</g>
</g>
<!-- Node13&#45;&gt;Node20 -->
<g id="edge19" class="edge"><title>Node13&#45;&gt;Node20</title>
<path fill="none" stroke="midnightblue" d="M407.555,-213.066C430.04,-191.315 466.81,-158.723 504,-138.5 510.871,-134.764 518.39,-131.479 525.961,-128.624"/>
<polygon fill="midnightblue" stroke="midnightblue" points="404.903,-210.765 400.22,-220.269 409.808,-215.759 404.903,-210.765"/>
</g>
<!-- Node22 -->
<g id="node22" class="node"><title>Node22</title>
<g id="a_node22"><a xlink:href="classadb_1_1usb__exceptions_1_1ReadFailedError.xhtml" target="_top" xlink:title="adb.usb_exceptions.ReadFailed\lError">
<polygon fill="white" stroke="black" points="505,-49.5 505,-79.5 661,-79.5 661,-49.5 505,-49.5"/>
<text text-anchor="start" x="513" y="-67.5" font-family="Helvetica,sans-Serif" font-size="10.00">adb.usb_exceptions.ReadFailed</text>
<text text-anchor="middle" x="583" y="-56.5" font-family="Helvetica,sans-Serif" font-size="10.00">Error</text>
</a>
</g>
</g>
<!-- Node21&#45;&gt;Node22 -->
<g id="edge21" class="edge"><title>Node21&#45;&gt;Node22</title>
<path fill="none" stroke="midnightblue" d="M462.086,-64.5C476.075,-64.5 490.681,-64.5 504.691,-64.5"/>
<polygon fill="midnightblue" stroke="midnightblue" points="462.026,-61.0001 452.026,-64.5 462.026,-68.0001 462.026,-61.0001"/>
</g>
<!-- Node23 -->
<g id="node23" class="node"><title>Node23</title>
<g id="a_node23"><a xlink:href="classadb_1_1usb__exceptions_1_1WriteFailedError.xhtml" target="_top" xlink:title="adb.usb_exceptions.Write\lFailedError">
<polygon fill="white" stroke="black" points="518,-0.5 518,-30.5 648,-30.5 648,-0.5 518,-0.5"/>
<text text-anchor="start" x="526" y="-18.5" font-family="Helvetica,sans-Serif" font-size="10.00">adb.usb_exceptions.Write</text>
<text text-anchor="middle" x="583" y="-7.5" font-family="Helvetica,sans-Serif" font-size="10.00">FailedError</text>
</a>
</g>
</g>
<!-- Node21&#45;&gt;Node23 -->
<g id="edge22" class="edge"><title>Node21&#45;&gt;Node23</title>
<path fill="none" stroke="midnightblue" d="M455.586,-47.0232C477.243,-41.6225 500.896,-35.7245 521.822,-30.5062"/>
<polygon fill="midnightblue" stroke="midnightblue" points="454.648,-43.6498 445.792,-49.4654 456.342,-50.4418 454.648,-43.6498"/>
</g>
</g>
</svg>
