<?xml version="1.0" encoding="UTF-8" standalone="no"?>
<!DOCTYPE svg PUBLIC "-//W3C//DTD SVG 1.1//EN"
 "http://www.w3.org/Graphics/SVG/1.1/DTD/svg11.dtd">
<!-- Generated by graphviz version 2.38.0 (20140413.2041)
 -->
<!-- Title: Graphical Class Hierarchy Pages: 1 -->
<svg width="484pt" height="442pt"
 viewBox="0.00 0.00 484.00 441.50" xmlns="http://www.w3.org/2000/svg" xmlns:xlink="http://www.w3.org/1999/xlink">
<g id="graph0" class="graph" transform="scale(1 1) rotate(0) translate(4 437.5)">
<title>Graphical Class Hierarchy</title>
<polygon fill="white" stroke="none" points="-4,4 -4,-437.5 480,-437.5 480,4 -4,4"/>
<!-- Node1 -->
<g id="node1" class="node"><title>Node1</title>
<polygon fill="white" stroke="#bfbfbf" points="0,-224 0,-243 43,-243 43,-224 0,-224"/>
<text text-anchor="middle" x="21.5" y="-231" font-family="Helvetica,sans-Serif" font-size="10.00">object</text>
</g>
<!-- Node2 -->
<g id="node2" class="node"><title>Node2</title>
<g id="a_node2"><a xlink:href="classadb_1_1adb__commands_1_1AdbCommands.xhtml" target="_top" xlink:title="adb.adb_commands.AdbCommands">
<polygon fill="white" stroke="black" points="79,-414 79,-433 254,-433 254,-414 79,-414"/>
<text text-anchor="middle" x="166.5" y="-421" font-family="Helvetica,sans-Serif" font-size="10.00">adb.adb_commands.AdbCommands</text>
</a>
</g>
</g>
<!-- Node1&#45;&gt;Node2 -->
<g id="edge1" class="edge"><title>Node1&#45;&gt;Node2</title>
<path fill="none" stroke="midnightblue" d="M23.0211,-253.579C25.0925,-289.478 34.7978,-364.627 79,-404.5 83.2242,-408.31 88.0343,-411.416 93.1726,-413.942"/>
<polygon fill="midnightblue" stroke="midnightblue" points="26.5097,-253.238 22.5828,-243.398 19.5162,-253.539 26.5097,-253.238"/>
</g>
<!-- Node3 -->
<g id="node3" class="node"><title>Node3</title>
<g id="a_node3"><a xlink:href="classadb_1_1adb__protocol_1_1__AdbConnection.xhtml" target="_top" xlink:title="adb.adb_protocol._AdbConnection">
<polygon fill="white" stroke="black" points="83.5,-376 83.5,-395 249.5,-395 249.5,-376 83.5,-376"/>
<text text-anchor="middle" x="166.5" y="-383" font-family="Helvetica,sans-Serif" font-size="10.00">adb.adb_protocol._AdbConnection</text>
</a>
</g>
</g>
<!-- Node1&#45;&gt;Node3 -->
<g id="edge2" class="edge"><title>Node1&#45;&gt;Node3</title>
<path fill="none" stroke="midnightblue" d="M25.1441,-253.213C30.163,-282.555 43.9058,-337.379 79,-366.5 83.6146,-370.329 88.8307,-373.433 94.3579,-375.943"/>
<polygon fill="midnightblue" stroke="midnightblue" points="28.6023,-252.673 23.6214,-243.322 21.6838,-253.738 28.6023,-252.673"/>
</g>
<!-- Node4 -->
<g id="node4" class="node"><title>Node4</title>
<g id="a_node4"><a xlink:href="classadb_1_1adb__protocol_1_1AdbMessage.xhtml" target="_top" xlink:title="adb.adb_protocol.AdbMessage">
<polygon fill="white" stroke="black" points="91,-338 91,-357 242,-357 242,-338 91,-338"/>
<text text-anchor="middle" x="166.5" y="-345" font-family="Helvetica,sans-Serif" font-size="10.00">adb.adb_protocol.AdbMessage</text>
</a>
</g>
</g>
<!-- Node1&#45;&gt;Node4 -->
<g id="edge3" class="edge"><title>Node1&#45;&gt;Node4</title>
<path fill="none" stroke="midnightblue" d="M28.61,-252.6C36.6123,-274.432 52.7923,-309.582 79,-328.5 84.3607,-332.37 90.361,-335.475 96.6348,-337.965"/>
<polygon fill="midnightblue" stroke="midnightblue" points="31.8972,-251.396 25.3304,-243.082 25.279,-253.676 31.8972,-251.396"/>
</g>
<!-- Node5 -->
<g id="node5" class="node"><title>Node5</title>
<g id="a_node5"><a xlink:href="classadb_1_1adb__protocol_1_1AuthSigner.xhtml" target="_top" xlink:title="adb.adb_protocol.AuthSigner">
<polygon fill="white" stroke="black" points="95.5,-300 95.5,-319 237.5,-319 237.5,-300 95.5,-300"/>
<text text-anchor="middle" x="166.5" y="-307" font-family="Helvetica,sans-Serif" font-size="10.00">adb.adb_protocol.AuthSigner</text>
</a>
</g>
</g>
<!-- Node1&#45;&gt;Node5 -->
<g id="edge4" class="edge"><title>Node1&#45;&gt;Node5</title>
<path fill="none" stroke="midnightblue" d="M35.603,-251.399C45.9592,-264.235 61.543,-280.895 79,-290.5 86.0049,-294.354 93.733,-297.427 101.601,-299.876"/>
<polygon fill="midnightblue" stroke="midnightblue" points="38.1945,-249.028 29.3097,-243.257 32.6561,-253.309 38.1945,-249.028"/>
</g>
<!-- Node9 -->
<g id="node9" class="node"><title>Node9</title>
<g id="a_node9"><a xlink:href="classadb_1_1common_1_1TcpHandle.xhtml" target="_top" xlink:title="adb.common.TcpHandle">
<polygon fill="white" stroke="black" points="105,-262 105,-281 228,-281 228,-262 105,-262"/>
<text text-anchor="middle" x="166.5" y="-269" font-family="Helvetica,sans-Serif" font-size="10.00">adb.common.TcpHandle</text>
</a>
</g>
</g>
<!-- Node1&#45;&gt;Node9 -->
<g id="edge8" class="edge"><title>Node1&#45;&gt;Node9</title>
<path fill="none" stroke="midnightblue" d="M52.7353,-244.339C61.1792,-247.182 70.3983,-250.117 79,-252.5 91.4463,-255.949 105.038,-259.18 117.683,-261.965"/>
<polygon fill="midnightblue" stroke="midnightblue" points="53.8569,-241.024 43.2622,-241.082 51.5806,-247.643 53.8569,-241.024"/>
</g>
<!-- Node10 -->
<g id="node10" class="node"><title>Node10</title>
<g id="a_node10"><a xlink:href="classadb_1_1common_1_1UsbHandle.xhtml" target="_top" xlink:title="adb.common.UsbHandle">
<polygon fill="white" stroke="black" points="104,-224 104,-243 229,-243 229,-224 104,-224"/>
<text text-anchor="middle" x="166.5" y="-231" font-family="Helvetica,sans-Serif" font-size="10.00">adb.common.UsbHandle</text>
</a>
</g>
</g>
<!-- Node1&#45;&gt;Node10 -->
<g id="edge9" class="edge"><title>Node1&#45;&gt;Node10</title>
<path fill="none" stroke="midnightblue" d="M53.377,-233.5C68.149,-233.5 86.383,-233.5 103.822,-233.5"/>
<polygon fill="midnightblue" stroke="midnightblue" points="53.2935,-230 43.2934,-233.5 53.2934,-237 53.2935,-230"/>
</g>
<!-- Node11 -->
<g id="node11" class="node"><title>Node11</title>
<g id="a_node11"><a xlink:href="classadb_1_1fastboot_1_1FastbootCommands.xhtml" target="_top" xlink:title="adb.fastboot.FastbootCommands">
<polygon fill="white" stroke="black" points="85.5,-186 85.5,-205 247.5,-205 247.5,-186 85.5,-186"/>
<text text-anchor="middle" x="166.5" y="-193" font-family="Helvetica,sans-Serif" font-size="10.00">adb.fastboot.FastbootCommands</text>
</a>
</g>
</g>
<!-- Node1&#45;&gt;Node11 -->
<g id="edge10" class="edge"><title>Node1&#45;&gt;Node11</title>
<path fill="none" stroke="midnightblue" d="M52.7353,-222.661C61.1792,-219.818 70.3983,-216.883 79,-214.5 91.4463,-211.051 105.038,-207.82 117.683,-205.035"/>
<polygon fill="midnightblue" stroke="midnightblue" points="51.5806,-219.357 43.2622,-225.918 53.8569,-225.976 51.5806,-219.357"/>
</g>
<!-- Node12 -->
<g id="node12" class="node"><title>Node12</title>
<g id="a_node12"><a xlink:href="classadb_1_1fastboot_1_1FastbootProtocol.xhtml" target="_top" xlink:title="adb.fastboot.FastbootProtocol">
<polygon fill="white" stroke="black" points="92.5,-148 92.5,-167 240.5,-167 240.5,-148 92.5,-148"/>
<text text-anchor="middle" x="166.5" y="-155" font-family="Helvetica,sans-Serif" font-size="10.00">adb.fastboot.FastbootProtocol</text>
</a>
</g>
</g>
<!-- Node1&#45;&gt;Node12 -->
<g id="edge11" class="edge"><title>Node1&#45;&gt;Node12</title>
<path fill="none" stroke="midnightblue" d="M35.603,-215.601C45.9592,-202.765 61.543,-186.105 79,-176.5 86.0049,-172.646 93.733,-169.573 101.601,-167.124"/>
<polygon fill="midnightblue" stroke="midnightblue" points="32.6561,-213.691 29.3097,-223.743 38.1945,-217.972 32.6561,-213.691"/>
</g>
<!-- Node13 -->
<g id="node13" class="node"><title>Node13</title>
<g id="a_node13"><a xlink:href="classadb_1_1filesync__protocol_1_1FileSyncConnection.xhtml" target="_top" xlink:title="adb.filesync_protocol.File\lSyncConnection">
<polygon fill="white" stroke="black" points="102.5,-98.5 102.5,-128.5 230.5,-128.5 230.5,-98.5 102.5,-98.5"/>
<text text-anchor="start" x="110.5" y="-116.5" font-family="Helvetica,sans-Serif" font-size="10.00">adb.filesync_protocol.File</text>
<text text-anchor="middle" x="166.5" y="-105.5" font-family="Helvetica,sans-Serif" font-size="10.00">SyncConnection</text>
</a>
</g>
</g>
<!-- Node1&#45;&gt;Node13 -->
<g id="edge12" class="edge"><title>Node1&#45;&gt;Node13</title>
<path fill="none" stroke="midnightblue" d="M28.9574,-214.365C37.2106,-192.789 53.5526,-158.16 79,-138.5 85.9273,-133.148 93.9631,-128.941 102.291,-125.635"/>
<polygon fill="midnightblue" stroke="midnightblue" points="25.6601,-213.191 25.5512,-223.786 32.243,-215.572 25.6601,-213.191"/>
</g>
<!-- Node14 -->
<g id="node14" class="node"><title>Node14</title>
<g id="a_node14"><a xlink:href="classadb_1_1filesync__protocol_1_1FilesyncProtocol.xhtml" target="_top" xlink:title="adb.filesync_protocol.Filesync\lProtocol">
<polygon fill="white" stroke="black" points="92,-49.5 92,-79.5 241,-79.5 241,-49.5 92,-49.5"/>
<text text-anchor="start" x="100" y="-67.5" font-family="Helvetica,sans-Serif" font-size="10.00">adb.filesync_protocol.Filesync</text>
<text text-anchor="middle" x="166.5" y="-56.5" font-family="Helvetica,sans-Serif" font-size="10.00">Protocol</text>
</a>
</g>
</g>
<!-- Node1&#45;&gt;Node14 -->
<g id="edge13" class="edge"><title>Node1&#45;&gt;Node14</title>
<path fill="none" stroke="midnightblue" d="M24.7009,-213.816C29.218,-182.849 42.4087,-122.852 79,-89.5 83.2746,-85.6038 88.1205,-82.3116 93.2833,-79.5302"/>
<polygon fill="midnightblue" stroke="midnightblue" points="21.2203,-213.441 23.4018,-223.809 28.1619,-214.343 21.2203,-213.441"/>
</g>
<!-- Node15 -->
<g id="node15" class="node"><title>Node15</title>
<g id="a_node15"><a xlink:href="classadb_1_1sign__pythonrsa_1_1__Accum.xhtml" target="_top" xlink:title="adb.sign_pythonrsa.\l_Accum">
<polygon fill="white" stroke="black" points="114.5,-0.5 114.5,-30.5 218.5,-30.5 218.5,-0.5 114.5,-0.5"/>
<text text-anchor="start" x="122.5" y="-18.5" font-family="Helvetica,sans-Serif" font-size="10.00">adb.sign_pythonrsa.</text>
<text text-anchor="middle" x="166.5" y="-7.5" font-family="Helvetica,sans-Serif" font-size="10.00">_Accum</text>
</a>
</g>
</g>
<!-- Node1&#45;&gt;Node15 -->
<g id="edge14" class="edge"><title>Node1&#45;&gt;Node15</title>
<path fill="none" stroke="midnightblue" d="M22.3062,-213.755C23.037,-174.763 30.379,-87.505 79,-39.5 88.5375,-30.0834 101.429,-24.2851 114.344,-20.7367"/>
<polygon fill="midnightblue" stroke="midnightblue" points="18.806,-213.787 22.2497,-223.807 25.8059,-213.827 18.806,-213.787"/>
</g>
<!-- Node6 -->
<g id="node6" class="node"><title>Node6</title>
<g id="a_node6"><a xlink:href="classadb_1_1sign__cryptography_1_1CryptographySigner.xhtml" target="_top" xlink:title="adb.sign_cryptography.Cryptography\lSigner">
<polygon fill="white" stroke="black" points="295,-343.5 295,-373.5 471,-373.5 471,-343.5 295,-343.5"/>
<text text-anchor="start" x="303" y="-361.5" font-family="Helvetica,sans-Serif" font-size="10.00">adb.sign_cryptography.Cryptography</text>
<text text-anchor="middle" x="383" y="-350.5" font-family="Helvetica,sans-Serif" font-size="10.00">Signer</text>
</a>
</g>
</g>
<!-- Node5&#45;&gt;Node6 -->
<g id="edge5" class="edge"><title>Node5&#45;&gt;Node6</title>
<path fill="none" stroke="midnightblue" d="M221.311,-321.197C232.141,-323.586 243.439,-326.103 254,-328.5 275.034,-333.275 297.981,-338.612 318.562,-343.447"/>
<polygon fill="midnightblue" stroke="midnightblue" points="222.05,-317.776 211.531,-319.047 220.546,-324.613 222.05,-317.776"/>
</g>
<!-- Node7 -->
<g id="node7" class="node"><title>Node7</title>
<g id="a_node7"><a xlink:href="classadb_1_1sign__pycryptodome_1_1PycryptodomeAuthSigner.xhtml" target="_top" xlink:title="adb.sign_pycryptodome.Pycryptodome\lAuthSigner">
<polygon fill="white" stroke="black" points="290,-294.5 290,-324.5 476,-324.5 476,-294.5 290,-294.5"/>
<text text-anchor="start" x="298" y="-312.5" font-family="Helvetica,sans-Serif" font-size="10.00">adb.sign_pycryptodome.Pycryptodome</text>
<text text-anchor="middle" x="383" y="-301.5" font-family="Helvetica,sans-Serif" font-size="10.00">AuthSigner</text>
</a>
</g>
</g>
<!-- Node5&#45;&gt;Node7 -->
<g id="edge6" class="edge"><title>Node5&#45;&gt;Node7</title>
<path fill="none" stroke="midnightblue" d="M248.013,-309.5C261.629,-309.5 275.86,-309.5 289.749,-309.5"/>
<polygon fill="midnightblue" stroke="midnightblue" points="247.735,-306 237.735,-309.5 247.735,-313 247.735,-306"/>
</g>
<!-- Node8 -->
<g id="node8" class="node"><title>Node8</title>
<g id="a_node8"><a xlink:href="classadb_1_1sign__pythonrsa_1_1PythonRSASigner.xhtml" target="_top" xlink:title="adb.sign_pythonrsa.Python\lRSASigner">
<polygon fill="white" stroke="black" points="315.5,-245.5 315.5,-275.5 450.5,-275.5 450.5,-245.5 315.5,-245.5"/>
<text text-anchor="start" x="323.5" y="-263.5" font-family="Helvetica,sans-Serif" font-size="10.00">adb.sign_pythonrsa.Python</text>
<text text-anchor="middle" x="383" y="-252.5" font-family="Helvetica,sans-Serif" font-size="10.00">RSASigner</text>
</a>
</g>
</g>
<!-- Node5&#45;&gt;Node8 -->
<g id="edge7" class="edge"><title>Node5&#45;&gt;Node8</title>
<path fill="none" stroke="midnightblue" d="M221.311,-297.803C232.141,-295.414 243.439,-292.897 254,-290.5 275.034,-285.725 297.981,-280.388 318.562,-275.553"/>
<polygon fill="midnightblue" stroke="midnightblue" points="220.546,-294.387 211.531,-299.953 222.05,-301.224 220.546,-294.387"/>
</g>
</g>
</svg>
