<?xml version="1.0" encoding="UTF-8" standalone="no"?>
<!DOCTYPE svg PUBLIC "-//W3C//DTD SVG 1.1//EN"
 "http://www.w3.org/Graphics/SVG/1.1/DTD/svg11.dtd">
<!-- Generated by graphviz version 2.38.0 (20140413.2041)
 -->
<!-- Title: Graphical Class Hierarchy Pages: 1 -->
<svg width="237pt" height="78pt"
 viewBox="0.00 0.00 237.00 77.50" xmlns="http://www.w3.org/2000/svg" xmlns:xlink="http://www.w3.org/1999/xlink">
<g id="graph0" class="graph" transform="scale(1 1) rotate(0) translate(4 73.5)">
<title>Graphical Class Hierarchy</title>
<polygon fill="white" stroke="none" points="-4,4 -4,-73.5 233,-73.5 233,4 -4,4"/>
<!-- Node1 -->
<g id="node1" class="node"><title>Node1</title>
<polygon fill="white" stroke="#bfbfbf" points="0,-22.5 0,-41.5 44,-41.5 44,-22.5 0,-22.5"/>
<text text-anchor="middle" x="22" y="-29.5" font-family="Helvetica,sans-Serif" font-size="10.00">Action</text>
</g>
<!-- Node2 -->
<g id="node2" class="node"><title>Node2</title>
<g id="a_node2"><a xlink:href="classadb_1_1common__cli_1_1__PortPathAction.xhtml" target="_top" xlink:title="adb.common_cli._PortPath\lAction">
<polygon fill="white" stroke="black" points="87.5,-39 87.5,-69 221.5,-69 221.5,-39 87.5,-39"/>
<text text-anchor="start" x="95.5" y="-57" font-family="Helvetica,sans-Serif" font-size="10.00">adb.common_cli._PortPath</text>
<text text-anchor="middle" x="154.5" y="-46" font-family="Helvetica,sans-Serif" font-size="10.00">Action</text>
</a>
</g>
</g>
<!-- Node1&#45;&gt;Node2 -->
<g id="edge1" class="edge"><title>Node1&#45;&gt;Node2</title>
<path fill="none" stroke="midnightblue" d="M54.1436,-37.2503C64.213,-38.9478 75.7899,-40.8994 87.4025,-42.8571"/>
<polygon fill="midnightblue" stroke="midnightblue" points="54.7002,-33.7948 44.2575,-35.5836 53.5365,-40.6974 54.7002,-33.7948"/>
</g>
<!-- Node3 -->
<g id="node3" class="node"><title>Node3</title>
<g id="a_node3"><a xlink:href="classadb_1_1common__cli_1_1PositionalArg.xhtml" target="_top" xlink:title="adb.common_cli.PositionalArg">
<polygon fill="white" stroke="black" points="80,-0.5 80,-19.5 229,-19.5 229,-0.5 80,-0.5"/>
<text text-anchor="middle" x="154.5" y="-7.5" font-family="Helvetica,sans-Serif" font-size="10.00">adb.common_cli.PositionalArg</text>
</a>
</g>
</g>
<!-- Node1&#45;&gt;Node3 -->
<g id="edge2" class="edge"><title>Node1&#45;&gt;Node3</title>
<path fill="none" stroke="midnightblue" d="M54.3886,-26.7084C67.203,-24.5481 82.4278,-21.9815 97.0516,-19.5162"/>
<polygon fill="midnightblue" stroke="midnightblue" points="53.5365,-23.3026 44.2575,-28.4164 54.7002,-30.2052 53.5365,-23.3026"/>
</g>
</g>
</svg>
