<?xml version="1.0" encoding="UTF-8" standalone="no"?>
<!DOCTYPE svg PUBLIC "-//W3C//DTD SVG 1.1//EN"
 "http://www.w3.org/Graphics/SVG/1.1/DTD/svg11.dtd">
<!-- Generated by graphviz version 2.38.0 (20140413.2041)
 -->
<!-- Title: adb.adb_keygen.get_user_info Pages: 1 -->
<svg width="418pt" height="39pt"
 viewBox="0.00 0.00 418.00 39.00" xmlns="http://www.w3.org/2000/svg" xmlns:xlink="http://www.w3.org/1999/xlink">
<g id="graph0" class="graph" transform="scale(1 1) rotate(0) translate(4 35)">
<title>adb.adb_keygen.get_user_info</title>
<polygon fill="white" stroke="none" points="-4,4 -4,-35 414,-35 414,4 -4,4"/>
<!-- Node1 -->
<g id="node1" class="node"><title>Node1</title>
<polygon fill="#bfbfbf" stroke="black" points="0,-0.5 0,-30.5 104,-30.5 104,-0.5 0,-0.5"/>
<text text-anchor="start" x="8" y="-18.5" font-family="Helvetica,sans-Serif" font-size="10.00">adb.adb_keygen.get</text>
<text text-anchor="middle" x="52" y="-7.5" font-family="Helvetica,sans-Serif" font-size="10.00">_user_info</text>
</g>
<!-- Node2 -->
<g id="node2" class="node"><title>Node2</title>
<g id="a_node2"><a xlink:href="namespaceadb_1_1adb__keygen.xhtml#aa1551ccb7bc18cb90be02b5a5ac27e98" target="_top" xlink:title="adb.adb_keygen.write\l_public_keyfile">
<polygon fill="white" stroke="black" points="140,-0.5 140,-30.5 252,-30.5 252,-0.5 140,-0.5"/>
<text text-anchor="start" x="148" y="-18.5" font-family="Helvetica,sans-Serif" font-size="10.00">adb.adb_keygen.write</text>
<text text-anchor="middle" x="196" y="-7.5" font-family="Helvetica,sans-Serif" font-size="10.00">_public_keyfile</text>
</a>
</g>
</g>
<!-- Node1&#45;&gt;Node2 -->
<g id="edge1" class="edge"><title>Node1&#45;&gt;Node2</title>
<path fill="none" stroke="midnightblue" d="M114.481,-15.5C122.959,-15.5 131.621,-15.5 139.972,-15.5"/>
<polygon fill="midnightblue" stroke="midnightblue" points="114.265,-12.0001 104.265,-15.5 114.265,-19.0001 114.265,-12.0001"/>
</g>
<!-- Node3 -->
<g id="node3" class="node"><title>Node3</title>
<g id="a_node3"><a xlink:href="namespaceadb_1_1adb__keygen.xhtml#a16b93676d4797482eddd0b1cd8f5edbf" target="_top" xlink:title="adb.adb_keygen.keygen">
<polygon fill="white" stroke="black" points="288,-6 288,-25 410,-25 410,-6 288,-6"/>
<text text-anchor="middle" x="349" y="-13" font-family="Helvetica,sans-Serif" font-size="10.00">adb.adb_keygen.keygen</text>
</a>
</g>
</g>
<!-- Node2&#45;&gt;Node3 -->
<g id="edge2" class="edge"><title>Node2&#45;&gt;Node3</title>
<path fill="none" stroke="midnightblue" d="M262.51,-15.5C270.915,-15.5 279.489,-15.5 287.804,-15.5"/>
<polygon fill="midnightblue" stroke="midnightblue" points="262.369,-12.0001 252.369,-15.5 262.369,-19.0001 262.369,-12.0001"/>
</g>
</g>
</svg>
