<?xml version="1.0" encoding="UTF-8" standalone="no"?>
<!DOCTYPE svg PUBLIC "-//W3C//DTD SVG 1.1//EN"
 "http://www.w3.org/Graphics/SVG/1.1/DTD/svg11.dtd">
<!-- Generated by graphviz version 2.38.0 (20140413.2041)
 -->
<!-- Title: adb.adb_keygen.encode_pubkey Pages: 1 -->
<svg width="436pt" height="39pt"
 viewBox="0.00 0.00 436.00 39.00" xmlns="http://www.w3.org/2000/svg" xmlns:xlink="http://www.w3.org/1999/xlink">
<g id="graph0" class="graph" transform="scale(1 1) rotate(0) translate(4 35)">
<title>adb.adb_keygen.encode_pubkey</title>
<polygon fill="white" stroke="none" points="-4,4 -4,-35 432,-35 432,4 -4,4"/>
<!-- Node1 -->
<g id="node1" class="node"><title>Node1</title>
<polygon fill="#bfbfbf" stroke="black" points="0,-0.5 0,-30.5 122,-30.5 122,-0.5 0,-0.5"/>
<text text-anchor="start" x="8" y="-18.5" font-family="Helvetica,sans-Serif" font-size="10.00">adb.adb_keygen.encode</text>
<text text-anchor="middle" x="61" y="-7.5" font-family="Helvetica,sans-Serif" font-size="10.00">_pubkey</text>
</g>
<!-- Node2 -->
<g id="node2" class="node"><title>Node2</title>
<g id="a_node2"><a xlink:href="namespaceadb_1_1adb__keygen.xhtml#aa1551ccb7bc18cb90be02b5a5ac27e98" target="_top" xlink:title="adb.adb_keygen.write\l_public_keyfile">
<polygon fill="white" stroke="black" points="158,-0.5 158,-30.5 270,-30.5 270,-0.5 158,-0.5"/>
<text text-anchor="start" x="166" y="-18.5" font-family="Helvetica,sans-Serif" font-size="10.00">adb.adb_keygen.write</text>
<text text-anchor="middle" x="214" y="-7.5" font-family="Helvetica,sans-Serif" font-size="10.00">_public_keyfile</text>
</a>
</g>
</g>
<!-- Node1&#45;&gt;Node2 -->
<g id="edge1" class="edge"><title>Node1&#45;&gt;Node2</title>
<path fill="none" stroke="midnightblue" d="M132.203,-15.5C140.859,-15.5 149.608,-15.5 157.992,-15.5"/>
<polygon fill="midnightblue" stroke="midnightblue" points="132.113,-12.0001 122.113,-15.5 132.113,-19.0001 132.113,-12.0001"/>
</g>
<!-- Node3 -->
<g id="node3" class="node"><title>Node3</title>
<g id="a_node3"><a xlink:href="namespaceadb_1_1adb__keygen.xhtml#a16b93676d4797482eddd0b1cd8f5edbf" target="_top" xlink:title="adb.adb_keygen.keygen">
<polygon fill="white" stroke="black" points="306,-6 306,-25 428,-25 428,-6 306,-6"/>
<text text-anchor="middle" x="367" y="-13" font-family="Helvetica,sans-Serif" font-size="10.00">adb.adb_keygen.keygen</text>
</a>
</g>
</g>
<!-- Node2&#45;&gt;Node3 -->
<g id="edge2" class="edge"><title>Node2&#45;&gt;Node3</title>
<path fill="none" stroke="midnightblue" d="M280.51,-15.5C288.915,-15.5 297.489,-15.5 305.804,-15.5"/>
<polygon fill="midnightblue" stroke="midnightblue" points="280.369,-12.0001 270.369,-15.5 280.369,-19.0001 280.369,-12.0001"/>
</g>
</g>
</svg>
