<?xml version="1.0" encoding="UTF-8" standalone="no"?>
<!DOCTYPE svg PUBLIC "-//W3C//DTD SVG 1.1//EN"
 "http://www.w3.org/Graphics/SVG/1.1/DTD/svg11.dtd">
<!-- Generated by graphviz version 2.38.0 (20140413.2041)
 -->
<!-- Title: adb.adb_keygen._to_bytes Pages: 1 -->
<svg width="576pt" height="39pt"
 viewBox="0.00 0.00 576.00 39.00" xmlns="http://www.w3.org/2000/svg" xmlns:xlink="http://www.w3.org/1999/xlink">
<g id="graph0" class="graph" transform="scale(1 1) rotate(0) translate(4 35)">
<title>adb.adb_keygen._to_bytes</title>
<polygon fill="white" stroke="none" points="-4,4 -4,-35 572,-35 572,4 -4,4"/>
<!-- Node1 -->
<g id="node1" class="node"><title>Node1</title>
<polygon fill="#bfbfbf" stroke="black" points="0,-0.5 0,-30.5 104,-30.5 104,-0.5 0,-0.5"/>
<text text-anchor="start" x="8" y="-18.5" font-family="Helvetica,sans-Serif" font-size="10.00">adb.adb_keygen._to</text>
<text text-anchor="middle" x="52" y="-7.5" font-family="Helvetica,sans-Serif" font-size="10.00">_bytes</text>
</g>
<!-- Node2 -->
<g id="node2" class="node"><title>Node2</title>
<g id="a_node2"><a xlink:href="namespaceadb_1_1adb__keygen.xhtml#a4386adbdd0c478b9a23f9ad6528c5ea5" target="_top" xlink:title="adb.adb_keygen.encode\l_pubkey">
<polygon fill="white" stroke="black" points="140,-0.5 140,-30.5 262,-30.5 262,-0.5 140,-0.5"/>
<text text-anchor="start" x="148" y="-18.5" font-family="Helvetica,sans-Serif" font-size="10.00">adb.adb_keygen.encode</text>
<text text-anchor="middle" x="201" y="-7.5" font-family="Helvetica,sans-Serif" font-size="10.00">_pubkey</text>
</a>
</g>
</g>
<!-- Node1&#45;&gt;Node2 -->
<g id="edge1" class="edge"><title>Node1&#45;&gt;Node2</title>
<path fill="none" stroke="midnightblue" d="M114.244,-15.5C122.76,-15.5 131.501,-15.5 139.994,-15.5"/>
<polygon fill="midnightblue" stroke="midnightblue" points="114.001,-12.0001 104.001,-15.5 114.001,-19.0001 114.001,-12.0001"/>
</g>
<!-- Node3 -->
<g id="node3" class="node"><title>Node3</title>
<g id="a_node3"><a xlink:href="namespaceadb_1_1adb__keygen.xhtml#aa1551ccb7bc18cb90be02b5a5ac27e98" target="_top" xlink:title="adb.adb_keygen.write\l_public_keyfile">
<polygon fill="white" stroke="black" points="298,-0.5 298,-30.5 410,-30.5 410,-0.5 298,-0.5"/>
<text text-anchor="start" x="306" y="-18.5" font-family="Helvetica,sans-Serif" font-size="10.00">adb.adb_keygen.write</text>
<text text-anchor="middle" x="354" y="-7.5" font-family="Helvetica,sans-Serif" font-size="10.00">_public_keyfile</text>
</a>
</g>
</g>
<!-- Node2&#45;&gt;Node3 -->
<g id="edge2" class="edge"><title>Node2&#45;&gt;Node3</title>
<path fill="none" stroke="midnightblue" d="M272.203,-15.5C280.859,-15.5 289.608,-15.5 297.992,-15.5"/>
<polygon fill="midnightblue" stroke="midnightblue" points="272.113,-12.0001 262.113,-15.5 272.113,-19.0001 272.113,-12.0001"/>
</g>
<!-- Node4 -->
<g id="node4" class="node"><title>Node4</title>
<g id="a_node4"><a xlink:href="namespaceadb_1_1adb__keygen.xhtml#a16b93676d4797482eddd0b1cd8f5edbf" target="_top" xlink:title="adb.adb_keygen.keygen">
<polygon fill="white" stroke="black" points="446,-6 446,-25 568,-25 568,-6 446,-6"/>
<text text-anchor="middle" x="507" y="-13" font-family="Helvetica,sans-Serif" font-size="10.00">adb.adb_keygen.keygen</text>
</a>
</g>
</g>
<!-- Node3&#45;&gt;Node4 -->
<g id="edge3" class="edge"><title>Node3&#45;&gt;Node4</title>
<path fill="none" stroke="midnightblue" d="M420.51,-15.5C428.915,-15.5 437.489,-15.5 445.804,-15.5"/>
<polygon fill="midnightblue" stroke="midnightblue" points="420.369,-12.0001 410.369,-15.5 420.369,-19.0001 420.369,-12.0001"/>
</g>
</g>
</svg>
