<?xml version="1.0" encoding="UTF-8" standalone="no"?>
<!DOCTYPE svg PUBLIC "-//W3C//DTD SVG 1.1//EN"
 "http://www.w3.org/Graphics/SVG/1.1/DTD/svg11.dtd">
<!-- Generated by graphviz version 2.38.0 (20140413.2041)
 -->
<!-- Title: adb.adb_keygen.write_public_keyfile Pages: 1 -->
<svg width="418pt" height="88pt"
 viewBox="0.00 0.00 418.00 88.00" xmlns="http://www.w3.org/2000/svg" xmlns:xlink="http://www.w3.org/1999/xlink">
<g id="graph0" class="graph" transform="scale(1 1) rotate(0) translate(4 84)">
<title>adb.adb_keygen.write_public_keyfile</title>
<polygon fill="white" stroke="none" points="-4,4 -4,-84 414,-84 414,4 -4,4"/>
<!-- Node1 -->
<g id="node1" class="node"><title>Node1</title>
<polygon fill="#bfbfbf" stroke="black" points="0,-24.5 0,-54.5 112,-54.5 112,-24.5 0,-24.5"/>
<text text-anchor="start" x="8" y="-42.5" font-family="Helvetica,sans-Serif" font-size="10.00">adb.adb_keygen.write</text>
<text text-anchor="middle" x="56" y="-31.5" font-family="Helvetica,sans-Serif" font-size="10.00">_public_keyfile</text>
</g>
<!-- Node2 -->
<g id="node2" class="node"><title>Node2</title>
<g id="a_node2"><a xlink:href="namespaceadb_1_1adb__keygen.xhtml#a4386adbdd0c478b9a23f9ad6528c5ea5" target="_top" xlink:title="adb.adb_keygen.encode\l_pubkey">
<polygon fill="white" stroke="black" points="148,-49.5 148,-79.5 270,-79.5 270,-49.5 148,-49.5"/>
<text text-anchor="start" x="156" y="-67.5" font-family="Helvetica,sans-Serif" font-size="10.00">adb.adb_keygen.encode</text>
<text text-anchor="middle" x="209" y="-56.5" font-family="Helvetica,sans-Serif" font-size="10.00">_pubkey</text>
</a>
</g>
</g>
<!-- Node1&#45;&gt;Node2 -->
<g id="edge1" class="edge"><title>Node1&#45;&gt;Node2</title>
<path fill="none" stroke="midnightblue" d="M112.369,-48.6671C120.658,-50.0393 129.295,-51.4694 137.841,-52.8842"/>
<polygon fill="midnightblue" stroke="midnightblue" points="137.366,-56.3533 147.804,-54.5337 138.51,-49.4473 137.366,-56.3533"/>
</g>
<!-- Node4 -->
<g id="node4" class="node"><title>Node4</title>
<g id="a_node4"><a xlink:href="namespaceadb_1_1adb__keygen.xhtml#a27a05077e217aa9178e79214aa155ede" target="_top" xlink:title="adb.adb_keygen.get\l_user_info">
<polygon fill="white" stroke="black" points="157,-0.5 157,-30.5 261,-30.5 261,-0.5 157,-0.5"/>
<text text-anchor="start" x="165" y="-18.5" font-family="Helvetica,sans-Serif" font-size="10.00">adb.adb_keygen.get</text>
<text text-anchor="middle" x="209" y="-7.5" font-family="Helvetica,sans-Serif" font-size="10.00">_user_info</text>
</a>
</g>
</g>
<!-- Node1&#45;&gt;Node4 -->
<g id="edge3" class="edge"><title>Node1&#45;&gt;Node4</title>
<path fill="none" stroke="midnightblue" d="M112.369,-30.6996C123.454,-28.9378 135.162,-27.0769 146.441,-25.2842"/>
<polygon fill="midnightblue" stroke="midnightblue" points="147.321,-28.6883 156.648,-23.6619 146.222,-21.7751 147.321,-28.6883"/>
</g>
<!-- Node3 -->
<g id="node3" class="node"><title>Node3</title>
<g id="a_node3"><a xlink:href="namespaceadb_1_1adb__keygen.xhtml#a0d1f9b4796df3b9598047d5905b1ba89" target="_top" xlink:title="adb.adb_keygen._to\l_bytes">
<polygon fill="white" stroke="black" points="306,-49.5 306,-79.5 410,-79.5 410,-49.5 306,-49.5"/>
<text text-anchor="start" x="314" y="-67.5" font-family="Helvetica,sans-Serif" font-size="10.00">adb.adb_keygen._to</text>
<text text-anchor="middle" x="358" y="-56.5" font-family="Helvetica,sans-Serif" font-size="10.00">_bytes</text>
</a>
</g>
</g>
<!-- Node2&#45;&gt;Node3 -->
<g id="edge2" class="edge"><title>Node2&#45;&gt;Node3</title>
<path fill="none" stroke="midnightblue" d="M270.215,-64.5C278.557,-64.5 287.136,-64.5 295.502,-64.5"/>
<polygon fill="midnightblue" stroke="midnightblue" points="295.57,-68.0001 305.57,-64.5 295.57,-61.0001 295.57,-68.0001"/>
</g>
</g>
</svg>
