<?xml version="1.0" encoding="UTF-8" standalone="no"?>
<!DOCTYPE svg PUBLIC "-//W3C//DTD SVG 1.1//EN"
 "http://www.w3.org/Graphics/SVG/1.1/DTD/svg11.dtd">
<!-- Generated by graphviz version 2.38.0 (20140413.2041)
 -->
<!-- Title: adb.fastboot.FastbootCommands.__reset Pages: 1 -->
<svg width="387pt" height="382pt"
 viewBox="0.00 0.00 387.00 382.00" xmlns="http://www.w3.org/2000/svg" xmlns:xlink="http://www.w3.org/1999/xlink">
<g id="graph0" class="graph" transform="scale(1 1) rotate(0) translate(4 378)">
<title>adb.fastboot.FastbootCommands.__reset</title>
<polygon fill="white" stroke="none" points="-4,4 -4,-378 383,-378 383,4 -4,4"/>
<!-- Node1 -->
<g id="node1" class="node"><title>Node1</title>
<polygon fill="#bfbfbf" stroke="black" points="0,-171.5 0,-201.5 165,-201.5 165,-171.5 0,-171.5"/>
<text text-anchor="start" x="8" y="-189.5" font-family="Helvetica,sans-Serif" font-size="10.00">adb.fastboot.FastbootCommands.</text>
<text text-anchor="middle" x="82.5" y="-178.5" font-family="Helvetica,sans-Serif" font-size="10.00">__reset</text>
</g>
<!-- Node2 -->
<g id="node2" class="node"><title>Node2</title>
<g id="a_node2"><a xlink:href="../adb.adb_commands.html#adb.adb_commands.AdbCommands.__init__" xlink:title="adb.adb_commands.AdbCommands.\l__init__">
<polygon fill="white" stroke="black" points="201,-343.5 201,-373.5 379,-373.5 379,-343.5 201,-343.5"/>
<text text-anchor="start" x="209" y="-361.5" font-family="Helvetica,sans-Serif" font-size="10.00">adb.adb_commands.AdbCommands.</text>
<text text-anchor="middle" x="290" y="-350.5" font-family="Helvetica,sans-Serif" font-size="10.00">__init__</text>
</a>
</g>
</g>
<!-- Node1&#45;&gt;Node2 -->
<g id="edge1" class="edge"><title>Node1&#45;&gt;Node2</title>
<path fill="none" stroke="midnightblue" d="M91.2379,-201.706C107.373,-231.843 147.593,-299.279 201,-334.5 203.417,-336.094 205.937,-337.582 208.534,-338.973"/>
<polygon fill="midnightblue" stroke="midnightblue" points="207.088,-342.161 217.618,-343.33 210.116,-335.85 207.088,-342.161"/>
</g>
<!-- Node3 -->
<g id="node3" class="node"><title>Node3</title>
<g id="a_node3"><a xlink:href="../adb.adb_protocol.html#adb.adb_protocol.InvalidCommandError.__init__" xlink:title="adb.adb_protocol.Invalid\lCommandError.__init__">
<polygon fill="white" stroke="black" points="229,-294.5 229,-324.5 351,-324.5 351,-294.5 229,-294.5"/>
<text text-anchor="start" x="237" y="-312.5" font-family="Helvetica,sans-Serif" font-size="10.00">adb.adb_protocol.Invalid</text>
<text text-anchor="middle" x="290" y="-301.5" font-family="Helvetica,sans-Serif" font-size="10.00">CommandError.__init__</text>
</a>
</g>
</g>
<!-- Node1&#45;&gt;Node3 -->
<g id="edge2" class="edge"><title>Node1&#45;&gt;Node3</title>
<path fill="none" stroke="midnightblue" d="M97.1769,-201.597C117.665,-223.31 158.483,-263.192 201,-285.5 206.706,-288.494 212.82,-291.142 219.07,-293.479"/>
<polygon fill="midnightblue" stroke="midnightblue" points="218.368,-296.94 228.963,-296.9 220.656,-290.324 218.368,-296.94"/>
</g>
<!-- Node4 -->
<g id="node4" class="node"><title>Node4</title>
<g id="a_node4"><a xlink:href="../adb.adb_protocol.html#adb.adb_protocol._AdbConnection.__init__" xlink:title="adb.adb_protocol._AdbConnection.\l__init__">
<polygon fill="white" stroke="black" points="205.5,-245.5 205.5,-275.5 374.5,-275.5 374.5,-245.5 205.5,-245.5"/>
<text text-anchor="start" x="213.5" y="-263.5" font-family="Helvetica,sans-Serif" font-size="10.00">adb.adb_protocol._AdbConnection.</text>
<text text-anchor="middle" x="290" y="-252.5" font-family="Helvetica,sans-Serif" font-size="10.00">__init__</text>
</a>
</g>
</g>
<!-- Node1&#45;&gt;Node4 -->
<g id="edge3" class="edge"><title>Node1&#45;&gt;Node4</title>
<path fill="none" stroke="midnightblue" d="M115.953,-201.722C139.289,-212.318 171.681,-226.317 201,-236.5 206.988,-238.58 213.256,-240.596 219.568,-242.518"/>
<polygon fill="midnightblue" stroke="midnightblue" points="218.91,-245.973 229.492,-245.455 220.897,-239.261 218.91,-245.973"/>
</g>
<!-- Node5 -->
<g id="node5" class="node"><title>Node5</title>
<g id="a_node5"><a xlink:href="../adb.adb_protocol.html#adb.adb_protocol.AdbMessage.__init__" xlink:title="adb.adb_protocol.AdbMessage.\l__init__">
<polygon fill="white" stroke="black" points="213,-196.5 213,-226.5 367,-226.5 367,-196.5 213,-196.5"/>
<text text-anchor="start" x="221" y="-214.5" font-family="Helvetica,sans-Serif" font-size="10.00">adb.adb_protocol.AdbMessage.</text>
<text text-anchor="middle" x="290" y="-203.5" font-family="Helvetica,sans-Serif" font-size="10.00">__init__</text>
</a>
</g>
</g>
<!-- Node1&#45;&gt;Node5 -->
<g id="edge4" class="edge"><title>Node1&#45;&gt;Node5</title>
<path fill="none" stroke="midnightblue" d="M165.014,-196.417C177.482,-197.933 190.385,-199.503 202.947,-201.031"/>
<polygon fill="midnightblue" stroke="midnightblue" points="202.583,-204.513 212.933,-202.246 203.429,-197.564 202.583,-204.513"/>
</g>
<!-- Node6 -->
<g id="node6" class="node"><title>Node6</title>
<g id="a_node6"><a xlink:href="../adb.common_cli.html#adb.common.UsbHandle.__init__" xlink:title="adb.common.UsbHandle.\l__init__">
<polygon fill="white" stroke="black" points="226,-147.5 226,-177.5 354,-177.5 354,-147.5 226,-147.5"/>
<text text-anchor="start" x="234" y="-165.5" font-family="Helvetica,sans-Serif" font-size="10.00">adb.common.UsbHandle.</text>
<text text-anchor="middle" x="290" y="-154.5" font-family="Helvetica,sans-Serif" font-size="10.00">__init__</text>
</a>
</g>
</g>
<!-- Node1&#45;&gt;Node6 -->
<g id="edge5" class="edge"><title>Node1&#45;&gt;Node6</title>
<path fill="none" stroke="midnightblue" d="M165.014,-176.98C181.811,-175.018 199.399,-172.964 215.876,-171.04"/>
<polygon fill="midnightblue" stroke="midnightblue" points="216.448,-174.497 225.975,-169.861 215.636,-167.544 216.448,-174.497"/>
</g>
<!-- Node7 -->
<g id="node7" class="node"><title>Node7</title>
<g id="a_node7"><a xlink:href="../adb.common_cli.html#adb.common.TcpHandle.__init__" xlink:title="adb.common.TcpHandle.\l__init__">
<polygon fill="white" stroke="black" points="227,-98.5 227,-128.5 353,-128.5 353,-98.5 227,-98.5"/>
<text text-anchor="start" x="235" y="-116.5" font-family="Helvetica,sans-Serif" font-size="10.00">adb.common.TcpHandle.</text>
<text text-anchor="middle" x="290" y="-105.5" font-family="Helvetica,sans-Serif" font-size="10.00">__init__</text>
</a>
</g>
</g>
<!-- Node1&#45;&gt;Node7 -->
<g id="edge6" class="edge"><title>Node1&#45;&gt;Node7</title>
<path fill="none" stroke="midnightblue" d="M117.565,-171.411C140.818,-161.403 172.463,-148.348 201,-138.5 207.916,-136.113 215.192,-133.776 222.474,-131.548"/>
<polygon fill="midnightblue" stroke="midnightblue" points="223.801,-134.804 232.376,-128.583 221.792,-128.099 223.801,-134.804"/>
</g>
<!-- Node8 -->
<g id="node8" class="node"><title>Node8</title>
<g id="a_node8"><a xlink:href="../adb.fastboot_debug.html#adb.fastboot.FastbootProtocol.__init__" xlink:title="adb.fastboot.FastbootProtocol.\l__init__">
<polygon fill="white" stroke="black" points="214.5,-49.5 214.5,-79.5 365.5,-79.5 365.5,-49.5 214.5,-49.5"/>
<text text-anchor="start" x="222.5" y="-67.5" font-family="Helvetica,sans-Serif" font-size="10.00">adb.fastboot.FastbootProtocol.</text>
<text text-anchor="middle" x="290" y="-56.5" font-family="Helvetica,sans-Serif" font-size="10.00">__init__</text>
</a>
</g>
</g>
<!-- Node1&#45;&gt;Node8 -->
<g id="edge7" class="edge"><title>Node1&#45;&gt;Node8</title>
<path fill="none" stroke="midnightblue" d="M97.6175,-171.426C118.334,-150.164 159.077,-111.51 201,-89.5 205.456,-87.1606 210.157,-85.0173 214.974,-83.0574"/>
<polygon fill="midnightblue" stroke="midnightblue" points="216.233,-86.3233 224.348,-79.5111 213.756,-79.7762 216.233,-86.3233"/>
</g>
<!-- Node9 -->
<g id="node9" class="node"><title>Node9</title>
<g id="a_node9"><a xlink:href="../adb.fastboot_debug.html#adb.fastboot.FastbootCommands.__init__" xlink:title="adb.fastboot.FastbootCommands.\l__init__">
<polygon fill="white" stroke="black" points="207.5,-0.5 207.5,-30.5 372.5,-30.5 372.5,-0.5 207.5,-0.5"/>
<text text-anchor="start" x="215.5" y="-18.5" font-family="Helvetica,sans-Serif" font-size="10.00">adb.fastboot.FastbootCommands.</text>
<text text-anchor="middle" x="290" y="-7.5" font-family="Helvetica,sans-Serif" font-size="10.00">__init__</text>
</a>
</g>
</g>
<!-- Node1&#45;&gt;Node9 -->
<g id="edge8" class="edge"><title>Node1&#45;&gt;Node9</title>
<path fill="none" stroke="midnightblue" d="M91.5773,-171.09C108.032,-141.227 148.375,-75.3534 201,-40.5 204.095,-38.4501 207.359,-36.566 210.734,-34.8347"/>
<polygon fill="midnightblue" stroke="midnightblue" points="212.285,-37.9739 219.892,-30.5995 209.347,-31.6205 212.285,-37.9739"/>
</g>
</g>
</svg>
