<?xml version="1.0" encoding="UTF-8" standalone="no"?>
<!DOCTYPE svg PUBLIC "-//W3C//DTD SVG 1.1//EN"
 "http://www.w3.org/Graphics/SVG/1.1/DTD/svg11.dtd">
<!-- Generated by graphviz version 2.38.0 (20140413.2041)
 -->
<!-- Title: adb.filesync_protocol.FileSyncConnection._Flush Pages: 1 -->
<svg width="471pt" height="88pt"
 viewBox="0.00 0.00 471.00 88.00" xmlns="http://www.w3.org/2000/svg" xmlns:xlink="http://www.w3.org/1999/xlink">
<g id="graph0" class="graph" transform="scale(1 1) rotate(0) translate(4 84)">
<title>adb.filesync_protocol.FileSyncConnection._Flush</title>
<polygon fill="white" stroke="none" points="-4,4 -4,-84 467,-84 467,4 -4,4"/>
<!-- Node1 -->
<g id="node1" class="node"><title>Node1</title>
<polygon fill="#bfbfbf" stroke="black" points="0,-24.5 0,-54.5 128,-54.5 128,-24.5 0,-24.5"/>
<text text-anchor="start" x="8" y="-42.5" font-family="Helvetica,sans-Serif" font-size="10.00">adb.filesync_protocol.File</text>
<text text-anchor="middle" x="64" y="-31.5" font-family="Helvetica,sans-Serif" font-size="10.00">SyncConnection._Flush</text>
</g>
<!-- Node2 -->
<g id="node2" class="node"><title>Node2</title>
<g id="a_node2"><a xlink:href="../adb.filesync_protocol.html#adb.filesync_protocol.FileSyncConnection.Read" xlink:title="adb.filesync_protocol.File\lSyncConnection.Read">
<polygon fill="white" stroke="black" points="164,-49.5 164,-79.5 292,-79.5 292,-49.5 164,-49.5"/>
<text text-anchor="start" x="172" y="-67.5" font-family="Helvetica,sans-Serif" font-size="10.00">adb.filesync_protocol.File</text>
<text text-anchor="middle" x="228" y="-56.5" font-family="Helvetica,sans-Serif" font-size="10.00">SyncConnection.Read</text>
</a>
</g>
</g>
<!-- Node1&#45;&gt;Node2 -->
<g id="edge1" class="edge"><title>Node1&#45;&gt;Node2</title>
<path fill="none" stroke="midnightblue" d="M138.094,-50.7799C146.676,-52.1043 155.378,-53.4472 163.808,-54.7482"/>
<polygon fill="midnightblue" stroke="midnightblue" points="138.514,-47.3034 128.097,-49.2372 137.446,-54.2215 138.514,-47.3034"/>
</g>
<!-- Node4 -->
<g id="node4" class="node"><title>Node4</title>
<g id="a_node4"><a xlink:href="../adb.filesync_protocol.html#adb.filesync_protocol.FileSyncConnection.Send" xlink:title="adb.filesync_protocol.File\lSyncConnection.Send">
<polygon fill="white" stroke="black" points="164,-0.5 164,-30.5 292,-30.5 292,-0.5 164,-0.5"/>
<text text-anchor="start" x="172" y="-18.5" font-family="Helvetica,sans-Serif" font-size="10.00">adb.filesync_protocol.File</text>
<text text-anchor="middle" x="228" y="-7.5" font-family="Helvetica,sans-Serif" font-size="10.00">SyncConnection.Send</text>
</a>
</g>
</g>
<!-- Node1&#45;&gt;Node4 -->
<g id="edge3" class="edge"><title>Node1&#45;&gt;Node4</title>
<path fill="none" stroke="midnightblue" d="M138.094,-28.6713C146.676,-27.3999 155.378,-26.1107 163.808,-24.8617"/>
<polygon fill="midnightblue" stroke="midnightblue" points="137.476,-25.2245 128.097,-30.1523 138.502,-32.1489 137.476,-25.2245"/>
</g>
<!-- Node3 -->
<g id="node3" class="node"><title>Node3</title>
<g id="a_node3"><a xlink:href="../adb.filesync_protocol.html#adb.filesync_protocol.FileSyncConnection.ReadUntil" xlink:title="adb.filesync_protocol.File\lSyncConnection.ReadUntil">
<polygon fill="white" stroke="black" points="328,-49.5 328,-79.5 463,-79.5 463,-49.5 328,-49.5"/>
<text text-anchor="start" x="336" y="-67.5" font-family="Helvetica,sans-Serif" font-size="10.00">adb.filesync_protocol.File</text>
<text text-anchor="middle" x="395.5" y="-56.5" font-family="Helvetica,sans-Serif" font-size="10.00">SyncConnection.ReadUntil</text>
</a>
</g>
</g>
<!-- Node2&#45;&gt;Node3 -->
<g id="edge2" class="edge"><title>Node2&#45;&gt;Node3</title>
<path fill="none" stroke="midnightblue" d="M302.296,-64.5C310.777,-64.5 319.393,-64.5 327.781,-64.5"/>
<polygon fill="midnightblue" stroke="midnightblue" points="302.041,-61.0001 292.041,-64.5 302.041,-68.0001 302.041,-61.0001"/>
</g>
</g>
</svg>
