<?xml version="1.0" encoding="UTF-8" standalone="no"?>
<!DOCTYPE svg PUBLIC "-//W3C//DTD SVG 1.1//EN"
 "http://www.w3.org/Graphics/SVG/1.1/DTD/svg11.dtd">
<!-- Generated by graphviz version 2.38.0 (20140413.2041)
 -->
<!-- Title: adb.adb_protocol._AdbConnection._Send Pages: 1 -->
<svg width="1030pt" height="147pt"
 viewBox="0.00 0.00 1030.00 147.00" xmlns="http://www.w3.org/2000/svg" xmlns:xlink="http://www.w3.org/1999/xlink">
<g id="graph0" class="graph" transform="scale(1 1) rotate(0) translate(4 143)">
<title>adb.adb_protocol._AdbConnection._Send</title>
<polygon fill="white" stroke="none" points="-4,4 -4,-143 1026,-143 1026,4 -4,4"/>
<!-- Node1 -->
<g id="node1" class="node"><title>Node1</title>
<polygon fill="#bfbfbf" stroke="black" points="0,-50 0,-69 197,-69 197,-50 0,-50"/>
<text text-anchor="middle" x="98.5" y="-57" font-family="Helvetica,sans-Serif" font-size="10.00">adb.adb_protocol._AdbConnection._Send</text>
</g>
<!-- Node2 -->
<g id="node2" class="node"><title>Node2</title>
<g id="a_node2"><a xlink:href="../adb.adb_protocol.html#adb.adb_protocol._AdbConnection.Close" xlink:title="adb.adb_protocol._AdbConnection.\lClose">
<polygon fill="white" stroke="black" points="666,-108.5 666,-138.5 835,-138.5 835,-108.5 666,-108.5"/>
<text text-anchor="start" x="674" y="-126.5" font-family="Helvetica,sans-Serif" font-size="10.00">adb.adb_protocol._AdbConnection.</text>
<text text-anchor="middle" x="750.5" y="-115.5" font-family="Helvetica,sans-Serif" font-size="10.00">Close</text>
</a>
</g>
</g>
<!-- Node1&#45;&gt;Node2 -->
<g id="edge1" class="edge"><title>Node1&#45;&gt;Node2</title>
<path fill="none" stroke="midnightblue" d="M134.273,-72.4773C160.892,-81.7811 198.738,-93.6619 233,-99.5 383.878,-125.209 562.889,-127.318 665.633,-125.86"/>
<polygon fill="midnightblue" stroke="midnightblue" points="135.246,-69.1086 124.651,-69.0556 132.9,-75.704 135.246,-69.1086"/>
</g>
<!-- Node4 -->
<g id="node4" class="node"><title>Node4</title>
<g id="a_node4"><a xlink:href="../adb.adb_protocol.html#adb.adb_protocol._AdbConnection.Okay" xlink:title="adb.adb_protocol._AdbConnection.Okay">
<polygon fill="white" stroke="black" points="233,-71 233,-90 425,-90 425,-71 233,-71"/>
<text text-anchor="middle" x="329" y="-78" font-family="Helvetica,sans-Serif" font-size="10.00">adb.adb_protocol._AdbConnection.Okay</text>
</a>
</g>
</g>
<!-- Node1&#45;&gt;Node4 -->
<g id="edge3" class="edge"><title>Node1&#45;&gt;Node4</title>
<path fill="none" stroke="midnightblue" d="M207.144,-69.3929C215.758,-70.1845 224.421,-70.9807 232.939,-71.7635"/>
<polygon fill="midnightblue" stroke="midnightblue" points="207.346,-65.8968 197.067,-68.4668 206.705,-72.8674 207.346,-65.8968"/>
</g>
<!-- Node6 -->
<g id="node6" class="node"><title>Node6</title>
<g id="a_node6"><a xlink:href="../adb.adb_protocol.html#adb.adb_protocol._AdbConnection.Write" xlink:title="adb.adb_protocol._AdbConnection.\lWrite">
<polygon fill="white" stroke="black" points="666,-56.5 666,-86.5 835,-86.5 835,-56.5 666,-56.5"/>
<text text-anchor="start" x="674" y="-74.5" font-family="Helvetica,sans-Serif" font-size="10.00">adb.adb_protocol._AdbConnection.</text>
<text text-anchor="middle" x="750.5" y="-63.5" font-family="Helvetica,sans-Serif" font-size="10.00">Write</text>
</a>
</g>
</g>
<!-- Node1&#45;&gt;Node6 -->
<g id="edge9" class="edge"><title>Node1&#45;&gt;Node6</title>
<path fill="none" stroke="midnightblue" d="M207.546,-55.7556C314.81,-52.8725 483.889,-50.5759 630,-58.5 641.565,-59.1272 653.733,-60.0935 665.697,-61.2223"/>
<polygon fill="midnightblue" stroke="midnightblue" points="207.261,-52.262 197.361,-56.0362 207.454,-59.2594 207.261,-52.262"/>
</g>
<!-- Node7 -->
<g id="node7" class="node"><title>Node7</title>
<g id="a_node7"><a xlink:href="../adb.adb_protocol.html#adb.adb_protocol._AdbConnection.ReadUntilClose" xlink:title="adb.adb_protocol._AdbConnection.\lReadUntilClose">
<polygon fill="white" stroke="black" points="666,-0.5 666,-30.5 835,-30.5 835,-0.5 666,-0.5"/>
<text text-anchor="start" x="674" y="-18.5" font-family="Helvetica,sans-Serif" font-size="10.00">adb.adb_protocol._AdbConnection.</text>
<text text-anchor="middle" x="750.5" y="-7.5" font-family="Helvetica,sans-Serif" font-size="10.00">ReadUntilClose</text>
</a>
</g>
</g>
<!-- Node1&#45;&gt;Node7 -->
<g id="edge8" class="edge"><title>Node1&#45;&gt;Node7</title>
<path fill="none" stroke="midnightblue" d="M207.375,-51.3356C216.044,-50.705 224.668,-50.0863 233,-49.5 385.616,-38.7611 563.677,-27.2683 665.841,-20.774"/>
<polygon fill="midnightblue" stroke="midnightblue" points="206.911,-47.8601 197.193,-52.08 207.421,-54.8415 206.911,-47.8601"/>
</g>
<!-- Node3 -->
<g id="node3" class="node"><title>Node3</title>
<g id="a_node3"><a xlink:href="../adb.common_cli.html#adb.common.UsbHandle.Open" xlink:title="adb.common.UsbHandle.Open">
<polygon fill="white" stroke="black" points="871,-114 871,-133 1022,-133 1022,-114 871,-114"/>
<text text-anchor="middle" x="946.5" y="-121" font-family="Helvetica,sans-Serif" font-size="10.00">adb.common.UsbHandle.Open</text>
</a>
</g>
</g>
<!-- Node2&#45;&gt;Node3 -->
<g id="edge2" class="edge"><title>Node2&#45;&gt;Node3</title>
<path fill="none" stroke="midnightblue" d="M845.267,-123.5C853.885,-123.5 862.538,-123.5 870.952,-123.5"/>
<polygon fill="midnightblue" stroke="midnightblue" points="845.181,-120 835.181,-123.5 845.181,-127 845.181,-120"/>
</g>
<!-- Node5 -->
<g id="node5" class="node"><title>Node5</title>
<g id="a_node5"><a xlink:href="../adb.adb_protocol.html#adb.adb_protocol._AdbConnection.ReadUntil" xlink:title="adb.adb_protocol._AdbConnection.\lReadUntil">
<polygon fill="white" stroke="black" points="461,-68.5 461,-98.5 630,-98.5 630,-68.5 461,-68.5"/>
<text text-anchor="start" x="469" y="-86.5" font-family="Helvetica,sans-Serif" font-size="10.00">adb.adb_protocol._AdbConnection.</text>
<text text-anchor="middle" x="545.5" y="-75.5" font-family="Helvetica,sans-Serif" font-size="10.00">ReadUntil</text>
</a>
</g>
</g>
<!-- Node4&#45;&gt;Node5 -->
<g id="edge4" class="edge"><title>Node4&#45;&gt;Node5</title>
<path fill="none" stroke="midnightblue" d="M435.077,-81.9696C443.663,-82.0897 452.267,-82.21 460.67,-82.3276"/>
<polygon fill="midnightblue" stroke="midnightblue" points="435.068,-78.4692 425.02,-81.8289 434.97,-85.4685 435.068,-78.4692"/>
</g>
<!-- Node5&#45;&gt;Node2 -->
<g id="edge7" class="edge"><title>Node5&#45;&gt;Node2</title>
<path fill="none" stroke="midnightblue" d="M632.848,-100.514C646.274,-103.16 660.062,-105.877 673.244,-108.474"/>
<polygon fill="midnightblue" stroke="midnightblue" points="633.155,-97.0077 622.667,-98.5083 631.802,-103.876 633.155,-97.0077"/>
</g>
<!-- Node5&#45;&gt;Node6 -->
<g id="edge5" class="edge"><title>Node5&#45;&gt;Node6</title>
<path fill="none" stroke="midnightblue" d="M640.256,-77.9578C648.829,-77.451 657.477,-76.9398 665.953,-76.4388"/>
<polygon fill="midnightblue" stroke="midnightblue" points="640.016,-74.4658 630.24,-78.5499 640.429,-81.4536 640.016,-74.4658"/>
</g>
<!-- Node5&#45;&gt;Node7 -->
<g id="edge6" class="edge"><title>Node5&#45;&gt;Node7</title>
<path fill="none" stroke="midnightblue" d="M601.06,-65.2236C633.418,-54.3847 673.937,-40.8116 704.463,-30.5861"/>
<polygon fill="midnightblue" stroke="midnightblue" points="599.671,-61.9978 591.301,-68.4929 601.894,-68.6353 599.671,-61.9978"/>
</g>
</g>
</svg>
