<?xml version="1.0" encoding="UTF-8" standalone="no"?>
<!DOCTYPE svg PUBLIC "-//W3C//DTD SVG 1.1//EN"
 "http://www.w3.org/Graphics/SVG/1.1/DTD/svg11.dtd">
<!-- Generated by graphviz version 2.38.0 (20140413.2041)
 -->
<!-- Title: adb.common.UsbHandle.SerialMatcher Pages: 1 -->
<svg width="888pt" height="88pt"
 viewBox="0.00 0.00 888.00 88.00" xmlns="http://www.w3.org/2000/svg" xmlns:xlink="http://www.w3.org/1999/xlink">
<g id="graph0" class="graph" transform="scale(1 1) rotate(0) translate(4 84)">
<title>adb.common.UsbHandle.SerialMatcher</title>
<polygon fill="white" stroke="none" points="-4,4 -4,-84 884,-84 884,4 -4,4"/>
<!-- Node1 -->
<g id="node1" class="node"><title>Node1</title>
<polygon fill="#bfbfbf" stroke="black" points="0,-24.5 0,-54.5 152,-54.5 152,-24.5 0,-24.5"/>
<text text-anchor="start" x="8" y="-42.5" font-family="Helvetica,sans-Serif" font-size="10.00">adb.common.UsbHandle.Serial</text>
<text text-anchor="middle" x="76" y="-31.5" font-family="Helvetica,sans-Serif" font-size="10.00">Matcher</text>
</g>
<!-- Node2 -->
<g id="node2" class="node"><title>Node2</title>
<g id="a_node2"><a xlink:href="../adb.common_cli.html#adb.common.UsbHandle.FindAndOpen" xlink:title="adb.common.UsbHandle.Find\lAndOpen">
<polygon fill="white" stroke="black" points="188,-46.5 188,-76.5 334,-76.5 334,-46.5 188,-46.5"/>
<text text-anchor="start" x="196" y="-64.5" font-family="Helvetica,sans-Serif" font-size="10.00">adb.common.UsbHandle.Find</text>
<text text-anchor="middle" x="261" y="-53.5" font-family="Helvetica,sans-Serif" font-size="10.00">AndOpen</text>
</a>
</g>
</g>
<!-- Node1&#45;&gt;Node2 -->
<g id="edge1" class="edge"><title>Node1&#45;&gt;Node2</title>
<path fill="none" stroke="midnightblue" d="M152.225,-48.5435C160.565,-49.5461 169.092,-50.5712 177.516,-51.5839"/>
<polygon fill="midnightblue" stroke="midnightblue" points="177.374,-55.0919 187.72,-52.8106 178.21,-48.142 177.374,-55.0919"/>
</g>
<!-- Node3 -->
<g id="node3" class="node"><title>Node3</title>
<g id="a_node3"><a xlink:href="../adb.common_cli.html#adb.common.UsbHandle.Find" xlink:title="adb.common.UsbHandle.Find">
<polygon fill="white" stroke="black" points="370,-30 370,-49 516,-49 516,-30 370,-30"/>
<text text-anchor="middle" x="443" y="-37" font-family="Helvetica,sans-Serif" font-size="10.00">adb.common.UsbHandle.Find</text>
</a>
</g>
</g>
<!-- Node2&#45;&gt;Node3 -->
<g id="edge2" class="edge"><title>Node2&#45;&gt;Node3</title>
<path fill="none" stroke="midnightblue" d="M334.176,-52.6785C342.612,-51.6475 351.265,-50.5898 359.824,-49.5438"/>
<polygon fill="midnightblue" stroke="midnightblue" points="360.307,-53.0109 369.808,-48.3235 359.457,-46.0626 360.307,-53.0109"/>
</g>
<!-- Node3&#45;&gt;Node1 -->
<g id="edge4" class="edge"><title>Node3&#45;&gt;Node1</title>
<path fill="none" stroke="midnightblue" d="M369.966,-37.9806C357.956,-37.7805 345.626,-37.6076 334,-37.5 269.114,-36.8993 252.886,-36.9155 188,-37.5 179.688,-37.5749 171.027,-37.6813 162.37,-37.8065"/>
<polygon fill="midnightblue" stroke="midnightblue" points="162.176,-34.3089 152.23,-37.9613 162.283,-41.3081 162.176,-34.3089"/>
</g>
<!-- Node4 -->
<g id="node4" class="node"><title>Node4</title>
<g id="a_node4"><a xlink:href="../adb.common_cli.html#adb.common.UsbHandle.PortPathMatcher" xlink:title="adb.common.UsbHandle.Port\lPathMatcher">
<polygon fill="white" stroke="black" points="552,-49.5 552,-79.5 698,-79.5 698,-49.5 552,-49.5"/>
<text text-anchor="start" x="560" y="-67.5" font-family="Helvetica,sans-Serif" font-size="10.00">adb.common.UsbHandle.Port</text>
<text text-anchor="middle" x="625" y="-56.5" font-family="Helvetica,sans-Serif" font-size="10.00">PathMatcher</text>
</a>
</g>
</g>
<!-- Node3&#45;&gt;Node4 -->
<g id="edge3" class="edge"><title>Node3&#45;&gt;Node4</title>
<path fill="none" stroke="midnightblue" d="M512.564,-49.0227C522.076,-50.3439 531.927,-51.7121 541.658,-53.0636"/>
<polygon fill="midnightblue" stroke="midnightblue" points="541.35,-56.5543 551.736,-54.4634 542.313,-49.6209 541.35,-56.5543"/>
</g>
<!-- Node5 -->
<g id="node5" class="node"><title>Node5</title>
<g id="a_node5"><a xlink:href="../adb.common_cli.html#adb.common.UsbHandle.FindFirst" xlink:title="adb.common.UsbHandle.Find\lFirst">
<polygon fill="white" stroke="black" points="552,-0.5 552,-30.5 698,-30.5 698,-0.5 552,-0.5"/>
<text text-anchor="start" x="560" y="-18.5" font-family="Helvetica,sans-Serif" font-size="10.00">adb.common.UsbHandle.Find</text>
<text text-anchor="middle" x="625" y="-7.5" font-family="Helvetica,sans-Serif" font-size="10.00">First</text>
</a>
</g>
</g>
<!-- Node3&#45;&gt;Node5 -->
<g id="edge5" class="edge"><title>Node3&#45;&gt;Node5</title>
<path fill="none" stroke="midnightblue" d="M515.399,-29.9801C524.1,-28.82 533.043,-27.6276 541.883,-26.4489"/>
<polygon fill="midnightblue" stroke="midnightblue" points="542.353,-29.9173 551.803,-25.1263 541.428,-22.9787 542.353,-29.9173"/>
</g>
<!-- Node6 -->
<g id="node6" class="node"><title>Node6</title>
<g id="a_node6"><a xlink:href="../adb.common_cli.html#adb.common.UsbHandle.FindDevices" xlink:title="adb.common.UsbHandle.Find\lDevices">
<polygon fill="white" stroke="black" points="734,-0.5 734,-30.5 880,-30.5 880,-0.5 734,-0.5"/>
<text text-anchor="start" x="742" y="-18.5" font-family="Helvetica,sans-Serif" font-size="10.00">adb.common.UsbHandle.Find</text>
<text text-anchor="middle" x="807" y="-7.5" font-family="Helvetica,sans-Serif" font-size="10.00">Devices</text>
</a>
</g>
</g>
<!-- Node5&#45;&gt;Node6 -->
<g id="edge6" class="edge"><title>Node5&#45;&gt;Node6</title>
<path fill="none" stroke="midnightblue" d="M698.176,-15.5C706.52,-15.5 715.077,-15.5 723.544,-15.5"/>
<polygon fill="midnightblue" stroke="midnightblue" points="723.808,-19.0001 733.808,-15.5 723.808,-12.0001 723.808,-19.0001"/>
</g>
</g>
</svg>
