<?xml version="1.0" encoding="UTF-8" standalone="no"?>
<!DOCTYPE svg PUBLIC "-//W3C//DTD SVG 1.1//EN"
 "http://www.w3.org/Graphics/SVG/1.1/DTD/svg11.dtd">
<!-- Generated by graphviz version 2.38.0 (20140413.2041)
 -->
<!-- Title: adb.adb_protocol.find_backspace_runs Pages: 1 -->
<svg width="308pt" height="39pt"
 viewBox="0.00 0.00 308.00 39.00" xmlns="http://www.w3.org/2000/svg" xmlns:xlink="http://www.w3.org/1999/xlink">
<g id="graph0" class="graph" transform="scale(1 1) rotate(0) translate(4 35)">
<title>adb.adb_protocol.find_backspace_runs</title>
<polygon fill="white" stroke="none" points="-4,4 -4,-35 304,-35 304,4 -4,4"/>
<!-- Node1 -->
<g id="node1" class="node"><title>Node1</title>
<polygon fill="#bfbfbf" stroke="black" points="0,-0.5 0,-30.5 110,-30.5 110,-0.5 0,-0.5"/>
<text text-anchor="start" x="8" y="-18.5" font-family="Helvetica,sans-Serif" font-size="10.00">adb.adb_protocol.find</text>
<text text-anchor="middle" x="55" y="-7.5" font-family="Helvetica,sans-Serif" font-size="10.00">_backspace_runs</text>
</g>
<!-- Node2 -->
<g id="node2" class="node"><title>Node2</title>
<g id="a_node2"><a xlink:href="../adb.adb_protocol.html#adb.adb_protocol.AdbMessage.InteractiveShellCommand" xlink:title="adb.adb_protocol.AdbMessage.\lInteractiveShellCommand">
<polygon fill="white" stroke="black" points="146,-0.5 146,-30.5 300,-30.5 300,-0.5 146,-0.5"/>
<text text-anchor="start" x="154" y="-18.5" font-family="Helvetica,sans-Serif" font-size="10.00">adb.adb_protocol.AdbMessage.</text>
<text text-anchor="middle" x="223" y="-7.5" font-family="Helvetica,sans-Serif" font-size="10.00">InteractiveShellCommand</text>
</a>
</g>
</g>
<!-- Node1&#45;&gt;Node2 -->
<g id="edge1" class="edge"><title>Node1&#45;&gt;Node2</title>
<path fill="none" stroke="midnightblue" d="M120.374,-15.5C128.716,-15.5 137.322,-15.5 145.832,-15.5"/>
<polygon fill="midnightblue" stroke="midnightblue" points="120.355,-12.0001 110.355,-15.5 120.355,-19.0001 120.355,-12.0001"/>
</g>
</g>
</svg>
