<?xml version="1.0" encoding="UTF-8" standalone="no"?>
<!DOCTYPE svg PUBLIC "-//W3C//DTD SVG 1.1//EN"
 "http://www.w3.org/Graphics/SVG/1.1/DTD/svg11.dtd">
<!-- Generated by graphviz version 2.38.0 (20140413.2041)
 -->
<!-- Title: adb.adb_protocol.AdbMessage.Open Pages: 1 -->
<svg width="565pt" height="39pt"
 viewBox="0.00 0.00 565.00 39.00" xmlns="http://www.w3.org/2000/svg" xmlns:xlink="http://www.w3.org/1999/xlink">
<g id="graph0" class="graph" transform="scale(1 1) rotate(0) translate(4 35)">
<title>adb.adb_protocol.AdbMessage.Open</title>
<polygon fill="white" stroke="none" points="-4,4 -4,-35 561,-35 561,4 -4,4"/>
<!-- Node1 -->
<g id="node1" class="node"><title>Node1</title>
<polygon fill="#bfbfbf" stroke="black" points="0,-6 0,-25 177,-25 177,-6 0,-6"/>
<text text-anchor="middle" x="88.5" y="-13" font-family="Helvetica,sans-Serif" font-size="10.00">adb.adb_protocol.AdbMessage.Open</text>
</g>
<!-- Node2 -->
<g id="node2" class="node"><title>Node2</title>
<g id="a_node2"><a xlink:href="../adb.adb_protocol.html#adb.adb_protocol.AdbMessage.StreamingCommand" xlink:title="adb.adb_protocol.AdbMessage.\lStreamingCommand">
<polygon fill="white" stroke="black" points="213,-0.5 213,-30.5 367,-30.5 367,-0.5 213,-0.5"/>
<text text-anchor="start" x="221" y="-18.5" font-family="Helvetica,sans-Serif" font-size="10.00">adb.adb_protocol.AdbMessage.</text>
<text text-anchor="middle" x="290" y="-7.5" font-family="Helvetica,sans-Serif" font-size="10.00">StreamingCommand</text>
</a>
</g>
</g>
<!-- Node1&#45;&gt;Node2 -->
<g id="edge1" class="edge"><title>Node1&#45;&gt;Node2</title>
<path fill="none" stroke="midnightblue" d="M187.115,-15.5C195.749,-15.5 204.405,-15.5 212.824,-15.5"/>
<polygon fill="midnightblue" stroke="midnightblue" points="187.004,-12.0001 177.004,-15.5 187.004,-19.0001 187.004,-12.0001"/>
</g>
<!-- Node3 -->
<g id="node3" class="node"><title>Node3</title>
<g id="a_node3"><a xlink:href="../adb.adb_protocol.html#adb.adb_protocol.AdbMessage.Command" xlink:title="adb.adb_protocol.AdbMessage.\lCommand">
<polygon fill="white" stroke="black" points="403,-0.5 403,-30.5 557,-30.5 557,-0.5 403,-0.5"/>
<text text-anchor="start" x="411" y="-18.5" font-family="Helvetica,sans-Serif" font-size="10.00">adb.adb_protocol.AdbMessage.</text>
<text text-anchor="middle" x="480" y="-7.5" font-family="Helvetica,sans-Serif" font-size="10.00">Command</text>
</a>
</g>
</g>
<!-- Node2&#45;&gt;Node3 -->
<g id="edge2" class="edge"><title>Node2&#45;&gt;Node3</title>
<path fill="none" stroke="midnightblue" d="M377.424,-15.5C385.857,-15.5 394.372,-15.5 402.696,-15.5"/>
<polygon fill="midnightblue" stroke="midnightblue" points="377.196,-12.0001 367.196,-15.5 377.196,-19.0001 377.196,-12.0001"/>
</g>
</g>
</svg>
