<?xml version="1.0" encoding="UTF-8" standalone="no"?>
<!DOCTYPE svg PUBLIC "-//W3C//DTD SVG 1.1//EN"
 "http://www.w3.org/Graphics/SVG/1.1/DTD/svg11.dtd">
<!-- Generated by graphviz version 2.38.0 (20140413.2041)
 -->
<!-- Title: adb.adb_protocol.AdbMessage.CalculateChecksum Pages: 1 -->
<svg width="1012pt" height="166pt"
 viewBox="0.00 0.00 1012.00 165.50" xmlns="http://www.w3.org/2000/svg" xmlns:xlink="http://www.w3.org/1999/xlink">
<g id="graph0" class="graph" transform="scale(1 1) rotate(0) translate(4 161.5)">
<title>adb.adb_protocol.AdbMessage.CalculateChecksum</title>
<polygon fill="white" stroke="none" points="-4,4 -4,-161.5 1008,-161.5 1008,4 -4,4"/>
<!-- Node1 -->
<g id="node1" class="node"><title>Node1</title>
<polygon fill="#bfbfbf" stroke="black" points="0,-87.5 0,-117.5 154,-117.5 154,-87.5 0,-87.5"/>
<text text-anchor="start" x="8" y="-105.5" font-family="Helvetica,sans-Serif" font-size="10.00">adb.adb_protocol.AdbMessage.</text>
<text text-anchor="middle" x="77" y="-94.5" font-family="Helvetica,sans-Serif" font-size="10.00">CalculateChecksum</text>
</g>
<!-- Node2 -->
<g id="node2" class="node"><title>Node2</title>
<g id="a_node2"><a xlink:href="../adb.adb_protocol.html#adb.adb_protocol.AdbMessage.checksum" xlink:title="adb.adb_protocol.AdbMessage.checksum">
<polygon fill="white" stroke="black" points="190,-125 190,-144 389,-144 389,-125 190,-125"/>
<text text-anchor="middle" x="289.5" y="-132" font-family="Helvetica,sans-Serif" font-size="10.00">adb.adb_protocol.AdbMessage.checksum</text>
</a>
</g>
</g>
<!-- Node1&#45;&gt;Node2 -->
<g id="edge1" class="edge"><title>Node1&#45;&gt;Node2</title>
<path fill="none" stroke="midnightblue" d="M164.33,-115.624C184.97,-118.761 206.614,-122.052 225.944,-124.99"/>
<polygon fill="midnightblue" stroke="midnightblue" points="164.705,-112.141 154.293,-114.098 163.653,-119.061 164.705,-112.141"/>
</g>
<!-- Node5 -->
<g id="node5" class="node"><title>Node5</title>
<g id="a_node5"><a xlink:href="../adb.adb_protocol.html#adb.adb_protocol.AdbMessage.Read" xlink:title="adb.adb_protocol.AdbMessage.Read">
<polygon fill="white" stroke="black" points="201,-62 201,-81 378,-81 378,-62 201,-62"/>
<text text-anchor="middle" x="289.5" y="-69" font-family="Helvetica,sans-Serif" font-size="10.00">adb.adb_protocol.AdbMessage.Read</text>
</a>
</g>
</g>
<!-- Node1&#45;&gt;Node5 -->
<g id="edge4" class="edge"><title>Node1&#45;&gt;Node5</title>
<path fill="none" stroke="midnightblue" d="M164.299,-89.7909C184.228,-86.856 205.094,-83.783 223.911,-81.0119"/>
<polygon fill="midnightblue" stroke="midnightblue" points="163.676,-86.3448 154.293,-91.2645 164.696,-93.2701 163.676,-86.3448"/>
</g>
<!-- Node3 -->
<g id="node3" class="node"><title>Node3</title>
<g id="a_node3"><a xlink:href="../adb.adb_protocol.html#adb.adb_protocol.AdbMessage.Pack" xlink:title="adb.adb_protocol.AdbMessage.Pack">
<polygon fill="white" stroke="black" points="425.5,-138 425.5,-157 601.5,-157 601.5,-138 425.5,-138"/>
<text text-anchor="middle" x="513.5" y="-145" font-family="Helvetica,sans-Serif" font-size="10.00">adb.adb_protocol.AdbMessage.Pack</text>
</a>
</g>
</g>
<!-- Node2&#45;&gt;Node3 -->
<g id="edge2" class="edge"><title>Node2&#45;&gt;Node3</title>
<path fill="none" stroke="midnightblue" d="M399.361,-140.875C408.063,-141.384 416.784,-141.895 425.307,-142.394"/>
<polygon fill="midnightblue" stroke="midnightblue" points="399.353,-137.368 389.165,-140.278 398.944,-144.356 399.353,-137.368"/>
</g>
<!-- Node4 -->
<g id="node4" class="node"><title>Node4</title>
<g id="a_node4"><a xlink:href="../adb.adb_protocol.html#adb.adb_protocol.AdbMessage.Send" xlink:title="adb.adb_protocol.AdbMessage.Send">
<polygon fill="white" stroke="black" points="638,-138 638,-157 814,-157 814,-138 638,-138"/>
<text text-anchor="middle" x="726" y="-145" font-family="Helvetica,sans-Serif" font-size="10.00">adb.adb_protocol.AdbMessage.Send</text>
</a>
</g>
</g>
<!-- Node3&#45;&gt;Node4 -->
<g id="edge3" class="edge"><title>Node3&#45;&gt;Node4</title>
<path fill="none" stroke="midnightblue" d="M611.816,-147.5C620.527,-147.5 629.311,-147.5 637.927,-147.5"/>
<polygon fill="midnightblue" stroke="midnightblue" points="611.638,-144 601.638,-147.5 611.638,-151 611.638,-144"/>
</g>
<!-- Node6 -->
<g id="node6" class="node"><title>Node6</title>
<g id="a_node6"><a xlink:href="../adb.adb_protocol.html#adb.adb_protocol.AdbMessage.Connect" xlink:title="adb.adb_protocol.AdbMessage.\lConnect">
<polygon fill="white" stroke="black" points="436.5,-88.5 436.5,-118.5 590.5,-118.5 590.5,-88.5 436.5,-88.5"/>
<text text-anchor="start" x="444.5" y="-106.5" font-family="Helvetica,sans-Serif" font-size="10.00">adb.adb_protocol.AdbMessage.</text>
<text text-anchor="middle" x="513.5" y="-95.5" font-family="Helvetica,sans-Serif" font-size="10.00">Connect</text>
</a>
</g>
</g>
<!-- Node5&#45;&gt;Node6 -->
<g id="edge5" class="edge"><title>Node5&#45;&gt;Node6</title>
<path fill="none" stroke="midnightblue" d="M366.667,-82.479C389.14,-85.7183 413.732,-89.2631 436.212,-92.5035"/>
<polygon fill="midnightblue" stroke="midnightblue" points="366.903,-78.977 356.506,-81.0144 365.905,-85.9054 366.903,-78.977"/>
</g>
<!-- Node7 -->
<g id="node7" class="node"><title>Node7</title>
<g id="a_node7"><a xlink:href="../adb.adb_protocol.html#adb.adb_protocol.AdbMessage.Open" xlink:title="adb.adb_protocol.AdbMessage.Open">
<polygon fill="white" stroke="black" points="425,-50 425,-69 602,-69 602,-50 425,-50"/>
<text text-anchor="middle" x="513.5" y="-57" font-family="Helvetica,sans-Serif" font-size="10.00">adb.adb_protocol.AdbMessage.Open</text>
</a>
</g>
</g>
<!-- Node5&#45;&gt;Node7 -->
<g id="edge6" class="edge"><title>Node5&#45;&gt;Node7</title>
<path fill="none" stroke="midnightblue" d="M388.337,-66.2115C400.432,-65.5577 412.738,-64.8925 424.67,-64.2476"/>
<polygon fill="midnightblue" stroke="midnightblue" points="388.037,-62.7225 378.24,-66.7573 388.415,-69.7123 388.037,-62.7225"/>
</g>
<!-- Node10 -->
<g id="node10" class="node"><title>Node10</title>
<g id="a_node10"><a xlink:href="../adb.filesync_protocol.html#adb.filesync_protocol.FileSyncConnection.ReadUntil" xlink:title="adb.filesync_protocol.File\lSyncConnection.ReadUntil">
<polygon fill="white" stroke="black" points="446,-0.5 446,-30.5 581,-30.5 581,-0.5 446,-0.5"/>
<text text-anchor="start" x="454" y="-18.5" font-family="Helvetica,sans-Serif" font-size="10.00">adb.filesync_protocol.File</text>
<text text-anchor="middle" x="513.5" y="-7.5" font-family="Helvetica,sans-Serif" font-size="10.00">SyncConnection.ReadUntil</text>
</a>
</g>
</g>
<!-- Node5&#45;&gt;Node10 -->
<g id="edge9" class="edge"><title>Node5&#45;&gt;Node10</title>
<path fill="none" stroke="midnightblue" d="M338.44,-59.4071C372.021,-50.936 417.126,-39.5583 453.006,-30.5075"/>
<polygon fill="midnightblue" stroke="midnightblue" points="337.251,-56.0972 328.411,-61.9369 338.963,-62.8846 337.251,-56.0972"/>
</g>
<!-- Node8 -->
<g id="node8" class="node"><title>Node8</title>
<g id="a_node8"><a xlink:href="../adb.adb_protocol.html#adb.adb_protocol.AdbMessage.StreamingCommand" xlink:title="adb.adb_protocol.AdbMessage.\lStreamingCommand">
<polygon fill="white" stroke="black" points="649,-44.5 649,-74.5 803,-74.5 803,-44.5 649,-44.5"/>
<text text-anchor="start" x="657" y="-62.5" font-family="Helvetica,sans-Serif" font-size="10.00">adb.adb_protocol.AdbMessage.</text>
<text text-anchor="middle" x="726" y="-51.5" font-family="Helvetica,sans-Serif" font-size="10.00">StreamingCommand</text>
</a>
</g>
</g>
<!-- Node7&#45;&gt;Node8 -->
<g id="edge7" class="edge"><title>Node7&#45;&gt;Node8</title>
<path fill="none" stroke="midnightblue" d="M612.449,-59.5C624.648,-59.5 636.979,-59.5 648.782,-59.5"/>
<polygon fill="midnightblue" stroke="midnightblue" points="612.247,-56.0001 602.247,-59.5 612.247,-63.0001 612.247,-56.0001"/>
</g>
<!-- Node9 -->
<g id="node9" class="node"><title>Node9</title>
<g id="a_node9"><a xlink:href="../adb.adb_protocol.html#adb.adb_protocol.AdbMessage.Command" xlink:title="adb.adb_protocol.AdbMessage.\lCommand">
<polygon fill="white" stroke="black" points="850,-44.5 850,-74.5 1004,-74.5 1004,-44.5 850,-44.5"/>
<text text-anchor="start" x="858" y="-62.5" font-family="Helvetica,sans-Serif" font-size="10.00">adb.adb_protocol.AdbMessage.</text>
<text text-anchor="middle" x="927" y="-51.5" font-family="Helvetica,sans-Serif" font-size="10.00">Command</text>
</a>
</g>
</g>
<!-- Node8&#45;&gt;Node9 -->
<g id="edge8" class="edge"><title>Node8&#45;&gt;Node9</title>
<path fill="none" stroke="midnightblue" d="M813.263,-59.5C825.475,-59.5 837.957,-59.5 849.957,-59.5"/>
<polygon fill="midnightblue" stroke="midnightblue" points="813.085,-56.0001 803.085,-59.5 813.085,-63.0001 813.085,-56.0001"/>
</g>
</g>
</svg>
