<?xml version="1.0" encoding="UTF-8" standalone="no"?>
<!DOCTYPE svg PUBLIC "-//W3C//DTD SVG 1.1//EN"
 "http://www.w3.org/Graphics/SVG/1.1/DTD/svg11.dtd">
<!-- Generated by graphviz version 2.38.0 (20140413.2041)
 -->
<!-- Title: adb.adb_protocol._AdbConnection.ReadUntil Pages: 1 -->
<svg width="569pt" height="137pt"
 viewBox="0.00 0.00 569.00 137.00" xmlns="http://www.w3.org/2000/svg" xmlns:xlink="http://www.w3.org/1999/xlink">
<g id="graph0" class="graph" transform="scale(1 1) rotate(0) translate(4 133)">
<title>adb.adb_protocol._AdbConnection.ReadUntil</title>
<polygon fill="white" stroke="none" points="-4,4 -4,-133 565,-133 565,4 -4,4"/>
<!-- Node1 -->
<g id="node1" class="node"><title>Node1</title>
<polygon fill="#bfbfbf" stroke="black" points="0,-49.5 0,-79.5 169,-79.5 169,-49.5 0,-49.5"/>
<text text-anchor="start" x="8" y="-67.5" font-family="Helvetica,sans-Serif" font-size="10.00">adb.adb_protocol._AdbConnection.</text>
<text text-anchor="middle" x="84.5" y="-56.5" font-family="Helvetica,sans-Serif" font-size="10.00">ReadUntil</text>
</g>
<!-- Node2 -->
<g id="node2" class="node"><title>Node2</title>
<g id="a_node2"><a xlink:href="../adb.adb_protocol.html#adb.adb_protocol._AdbConnection.Close" xlink:title="adb.adb_protocol._AdbConnection.\lClose">
<polygon fill="white" stroke="black" points="205,-98.5 205,-128.5 374,-128.5 374,-98.5 205,-98.5"/>
<text text-anchor="start" x="213" y="-116.5" font-family="Helvetica,sans-Serif" font-size="10.00">adb.adb_protocol._AdbConnection.</text>
<text text-anchor="middle" x="289.5" y="-105.5" font-family="Helvetica,sans-Serif" font-size="10.00">Close</text>
</a>
</g>
</g>
<!-- Node1&#45;&gt;Node2 -->
<g id="edge1" class="edge"><title>Node1&#45;&gt;Node2</title>
<path fill="none" stroke="midnightblue" d="M157.602,-81.9038C180.058,-87.3243 204.616,-93.252 226.332,-98.4938"/>
<polygon fill="midnightblue" stroke="midnightblue" points="158.328,-78.4788 147.786,-79.5346 156.686,-85.2834 158.328,-78.4788"/>
</g>
<!-- Node4 -->
<g id="node4" class="node"><title>Node4</title>
<g id="a_node4"><a xlink:href="../adb.adb_protocol.html#adb.adb_protocol._AdbConnection.ReadUntilClose" xlink:title="adb.adb_protocol._AdbConnection.\lReadUntilClose">
<polygon fill="white" stroke="black" points="205,-49.5 205,-79.5 374,-79.5 374,-49.5 205,-49.5"/>
<text text-anchor="start" x="213" y="-67.5" font-family="Helvetica,sans-Serif" font-size="10.00">adb.adb_protocol._AdbConnection.</text>
<text text-anchor="middle" x="289.5" y="-56.5" font-family="Helvetica,sans-Serif" font-size="10.00">ReadUntilClose</text>
</a>
</g>
</g>
<!-- Node1&#45;&gt;Node4 -->
<g id="edge3" class="edge"><title>Node1&#45;&gt;Node4</title>
<path fill="none" stroke="midnightblue" d="M179.256,-64.5C187.829,-64.5 196.477,-64.5 204.953,-64.5"/>
<polygon fill="midnightblue" stroke="midnightblue" points="179.24,-61.0001 169.24,-64.5 179.24,-68.0001 179.24,-61.0001"/>
</g>
<!-- Node5 -->
<g id="node5" class="node"><title>Node5</title>
<g id="a_node5"><a xlink:href="../adb.adb_protocol.html#adb.adb_protocol._AdbConnection.Write" xlink:title="adb.adb_protocol._AdbConnection.\lWrite">
<polygon fill="white" stroke="black" points="205,-0.5 205,-30.5 374,-30.5 374,-0.5 205,-0.5"/>
<text text-anchor="start" x="213" y="-18.5" font-family="Helvetica,sans-Serif" font-size="10.00">adb.adb_protocol._AdbConnection.</text>
<text text-anchor="middle" x="289.5" y="-7.5" font-family="Helvetica,sans-Serif" font-size="10.00">Write</text>
</a>
</g>
</g>
<!-- Node1&#45;&gt;Node5 -->
<g id="edge4" class="edge"><title>Node1&#45;&gt;Node5</title>
<path fill="none" stroke="midnightblue" d="M157.602,-47.0962C180.058,-41.6757 204.616,-35.748 226.332,-30.5062"/>
<polygon fill="midnightblue" stroke="midnightblue" points="156.686,-43.7166 147.786,-49.4654 158.328,-50.5212 156.686,-43.7166"/>
</g>
<!-- Node3 -->
<g id="node3" class="node"><title>Node3</title>
<g id="a_node3"><a xlink:href="../adb.common_cli.html#adb.common.UsbHandle.Open" xlink:title="adb.common.UsbHandle.Open">
<polygon fill="white" stroke="black" points="410,-104 410,-123 561,-123 561,-104 410,-104"/>
<text text-anchor="middle" x="485.5" y="-111" font-family="Helvetica,sans-Serif" font-size="10.00">adb.common.UsbHandle.Open</text>
</a>
</g>
</g>
<!-- Node2&#45;&gt;Node3 -->
<g id="edge2" class="edge"><title>Node2&#45;&gt;Node3</title>
<path fill="none" stroke="midnightblue" d="M384.267,-113.5C392.885,-113.5 401.538,-113.5 409.952,-113.5"/>
<polygon fill="midnightblue" stroke="midnightblue" points="384.181,-110 374.181,-113.5 384.181,-117 384.181,-110"/>
</g>
</g>
</svg>
