<?xml version="1.0" encoding="UTF-8" standalone="no"?>
<!DOCTYPE svg PUBLIC "-//W3C//DTD SVG 1.1//EN"
 "http://www.w3.org/Graphics/SVG/1.1/DTD/svg11.dtd">
<!-- Generated by graphviz version 2.38.0 (20140413.2041)
 -->
<!-- Title: adb.adb_protocol.AdbMessage.Read Pages: 1 -->
<svg width="778pt" height="127pt"
 viewBox="0.00 0.00 778.00 127.00" xmlns="http://www.w3.org/2000/svg" xmlns:xlink="http://www.w3.org/1999/xlink">
<g id="graph0" class="graph" transform="scale(1 1) rotate(0) translate(4 123)">
<title>adb.adb_protocol.AdbMessage.Read</title>
<polygon fill="white" stroke="none" points="-4,4 -4,-123 774,-123 774,4 -4,4"/>
<!-- Node1 -->
<g id="node1" class="node"><title>Node1</title>
<polygon fill="#bfbfbf" stroke="black" points="0,-50 0,-69 177,-69 177,-50 0,-50"/>
<text text-anchor="middle" x="88.5" y="-57" font-family="Helvetica,sans-Serif" font-size="10.00">adb.adb_protocol.AdbMessage.Read</text>
</g>
<!-- Node2 -->
<g id="node2" class="node"><title>Node2</title>
<g id="a_node2"><a xlink:href="../adb.adb_protocol.html#adb.adb_protocol.AdbMessage.Connect" xlink:title="adb.adb_protocol.AdbMessage.\lConnect">
<polygon fill="white" stroke="black" points="224.5,-88.5 224.5,-118.5 378.5,-118.5 378.5,-88.5 224.5,-88.5"/>
<text text-anchor="start" x="232.5" y="-106.5" font-family="Helvetica,sans-Serif" font-size="10.00">adb.adb_protocol.AdbMessage.</text>
<text text-anchor="middle" x="301.5" y="-95.5" font-family="Helvetica,sans-Serif" font-size="10.00">Connect</text>
</a>
</g>
</g>
<!-- Node1&#45;&gt;Node2 -->
<g id="edge1" class="edge"><title>Node1&#45;&gt;Node2</title>
<path fill="none" stroke="midnightblue" d="M145.133,-71.1013C170.583,-76.4083 201.061,-82.7638 228.255,-88.4346"/>
<polygon fill="midnightblue" stroke="midnightblue" points="145.788,-67.6625 135.284,-69.0473 144.359,-74.5151 145.788,-67.6625"/>
</g>
<!-- Node3 -->
<g id="node3" class="node"><title>Node3</title>
<g id="a_node3"><a xlink:href="../adb.adb_protocol.html#adb.adb_protocol.AdbMessage.Open" xlink:title="adb.adb_protocol.AdbMessage.Open">
<polygon fill="white" stroke="black" points="213,-50 213,-69 390,-69 390,-50 213,-50"/>
<text text-anchor="middle" x="301.5" y="-57" font-family="Helvetica,sans-Serif" font-size="10.00">adb.adb_protocol.AdbMessage.Open</text>
</a>
</g>
</g>
<!-- Node1&#45;&gt;Node3 -->
<g id="edge2" class="edge"><title>Node1&#45;&gt;Node3</title>
<path fill="none" stroke="midnightblue" d="M187.423,-59.5C195.884,-59.5 204.411,-59.5 212.783,-59.5"/>
<polygon fill="midnightblue" stroke="midnightblue" points="187.15,-56.0001 177.15,-59.5 187.15,-63.0001 187.15,-56.0001"/>
</g>
<!-- Node6 -->
<g id="node6" class="node"><title>Node6</title>
<g id="a_node6"><a xlink:href="../adb.filesync_protocol.html#adb.filesync_protocol.FileSyncConnection.ReadUntil" xlink:title="adb.filesync_protocol.File\lSyncConnection.ReadUntil">
<polygon fill="white" stroke="black" points="234,-0.5 234,-30.5 369,-30.5 369,-0.5 234,-0.5"/>
<text text-anchor="start" x="242" y="-18.5" font-family="Helvetica,sans-Serif" font-size="10.00">adb.filesync_protocol.File</text>
<text text-anchor="middle" x="301.5" y="-7.5" font-family="Helvetica,sans-Serif" font-size="10.00">SyncConnection.ReadUntil</text>
</a>
</g>
</g>
<!-- Node1&#45;&gt;Node6 -->
<g id="edge5" class="edge"><title>Node1&#45;&gt;Node6</title>
<path fill="none" stroke="midnightblue" d="M145.408,-47.8414C172.606,-42.1698 205.497,-35.311 233.978,-29.3719"/>
<polygon fill="midnightblue" stroke="midnightblue" points="144.359,-44.4849 135.284,-49.9527 145.788,-51.3375 144.359,-44.4849"/>
</g>
<!-- Node4 -->
<g id="node4" class="node"><title>Node4</title>
<g id="a_node4"><a xlink:href="../adb.adb_protocol.html#adb.adb_protocol.AdbMessage.StreamingCommand" xlink:title="adb.adb_protocol.AdbMessage.\lStreamingCommand">
<polygon fill="white" stroke="black" points="426,-44.5 426,-74.5 580,-74.5 580,-44.5 426,-44.5"/>
<text text-anchor="start" x="434" y="-62.5" font-family="Helvetica,sans-Serif" font-size="10.00">adb.adb_protocol.AdbMessage.</text>
<text text-anchor="middle" x="503" y="-51.5" font-family="Helvetica,sans-Serif" font-size="10.00">StreamingCommand</text>
</a>
</g>
</g>
<!-- Node3&#45;&gt;Node4 -->
<g id="edge3" class="edge"><title>Node3&#45;&gt;Node4</title>
<path fill="none" stroke="midnightblue" d="M400.115,-59.5C408.749,-59.5 417.405,-59.5 425.824,-59.5"/>
<polygon fill="midnightblue" stroke="midnightblue" points="400.004,-56.0001 390.004,-59.5 400.004,-63.0001 400.004,-56.0001"/>
</g>
<!-- Node5 -->
<g id="node5" class="node"><title>Node5</title>
<g id="a_node5"><a xlink:href="../adb.adb_protocol.html#adb.adb_protocol.AdbMessage.Command" xlink:title="adb.adb_protocol.AdbMessage.\lCommand">
<polygon fill="white" stroke="black" points="616,-44.5 616,-74.5 770,-74.5 770,-44.5 616,-44.5"/>
<text text-anchor="start" x="624" y="-62.5" font-family="Helvetica,sans-Serif" font-size="10.00">adb.adb_protocol.AdbMessage.</text>
<text text-anchor="middle" x="693" y="-51.5" font-family="Helvetica,sans-Serif" font-size="10.00">Command</text>
</a>
</g>
</g>
<!-- Node4&#45;&gt;Node5 -->
<g id="edge4" class="edge"><title>Node4&#45;&gt;Node5</title>
<path fill="none" stroke="midnightblue" d="M590.424,-59.5C598.857,-59.5 607.372,-59.5 615.696,-59.5"/>
<polygon fill="midnightblue" stroke="midnightblue" points="590.196,-56.0001 580.196,-59.5 590.196,-63.0001 590.196,-56.0001"/>
</g>
</g>
</svg>
