<?xml version="1.0" encoding="UTF-8" standalone="no"?>
<!DOCTYPE svg PUBLIC "-//W3C//DTD SVG 1.1//EN"
 "http://www.w3.org/Graphics/SVG/1.1/DTD/svg11.dtd">
<!-- Generated by graphviz version 2.38.0 (20140413.2041)
 -->
<!-- Title: adb.common.UsbHandle.FindAndOpen Pages: 1 -->
<svg width="706pt" height="137pt"
 viewBox="0.00 0.00 706.00 137.00" xmlns="http://www.w3.org/2000/svg" xmlns:xlink="http://www.w3.org/1999/xlink">
<g id="graph0" class="graph" transform="scale(1 1) rotate(0) translate(4 133)">
<title>adb.common.UsbHandle.FindAndOpen</title>
<polygon fill="white" stroke="none" points="-4,4 -4,-133 702,-133 702,4 -4,4"/>
<!-- Node1 -->
<g id="node1" class="node"><title>Node1</title>
<polygon fill="#bfbfbf" stroke="black" points="0,-25.5 0,-55.5 146,-55.5 146,-25.5 0,-25.5"/>
<text text-anchor="start" x="8" y="-43.5" font-family="Helvetica,sans-Serif" font-size="10.00">adb.common.UsbHandle.Find</text>
<text text-anchor="middle" x="73" y="-32.5" font-family="Helvetica,sans-Serif" font-size="10.00">AndOpen</text>
</g>
<!-- Node2 -->
<g id="node2" class="node"><title>Node2</title>
<g id="a_node2"><a xlink:href="../adb.common_cli.html#adb.common.UsbHandle.Find" xlink:title="adb.common.UsbHandle.Find">
<polygon fill="white" stroke="black" points="182,-52 182,-71 328,-71 328,-52 182,-52"/>
<text text-anchor="middle" x="255" y="-59" font-family="Helvetica,sans-Serif" font-size="10.00">adb.common.UsbHandle.Find</text>
</a>
</g>
</g>
<!-- Node1&#45;&gt;Node2 -->
<g id="edge1" class="edge"><title>Node1&#45;&gt;Node2</title>
<path fill="none" stroke="midnightblue" d="M146.176,-48.9205C154.612,-49.9047 163.265,-50.9143 171.824,-51.9128"/>
<polygon fill="midnightblue" stroke="midnightblue" points="171.47,-55.3951 181.808,-53.0776 172.281,-48.4423 171.47,-55.3951"/>
</g>
<!-- Node3 -->
<g id="node3" class="node"><title>Node3</title>
<g id="a_node3"><a xlink:href="../adb.common_cli.html#adb.common.UsbHandle.PortPathMatcher" xlink:title="adb.common.UsbHandle.Port\lPathMatcher">
<polygon fill="white" stroke="black" points="367,-98.5 367,-128.5 513,-128.5 513,-98.5 367,-98.5"/>
<text text-anchor="start" x="375" y="-116.5" font-family="Helvetica,sans-Serif" font-size="10.00">adb.common.UsbHandle.Port</text>
<text text-anchor="middle" x="440" y="-105.5" font-family="Helvetica,sans-Serif" font-size="10.00">PathMatcher</text>
</a>
</g>
</g>
<!-- Node2&#45;&gt;Node3 -->
<g id="edge2" class="edge"><title>Node2&#45;&gt;Node3</title>
<path fill="none" stroke="midnightblue" d="M289.565,-71.0376C313.761,-77.913 347.139,-87.3974 376.213,-95.6589"/>
<polygon fill="midnightblue" stroke="midnightblue" points="375.312,-99.0415 385.888,-98.4082 377.226,-92.308 375.312,-99.0415"/>
</g>
<!-- Node4 -->
<g id="node4" class="node"><title>Node4</title>
<g id="a_node4"><a xlink:href="../adb.common_cli.html#adb.common.UsbHandle.SerialMatcher" xlink:title="adb.common.UsbHandle.Serial\lMatcher">
<polygon fill="white" stroke="black" points="364,-0.5 364,-30.5 516,-30.5 516,-0.5 364,-0.5"/>
<text text-anchor="start" x="372" y="-18.5" font-family="Helvetica,sans-Serif" font-size="10.00">adb.common.UsbHandle.Serial</text>
<text text-anchor="middle" x="440" y="-7.5" font-family="Helvetica,sans-Serif" font-size="10.00">Matcher</text>
</a>
</g>
</g>
<!-- Node2&#45;&gt;Node4 -->
<g id="edge3" class="edge"><title>Node2&#45;&gt;Node4</title>
<path fill="none" stroke="midnightblue" d="M293.918,-51.9688C315.637,-46.5093 343.575,-39.4865 369.127,-33.0637"/>
<polygon fill="midnightblue" stroke="midnightblue" points="370.311,-36.375 379.156,-30.5427 368.605,-29.5862 370.311,-36.375"/>
</g>
<!-- Node5 -->
<g id="node5" class="node"><title>Node5</title>
<g id="a_node5"><a xlink:href="../adb.common_cli.html#adb.common.UsbHandle.FindFirst" xlink:title="adb.common.UsbHandle.Find\lFirst">
<polygon fill="white" stroke="black" points="367,-49.5 367,-79.5 513,-79.5 513,-49.5 367,-49.5"/>
<text text-anchor="start" x="375" y="-67.5" font-family="Helvetica,sans-Serif" font-size="10.00">adb.common.UsbHandle.Find</text>
<text text-anchor="middle" x="440" y="-56.5" font-family="Helvetica,sans-Serif" font-size="10.00">First</text>
</a>
</g>
</g>
<!-- Node2&#45;&gt;Node5 -->
<g id="edge5" class="edge"><title>Node2&#45;&gt;Node5</title>
<path fill="none" stroke="midnightblue" d="M328.064,-62.6814C337.392,-62.8343 347.003,-62.9919 356.484,-63.1473"/>
<polygon fill="midnightblue" stroke="midnightblue" points="356.646,-66.6503 366.702,-63.3148 356.761,-59.6512 356.646,-66.6503"/>
</g>
<!-- Node4&#45;&gt;Node1 -->
<g id="edge4" class="edge"><title>Node4&#45;&gt;Node1</title>
<path fill="none" stroke="midnightblue" d="M363.901,-20.6438C303.447,-24.7844 218.587,-30.5968 156.297,-34.8632"/>
<polygon fill="midnightblue" stroke="midnightblue" points="155.85,-31.3856 146.112,-35.5608 156.328,-38.3692 155.85,-31.3856"/>
</g>
<!-- Node6 -->
<g id="node6" class="node"><title>Node6</title>
<g id="a_node6"><a xlink:href="../adb.common_cli.html#adb.common.UsbHandle.FindDevices" xlink:title="adb.common.UsbHandle.Find\lDevices">
<polygon fill="white" stroke="black" points="552,-49.5 552,-79.5 698,-79.5 698,-49.5 552,-49.5"/>
<text text-anchor="start" x="560" y="-67.5" font-family="Helvetica,sans-Serif" font-size="10.00">adb.common.UsbHandle.Find</text>
<text text-anchor="middle" x="625" y="-56.5" font-family="Helvetica,sans-Serif" font-size="10.00">Devices</text>
</a>
</g>
</g>
<!-- Node5&#45;&gt;Node6 -->
<g id="edge6" class="edge"><title>Node5&#45;&gt;Node6</title>
<path fill="none" stroke="midnightblue" d="M513.064,-64.5C522.392,-64.5 532.003,-64.5 541.484,-64.5"/>
<polygon fill="midnightblue" stroke="midnightblue" points="541.702,-68.0001 551.702,-64.5 541.702,-61.0001 541.702,-68.0001"/>
</g>
</g>
</svg>
