<?xml version="1.0" encoding="UTF-8" standalone="no"?>
<!DOCTYPE svg PUBLIC "-//W3C//DTD SVG 1.1//EN"
 "http://www.w3.org/Graphics/SVG/1.1/DTD/svg11.dtd">
<!-- Generated by graphviz version 2.38.0 (20140413.2041)
 -->
<!-- Title: adb.common.UsbHandle.usb_info Pages: 1 -->
<svg width="566pt" height="122pt"
 viewBox="0.00 0.00 566.00 121.50" xmlns="http://www.w3.org/2000/svg" xmlns:xlink="http://www.w3.org/1999/xlink">
<g id="graph0" class="graph" transform="scale(1 1) rotate(0) translate(4 117.5)">
<title>adb.common.UsbHandle.usb_info</title>
<polygon fill="white" stroke="none" points="-4,4 -4,-117.5 562,-117.5 562,4 -4,4"/>
<!-- Node1 -->
<g id="node1" class="node"><title>Node1</title>
<polygon fill="#bfbfbf" stroke="black" points="0,-44.5 0,-63.5 164,-63.5 164,-44.5 0,-44.5"/>
<text text-anchor="middle" x="82" y="-51.5" font-family="Helvetica,sans-Serif" font-size="10.00">adb.common.UsbHandle.usb_info</text>
</g>
<!-- Node2 -->
<g id="node2" class="node"><title>Node2</title>
<g id="a_node2"><a xlink:href="../adb.common_cli.html#adb.common.UsbHandle.BulkRead" xlink:title="adb.common.UsbHandle.BulkRead">
<polygon fill="white" stroke="black" points="200,-88.5 200,-107.5 370,-107.5 370,-88.5 200,-88.5"/>
<text text-anchor="middle" x="285" y="-95.5" font-family="Helvetica,sans-Serif" font-size="10.00">adb.common.UsbHandle.BulkRead</text>
</a>
</g>
</g>
<!-- Node1&#45;&gt;Node2 -->
<g id="edge1" class="edge"><title>Node1&#45;&gt;Node2</title>
<path fill="none" stroke="midnightblue" d="M136.411,-65.692C168.926,-72.8096 209.937,-81.7872 240.471,-88.4713"/>
<polygon fill="midnightblue" stroke="midnightblue" points="137.131,-62.2668 126.614,-63.5473 135.634,-69.1049 137.131,-62.2668"/>
</g>
<!-- Node4 -->
<g id="node4" class="node"><title>Node4</title>
<g id="a_node4"><a xlink:href="../adb.common_cli.html#adb.common.UsbHandle.BulkWrite" xlink:title="adb.common.UsbHandle.Bulk\lWrite">
<polygon fill="white" stroke="black" points="211.5,-39 211.5,-69 358.5,-69 358.5,-39 211.5,-39"/>
<text text-anchor="start" x="219.5" y="-57" font-family="Helvetica,sans-Serif" font-size="10.00">adb.common.UsbHandle.Bulk</text>
<text text-anchor="middle" x="285" y="-46" font-family="Helvetica,sans-Serif" font-size="10.00">Write</text>
</a>
</g>
</g>
<!-- Node1&#45;&gt;Node4 -->
<g id="edge3" class="edge"><title>Node1&#45;&gt;Node4</title>
<path fill="none" stroke="midnightblue" d="M174.476,-54C186.809,-54 199.326,-54 211.273,-54"/>
<polygon fill="midnightblue" stroke="midnightblue" points="174.175,-50.5001 164.175,-54 174.175,-57.5001 174.175,-50.5001"/>
</g>
<!-- Node5 -->
<g id="node5" class="node"><title>Node5</title>
<g id="a_node5"><a xlink:href="../adb.common_cli.html#adb.common.UsbHandle.Close" xlink:title="adb.common.UsbHandle.Close">
<polygon fill="white" stroke="black" points="208.5,-0.5 208.5,-19.5 361.5,-19.5 361.5,-0.5 208.5,-0.5"/>
<text text-anchor="middle" x="285" y="-7.5" font-family="Helvetica,sans-Serif" font-size="10.00">adb.common.UsbHandle.Close</text>
</a>
</g>
</g>
<!-- Node1&#45;&gt;Node5 -->
<g id="edge4" class="edge"><title>Node1&#45;&gt;Node5</title>
<path fill="none" stroke="midnightblue" d="M136.411,-42.308C168.926,-35.1904 209.937,-26.2128 240.471,-19.5287"/>
<polygon fill="midnightblue" stroke="midnightblue" points="135.634,-38.8951 126.614,-44.4527 137.131,-45.7332 135.634,-38.8951"/>
</g>
<!-- Node3 -->
<g id="node3" class="node"><title>Node3</title>
<g id="a_node3"><a xlink:href="../adb.common_cli.html#adb.common.UsbHandle.FlushBuffers" xlink:title="adb.common.UsbHandle.Flush\lBuffers">
<polygon fill="white" stroke="black" points="406,-83 406,-113 558,-113 558,-83 406,-83"/>
<text text-anchor="start" x="414" y="-101" font-family="Helvetica,sans-Serif" font-size="10.00">adb.common.UsbHandle.Flush</text>
<text text-anchor="middle" x="482" y="-90" font-family="Helvetica,sans-Serif" font-size="10.00">Buffers</text>
</a>
</g>
</g>
<!-- Node2&#45;&gt;Node3 -->
<g id="edge2" class="edge"><title>Node2&#45;&gt;Node3</title>
<path fill="none" stroke="midnightblue" d="M380.162,-98C388.75,-98 397.373,-98 405.763,-98"/>
<polygon fill="midnightblue" stroke="midnightblue" points="380.112,-94.5001 370.112,-98 380.112,-101.5 380.112,-94.5001"/>
</g>
<!-- Node6 -->
<g id="node6" class="node"><title>Node6</title>
<g id="a_node6"><a xlink:href="../adb.common_cli.html#adb.common.UsbHandle.Open" xlink:title="adb.common.UsbHandle.Open">
<polygon fill="white" stroke="black" points="406.5,-0.5 406.5,-19.5 557.5,-19.5 557.5,-0.5 406.5,-0.5"/>
<text text-anchor="middle" x="482" y="-7.5" font-family="Helvetica,sans-Serif" font-size="10.00">adb.common.UsbHandle.Open</text>
</a>
</g>
</g>
<!-- Node5&#45;&gt;Node6 -->
<g id="edge5" class="edge"><title>Node5&#45;&gt;Node6</title>
<path fill="none" stroke="midnightblue" d="M371.73,-10C383.261,-10 395.015,-10 406.334,-10"/>
<polygon fill="midnightblue" stroke="midnightblue" points="371.671,-6.5001 361.671,-10 371.671,-13.5001 371.671,-6.5001"/>
</g>
</g>
</svg>
