<?xml version="1.0" encoding="UTF-8" standalone="no"?>
<!DOCTYPE svg PUBLIC "-//W3C//DTD SVG 1.1//EN"
 "http://www.w3.org/Graphics/SVG/1.1/DTD/svg11.dtd">
<!-- Generated by graphviz version 2.38.0 (20140413.2041)
 -->
<!-- Title: adb.fastboot.FastbootProtocol._AcceptResponses Pages: 1 -->
<svg width="720pt" height="61pt"
 viewBox="0.00 0.00 720.00 61.00" xmlns="http://www.w3.org/2000/svg" xmlns:xlink="http://www.w3.org/1999/xlink">
<g id="graph0" class="graph" transform="scale(1 1) rotate(0) translate(4 57)">
<title>adb.fastboot.FastbootProtocol._AcceptResponses</title>
<polygon fill="white" stroke="none" points="-4,4 -4,-57 716,-57 716,4 -4,4"/>
<!-- Node1 -->
<g id="node1" class="node"><title>Node1</title>
<polygon fill="#bfbfbf" stroke="black" points="0,-0.5 0,-30.5 151,-30.5 151,-0.5 0,-0.5"/>
<text text-anchor="start" x="8" y="-18.5" font-family="Helvetica,sans-Serif" font-size="10.00">adb.fastboot.FastbootProtocol.</text>
<text text-anchor="middle" x="75.5" y="-7.5" font-family="Helvetica,sans-Serif" font-size="10.00">_AcceptResponses</text>
</g>
<!-- Node2 -->
<g id="node2" class="node"><title>Node2</title>
<g id="a_node2"><a xlink:href="../adb.fastboot_debug.html#adb.fastboot.FastbootProtocol.HandleDataSending" xlink:title="adb.fastboot.FastbootProtocol.\lHandleDataSending">
<polygon fill="white" stroke="black" points="187,-22.5 187,-52.5 338,-52.5 338,-22.5 187,-22.5"/>
<text text-anchor="start" x="195" y="-40.5" font-family="Helvetica,sans-Serif" font-size="10.00">adb.fastboot.FastbootProtocol.</text>
<text text-anchor="middle" x="262.5" y="-29.5" font-family="Helvetica,sans-Serif" font-size="10.00">HandleDataSending</text>
</a>
</g>
</g>
<!-- Node1&#45;&gt;Node2 -->
<g id="edge1" class="edge"><title>Node1&#45;&gt;Node2</title>
<path fill="none" stroke="midnightblue" d="M161.19,-25.5712C169.738,-26.5877 178.376,-27.615 186.809,-28.6178"/>
<polygon fill="midnightblue" stroke="midnightblue" points="161.557,-22.0903 151.213,-24.3848 160.73,-29.0413 161.557,-22.0903"/>
</g>
<!-- Node3 -->
<g id="node3" class="node"><title>Node3</title>
<g id="a_node3"><a xlink:href="../adb.fastboot_debug.html#adb.fastboot.FastbootProtocol.HandleSimpleResponses" xlink:title="adb.fastboot.FastbootProtocol.\lHandleSimpleResponses">
<polygon fill="white" stroke="black" points="374,-0.5 374,-30.5 525,-30.5 525,-0.5 374,-0.5"/>
<text text-anchor="start" x="382" y="-18.5" font-family="Helvetica,sans-Serif" font-size="10.00">adb.fastboot.FastbootProtocol.</text>
<text text-anchor="middle" x="449.5" y="-7.5" font-family="Helvetica,sans-Serif" font-size="10.00">HandleSimpleResponses</text>
</a>
</g>
</g>
<!-- Node1&#45;&gt;Node3 -->
<g id="edge4" class="edge"><title>Node1&#45;&gt;Node3</title>
<path fill="none" stroke="midnightblue" d="M161.27,-13.8096C169.96,-13.6831 178.657,-13.5755 187,-13.5 254.108,-12.8927 270.892,-12.8927 338,-13.5 349.608,-13.605 361.901,-13.7721 373.906,-13.9661"/>
<polygon fill="midnightblue" stroke="midnightblue" points="161.039,-10.3126 151.094,-13.9661 161.146,-17.3118 161.039,-10.3126"/>
</g>
<!-- Node2&#45;&gt;Node3 -->
<g id="edge2" class="edge"><title>Node2&#45;&gt;Node3</title>
<path fill="none" stroke="midnightblue" d="M348.19,-27.4288C356.738,-26.4123 365.376,-25.385 373.809,-24.3822"/>
<polygon fill="midnightblue" stroke="midnightblue" points="347.73,-23.9587 338.213,-28.6152 348.557,-30.9097 347.73,-23.9587"/>
</g>
<!-- Node4 -->
<g id="node4" class="node"><title>Node4</title>
<g id="a_node4"><a xlink:href="../adb.fastboot_debug.html#adb.fastboot.FastbootProtocol.SendCommand" xlink:title="adb.fastboot.FastbootProtocol.\lSendCommand">
<polygon fill="white" stroke="black" points="561,-0.5 561,-30.5 712,-30.5 712,-0.5 561,-0.5"/>
<text text-anchor="start" x="569" y="-18.5" font-family="Helvetica,sans-Serif" font-size="10.00">adb.fastboot.FastbootProtocol.</text>
<text text-anchor="middle" x="636.5" y="-7.5" font-family="Helvetica,sans-Serif" font-size="10.00">SendCommand</text>
</a>
</g>
</g>
<!-- Node3&#45;&gt;Node4 -->
<g id="edge3" class="edge"><title>Node3&#45;&gt;Node4</title>
<path fill="none" stroke="midnightblue" d="M535.468,-15.5C543.926,-15.5 552.467,-15.5 560.809,-15.5"/>
<polygon fill="midnightblue" stroke="midnightblue" points="535.213,-12.0001 525.213,-15.5 535.213,-19.0001 535.213,-12.0001"/>
</g>
</g>
</svg>
