<?xml version="1.0" encoding="UTF-8" standalone="no"?>
<!DOCTYPE svg PUBLIC "-//W3C//DTD SVG 1.1//EN"
 "http://www.w3.org/Graphics/SVG/1.1/DTD/svg11.dtd">
<!-- Generated by graphviz version 2.38.0 (20140413.2041)
 -->
<!-- Title: adb.adb_commands.AdbCommands.Push Pages: 1 -->
<svg width="636pt" height="52pt"
 viewBox="0.00 0.00 636.00 51.50" xmlns="http://www.w3.org/2000/svg" xmlns:xlink="http://www.w3.org/1999/xlink">
<g id="graph0" class="graph" transform="scale(1 1) rotate(0) translate(4 47.5)">
<title>adb.adb_commands.AdbCommands.Push</title>
<polygon fill="white" stroke="none" points="-4,4 -4,-47.5 632,-47.5 632,4 -4,4"/>
<!-- Node1 -->
<g id="node1" class="node"><title>Node1</title>
<polygon fill="#bfbfbf" stroke="black" points="0,-6 0,-25 200,-25 200,-6 0,-6"/>
<text text-anchor="middle" x="100" y="-13" font-family="Helvetica,sans-Serif" font-size="10.00">adb.adb_commands.AdbCommands.Push</text>
</g>
<!-- Node1&#45;&gt;Node1 -->
<g id="edge3" class="edge"><title>Node1&#45;&gt;Node1</title>
<path fill="none" stroke="midnightblue" d="M58.2193,-31.7184C56.0497,-38.1345 69.9766,-43.5 100,-43.5 140.031,-43.5 151.446,-33.9613 134.245,-25.1119"/>
<polygon fill="midnightblue" stroke="midnightblue" points="60.5426,-34.3362 65.7545,-25.1119 55.9279,-29.0727 60.5426,-34.3362"/>
</g>
<!-- Node2 -->
<g id="node2" class="node"><title>Node2</title>
<g id="a_node2"><a xlink:href="../adb.adb_commands.html#adb.adb_commands.AdbCommands.Install" xlink:title="adb.adb_commands.AdbCommands.\lInstall">
<polygon fill="white" stroke="black" points="236,-0.5 236,-30.5 414,-30.5 414,-0.5 236,-0.5"/>
<text text-anchor="start" x="244" y="-18.5" font-family="Helvetica,sans-Serif" font-size="10.00">adb.adb_commands.AdbCommands.</text>
<text text-anchor="middle" x="325" y="-7.5" font-family="Helvetica,sans-Serif" font-size="10.00">Install</text>
</a>
</g>
</g>
<!-- Node1&#45;&gt;Node2 -->
<g id="edge1" class="edge"><title>Node1&#45;&gt;Node2</title>
<path fill="none" stroke="midnightblue" d="M210.154,-15.5C218.727,-15.5 227.319,-15.5 235.727,-15.5"/>
<polygon fill="midnightblue" stroke="midnightblue" points="210.11,-12.0001 200.11,-15.5 210.11,-19.0001 210.11,-12.0001"/>
</g>
<!-- Node3 -->
<g id="node3" class="node"><title>Node3</title>
<g id="a_node3"><a xlink:href="../adb.adb_commands.html#adb.adb_commands.AdbCommands.GetState" xlink:title="adb.adb_commands.AdbCommands.\lGetState">
<polygon fill="white" stroke="black" points="450,-0.5 450,-30.5 628,-30.5 628,-0.5 450,-0.5"/>
<text text-anchor="start" x="458" y="-18.5" font-family="Helvetica,sans-Serif" font-size="10.00">adb.adb_commands.AdbCommands.</text>
<text text-anchor="middle" x="539" y="-7.5" font-family="Helvetica,sans-Serif" font-size="10.00">GetState</text>
</a>
</g>
</g>
<!-- Node2&#45;&gt;Node3 -->
<g id="edge2" class="edge"><title>Node2&#45;&gt;Node3</title>
<path fill="none" stroke="midnightblue" d="M424.107,-15.5C432.7,-15.5 441.363,-15.5 449.868,-15.5"/>
<polygon fill="midnightblue" stroke="midnightblue" points="424.065,-12.0001 414.065,-15.5 424.065,-19.0001 424.065,-12.0001"/>
</g>
</g>
</svg>
