<?xml version="1.0" encoding="UTF-8" standalone="no"?>
<!DOCTYPE svg PUBLIC "-//W3C//DTD SVG 1.1//EN"
 "http://www.w3.org/Graphics/SVG/1.1/DTD/svg11.dtd">
<!-- Generated by graphviz version 2.38.0 (20140413.2041)
 -->
<!-- Title: adb.fastboot.FastbootCommands.Flash Pages: 1 -->
<svg width="797pt" height="274pt"
 viewBox="0.00 0.00 797.00 274.00" xmlns="http://www.w3.org/2000/svg" xmlns:xlink="http://www.w3.org/1999/xlink">
<g id="graph0" class="graph" transform="scale(1 1) rotate(0) translate(4 270)">
<title>adb.fastboot.FastbootCommands.Flash</title>
<polygon fill="white" stroke="none" points="-4,4 -4,-270 793,-270 793,4 -4,4"/>
<!-- Node1 -->
<g id="node1" class="node"><title>Node1</title>
<polygon fill="#bfbfbf" stroke="black" points="0,-115.5 0,-145.5 165,-145.5 165,-115.5 0,-115.5"/>
<text text-anchor="start" x="8" y="-133.5" font-family="Helvetica,sans-Serif" font-size="10.00">adb.fastboot.FastbootCommands.</text>
<text text-anchor="middle" x="82.5" y="-122.5" font-family="Helvetica,sans-Serif" font-size="10.00">Flash</text>
</g>
<!-- Node2 -->
<g id="node2" class="node"><title>Node2</title>
<g id="a_node2"><a xlink:href="../adb.fastboot_debug.html#adb.fastboot.FastbootCommands.FlashFromFile" xlink:title="adb.fastboot.FastbootCommands.\lFlashFromFile">
<polygon fill="white" stroke="black" points="201,-137.5 201,-167.5 366,-167.5 366,-137.5 201,-137.5"/>
<text text-anchor="start" x="209" y="-155.5" font-family="Helvetica,sans-Serif" font-size="10.00">adb.fastboot.FastbootCommands.</text>
<text text-anchor="middle" x="283.5" y="-144.5" font-family="Helvetica,sans-Serif" font-size="10.00">FlashFromFile</text>
</a>
</g>
</g>
<!-- Node1&#45;&gt;Node2 -->
<g id="edge1" class="edge"><title>Node1&#45;&gt;Node2</title>
<path fill="none" stroke="midnightblue" d="M175.045,-140.621C183.633,-141.57 192.301,-142.528 200.79,-143.467"/>
<polygon fill="midnightblue" stroke="midnightblue" points="175.339,-137.132 165.015,-139.512 174.57,-144.089 175.339,-137.132"/>
</g>
<!-- Node3 -->
<g id="node3" class="node"><title>Node3</title>
<g id="a_node3"><a xlink:href="../adb.fastboot_debug.html#adb.fastboot.FastbootCommands._SimpleCommand" xlink:title="adb.fastboot.FastbootCommands.\l_SimpleCommand">
<polygon fill="white" stroke="black" points="402,-115.5 402,-145.5 567,-145.5 567,-115.5 402,-115.5"/>
<text text-anchor="start" x="410" y="-133.5" font-family="Helvetica,sans-Serif" font-size="10.00">adb.fastboot.FastbootCommands.</text>
<text text-anchor="middle" x="484.5" y="-122.5" font-family="Helvetica,sans-Serif" font-size="10.00">_SimpleCommand</text>
</a>
</g>
</g>
<!-- Node2&#45;&gt;Node3 -->
<g id="edge2" class="edge"><title>Node2&#45;&gt;Node3</title>
<path fill="none" stroke="midnightblue" d="M376.045,-142.379C384.633,-141.43 393.301,-140.472 401.79,-139.533"/>
<polygon fill="midnightblue" stroke="midnightblue" points="375.57,-138.911 366.015,-143.488 376.339,-145.868 375.57,-138.911"/>
</g>
<!-- Node3&#45;&gt;Node1 -->
<g id="edge5" class="edge"><title>Node3&#45;&gt;Node1</title>
<path fill="none" stroke="midnightblue" d="M391.756,-128.788C383.051,-128.671 374.358,-128.571 366,-128.5 292.669,-127.876 274.331,-127.876 201,-128.5 189.371,-128.599 177.096,-128.753 165.038,-128.933"/>
<polygon fill="midnightblue" stroke="midnightblue" points="391.913,-132.29 401.962,-128.933 392.013,-125.291 391.913,-132.29"/>
</g>
<!-- Node4 -->
<g id="node4" class="node"><title>Node4</title>
<g id="a_node4"><a xlink:href="../adb.fastboot_debug.html#adb.fastboot.FastbootCommands.Continue" xlink:title="adb.fastboot.FastbootCommands.\lContinue">
<polygon fill="white" stroke="black" points="613.5,-235.5 613.5,-265.5 778.5,-265.5 778.5,-235.5 613.5,-235.5"/>
<text text-anchor="start" x="621.5" y="-253.5" font-family="Helvetica,sans-Serif" font-size="10.00">adb.fastboot.FastbootCommands.</text>
<text text-anchor="middle" x="696" y="-242.5" font-family="Helvetica,sans-Serif" font-size="10.00">Continue</text>
</a>
</g>
</g>
<!-- Node3&#45;&gt;Node4 -->
<g id="edge3" class="edge"><title>Node3&#45;&gt;Node4</title>
<path fill="none" stroke="midnightblue" d="M506.776,-152.771C528.865,-174.631 565.396,-207.393 603,-226.5 609.769,-229.94 617.077,-232.918 624.51,-235.49"/>
<polygon fill="midnightblue" stroke="midnightblue" points="509.117,-150.162 499.586,-145.533 504.151,-155.095 509.117,-150.162"/>
</g>
<!-- Node5 -->
<g id="node5" class="node"><title>Node5</title>
<g id="a_node5"><a xlink:href="../adb.fastboot_debug.html#adb.fastboot.FastbootCommands.Erase" xlink:title="adb.fastboot.FastbootCommands.\lErase">
<polygon fill="white" stroke="black" points="613.5,-186.5 613.5,-216.5 778.5,-216.5 778.5,-186.5 613.5,-186.5"/>
<text text-anchor="start" x="621.5" y="-204.5" font-family="Helvetica,sans-Serif" font-size="10.00">adb.fastboot.FastbootCommands.</text>
<text text-anchor="middle" x="696" y="-193.5" font-family="Helvetica,sans-Serif" font-size="10.00">Erase</text>
</a>
</g>
</g>
<!-- Node3&#45;&gt;Node5 -->
<g id="edge4" class="edge"><title>Node3&#45;&gt;Node5</title>
<path fill="none" stroke="midnightblue" d="M529.151,-149.476C551.072,-158.616 578.184,-169.336 603,-177.5 612.565,-180.647 622.795,-183.657 632.83,-186.416"/>
<polygon fill="midnightblue" stroke="midnightblue" points="530.359,-146.187 519.784,-145.536 527.644,-152.64 530.359,-146.187"/>
</g>
<!-- Node6 -->
<g id="node6" class="node"><title>Node6</title>
<g id="a_node6"><a xlink:href="../adb.fastboot_debug.html#adb.fastboot.FastbootCommands.Getvar" xlink:title="adb.fastboot.FastbootCommands.\lGetvar">
<polygon fill="white" stroke="black" points="613.5,-137.5 613.5,-167.5 778.5,-167.5 778.5,-137.5 613.5,-137.5"/>
<text text-anchor="start" x="621.5" y="-155.5" font-family="Helvetica,sans-Serif" font-size="10.00">adb.fastboot.FastbootCommands.</text>
<text text-anchor="middle" x="696" y="-144.5" font-family="Helvetica,sans-Serif" font-size="10.00">Getvar</text>
</a>
</g>
</g>
<!-- Node3&#45;&gt;Node6 -->
<g id="edge6" class="edge"><title>Node3&#45;&gt;Node6</title>
<path fill="none" stroke="midnightblue" d="M577.134,-140.123C589.164,-141.386 601.429,-142.674 613.28,-143.918"/>
<polygon fill="midnightblue" stroke="midnightblue" points="577.409,-136.632 567.098,-139.069 576.678,-143.594 577.409,-136.632"/>
</g>
<!-- Node7 -->
<g id="node7" class="node"><title>Node7</title>
<g id="a_node7"><a xlink:href="../adb.fastboot_debug.html#adb.fastboot.FastbootCommands.Oem" xlink:title="adb.fastboot.FastbootCommands.Oem">
<polygon fill="white" stroke="black" points="603,-99 603,-118 789,-118 789,-99 603,-99"/>
<text text-anchor="middle" x="696" y="-106" font-family="Helvetica,sans-Serif" font-size="10.00">adb.fastboot.FastbootCommands.Oem</text>
</a>
</g>
</g>
<!-- Node3&#45;&gt;Node7 -->
<g id="edge7" class="edge"><title>Node3&#45;&gt;Node7</title>
<path fill="none" stroke="midnightblue" d="M577.172,-120.873C586.157,-119.93 595.272,-118.973 604.248,-118.03"/>
<polygon fill="midnightblue" stroke="midnightblue" points="576.678,-117.406 567.098,-121.931 577.409,-124.368 576.678,-117.406"/>
</g>
<!-- Node8 -->
<g id="node8" class="node"><title>Node8</title>
<g id="a_node8"><a xlink:href="../adb.fastboot_debug.html#adb.fastboot.FastbootCommands.Reboot" xlink:title="adb.fastboot.FastbootCommands.\lReboot">
<polygon fill="white" stroke="black" points="613.5,-49.5 613.5,-79.5 778.5,-79.5 778.5,-49.5 613.5,-49.5"/>
<text text-anchor="start" x="621.5" y="-67.5" font-family="Helvetica,sans-Serif" font-size="10.00">adb.fastboot.FastbootCommands.</text>
<text text-anchor="middle" x="696" y="-56.5" font-family="Helvetica,sans-Serif" font-size="10.00">Reboot</text>
</a>
</g>
</g>
<!-- Node3&#45;&gt;Node8 -->
<g id="edge8" class="edge"><title>Node3&#45;&gt;Node8</title>
<path fill="none" stroke="midnightblue" d="M535.86,-112.053C556.552,-104.703 580.819,-96.3741 603,-89.5 613.909,-86.1192 625.62,-82.7447 636.91,-79.6187"/>
<polygon fill="midnightblue" stroke="midnightblue" points="534.56,-108.801 526.321,-115.463 536.916,-115.393 534.56,-108.801"/>
</g>
<!-- Node9 -->
<g id="node9" class="node"><title>Node9</title>
<g id="a_node9"><a xlink:href="../adb.fastboot_debug.html#adb.fastboot.FastbootCommands.RebootBootloader" xlink:title="adb.fastboot.FastbootCommands.\lRebootBootloader">
<polygon fill="white" stroke="black" points="613.5,-0.5 613.5,-30.5 778.5,-30.5 778.5,-0.5 613.5,-0.5"/>
<text text-anchor="start" x="621.5" y="-18.5" font-family="Helvetica,sans-Serif" font-size="10.00">adb.fastboot.FastbootCommands.</text>
<text text-anchor="middle" x="696" y="-7.5" font-family="Helvetica,sans-Serif" font-size="10.00">RebootBootloader</text>
</a>
</g>
</g>
<!-- Node3&#45;&gt;Node9 -->
<g id="edge9" class="edge"><title>Node3&#45;&gt;Node9</title>
<path fill="none" stroke="midnightblue" d="M508.13,-108.392C530.492,-87.7219 566.548,-57.4275 603,-39.5 609.962,-36.0761 617.468,-33.1004 625.085,-30.5238"/>
<polygon fill="midnightblue" stroke="midnightblue" points="505.706,-105.867 500.814,-115.265 510.499,-110.969 505.706,-105.867"/>
</g>
</g>
</svg>
