<?xml version="1.0" encoding="UTF-8" standalone="no"?>
<!DOCTYPE svg PUBLIC "-//W3C//DTD SVG 1.1//EN"
 "http://www.w3.org/Graphics/SVG/1.1/DTD/svg11.dtd">
<!-- Generated by graphviz version 2.38.0 (20140413.2041)
 -->
<!-- Title: adb.filesync_protocol.FilesyncProtocol.Pull Pages: 1 -->
<svg width="761pt" height="166pt"
 viewBox="0.00 0.00 761.00 165.50" xmlns="http://www.w3.org/2000/svg" xmlns:xlink="http://www.w3.org/1999/xlink">
<g id="graph0" class="graph" transform="scale(1 1) rotate(0) translate(4 161.5)">
<title>adb.filesync_protocol.FilesyncProtocol.Pull</title>
<polygon fill="white" stroke="none" points="-4,4 -4,-161.5 757,-161.5 757,4 -4,4"/>
<!-- Node1 -->
<g id="node1" class="node"><title>Node1</title>
<polygon fill="#bfbfbf" stroke="black" points="0,-66.5 0,-96.5 149,-96.5 149,-66.5 0,-66.5"/>
<text text-anchor="start" x="8" y="-84.5" font-family="Helvetica,sans-Serif" font-size="10.00">adb.filesync_protocol.Filesync</text>
<text text-anchor="middle" x="74.5" y="-73.5" font-family="Helvetica,sans-Serif" font-size="10.00">Protocol.Pull</text>
</g>
<!-- Node2 -->
<g id="node2" class="node"><title>Node2</title>
<g id="a_node2"><a xlink:href="../adb.adb_commands.html#adb.adb_commands.AdbCommands.Stat" xlink:title="adb.adb_commands.AdbCommands.Stat">
<polygon fill="white" stroke="black" points="185,-138 185,-157 381,-157 381,-138 185,-138"/>
<text text-anchor="middle" x="283" y="-145" font-family="Helvetica,sans-Serif" font-size="10.00">adb.adb_commands.AdbCommands.Stat</text>
</a>
</g>
</g>
<!-- Node1&#45;&gt;Node2 -->
<g id="edge1" class="edge"><title>Node1&#45;&gt;Node2</title>
<path fill="none" stroke="midnightblue" d="M105.992,-96.6628C127.603,-106.89 157.524,-120.018 185,-128.5 193.945,-131.261 203.482,-133.709 212.952,-135.85"/>
<polygon fill="midnightblue" stroke="midnightblue" points="212.257,-139.281 222.771,-137.972 213.735,-132.439 212.257,-139.281"/>
</g>
<!-- Node3 -->
<g id="node3" class="node"><title>Node3</title>
<g id="a_node3"><a xlink:href="../adb.filesync_protocol.html#adb.filesync_protocol.FilesyncProtocol.Stat" xlink:title="adb.filesync_protocol.Filesync\lProtocol.Stat">
<polygon fill="white" stroke="black" points="208.5,-88.5 208.5,-118.5 357.5,-118.5 357.5,-88.5 208.5,-88.5"/>
<text text-anchor="start" x="216.5" y="-106.5" font-family="Helvetica,sans-Serif" font-size="10.00">adb.filesync_protocol.Filesync</text>
<text text-anchor="middle" x="283" y="-95.5" font-family="Helvetica,sans-Serif" font-size="10.00">Protocol.Stat</text>
</a>
</g>
</g>
<!-- Node1&#45;&gt;Node3 -->
<g id="edge2" class="edge"><title>Node1&#45;&gt;Node3</title>
<path fill="none" stroke="midnightblue" d="M149.177,-89.3493C165.099,-91.0457 182.047,-92.8512 198.321,-94.585"/>
<polygon fill="midnightblue" stroke="midnightblue" points="198.037,-98.0745 208.352,-95.6537 198.779,-91.1139 198.037,-98.0745"/>
</g>
<!-- Node4 -->
<g id="node4" class="node"><title>Node4</title>
<g id="a_node4"><a xlink:href="../adb.fastboot_debug.html#adb.fastboot.FastbootProtocol._HandleProgress" xlink:title="adb.fastboot.FastbootProtocol.\l_HandleProgress">
<polygon fill="white" stroke="black" points="602,-22.5 602,-52.5 753,-52.5 753,-22.5 602,-22.5"/>
<text text-anchor="start" x="610" y="-40.5" font-family="Helvetica,sans-Serif" font-size="10.00">adb.fastboot.FastbootProtocol.</text>
<text text-anchor="middle" x="677.5" y="-29.5" font-family="Helvetica,sans-Serif" font-size="10.00">_HandleProgress</text>
</a>
</g>
</g>
<!-- Node1&#45;&gt;Node4 -->
<g id="edge3" class="edge"><title>Node1&#45;&gt;Node4</title>
<path fill="none" stroke="midnightblue" d="M149.194,-76.1047C261.124,-67.9103 473.421,-52.3677 591.639,-43.7128"/>
<polygon fill="midnightblue" stroke="midnightblue" points="592.013,-47.1949 601.731,-42.974 591.502,-40.2136 592.013,-47.1949"/>
</g>
<!-- Node5 -->
<g id="node5" class="node"><title>Node5</title>
<g id="a_node5"><a xlink:href="../adb.filesync_protocol.html#adb.filesync_protocol.FilesyncProtocol._HandleProgress" xlink:title="adb.filesync_protocol.Filesync\lProtocol._HandleProgress">
<polygon fill="white" stroke="black" points="208.5,-0.5 208.5,-30.5 357.5,-30.5 357.5,-0.5 208.5,-0.5"/>
<text text-anchor="start" x="216.5" y="-18.5" font-family="Helvetica,sans-Serif" font-size="10.00">adb.filesync_protocol.Filesync</text>
<text text-anchor="middle" x="283" y="-7.5" font-family="Helvetica,sans-Serif" font-size="10.00">Protocol._HandleProgress</text>
</a>
</g>
</g>
<!-- Node1&#45;&gt;Node5 -->
<g id="edge4" class="edge"><title>Node1&#45;&gt;Node5</title>
<path fill="none" stroke="midnightblue" d="M120.726,-66.4323C140.441,-59.9153 163.838,-52.2506 185,-45.5 197.191,-41.6111 210.268,-37.5154 222.748,-33.6429"/>
<polygon fill="midnightblue" stroke="midnightblue" points="224.083,-36.8937 232.601,-30.5933 222.013,-30.2067 224.083,-36.8937"/>
</g>
<!-- Node6 -->
<g id="node6" class="node"><title>Node6</title>
<g id="a_node6"><a xlink:href="../adb.filesync_protocol.html#adb.filesync_protocol.FilesyncProtocol.Push" xlink:title="adb.filesync_protocol.Filesync\lProtocol.Push">
<polygon fill="white" stroke="black" points="417,-0.5 417,-30.5 566,-30.5 566,-0.5 417,-0.5"/>
<text text-anchor="start" x="425" y="-18.5" font-family="Helvetica,sans-Serif" font-size="10.00">adb.filesync_protocol.Filesync</text>
<text text-anchor="middle" x="491.5" y="-7.5" font-family="Helvetica,sans-Serif" font-size="10.00">Protocol.Push</text>
</a>
</g>
</g>
<!-- Node5&#45;&gt;Node6 -->
<g id="edge5" class="edge"><title>Node5&#45;&gt;Node6</title>
<path fill="none" stroke="midnightblue" d="M357.677,-9.00237C373.599,-8.72357 390.547,-8.67577 406.821,-8.85896"/>
<polygon fill="midnightblue" stroke="midnightblue" points="406.803,-12.359 416.852,-9.00287 406.903,-5.35967 406.803,-12.359"/>
</g>
<!-- Node6&#45;&gt;Node4 -->
<g id="edge6" class="edge"><title>Node6&#45;&gt;Node4</title>
<path fill="none" stroke="midnightblue" d="M566.015,-24.2898C574.505,-25.3049 583.213,-26.3462 591.836,-27.3771"/>
<polygon fill="midnightblue" stroke="midnightblue" points="591.555,-30.8683 601.9,-28.5804 592.386,-23.9178 591.555,-30.8683"/>
</g>
<!-- Node6&#45;&gt;Node5 -->
<g id="edge7" class="edge"><title>Node6&#45;&gt;Node5</title>
<path fill="none" stroke="midnightblue" d="M416.852,-21.9971C400.93,-22.2762 383.983,-22.3243 367.708,-22.1414"/>
<polygon fill="midnightblue" stroke="midnightblue" points="367.726,-18.6414 357.677,-21.9976 367.625,-25.6406 367.726,-18.6414"/>
</g>
</g>
</svg>
