<?xml version="1.0" encoding="UTF-8" standalone="no"?>
<!DOCTYPE svg PUBLIC "-//W3C//DTD SVG 1.1//EN"
 "http://www.w3.org/Graphics/SVG/1.1/DTD/svg11.dtd">
<!-- Generated by graphviz version 2.38.0 (20140413.2041)
 -->
<!-- Title: adb.common.UsbHandle.Close Pages: 1 -->
<svg width="548pt" height="39pt"
 viewBox="0.00 0.00 548.00 39.00" xmlns="http://www.w3.org/2000/svg" xmlns:xlink="http://www.w3.org/1999/xlink">
<g id="graph0" class="graph" transform="scale(1 1) rotate(0) translate(4 35)">
<title>adb.common.UsbHandle.Close</title>
<polygon fill="white" stroke="none" points="-4,4 -4,-35 544,-35 544,4 -4,4"/>
<!-- Node1 -->
<g id="node1" class="node"><title>Node1</title>
<polygon fill="#bfbfbf" stroke="black" points="0,-6 0,-25 153,-25 153,-6 0,-6"/>
<text text-anchor="middle" x="76.5" y="-13" font-family="Helvetica,sans-Serif" font-size="10.00">adb.common.UsbHandle.Close</text>
</g>
<!-- Node2 -->
<g id="node2" class="node"><title>Node2</title>
<g id="a_node2"><a xlink:href="../adb.common_cli.html#adb.common.UsbHandle.usb_info" xlink:title="adb.common.UsbHandle.usb_info">
<polygon fill="white" stroke="black" points="189,-6 189,-25 353,-25 353,-6 189,-6"/>
<text text-anchor="middle" x="271" y="-13" font-family="Helvetica,sans-Serif" font-size="10.00">adb.common.UsbHandle.usb_info</text>
</a>
</g>
</g>
<!-- Node1&#45;&gt;Node2 -->
<g id="edge1" class="edge"><title>Node1&#45;&gt;Node2</title>
<path fill="none" stroke="midnightblue" d="M153.029,-15.5C161.508,-15.5 170.212,-15.5 178.862,-15.5"/>
<polygon fill="midnightblue" stroke="midnightblue" points="178.973,-19.0001 188.973,-15.5 178.973,-12.0001 178.973,-19.0001"/>
</g>
<!-- Node3 -->
<g id="node3" class="node"><title>Node3</title>
<g id="a_node3"><a xlink:href="../adb.common_cli.html#adb.common.UsbHandle.serial_number" xlink:title="adb.common.UsbHandle.serial\l_number">
<polygon fill="white" stroke="black" points="389,-0.5 389,-30.5 540,-30.5 540,-0.5 389,-0.5"/>
<text text-anchor="start" x="397" y="-18.5" font-family="Helvetica,sans-Serif" font-size="10.00">adb.common.UsbHandle.serial</text>
<text text-anchor="middle" x="464.5" y="-7.5" font-family="Helvetica,sans-Serif" font-size="10.00">_number</text>
</a>
</g>
</g>
<!-- Node2&#45;&gt;Node3 -->
<g id="edge2" class="edge"><title>Node2&#45;&gt;Node3</title>
<path fill="none" stroke="midnightblue" d="M353.213,-15.5C361.62,-15.5 370.18,-15.5 378.626,-15.5"/>
<polygon fill="midnightblue" stroke="midnightblue" points="378.853,-19.0001 388.853,-15.5 378.853,-12.0001 378.853,-19.0001"/>
</g>
</g>
</svg>
