<?xml version="1.0" encoding="UTF-8" standalone="no"?>
<!DOCTYPE svg PUBLIC "-//W3C//DTD SVG 1.1//EN"
 "http://www.w3.org/Graphics/SVG/1.1/DTD/svg11.dtd">
<!-- Generated by graphviz version 2.38.0 (20140413.2041)
 -->
<!-- Title: adb.fastboot.FastbootCommands.FlashFromFile Pages: 1 -->
<svg width="575pt" height="110pt"
 viewBox="0.00 0.00 575.00 110.00" xmlns="http://www.w3.org/2000/svg" xmlns:xlink="http://www.w3.org/1999/xlink">
<g id="graph0" class="graph" transform="scale(1 1) rotate(0) translate(4 106)">
<title>adb.fastboot.FastbootCommands.FlashFromFile</title>
<polygon fill="white" stroke="none" points="-4,4 -4,-106 571,-106 571,4 -4,4"/>
<!-- Node1 -->
<g id="node1" class="node"><title>Node1</title>
<polygon fill="#bfbfbf" stroke="black" points="0,-22.5 0,-52.5 165,-52.5 165,-22.5 0,-22.5"/>
<text text-anchor="start" x="8" y="-40.5" font-family="Helvetica,sans-Serif" font-size="10.00">adb.fastboot.FastbootCommands.</text>
<text text-anchor="middle" x="82.5" y="-29.5" font-family="Helvetica,sans-Serif" font-size="10.00">FlashFromFile</text>
</g>
<!-- Node2 -->
<g id="node2" class="node"><title>Node2</title>
<g id="a_node2"><a xlink:href="../adb.fastboot_debug.html#adb.fastboot.FastbootCommands.Download" xlink:title="adb.fastboot.FastbootCommands.\lDownload">
<polygon fill="white" stroke="black" points="201,-71.5 201,-101.5 366,-101.5 366,-71.5 201,-71.5"/>
<text text-anchor="start" x="209" y="-89.5" font-family="Helvetica,sans-Serif" font-size="10.00">adb.fastboot.FastbootCommands.</text>
<text text-anchor="middle" x="283.5" y="-78.5" font-family="Helvetica,sans-Serif" font-size="10.00">Download</text>
</a>
</g>
</g>
<!-- Node1&#45;&gt;Node2 -->
<g id="edge1" class="edge"><title>Node1&#45;&gt;Node2</title>
<path fill="none" stroke="midnightblue" d="M144.559,-52.5346C165.762,-57.7554 189.716,-63.6537 211.642,-69.0526"/>
<polygon fill="midnightblue" stroke="midnightblue" points="211.01,-72.5013 221.557,-71.4938 212.683,-65.7043 211.01,-72.5013"/>
</g>
<!-- Node3 -->
<g id="node3" class="node"><title>Node3</title>
<g id="a_node3"><a xlink:href="../adb.fastboot_debug.html#adb.fastboot.FastbootCommands.Flash" xlink:title="adb.fastboot.FastbootCommands.\lFlash">
<polygon fill="white" stroke="black" points="201,-22.5 201,-52.5 366,-52.5 366,-22.5 201,-22.5"/>
<text text-anchor="start" x="209" y="-40.5" font-family="Helvetica,sans-Serif" font-size="10.00">adb.fastboot.FastbootCommands.</text>
<text text-anchor="middle" x="283.5" y="-29.5" font-family="Helvetica,sans-Serif" font-size="10.00">Flash</text>
</a>
</g>
</g>
<!-- Node1&#45;&gt;Node3 -->
<g id="edge2" class="edge"><title>Node1&#45;&gt;Node3</title>
<path fill="none" stroke="midnightblue" d="M165.015,-37.5C173.501,-37.5 182.168,-37.5 190.758,-37.5"/>
<polygon fill="midnightblue" stroke="midnightblue" points="190.79,-41.0001 200.79,-37.5 190.79,-34.0001 190.79,-41.0001"/>
</g>
<!-- Node4 -->
<g id="node4" class="node"><title>Node4</title>
<g id="a_node4"><a xlink:href="../adb.fastboot_debug.html#adb.fastboot.FastbootCommands._SimpleCommand" xlink:title="adb.fastboot.FastbootCommands.\l_SimpleCommand">
<polygon fill="white" stroke="black" points="402,-0.5 402,-30.5 567,-30.5 567,-0.5 402,-0.5"/>
<text text-anchor="start" x="410" y="-18.5" font-family="Helvetica,sans-Serif" font-size="10.00">adb.fastboot.FastbootCommands.</text>
<text text-anchor="middle" x="484.5" y="-7.5" font-family="Helvetica,sans-Serif" font-size="10.00">_SimpleCommand</text>
</a>
</g>
</g>
<!-- Node3&#45;&gt;Node4 -->
<g id="edge3" class="edge"><title>Node3&#45;&gt;Node4</title>
<path fill="none" stroke="midnightblue" d="M366.015,-28.4883C374.501,-27.5501 383.168,-26.5919 391.758,-25.6424"/>
<polygon fill="midnightblue" stroke="midnightblue" points="392.235,-29.111 401.79,-24.5333 391.466,-22.1534 392.235,-29.111"/>
</g>
<!-- Node4&#45;&gt;Node1 -->
<g id="edge4" class="edge"><title>Node4&#45;&gt;Node1</title>
<path fill="none" stroke="midnightblue" d="M401.998,-10.2916C345.449,-7.80995 268.463,-6.68058 201,-13.5 186.189,-14.9972 170.485,-17.5302 155.543,-20.4037"/>
<polygon fill="midnightblue" stroke="midnightblue" points="154.463,-17.0501 145.341,-22.4388 155.832,-23.9149 154.463,-17.0501"/>
</g>
</g>
</svg>
