<?xml version="1.0" encoding="UTF-8" standalone="no"?>
<!DOCTYPE svg PUBLIC "-//W3C//DTD SVG 1.1//EN"
 "http://www.w3.org/Graphics/SVG/1.1/DTD/svg11.dtd">
<!-- Generated by graphviz version 2.38.0 (20140413.2041)
 -->
<!-- Title: adb.filesync_protocol.FileSyncConnection.ReadUntil Pages: 1 -->
<svg width="549pt" height="186pt"
 viewBox="0.00 0.00 549.00 186.00" xmlns="http://www.w3.org/2000/svg" xmlns:xlink="http://www.w3.org/1999/xlink">
<g id="graph0" class="graph" transform="scale(1 1) rotate(0) translate(4 182)">
<title>adb.filesync_protocol.FileSyncConnection.ReadUntil</title>
<polygon fill="white" stroke="none" points="-4,4 -4,-182 545,-182 545,4 -4,4"/>
<!-- Node1 -->
<g id="node1" class="node"><title>Node1</title>
<polygon fill="#bfbfbf" stroke="black" points="0,-73.5 0,-103.5 135,-103.5 135,-73.5 0,-73.5"/>
<text text-anchor="start" x="8" y="-91.5" font-family="Helvetica,sans-Serif" font-size="10.00">adb.filesync_protocol.File</text>
<text text-anchor="middle" x="67.5" y="-80.5" font-family="Helvetica,sans-Serif" font-size="10.00">SyncConnection.ReadUntil</text>
</g>
<!-- Node2 -->
<g id="node2" class="node"><title>Node2</title>
<g id="a_node2"><a xlink:href="../adb.adb_protocol.html#adb.adb_protocol.AdbMessage.Read" xlink:title="adb.adb_protocol.AdbMessage.Read">
<polygon fill="white" stroke="black" points="171,-104 171,-123 348,-123 348,-104 171,-104"/>
<text text-anchor="middle" x="259.5" y="-111" font-family="Helvetica,sans-Serif" font-size="10.00">adb.adb_protocol.AdbMessage.Read</text>
</a>
</g>
</g>
<!-- Node1&#45;&gt;Node2 -->
<g id="edge1" class="edge"><title>Node1&#45;&gt;Node2</title>
<path fill="none" stroke="midnightblue" d="M135.22,-97.2789C148.342,-99.0055 162.256,-100.836 175.828,-102.622"/>
<polygon fill="midnightblue" stroke="midnightblue" points="175.751,-106.142 186.122,-103.977 176.664,-99.2018 175.751,-106.142"/>
</g>
<!-- Node5 -->
<g id="node5" class="node"><title>Node5</title>
<g id="a_node5"><a xlink:href="../adb.filesync_protocol.html#adb.filesync_protocol.FileSyncConnection.Read" xlink:title="adb.filesync_protocol.File\lSyncConnection.Read">
<polygon fill="white" stroke="black" points="195.5,-49.5 195.5,-79.5 323.5,-79.5 323.5,-49.5 195.5,-49.5"/>
<text text-anchor="start" x="203.5" y="-67.5" font-family="Helvetica,sans-Serif" font-size="10.00">adb.filesync_protocol.File</text>
<text text-anchor="middle" x="259.5" y="-56.5" font-family="Helvetica,sans-Serif" font-size="10.00">SyncConnection.Read</text>
</a>
</g>
</g>
<!-- Node1&#45;&gt;Node5 -->
<g id="edge4" class="edge"><title>Node1&#45;&gt;Node5</title>
<path fill="none" stroke="midnightblue" d="M135.22,-80.0722C151.424,-78.0254 168.837,-75.8259 185.322,-73.7435"/>
<polygon fill="midnightblue" stroke="midnightblue" points="185.965,-77.1902 195.448,-72.4645 185.088,-70.2454 185.965,-77.1902"/>
</g>
<!-- Node3 -->
<g id="node3" class="node"><title>Node3</title>
<g id="a_node3"><a xlink:href="../adb.adb_protocol.html#adb.adb_protocol.AdbMessage.Unpack" xlink:title="adb.adb_protocol.AdbMessage.\lUnpack">
<polygon fill="white" stroke="black" points="385.5,-147.5 385.5,-177.5 539.5,-177.5 539.5,-147.5 385.5,-147.5"/>
<text text-anchor="start" x="393.5" y="-165.5" font-family="Helvetica,sans-Serif" font-size="10.00">adb.adb_protocol.AdbMessage.</text>
<text text-anchor="middle" x="462.5" y="-154.5" font-family="Helvetica,sans-Serif" font-size="10.00">Unpack</text>
</a>
</g>
</g>
<!-- Node2&#45;&gt;Node3 -->
<g id="edge2" class="edge"><title>Node2&#45;&gt;Node3</title>
<path fill="none" stroke="midnightblue" d="M299.732,-123.064C325.401,-129.322 359.694,-137.682 390.099,-145.094"/>
<polygon fill="midnightblue" stroke="midnightblue" points="389.273,-148.495 399.818,-147.463 390.931,-141.694 389.273,-148.495"/>
</g>
<!-- Node4 -->
<g id="node4" class="node"><title>Node4</title>
<g id="a_node4"><a xlink:href="../adb.adb_protocol.html#adb.adb_protocol.AdbMessage.CalculateChecksum" xlink:title="adb.adb_protocol.AdbMessage.\lCalculateChecksum">
<polygon fill="white" stroke="black" points="385.5,-98.5 385.5,-128.5 539.5,-128.5 539.5,-98.5 385.5,-98.5"/>
<text text-anchor="start" x="393.5" y="-116.5" font-family="Helvetica,sans-Serif" font-size="10.00">adb.adb_protocol.AdbMessage.</text>
<text text-anchor="middle" x="462.5" y="-105.5" font-family="Helvetica,sans-Serif" font-size="10.00">CalculateChecksum</text>
</a>
</g>
</g>
<!-- Node2&#45;&gt;Node4 -->
<g id="edge3" class="edge"><title>Node2&#45;&gt;Node4</title>
<path fill="none" stroke="midnightblue" d="M348.077,-113.5C357.07,-113.5 366.203,-113.5 375.183,-113.5"/>
<polygon fill="midnightblue" stroke="midnightblue" points="375.24,-117 385.24,-113.5 375.24,-110 375.24,-117"/>
</g>
<!-- Node6 -->
<g id="node6" class="node"><title>Node6</title>
<g id="a_node6"><a xlink:href="../adb.filesync_protocol.html#adb.filesync_protocol.FileSyncConnection._Flush" xlink:title="adb.filesync_protocol.File\lSyncConnection._Flush">
<polygon fill="white" stroke="black" points="398.5,-49.5 398.5,-79.5 526.5,-79.5 526.5,-49.5 398.5,-49.5"/>
<text text-anchor="start" x="406.5" y="-67.5" font-family="Helvetica,sans-Serif" font-size="10.00">adb.filesync_protocol.File</text>
<text text-anchor="middle" x="462.5" y="-56.5" font-family="Helvetica,sans-Serif" font-size="10.00">SyncConnection._Flush</text>
</a>
</g>
</g>
<!-- Node5&#45;&gt;Node6 -->
<g id="edge5" class="edge"><title>Node5&#45;&gt;Node6</title>
<path fill="none" stroke="midnightblue" d="M323.546,-64.5C344.027,-64.5 366.929,-64.5 388.098,-64.5"/>
<polygon fill="midnightblue" stroke="midnightblue" points="388.332,-68.0001 398.332,-64.5 388.332,-61.0001 388.332,-68.0001"/>
</g>
<!-- Node7 -->
<g id="node7" class="node"><title>Node7</title>
<g id="a_node7"><a xlink:href="../adb.filesync_protocol.html#adb.filesync_protocol.FileSyncConnection._ReadBuffered" xlink:title="adb.filesync_protocol.File\lSyncConnection._ReadBuffered">
<polygon fill="white" stroke="black" points="384,-0.5 384,-30.5 541,-30.5 541,-0.5 384,-0.5"/>
<text text-anchor="start" x="392" y="-18.5" font-family="Helvetica,sans-Serif" font-size="10.00">adb.filesync_protocol.File</text>
<text text-anchor="middle" x="462.5" y="-7.5" font-family="Helvetica,sans-Serif" font-size="10.00">SyncConnection._ReadBuffered</text>
</a>
</g>
</g>
<!-- Node5&#45;&gt;Node7 -->
<g id="edge6" class="edge"><title>Node5&#45;&gt;Node7</title>
<path fill="none" stroke="midnightblue" d="M322.173,-49.4654C343.588,-44.2446 367.784,-38.3463 389.93,-32.9474"/>
<polygon fill="midnightblue" stroke="midnightblue" points="391.058,-36.2751 399.944,-30.5062 389.4,-29.4743 391.058,-36.2751"/>
</g>
</g>
</svg>
