<?xml version="1.0" encoding="UTF-8" standalone="no"?>
<!DOCTYPE svg PUBLIC "-//W3C//DTD SVG 1.1//EN"
 "http://www.w3.org/Graphics/SVG/1.1/DTD/svg11.dtd">
<!-- Generated by graphviz version 2.38.0 (20140413.2041)
 -->
<!-- Title: adb.common.TcpHandle.TimeoutSeconds Pages: 1 -->
<svg width="374pt" height="127pt"
 viewBox="0.00 0.00 374.00 127.00" xmlns="http://www.w3.org/2000/svg" xmlns:xlink="http://www.w3.org/1999/xlink">
<g id="graph0" class="graph" transform="scale(1 1) rotate(0) translate(4 123)">
<title>adb.common.TcpHandle.TimeoutSeconds</title>
<polygon fill="white" stroke="none" points="-4,4 -4,-123 370,-123 370,4 -4,4"/>
<!-- Node1 -->
<g id="node1" class="node"><title>Node1</title>
<polygon fill="#bfbfbf" stroke="black" points="0,-44.5 0,-74.5 161,-74.5 161,-44.5 0,-44.5"/>
<text text-anchor="start" x="8" y="-62.5" font-family="Helvetica,sans-Serif" font-size="10.00">adb.common.TcpHandle.Timeout</text>
<text text-anchor="middle" x="80.5" y="-51.5" font-family="Helvetica,sans-Serif" font-size="10.00">Seconds</text>
</g>
<!-- Node2 -->
<g id="node2" class="node"><title>Node2</title>
<g id="a_node2"><a xlink:href="../adb.common_cli.html#adb.common.TcpHandle._connect" xlink:title="adb.common.TcpHandle.\l_connect">
<polygon fill="white" stroke="black" points="218.5,-88.5 218.5,-118.5 344.5,-118.5 344.5,-88.5 218.5,-88.5"/>
<text text-anchor="start" x="226.5" y="-106.5" font-family="Helvetica,sans-Serif" font-size="10.00">adb.common.TcpHandle.</text>
<text text-anchor="middle" x="281.5" y="-95.5" font-family="Helvetica,sans-Serif" font-size="10.00">_connect</text>
</a>
</g>
</g>
<!-- Node1&#45;&gt;Node2 -->
<g id="edge1" class="edge"><title>Node1&#45;&gt;Node2</title>
<path fill="none" stroke="midnightblue" d="M159.227,-76.6858C178.79,-81.0113 199.533,-85.5978 218.228,-89.7313"/>
<polygon fill="midnightblue" stroke="midnightblue" points="159.948,-73.2608 149.428,-74.5192 158.436,-80.0957 159.948,-73.2608"/>
</g>
<!-- Node3 -->
<g id="node3" class="node"><title>Node3</title>
<g id="a_node3"><a xlink:href="../adb.common_cli.html#adb.common.TcpHandle.BulkRead" xlink:title="adb.common.TcpHandle.BulkRead">
<polygon fill="white" stroke="black" points="197,-50 197,-69 366,-69 366,-50 197,-50"/>
<text text-anchor="middle" x="281.5" y="-57" font-family="Helvetica,sans-Serif" font-size="10.00">adb.common.TcpHandle.BulkRead</text>
</a>
</g>
</g>
<!-- Node1&#45;&gt;Node3 -->
<g id="edge2" class="edge"><title>Node1&#45;&gt;Node3</title>
<path fill="none" stroke="midnightblue" d="M171.042,-59.5C179.642,-59.5 188.342,-59.5 196.882,-59.5"/>
<polygon fill="midnightblue" stroke="midnightblue" points="171.008,-56.0001 161.008,-59.5 171.008,-63.0001 171.008,-56.0001"/>
</g>
<!-- Node4 -->
<g id="node4" class="node"><title>Node4</title>
<g id="a_node4"><a xlink:href="../adb.common_cli.html#adb.common.TcpHandle.BulkWrite" xlink:title="adb.common.TcpHandle.Bulk\lWrite">
<polygon fill="white" stroke="black" points="208.5,-0.5 208.5,-30.5 354.5,-30.5 354.5,-0.5 208.5,-0.5"/>
<text text-anchor="start" x="216.5" y="-18.5" font-family="Helvetica,sans-Serif" font-size="10.00">adb.common.TcpHandle.Bulk</text>
<text text-anchor="middle" x="281.5" y="-7.5" font-family="Helvetica,sans-Serif" font-size="10.00">Write</text>
</a>
</g>
</g>
<!-- Node1&#45;&gt;Node4 -->
<g id="edge3" class="edge"><title>Node1&#45;&gt;Node4</title>
<path fill="none" stroke="midnightblue" d="M159.6,-42.2316C177.089,-38.3648 195.503,-34.2934 212.541,-30.5262"/>
<polygon fill="midnightblue" stroke="midnightblue" points="158.436,-38.9043 149.428,-44.4808 159.948,-45.7392 158.436,-38.9043"/>
</g>
</g>
</svg>
