<?xml version="1.0" encoding="UTF-8" standalone="no"?>
<!DOCTYPE svg PUBLIC "-//W3C//DTD SVG 1.1//EN"
 "http://www.w3.org/Graphics/SVG/1.1/DTD/svg11.dtd">
<!-- Generated by graphviz version 2.38.0 (20140413.2041)
 -->
<!-- Title: adb.common.TcpHandle.BulkRead Pages: 1 -->
<svg width="573pt" height="66pt"
 viewBox="0.00 0.00 573.00 66.00" xmlns="http://www.w3.org/2000/svg" xmlns:xlink="http://www.w3.org/1999/xlink">
<g id="graph0" class="graph" transform="scale(1 1) rotate(0) translate(4 62)">
<title>adb.common.TcpHandle.BulkRead</title>
<polygon fill="white" stroke="none" points="-4,4 -4,-62 569,-62 569,4 -4,4"/>
<!-- Node1 -->
<g id="node1" class="node"><title>Node1</title>
<polygon fill="#bfbfbf" stroke="black" points="0,-19.5 0,-38.5 169,-38.5 169,-19.5 0,-19.5"/>
<text text-anchor="middle" x="84.5" y="-26.5" font-family="Helvetica,sans-Serif" font-size="10.00">adb.common.TcpHandle.BulkRead</text>
</g>
<!-- Node2 -->
<g id="node2" class="node"><title>Node2</title>
<g id="a_node2"><a xlink:href="../adb.common_cli.html#adb.common.TcpHandle.TimeoutSeconds" xlink:title="adb.common.TcpHandle.Timeout\lSeconds">
<polygon fill="white" stroke="black" points="205,-14 205,-44 366,-44 366,-14 205,-14"/>
<text text-anchor="start" x="213" y="-32" font-family="Helvetica,sans-Serif" font-size="10.00">adb.common.TcpHandle.Timeout</text>
<text text-anchor="middle" x="285.5" y="-21" font-family="Helvetica,sans-Serif" font-size="10.00">Seconds</text>
</a>
</g>
</g>
<!-- Node1&#45;&gt;Node2 -->
<g id="edge1" class="edge"><title>Node1&#45;&gt;Node2</title>
<path fill="none" stroke="midnightblue" d="M169.029,-29C177.423,-29 185.972,-29 194.43,-29"/>
<polygon fill="midnightblue" stroke="midnightblue" points="194.684,-32.5001 204.684,-29 194.684,-25.5001 194.684,-32.5001"/>
</g>
<!-- Node3 -->
<g id="node3" class="node"><title>Node3</title>
<g id="a_node3"><a xlink:href="../adb.common_cli.html#adb.common.UsbHandle.Timeout" xlink:title="adb.common.UsbHandle.Timeout">
<polygon fill="white" stroke="black" points="402,-38.5 402,-57.5 565,-57.5 565,-38.5 402,-38.5"/>
<text text-anchor="middle" x="483.5" y="-45.5" font-family="Helvetica,sans-Serif" font-size="10.00">adb.common.UsbHandle.Timeout</text>
</a>
</g>
</g>
<!-- Node2&#45;&gt;Node3 -->
<g id="edge2" class="edge"><title>Node2&#45;&gt;Node3</title>
<path fill="none" stroke="midnightblue" d="M366.221,-36.728C374.676,-37.5477 383.32,-38.3856 391.888,-39.2162"/>
<polygon fill="midnightblue" stroke="midnightblue" points="391.604,-42.705 401.895,-40.1863 392.28,-35.7377 391.604,-42.705"/>
</g>
<!-- Node4 -->
<g id="node4" class="node"><title>Node4</title>
<g id="a_node4"><a xlink:href="../adb.common_cli.html#adb.common.TcpHandle.Timeout" xlink:title="adb.common.TcpHandle.Timeout">
<polygon fill="white" stroke="black" points="403,-0.5 403,-19.5 564,-19.5 564,-0.5 403,-0.5"/>
<text text-anchor="middle" x="483.5" y="-7.5" font-family="Helvetica,sans-Serif" font-size="10.00">adb.common.TcpHandle.Timeout</text>
</a>
</g>
</g>
<!-- Node2&#45;&gt;Node4 -->
<g id="edge3" class="edge"><title>Node2&#45;&gt;Node4</title>
<path fill="none" stroke="midnightblue" d="M366.221,-21.272C374.999,-20.421 383.98,-19.5504 392.869,-18.6887"/>
<polygon fill="midnightblue" stroke="midnightblue" points="393.234,-22.1698 402.85,-17.7212 392.559,-15.2025 393.234,-22.1698"/>
</g>
</g>
</svg>
