<?xml version="1.0" encoding="UTF-8" standalone="no"?>
<!DOCTYPE svg PUBLIC "-//W3C//DTD SVG 1.1//EN"
 "http://www.w3.org/Graphics/SVG/1.1/DTD/svg11.dtd">
<!-- Generated by graphviz version 2.38.0 (20140413.2041)
 -->
<!-- Title: adb.fastboot.FastbootProtocol.SendCommand Pages: 1 -->
<svg width="907pt" height="98pt"
 viewBox="0.00 0.00 907.00 98.00" xmlns="http://www.w3.org/2000/svg" xmlns:xlink="http://www.w3.org/1999/xlink">
<g id="graph0" class="graph" transform="scale(1 1) rotate(0) translate(4 94)">
<title>adb.fastboot.FastbootProtocol.SendCommand</title>
<polygon fill="white" stroke="none" points="-4,4 -4,-94 903,-94 903,4 -4,4"/>
<!-- Node1 -->
<g id="node1" class="node"><title>Node1</title>
<polygon fill="#bfbfbf" stroke="black" points="0,-47.5 0,-77.5 151,-77.5 151,-47.5 0,-47.5"/>
<text text-anchor="start" x="8" y="-65.5" font-family="Helvetica,sans-Serif" font-size="10.00">adb.fastboot.FastbootProtocol.</text>
<text text-anchor="middle" x="75.5" y="-54.5" font-family="Helvetica,sans-Serif" font-size="10.00">SendCommand</text>
</g>
<!-- Node2 -->
<g id="node2" class="node"><title>Node2</title>
<g id="a_node2"><a xlink:href="../adb.fastboot_debug.html#adb.fastboot.FastbootProtocol._Write" xlink:title="adb.fastboot.FastbootProtocol.\l_Write">
<polygon fill="white" stroke="black" points="561,-59.5 561,-89.5 712,-89.5 712,-59.5 561,-59.5"/>
<text text-anchor="start" x="569" y="-77.5" font-family="Helvetica,sans-Serif" font-size="10.00">adb.fastboot.FastbootProtocol.</text>
<text text-anchor="middle" x="636.5" y="-66.5" font-family="Helvetica,sans-Serif" font-size="10.00">_Write</text>
</a>
</g>
</g>
<!-- Node1&#45;&gt;Node2 -->
<g id="edge1" class="edge"><title>Node1&#45;&gt;Node2</title>
<path fill="none" stroke="midnightblue" d="M151.02,-64.0997C254.541,-66.322 441.39,-70.3331 550.31,-72.6712"/>
<polygon fill="midnightblue" stroke="midnightblue" points="550.529,-76.1766 560.602,-72.8922 550.679,-69.1783 550.529,-76.1766"/>
</g>
<!-- Node4 -->
<g id="node4" class="node"><title>Node4</title>
<g id="a_node4"><a xlink:href="../adb.fastboot_debug.html#adb.fastboot.FastbootProtocol.HandleSimpleResponses" xlink:title="adb.fastboot.FastbootProtocol.\lHandleSimpleResponses">
<polygon fill="white" stroke="black" points="187,-25.5 187,-55.5 338,-55.5 338,-25.5 187,-25.5"/>
<text text-anchor="start" x="195" y="-43.5" font-family="Helvetica,sans-Serif" font-size="10.00">adb.fastboot.FastbootProtocol.</text>
<text text-anchor="middle" x="262.5" y="-32.5" font-family="Helvetica,sans-Serif" font-size="10.00">HandleSimpleResponses</text>
</a>
</g>
</g>
<!-- Node1&#45;&gt;Node4 -->
<g id="edge3" class="edge"><title>Node1&#45;&gt;Node4</title>
<path fill="none" stroke="midnightblue" d="M151.213,-53.6152C159.646,-52.6123 168.284,-51.5851 176.833,-50.5686"/>
<polygon fill="midnightblue" stroke="midnightblue" points="177.292,-54.0387 186.809,-49.3822 176.465,-47.0877 177.292,-54.0387"/>
</g>
<!-- Node3 -->
<g id="node3" class="node"><title>Node3</title>
<g id="a_node3"><a xlink:href="../adb.fastboot_debug.html#adb.fastboot.FastbootProtocol._HandleProgress" xlink:title="adb.fastboot.FastbootProtocol.\l_HandleProgress">
<polygon fill="white" stroke="black" points="748,-59.5 748,-89.5 899,-89.5 899,-59.5 748,-59.5"/>
<text text-anchor="start" x="756" y="-77.5" font-family="Helvetica,sans-Serif" font-size="10.00">adb.fastboot.FastbootProtocol.</text>
<text text-anchor="middle" x="823.5" y="-66.5" font-family="Helvetica,sans-Serif" font-size="10.00">_HandleProgress</text>
</a>
</g>
</g>
<!-- Node2&#45;&gt;Node3 -->
<g id="edge2" class="edge"><title>Node2&#45;&gt;Node3</title>
<path fill="none" stroke="midnightblue" d="M712.213,-74.5C720.555,-74.5 729.097,-74.5 737.554,-74.5"/>
<polygon fill="midnightblue" stroke="midnightblue" points="737.809,-78.0001 747.809,-74.5 737.809,-71.0001 737.809,-78.0001"/>
</g>
<!-- Node5 -->
<g id="node5" class="node"><title>Node5</title>
<g id="a_node5"><a xlink:href="../adb.fastboot_debug.html#adb.fastboot.FastbootProtocol._AcceptResponses" xlink:title="adb.fastboot.FastbootProtocol.\l_AcceptResponses">
<polygon fill="white" stroke="black" points="561,-0.5 561,-30.5 712,-30.5 712,-0.5 561,-0.5"/>
<text text-anchor="start" x="569" y="-18.5" font-family="Helvetica,sans-Serif" font-size="10.00">adb.fastboot.FastbootProtocol.</text>
<text text-anchor="middle" x="636.5" y="-7.5" font-family="Helvetica,sans-Serif" font-size="10.00">_AcceptResponses</text>
</a>
</g>
</g>
<!-- Node4&#45;&gt;Node5 -->
<g id="edge4" class="edge"><title>Node4&#45;&gt;Node5</title>
<path fill="none" stroke="midnightblue" d="M318.736,-25.4707C336.267,-21.3854 355.821,-17.5308 374,-15.5 432.795,-8.93195 499.492,-9.05061 550.81,-10.7503"/>
<polygon fill="midnightblue" stroke="midnightblue" points="550.743,-14.2501 560.862,-11.1099 550.994,-7.25457 550.743,-14.2501"/>
</g>
<!-- Node6 -->
<g id="node6" class="node"><title>Node6</title>
<g id="a_node6"><a xlink:href="../adb.fastboot_debug.html#adb.fastboot.FastbootProtocol.HandleDataSending" xlink:title="adb.fastboot.FastbootProtocol.\lHandleDataSending">
<polygon fill="white" stroke="black" points="374,-25.5 374,-55.5 525,-55.5 525,-25.5 374,-25.5"/>
<text text-anchor="start" x="382" y="-43.5" font-family="Helvetica,sans-Serif" font-size="10.00">adb.fastboot.FastbootProtocol.</text>
<text text-anchor="middle" x="449.5" y="-32.5" font-family="Helvetica,sans-Serif" font-size="10.00">HandleDataSending</text>
</a>
</g>
</g>
<!-- Node4&#45;&gt;Node6 -->
<g id="edge5" class="edge"><title>Node4&#45;&gt;Node6</title>
<path fill="none" stroke="midnightblue" d="M338.213,-40.5C346.555,-40.5 355.097,-40.5 363.554,-40.5"/>
<polygon fill="midnightblue" stroke="midnightblue" points="363.809,-44.0001 373.809,-40.5 363.809,-37.0001 363.809,-44.0001"/>
</g>
<!-- Node6&#45;&gt;Node2 -->
<g id="edge7" class="edge"><title>Node6&#45;&gt;Node2</title>
<path fill="none" stroke="midnightblue" d="M525.213,-54.2311C533.646,-55.781 542.284,-57.3685 550.833,-58.9395"/>
<polygon fill="midnightblue" stroke="midnightblue" points="550.341,-62.4076 560.809,-60.7729 551.606,-55.5229 550.341,-62.4076"/>
</g>
<!-- Node6&#45;&gt;Node5 -->
<g id="edge6" class="edge"><title>Node6&#45;&gt;Node5</title>
<path fill="none" stroke="midnightblue" d="M525.213,-30.4036C533.646,-29.264 542.284,-28.0967 550.833,-26.9415"/>
<polygon fill="midnightblue" stroke="midnightblue" points="551.367,-30.4012 560.809,-25.5934 550.43,-23.4642 551.367,-30.4012"/>
</g>
</g>
</svg>
