<?xml version="1.0" encoding="UTF-8" standalone="no"?>
<!DOCTYPE svg PUBLIC "-//W3C//DTD SVG 1.1//EN"
 "http://www.w3.org/Graphics/SVG/1.1/DTD/svg11.dtd">
<!-- Generated by graphviz version 2.38.0 (20140413.2041)
 -->
<!-- Title: adb.adb_protocol._AdbConnection.ReadUntilClose Pages: 1 -->
<svg width="843pt" height="61pt"
 viewBox="0.00 0.00 843.00 61.00" xmlns="http://www.w3.org/2000/svg" xmlns:xlink="http://www.w3.org/1999/xlink">
<g id="graph0" class="graph" transform="scale(1 1) rotate(0) translate(4 57)">
<title>adb.adb_protocol._AdbConnection.ReadUntilClose</title>
<polygon fill="white" stroke="none" points="-4,4 -4,-57 839,-57 839,4 -4,4"/>
<!-- Node1 -->
<g id="node1" class="node"><title>Node1</title>
<polygon fill="#bfbfbf" stroke="black" points="0,-0.5 0,-30.5 169,-30.5 169,-0.5 0,-0.5"/>
<text text-anchor="start" x="8" y="-18.5" font-family="Helvetica,sans-Serif" font-size="10.00">adb.adb_protocol._AdbConnection.</text>
<text text-anchor="middle" x="84.5" y="-7.5" font-family="Helvetica,sans-Serif" font-size="10.00">ReadUntilClose</text>
</g>
<!-- Node2 -->
<g id="node2" class="node"><title>Node2</title>
<g id="a_node2"><a xlink:href="../adb.adb_protocol.html#adb.adb_protocol._AdbConnection.ReadUntil" xlink:title="adb.adb_protocol._AdbConnection.\lReadUntil">
<polygon fill="white" stroke="black" points="205,-22.5 205,-52.5 374,-52.5 374,-22.5 205,-22.5"/>
<text text-anchor="start" x="213" y="-40.5" font-family="Helvetica,sans-Serif" font-size="10.00">adb.adb_protocol._AdbConnection.</text>
<text text-anchor="middle" x="289.5" y="-29.5" font-family="Helvetica,sans-Serif" font-size="10.00">ReadUntil</text>
</a>
</g>
</g>
<!-- Node1&#45;&gt;Node2 -->
<g id="edge1" class="edge"><title>Node1&#45;&gt;Node2</title>
<path fill="none" stroke="midnightblue" d="M169.24,-24.5753C177.718,-25.494 186.366,-26.4313 194.939,-27.3604"/>
<polygon fill="midnightblue" stroke="midnightblue" points="194.634,-30.8477 204.953,-28.4456 195.388,-23.8884 194.634,-30.8477"/>
</g>
<!-- Node4 -->
<g id="node4" class="node"><title>Node4</title>
<g id="a_node4"><a xlink:href="../adb.adb_protocol.html#adb.adb_protocol._AdbConnection._Send" xlink:title="adb.adb_protocol._AdbConnection._Send">
<polygon fill="white" stroke="black" points="638,-4 638,-23 835,-23 835,-4 638,-4"/>
<text text-anchor="middle" x="736.5" y="-11" font-family="Helvetica,sans-Serif" font-size="10.00">adb.adb_protocol._AdbConnection._Send</text>
</a>
</g>
</g>
<!-- Node1&#45;&gt;Node4 -->
<g id="edge4" class="edge"><title>Node1&#45;&gt;Node4</title>
<path fill="none" stroke="midnightblue" d="M169.069,-13.1349C181.124,-12.8714 193.379,-12.6458 205,-12.5 351.314,-10.6637 520.344,-11.4918 627.542,-12.3845"/>
<polygon fill="midnightblue" stroke="midnightblue" points="627.69,-15.8857 637.72,-12.471 627.75,-8.886 627.69,-15.8857"/>
</g>
<!-- Node3 -->
<g id="node3" class="node"><title>Node3</title>
<g id="a_node3"><a xlink:href="../adb.adb_protocol.html#adb.adb_protocol._AdbConnection.Okay" xlink:title="adb.adb_protocol._AdbConnection.Okay">
<polygon fill="white" stroke="black" points="410,-25 410,-44 602,-44 602,-25 410,-25"/>
<text text-anchor="middle" x="506" y="-32" font-family="Helvetica,sans-Serif" font-size="10.00">adb.adb_protocol._AdbConnection.Okay</text>
</a>
</g>
</g>
<!-- Node2&#45;&gt;Node3 -->
<g id="edge2" class="edge"><title>Node2&#45;&gt;Node3</title>
<path fill="none" stroke="midnightblue" d="M374.046,-36.3315C382.5,-36.2133 391.162,-36.0921 399.806,-35.9712"/>
<polygon fill="midnightblue" stroke="midnightblue" points="399.982,-39.4692 409.932,-35.8296 399.884,-32.4699 399.982,-39.4692"/>
</g>
<!-- Node3&#45;&gt;Node4 -->
<g id="edge3" class="edge"><title>Node3&#45;&gt;Node4</title>
<path fill="none" stroke="midnightblue" d="M602.25,-25.7462C610.699,-24.9696 619.292,-24.18 627.835,-23.3949"/>
<polygon fill="midnightblue" stroke="midnightblue" points="628.191,-26.8769 637.829,-22.4763 627.551,-19.9063 628.191,-26.8769"/>
</g>
</g>
</svg>
