<?xml version="1.0" encoding="UTF-8" standalone="no"?>
<!DOCTYPE svg PUBLIC "-//W3C//DTD SVG 1.1//EN"
 "http://www.w3.org/Graphics/SVG/1.1/DTD/svg11.dtd">
<!-- Generated by graphviz version 2.38.0 (20140413.2041)
 -->
<!-- Title: adb.fastboot.FastbootCommands.FlashFromFile Pages: 1 -->
<svg width="596pt" height="323pt"
 viewBox="0.00 0.00 596.00 323.00" xmlns="http://www.w3.org/2000/svg" xmlns:xlink="http://www.w3.org/1999/xlink">
<g id="graph0" class="graph" transform="scale(1 1) rotate(0) translate(4 319)">
<title>adb.fastboot.FastbootCommands.FlashFromFile</title>
<polygon fill="white" stroke="none" points="-4,4 -4,-319 592,-319 592,4 -4,4"/>
<!-- Node1 -->
<g id="node1" class="node"><title>Node1</title>
<polygon fill="#bfbfbf" stroke="black" points="0,-208.5 0,-238.5 165,-238.5 165,-208.5 0,-208.5"/>
<text text-anchor="start" x="8" y="-226.5" font-family="Helvetica,sans-Serif" font-size="10.00">adb.fastboot.FastbootCommands.</text>
<text text-anchor="middle" x="82.5" y="-215.5" font-family="Helvetica,sans-Serif" font-size="10.00">FlashFromFile</text>
</g>
<!-- Node2 -->
<g id="node2" class="node"><title>Node2</title>
<g id="a_node2"><a xlink:href="../adb.fastboot_debug.html#adb.fastboot.FastbootCommands._SimpleCommand" xlink:title="adb.fastboot.FastbootCommands.\l_SimpleCommand">
<polygon fill="white" stroke="black" points="201,-161.5 201,-191.5 366,-191.5 366,-161.5 201,-161.5"/>
<text text-anchor="start" x="209" y="-179.5" font-family="Helvetica,sans-Serif" font-size="10.00">adb.fastboot.FastbootCommands.</text>
<text text-anchor="middle" x="283.5" y="-168.5" font-family="Helvetica,sans-Serif" font-size="10.00">_SimpleCommand</text>
</a>
</g>
</g>
<!-- Node1&#45;&gt;Node2 -->
<g id="edge1" class="edge"><title>Node1&#45;&gt;Node2</title>
<path fill="none" stroke="midnightblue" d="M156.865,-206.173C177.225,-201.364 199.157,-196.184 218.909,-191.519"/>
<polygon fill="midnightblue" stroke="midnightblue" points="155.94,-202.795 147.012,-208.5 157.549,-209.607 155.94,-202.795"/>
</g>
<!-- Node3 -->
<g id="node3" class="node"><title>Node3</title>
<g id="a_node3"><a xlink:href="../adb.fastboot_debug.html#adb.fastboot.FastbootCommands.Continue" xlink:title="adb.fastboot.FastbootCommands.\lContinue">
<polygon fill="white" stroke="black" points="412.5,-235.5 412.5,-265.5 577.5,-265.5 577.5,-235.5 412.5,-235.5"/>
<text text-anchor="start" x="420.5" y="-253.5" font-family="Helvetica,sans-Serif" font-size="10.00">adb.fastboot.FastbootCommands.</text>
<text text-anchor="middle" x="495" y="-242.5" font-family="Helvetica,sans-Serif" font-size="10.00">Continue</text>
</a>
</g>
</g>
<!-- Node2&#45;&gt;Node3 -->
<g id="edge2" class="edge"><title>Node2&#45;&gt;Node3</title>
<path fill="none" stroke="midnightblue" d="M326.914,-195.754C349.03,-205.392 376.684,-216.823 402,-225.5 412.334,-229.042 423.454,-232.419 434.269,-235.482"/>
<polygon fill="midnightblue" stroke="midnightblue" points="328.047,-192.429 317.484,-191.607 325.229,-198.837 328.047,-192.429"/>
</g>
<!-- Node4 -->
<g id="node4" class="node"><title>Node4</title>
<g id="a_node4"><a xlink:href="../adb.fastboot_debug.html#adb.fastboot.FastbootCommands.Erase" xlink:title="adb.fastboot.FastbootCommands.\lErase">
<polygon fill="white" stroke="black" points="412.5,-186.5 412.5,-216.5 577.5,-216.5 577.5,-186.5 412.5,-186.5"/>
<text text-anchor="start" x="420.5" y="-204.5" font-family="Helvetica,sans-Serif" font-size="10.00">adb.fastboot.FastbootCommands.</text>
<text text-anchor="middle" x="495" y="-193.5" font-family="Helvetica,sans-Serif" font-size="10.00">Erase</text>
</a>
</g>
</g>
<!-- Node2&#45;&gt;Node4 -->
<g id="edge3" class="edge"><title>Node2&#45;&gt;Node4</title>
<path fill="none" stroke="midnightblue" d="M376.134,-187.435C388.164,-188.87 400.429,-190.334 412.28,-191.748"/>
<polygon fill="midnightblue" stroke="midnightblue" points="376.442,-183.947 366.098,-186.237 375.613,-190.898 376.442,-183.947"/>
</g>
<!-- Node5 -->
<g id="node5" class="node"><title>Node5</title>
<g id="a_node5"><a xlink:href="../adb.fastboot_debug.html#adb.fastboot.FastbootCommands.Flash" xlink:title="adb.fastboot.FastbootCommands.\lFlash">
<polygon fill="white" stroke="black" points="412.5,-284.5 412.5,-314.5 577.5,-314.5 577.5,-284.5 412.5,-284.5"/>
<text text-anchor="start" x="420.5" y="-302.5" font-family="Helvetica,sans-Serif" font-size="10.00">adb.fastboot.FastbootCommands.</text>
<text text-anchor="middle" x="495" y="-291.5" font-family="Helvetica,sans-Serif" font-size="10.00">Flash</text>
</a>
</g>
</g>
<!-- Node2&#45;&gt;Node5 -->
<g id="edge4" class="edge"><title>Node2&#45;&gt;Node5</title>
<path fill="none" stroke="midnightblue" d="M305.726,-199.174C327.776,-221.442 364.278,-254.85 402,-274.5 409.34,-278.323 417.322,-281.607 425.415,-284.416"/>
<polygon fill="midnightblue" stroke="midnightblue" points="308.034,-196.527 298.551,-191.803 303.018,-201.41 308.034,-196.527"/>
</g>
<!-- Node6 -->
<g id="node6" class="node"><title>Node6</title>
<g id="a_node6"><a xlink:href="../adb.fastboot_debug.html#adb.fastboot.FastbootCommands.Getvar" xlink:title="adb.fastboot.FastbootCommands.\lGetvar">
<polygon fill="white" stroke="black" points="412.5,-137.5 412.5,-167.5 577.5,-167.5 577.5,-137.5 412.5,-137.5"/>
<text text-anchor="start" x="420.5" y="-155.5" font-family="Helvetica,sans-Serif" font-size="10.00">adb.fastboot.FastbootCommands.</text>
<text text-anchor="middle" x="495" y="-144.5" font-family="Helvetica,sans-Serif" font-size="10.00">Getvar</text>
</a>
</g>
</g>
<!-- Node2&#45;&gt;Node6 -->
<g id="edge6" class="edge"><title>Node2&#45;&gt;Node6</title>
<path fill="none" stroke="midnightblue" d="M376.134,-166.003C388.164,-164.624 400.429,-163.219 412.28,-161.862"/>
<polygon fill="midnightblue" stroke="midnightblue" points="375.635,-162.537 366.098,-167.152 376.431,-169.491 375.635,-162.537"/>
</g>
<!-- Node7 -->
<g id="node7" class="node"><title>Node7</title>
<g id="a_node7"><a xlink:href="../adb.fastboot_debug.html#adb.fastboot.FastbootCommands.Oem" xlink:title="adb.fastboot.FastbootCommands.Oem">
<polygon fill="white" stroke="black" points="402,-99 402,-118 588,-118 588,-99 402,-99"/>
<text text-anchor="middle" x="495" y="-106" font-family="Helvetica,sans-Serif" font-size="10.00">adb.fastboot.FastbootCommands.Oem</text>
</a>
</g>
</g>
<!-- Node2&#45;&gt;Node7 -->
<g id="edge7" class="edge"><title>Node2&#45;&gt;Node7</title>
<path fill="none" stroke="midnightblue" d="M325.453,-157.148C347.712,-147.213 375.944,-135.542 402,-127.5 413.844,-123.844 426.764,-120.685 439.077,-118.049"/>
<polygon fill="midnightblue" stroke="midnightblue" points="323.974,-153.976 316.303,-161.284 326.857,-160.354 323.974,-153.976"/>
</g>
<!-- Node8 -->
<g id="node8" class="node"><title>Node8</title>
<g id="a_node8"><a xlink:href="../adb.fastboot_debug.html#adb.fastboot.FastbootCommands.Reboot" xlink:title="adb.fastboot.FastbootCommands.\lReboot">
<polygon fill="white" stroke="black" points="412.5,-49.5 412.5,-79.5 577.5,-79.5 577.5,-49.5 412.5,-49.5"/>
<text text-anchor="start" x="420.5" y="-67.5" font-family="Helvetica,sans-Serif" font-size="10.00">adb.fastboot.FastbootCommands.</text>
<text text-anchor="middle" x="495" y="-56.5" font-family="Helvetica,sans-Serif" font-size="10.00">Reboot</text>
</a>
</g>
</g>
<!-- Node2&#45;&gt;Node8 -->
<g id="edge8" class="edge"><title>Node2&#45;&gt;Node8</title>
<path fill="none" stroke="midnightblue" d="M308.418,-154.561C331.004,-134.923 366.604,-106.657 402,-89.5 409.894,-85.6738 418.462,-82.3603 427.088,-79.5113"/>
<polygon fill="midnightblue" stroke="midnightblue" points="305.888,-152.126 300.711,-161.369 310.523,-157.372 305.888,-152.126"/>
</g>
<!-- Node9 -->
<g id="node9" class="node"><title>Node9</title>
<g id="a_node9"><a xlink:href="../adb.fastboot_debug.html#adb.fastboot.FastbootCommands.RebootBootloader" xlink:title="adb.fastboot.FastbootCommands.\lRebootBootloader">
<polygon fill="white" stroke="black" points="412.5,-0.5 412.5,-30.5 577.5,-30.5 577.5,-0.5 412.5,-0.5"/>
<text text-anchor="start" x="420.5" y="-18.5" font-family="Helvetica,sans-Serif" font-size="10.00">adb.fastboot.FastbootCommands.</text>
<text text-anchor="middle" x="495" y="-7.5" font-family="Helvetica,sans-Serif" font-size="10.00">RebootBootloader</text>
</a>
</g>
</g>
<!-- Node2&#45;&gt;Node9 -->
<g id="edge9" class="edge"><title>Node2&#45;&gt;Node9</title>
<path fill="none" stroke="midnightblue" d="M298.712,-152.229C318.098,-121.3 355.763,-68.3931 402,-39.5 407.459,-36.0885 413.391,-33.1594 419.523,-30.6449"/>
<polygon fill="midnightblue" stroke="midnightblue" points="295.534,-150.716 293.293,-161.072 301.503,-154.374 295.534,-150.716"/>
</g>
<!-- Node5&#45;&gt;Node1 -->
<g id="edge5" class="edge"><title>Node5&#45;&gt;Node1</title>
<path fill="none" stroke="midnightblue" d="M402.836,-282.622C331.502,-269.415 233.223,-251.22 164.602,-238.515"/>
<polygon fill="midnightblue" stroke="midnightblue" points="402.246,-286.072 412.716,-284.451 403.521,-279.189 402.246,-286.072"/>
</g>
</g>
</svg>
