<?xml version="1.0" encoding="UTF-8" standalone="no"?>
<!DOCTYPE svg PUBLIC "-//W3C//DTD SVG 1.1//EN"
 "http://www.w3.org/Graphics/SVG/1.1/DTD/svg11.dtd">
<!-- Generated by graphviz version 2.38.0 (20140413.2041)
 -->
<!-- Title: adb.fastboot.FastbootCommands.Getvar Pages: 1 -->
<svg width="776pt" height="88pt"
 viewBox="0.00 0.00 776.00 88.00" xmlns="http://www.w3.org/2000/svg" xmlns:xlink="http://www.w3.org/1999/xlink">
<g id="graph0" class="graph" transform="scale(1 1) rotate(0) translate(4 84)">
<title>adb.fastboot.FastbootCommands.Getvar</title>
<polygon fill="white" stroke="none" points="-4,4 -4,-84 772,-84 772,4 -4,4"/>
<!-- Node1 -->
<g id="node1" class="node"><title>Node1</title>
<polygon fill="#bfbfbf" stroke="black" points="0,-22.5 0,-52.5 165,-52.5 165,-22.5 0,-22.5"/>
<text text-anchor="start" x="8" y="-40.5" font-family="Helvetica,sans-Serif" font-size="10.00">adb.fastboot.FastbootCommands.</text>
<text text-anchor="middle" x="82.5" y="-29.5" font-family="Helvetica,sans-Serif" font-size="10.00">Getvar</text>
</g>
<!-- Node2 -->
<g id="node2" class="node"><title>Node2</title>
<g id="a_node2"><a xlink:href="../adb.fastboot_debug.html#adb.fastboot.FastbootCommands._SimpleCommand" xlink:title="adb.fastboot.FastbootCommands.\l_SimpleCommand">
<polygon fill="white" stroke="black" points="201,-22.5 201,-52.5 366,-52.5 366,-22.5 201,-22.5"/>
<text text-anchor="start" x="209" y="-40.5" font-family="Helvetica,sans-Serif" font-size="10.00">adb.fastboot.FastbootCommands.</text>
<text text-anchor="middle" x="283.5" y="-29.5" font-family="Helvetica,sans-Serif" font-size="10.00">_SimpleCommand</text>
</a>
</g>
</g>
<!-- Node1&#45;&gt;Node2 -->
<g id="edge1" class="edge"><title>Node1&#45;&gt;Node2</title>
<path fill="none" stroke="midnightblue" d="M165.015,-37.5C173.501,-37.5 182.168,-37.5 190.758,-37.5"/>
<polygon fill="midnightblue" stroke="midnightblue" points="190.79,-41.0001 200.79,-37.5 190.79,-34.0001 190.79,-41.0001"/>
</g>
<!-- Node3 -->
<g id="node3" class="node"><title>Node3</title>
<g id="a_node3"><a xlink:href="../adb.fastboot_debug.html#adb.fastboot.FastbootCommands.FlashFromFile" xlink:title="adb.fastboot.FastbootCommands.\lFlashFromFile">
<polygon fill="white" stroke="black" points="402,-44.5 402,-74.5 567,-74.5 567,-44.5 402,-44.5"/>
<text text-anchor="start" x="410" y="-62.5" font-family="Helvetica,sans-Serif" font-size="10.00">adb.fastboot.FastbootCommands.</text>
<text text-anchor="middle" x="484.5" y="-51.5" font-family="Helvetica,sans-Serif" font-size="10.00">FlashFromFile</text>
</a>
</g>
</g>
<!-- Node2&#45;&gt;Node3 -->
<g id="edge2" class="edge"><title>Node2&#45;&gt;Node3</title>
<path fill="none" stroke="midnightblue" d="M366.015,-46.5117C374.501,-47.4499 383.168,-48.4081 391.758,-49.3576"/>
<polygon fill="midnightblue" stroke="midnightblue" points="391.466,-52.8466 401.79,-50.4667 392.235,-45.889 391.466,-52.8466"/>
</g>
<!-- Node4 -->
<g id="node4" class="node"><title>Node4</title>
<g id="a_node4"><a xlink:href="../adb.fastboot_debug.html#adb.fastboot.FastbootCommands.Download" xlink:title="adb.fastboot.FastbootCommands.\lDownload">
<polygon fill="white" stroke="black" points="603,-49.5 603,-79.5 768,-79.5 768,-49.5 603,-49.5"/>
<text text-anchor="start" x="611" y="-67.5" font-family="Helvetica,sans-Serif" font-size="10.00">adb.fastboot.FastbootCommands.</text>
<text text-anchor="middle" x="685.5" y="-56.5" font-family="Helvetica,sans-Serif" font-size="10.00">Download</text>
</a>
</g>
</g>
<!-- Node3&#45;&gt;Node4 -->
<g id="edge3" class="edge"><title>Node3&#45;&gt;Node4</title>
<path fill="none" stroke="midnightblue" d="M567.015,-61.5481C575.501,-61.7613 584.168,-61.9791 592.758,-62.1949"/>
<polygon fill="midnightblue" stroke="midnightblue" points="592.705,-65.6946 602.79,-62.447 592.881,-58.6968 592.705,-65.6946"/>
</g>
<!-- Node5 -->
<g id="node5" class="node"><title>Node5</title>
<g id="a_node5"><a xlink:href="../adb.fastboot_debug.html#adb.fastboot.FastbootCommands.Flash" xlink:title="adb.fastboot.FastbootCommands.\lFlash">
<polygon fill="white" stroke="black" points="603,-0.5 603,-30.5 768,-30.5 768,-0.5 603,-0.5"/>
<text text-anchor="start" x="611" y="-18.5" font-family="Helvetica,sans-Serif" font-size="10.00">adb.fastboot.FastbootCommands.</text>
<text text-anchor="middle" x="685.5" y="-7.5" font-family="Helvetica,sans-Serif" font-size="10.00">Flash</text>
</a>
</g>
</g>
<!-- Node3&#45;&gt;Node5 -->
<g id="edge4" class="edge"><title>Node3&#45;&gt;Node5</title>
<path fill="none" stroke="midnightblue" d="M553.428,-44.4808C570.464,-40.714 588.878,-36.6426 606.367,-32.7756"/>
<polygon fill="midnightblue" stroke="midnightblue" points="607.532,-36.1027 616.541,-30.5262 606.021,-29.2677 607.532,-36.1027"/>
</g>
<!-- Node5&#45;&gt;Node2 -->
<g id="edge5" class="edge"><title>Node5&#45;&gt;Node2</title>
<path fill="none" stroke="midnightblue" d="M602.698,-19.9991C537.072,-23.6086 444.964,-28.6745 376.725,-32.4276"/>
<polygon fill="midnightblue" stroke="midnightblue" points="376.204,-28.9509 366.411,-32.9949 376.588,-35.9403 376.204,-28.9509"/>
</g>
</g>
</svg>
