<?xml version="1.0" encoding="UTF-8" standalone="no"?>
<!DOCTYPE svg PUBLIC "-//W3C//DTD SVG 1.1//EN"
 "http://www.w3.org/Graphics/SVG/1.1/DTD/svg11.dtd">
<!-- Generated by graphviz version 2.38.0 (20140413.2041)
 -->
<!-- Title: adb.filesync_protocol.FileSyncConnection._CanAddToSendBuffer Pages: 1 -->
<svg width="364pt" height="39pt"
 viewBox="0.00 0.00 364.00 39.00" xmlns="http://www.w3.org/2000/svg" xmlns:xlink="http://www.w3.org/1999/xlink">
<g id="graph0" class="graph" transform="scale(1 1) rotate(0) translate(4 35)">
<title>adb.filesync_protocol.FileSyncConnection._CanAddToSendBuffer</title>
<polygon fill="white" stroke="none" points="-4,4 -4,-35 360,-35 360,4 -4,4"/>
<!-- Node1 -->
<g id="node1" class="node"><title>Node1</title>
<polygon fill="#bfbfbf" stroke="black" points="0,-0.5 0,-30.5 192,-30.5 192,-0.5 0,-0.5"/>
<text text-anchor="start" x="8" y="-18.5" font-family="Helvetica,sans-Serif" font-size="10.00">adb.filesync_protocol.File</text>
<text text-anchor="middle" x="96" y="-7.5" font-family="Helvetica,sans-Serif" font-size="10.00">SyncConnection._CanAddToSendBuffer</text>
</g>
<!-- Node2 -->
<g id="node2" class="node"><title>Node2</title>
<g id="a_node2"><a xlink:href="../adb.filesync_protocol.html#adb.filesync_protocol.FileSyncConnection.Send" xlink:title="adb.filesync_protocol.File\lSyncConnection.Send">
<polygon fill="white" stroke="black" points="228,-0.5 228,-30.5 356,-30.5 356,-0.5 228,-0.5"/>
<text text-anchor="start" x="236" y="-18.5" font-family="Helvetica,sans-Serif" font-size="10.00">adb.filesync_protocol.File</text>
<text text-anchor="middle" x="292" y="-7.5" font-family="Helvetica,sans-Serif" font-size="10.00">SyncConnection.Send</text>
</a>
</g>
</g>
<!-- Node1&#45;&gt;Node2 -->
<g id="edge1" class="edge"><title>Node1&#45;&gt;Node2</title>
<path fill="none" stroke="midnightblue" d="M202.291,-15.5C211.028,-15.5 219.674,-15.5 227.943,-15.5"/>
<polygon fill="midnightblue" stroke="midnightblue" points="202.011,-12.0001 192.011,-15.5 202.011,-19.0001 202.011,-12.0001"/>
</g>
</g>
</svg>
