<?xml version="1.0" encoding="UTF-8" standalone="no"?>
<!DOCTYPE svg PUBLIC "-//W3C//DTD SVG 1.1//EN"
 "http://www.w3.org/Graphics/SVG/1.1/DTD/svg11.dtd">
<!-- Generated by graphviz version 2.38.0 (20140413.2041)
 -->
<!-- Title: adb.common.UsbHandle.PortPathMatcher Pages: 1 -->
<svg width="706pt" height="61pt"
 viewBox="0.00 0.00 706.00 61.00" xmlns="http://www.w3.org/2000/svg" xmlns:xlink="http://www.w3.org/1999/xlink">
<g id="graph0" class="graph" transform="scale(1 1) rotate(0) translate(4 57)">
<title>adb.common.UsbHandle.PortPathMatcher</title>
<polygon fill="white" stroke="none" points="-4,4 -4,-57 702,-57 702,4 -4,4"/>
<!-- Node1 -->
<g id="node1" class="node"><title>Node1</title>
<polygon fill="#bfbfbf" stroke="black" points="0,-0.5 0,-30.5 146,-30.5 146,-0.5 0,-0.5"/>
<text text-anchor="start" x="8" y="-18.5" font-family="Helvetica,sans-Serif" font-size="10.00">adb.common.UsbHandle.Port</text>
<text text-anchor="middle" x="73" y="-7.5" font-family="Helvetica,sans-Serif" font-size="10.00">PathMatcher</text>
</g>
<!-- Node2 -->
<g id="node2" class="node"><title>Node2</title>
<g id="a_node2"><a xlink:href="../adb.common_cli.html#adb.common.UsbHandle.Find" xlink:title="adb.common.UsbHandle.Find">
<polygon fill="white" stroke="black" points="182,-6 182,-25 328,-25 328,-6 182,-6"/>
<text text-anchor="middle" x="255" y="-13" font-family="Helvetica,sans-Serif" font-size="10.00">adb.common.UsbHandle.Find</text>
</a>
</g>
</g>
<!-- Node1&#45;&gt;Node2 -->
<g id="edge1" class="edge"><title>Node1&#45;&gt;Node2</title>
<path fill="none" stroke="midnightblue" d="M156.439,-15.5C164.906,-15.5 173.464,-15.5 181.808,-15.5"/>
<polygon fill="midnightblue" stroke="midnightblue" points="156.176,-12.0001 146.176,-15.5 156.176,-19.0001 156.176,-12.0001"/>
</g>
<!-- Node3 -->
<g id="node3" class="node"><title>Node3</title>
<g id="a_node3"><a xlink:href="../adb.common_cli.html#adb.common.UsbHandle.FindAndOpen" xlink:title="adb.common.UsbHandle.Find\lAndOpen">
<polygon fill="white" stroke="black" points="364,-22.5 364,-52.5 510,-52.5 510,-22.5 364,-22.5"/>
<text text-anchor="start" x="372" y="-40.5" font-family="Helvetica,sans-Serif" font-size="10.00">adb.common.UsbHandle.Find</text>
<text text-anchor="middle" x="437" y="-29.5" font-family="Helvetica,sans-Serif" font-size="10.00">AndOpen</text>
</a>
</g>
</g>
<!-- Node2&#45;&gt;Node3 -->
<g id="edge2" class="edge"><title>Node2&#45;&gt;Node3</title>
<path fill="none" stroke="midnightblue" d="M338.16,-25.5418C346.718,-26.5878 355.372,-27.6455 363.808,-28.6765"/>
<polygon fill="midnightblue" stroke="midnightblue" points="338.527,-22.0606 328.176,-24.3215 337.677,-29.0089 338.527,-22.0606"/>
</g>
<!-- Node4 -->
<g id="node4" class="node"><title>Node4</title>
<g id="a_node4"><a xlink:href="../adb.common_cli.html#adb.common.UsbHandle.SerialMatcher" xlink:title="adb.common.UsbHandle.Serial\lMatcher">
<polygon fill="white" stroke="black" points="546,-0.5 546,-30.5 698,-30.5 698,-0.5 546,-0.5"/>
<text text-anchor="start" x="554" y="-18.5" font-family="Helvetica,sans-Serif" font-size="10.00">adb.common.UsbHandle.Serial</text>
<text text-anchor="middle" x="622" y="-7.5" font-family="Helvetica,sans-Serif" font-size="10.00">Matcher</text>
</a>
</g>
</g>
<!-- Node3&#45;&gt;Node4 -->
<g id="edge3" class="edge"><title>Node3&#45;&gt;Node4</title>
<path fill="none" stroke="midnightblue" d="M520.111,-27.6288C528.729,-26.5927 537.46,-25.5431 545.992,-24.5173"/>
<polygon fill="midnightblue" stroke="midnightblue" points="519.574,-24.1679 510.064,-28.8366 520.41,-31.1179 519.574,-24.1679"/>
</g>
<!-- Node4&#45;&gt;Node2 -->
<g id="edge4" class="edge"><title>Node4&#45;&gt;Node2</title>
<path fill="none" stroke="midnightblue" d="M535.63,-13.8065C526.973,-13.6813 518.312,-13.5749 510,-13.5 445.114,-12.9155 428.886,-12.8993 364,-13.5 352.374,-13.6076 340.044,-13.7805 328.034,-13.9806"/>
<polygon fill="midnightblue" stroke="midnightblue" points="535.717,-17.3081 545.77,-13.9613 535.824,-10.3089 535.717,-17.3081"/>
</g>
</g>
</svg>
