<?xml version="1.0" encoding="UTF-8" standalone="no"?>
<!DOCTYPE svg PUBLIC "-//W3C//DTD SVG 1.1//EN"
 "http://www.w3.org/Graphics/SVG/1.1/DTD/svg11.dtd">
<!-- Generated by graphviz version 2.38.0 (20140413.2041)
 -->
<!-- Title: adb.usb_exceptions.ReadFailedError Pages: 1 -->
<svg width="164pt" height="229pt"
 viewBox="0.00 0.00 164.00 229.00" xmlns="http://www.w3.org/2000/svg" xmlns:xlink="http://www.w3.org/1999/xlink">
<g id="graph0" class="graph" transform="scale(1 1) rotate(0) translate(4 225)">
<title>adb.usb_exceptions.ReadFailedError</title>
<polygon fill="white" stroke="none" points="-4,4 -4,-225 160,-225 160,4 -4,4"/>
<!-- Node1 -->
<g id="node1" class="node"><title>Node1</title>
<polygon fill="#bfbfbf" stroke="black" points="0,-0.5 0,-30.5 156,-30.5 156,-0.5 0,-0.5"/>
<text text-anchor="start" x="8" y="-18.5" font-family="Helvetica,sans-Serif" font-size="10.00">adb.usb_exceptions.ReadFailed</text>
<text text-anchor="middle" x="78" y="-7.5" font-family="Helvetica,sans-Serif" font-size="10.00">Error</text>
</g>
<!-- Node2 -->
<g id="node2" class="node"><title>Node2</title>
<polygon fill="white" stroke="black" points="10.5,-67.5 10.5,-97.5 145.5,-97.5 145.5,-67.5 10.5,-67.5"/>
<text text-anchor="start" x="18.5" y="-85.5" font-family="Helvetica,sans-Serif" font-size="10.00">adb.usb_exceptions.Libusb</text>
<text text-anchor="middle" x="78" y="-74.5" font-family="Helvetica,sans-Serif" font-size="10.00">WrappingError</text>
</g>
<!-- Node2&#45;&gt;Node1 -->
<g id="edge1" class="edge"><title>Node2&#45;&gt;Node1</title>
<path fill="none" stroke="midnightblue" d="M78,-57.1081C78,-48.1539 78,-38.3227 78,-30.5765"/>
<polygon fill="midnightblue" stroke="midnightblue" points="74.5001,-57.3959 78,-67.396 81.5001,-57.396 74.5001,-57.3959"/>
</g>
<!-- Node3 -->
<g id="node3" class="node"><title>Node3</title>
<polygon fill="white" stroke="black" points="5,-134.5 5,-164.5 151,-164.5 151,-134.5 5,-134.5"/>
<text text-anchor="start" x="13" y="-152.5" font-family="Helvetica,sans-Serif" font-size="10.00">adb.usb_exceptions.Common</text>
<text text-anchor="middle" x="78" y="-141.5" font-family="Helvetica,sans-Serif" font-size="10.00">UsbError</text>
</g>
<!-- Node3&#45;&gt;Node2 -->
<g id="edge2" class="edge"><title>Node3&#45;&gt;Node2</title>
<path fill="none" stroke="midnightblue" d="M78,-124.108C78,-115.154 78,-105.323 78,-97.5765"/>
<polygon fill="midnightblue" stroke="midnightblue" points="74.5001,-124.396 78,-134.396 81.5001,-124.396 74.5001,-124.396"/>
</g>
<!-- Node4 -->
<g id="node4" class="node"><title>Node4</title>
<polygon fill="white" stroke="#bfbfbf" points="48,-201.5 48,-220.5 108,-220.5 108,-201.5 48,-201.5"/>
<text text-anchor="middle" x="78" y="-208.5" font-family="Helvetica,sans-Serif" font-size="10.00">Exception</text>
</g>
<!-- Node4&#45;&gt;Node3 -->
<g id="edge3" class="edge"><title>Node4&#45;&gt;Node3</title>
<path fill="none" stroke="midnightblue" d="M78,-191.235C78,-182.586 78,-172.497 78,-164.523"/>
<polygon fill="midnightblue" stroke="midnightblue" points="74.5001,-191.475 78,-201.475 81.5001,-191.475 74.5001,-191.475"/>
</g>
</g>
</svg>
