<?xml version="1.0" encoding="UTF-8" standalone="no"?>
<!DOCTYPE svg PUBLIC "-//W3C//DTD SVG 1.1//EN"
 "http://www.w3.org/Graphics/SVG/1.1/DTD/svg11.dtd">
<!-- Generated by graphviz version 2.38.0 (20140413.2041)
 -->
<!-- Title: adb.common.UsbHandle.FindDevices Pages: 1 -->
<svg width="888pt" height="61pt"
 viewBox="0.00 0.00 888.00 61.00" xmlns="http://www.w3.org/2000/svg" xmlns:xlink="http://www.w3.org/1999/xlink">
<g id="graph0" class="graph" transform="scale(1 1) rotate(0) translate(4 57)">
<title>adb.common.UsbHandle.FindDevices</title>
<polygon fill="white" stroke="none" points="-4,4 -4,-57 884,-57 884,4 -4,4"/>
<!-- Node1 -->
<g id="node1" class="node"><title>Node1</title>
<polygon fill="#bfbfbf" stroke="black" points="0,-0.5 0,-30.5 146,-30.5 146,-0.5 0,-0.5"/>
<text text-anchor="start" x="8" y="-18.5" font-family="Helvetica,sans-Serif" font-size="10.00">adb.common.UsbHandle.Find</text>
<text text-anchor="middle" x="73" y="-7.5" font-family="Helvetica,sans-Serif" font-size="10.00">Devices</text>
</g>
<!-- Node2 -->
<g id="node2" class="node"><title>Node2</title>
<g id="a_node2"><a xlink:href="../adb.common_cli.html#adb.common.UsbHandle.FindFirst" xlink:title="adb.common.UsbHandle.Find\lFirst">
<polygon fill="white" stroke="black" points="182,-0.5 182,-30.5 328,-30.5 328,-0.5 182,-0.5"/>
<text text-anchor="start" x="190" y="-18.5" font-family="Helvetica,sans-Serif" font-size="10.00">adb.common.UsbHandle.Find</text>
<text text-anchor="middle" x="255" y="-7.5" font-family="Helvetica,sans-Serif" font-size="10.00">First</text>
</a>
</g>
</g>
<!-- Node1&#45;&gt;Node2 -->
<g id="edge1" class="edge"><title>Node1&#45;&gt;Node2</title>
<path fill="none" stroke="midnightblue" d="M156.439,-15.5C164.906,-15.5 173.464,-15.5 181.808,-15.5"/>
<polygon fill="midnightblue" stroke="midnightblue" points="156.176,-12.0001 146.176,-15.5 156.176,-19.0001 156.176,-12.0001"/>
</g>
<!-- Node3 -->
<g id="node3" class="node"><title>Node3</title>
<g id="a_node3"><a xlink:href="../adb.common_cli.html#adb.common.UsbHandle.Find" xlink:title="adb.common.UsbHandle.Find">
<polygon fill="white" stroke="black" points="364,-6 364,-25 510,-25 510,-6 364,-6"/>
<text text-anchor="middle" x="437" y="-13" font-family="Helvetica,sans-Serif" font-size="10.00">adb.common.UsbHandle.Find</text>
</a>
</g>
</g>
<!-- Node2&#45;&gt;Node3 -->
<g id="edge2" class="edge"><title>Node2&#45;&gt;Node3</title>
<path fill="none" stroke="midnightblue" d="M338.439,-15.5C346.906,-15.5 355.464,-15.5 363.808,-15.5"/>
<polygon fill="midnightblue" stroke="midnightblue" points="338.176,-12.0001 328.176,-15.5 338.176,-19.0001 338.176,-12.0001"/>
</g>
<!-- Node4 -->
<g id="node4" class="node"><title>Node4</title>
<g id="a_node4"><a xlink:href="../adb.common_cli.html#adb.common.UsbHandle.FindAndOpen" xlink:title="adb.common.UsbHandle.Find\lAndOpen">
<polygon fill="white" stroke="black" points="546,-22.5 546,-52.5 692,-52.5 692,-22.5 546,-22.5"/>
<text text-anchor="start" x="554" y="-40.5" font-family="Helvetica,sans-Serif" font-size="10.00">adb.common.UsbHandle.Find</text>
<text text-anchor="middle" x="619" y="-29.5" font-family="Helvetica,sans-Serif" font-size="10.00">AndOpen</text>
</a>
</g>
</g>
<!-- Node3&#45;&gt;Node4 -->
<g id="edge3" class="edge"><title>Node3&#45;&gt;Node4</title>
<path fill="none" stroke="midnightblue" d="M520.16,-25.5418C528.718,-26.5878 537.372,-27.6455 545.808,-28.6765"/>
<polygon fill="midnightblue" stroke="midnightblue" points="520.527,-22.0606 510.176,-24.3215 519.677,-29.0089 520.527,-22.0606"/>
</g>
<!-- Node5 -->
<g id="node5" class="node"><title>Node5</title>
<g id="a_node5"><a xlink:href="../adb.common_cli.html#adb.common.UsbHandle.SerialMatcher" xlink:title="adb.common.UsbHandle.Serial\lMatcher">
<polygon fill="white" stroke="black" points="728,-0.5 728,-30.5 880,-30.5 880,-0.5 728,-0.5"/>
<text text-anchor="start" x="736" y="-18.5" font-family="Helvetica,sans-Serif" font-size="10.00">adb.common.UsbHandle.Serial</text>
<text text-anchor="middle" x="804" y="-7.5" font-family="Helvetica,sans-Serif" font-size="10.00">Matcher</text>
</a>
</g>
</g>
<!-- Node4&#45;&gt;Node5 -->
<g id="edge4" class="edge"><title>Node4&#45;&gt;Node5</title>
<path fill="none" stroke="midnightblue" d="M702.111,-27.6288C710.729,-26.5927 719.46,-25.5431 727.992,-24.5173"/>
<polygon fill="midnightblue" stroke="midnightblue" points="701.574,-24.1679 692.064,-28.8366 702.41,-31.1179 701.574,-24.1679"/>
</g>
<!-- Node5&#45;&gt;Node3 -->
<g id="edge5" class="edge"><title>Node5&#45;&gt;Node3</title>
<path fill="none" stroke="midnightblue" d="M717.63,-13.8065C708.973,-13.6813 700.312,-13.5749 692,-13.5 627.114,-12.9155 610.886,-12.8993 546,-13.5 534.374,-13.6076 522.044,-13.7805 510.034,-13.9806"/>
<polygon fill="midnightblue" stroke="midnightblue" points="717.717,-17.3081 727.77,-13.9613 717.824,-10.3089 717.717,-17.3081"/>
</g>
</g>
</svg>
