<?xml version="1.0" encoding="UTF-8" standalone="no"?>
<!DOCTYPE svg PUBLIC "-//W3C//DTD SVG 1.1//EN"
 "http://www.w3.org/Graphics/SVG/1.1/DTD/svg11.dtd">
<!-- Generated by graphviz version 2.38.0 (20140413.2041)
 -->
<!-- Title: adb.adb_protocol._AdbConnection.__init__ Pages: 1 -->
<svg width="378pt" height="39pt"
 viewBox="0.00 0.00 378.00 39.00" xmlns="http://www.w3.org/2000/svg" xmlns:xlink="http://www.w3.org/1999/xlink">
<g id="graph0" class="graph" transform="scale(1 1) rotate(0) translate(4 35)">
<title>adb.adb_protocol._AdbConnection.__init__</title>
<polygon fill="white" stroke="none" points="-4,4 -4,-35 374,-35 374,4 -4,4"/>
<!-- Node1 -->
<g id="node1" class="node"><title>Node1</title>
<polygon fill="#bfbfbf" stroke="black" points="0,-0.5 0,-30.5 169,-30.5 169,-0.5 0,-0.5"/>
<text text-anchor="start" x="8" y="-18.5" font-family="Helvetica,sans-Serif" font-size="10.00">adb.adb_protocol._AdbConnection.</text>
<text text-anchor="middle" x="84.5" y="-7.5" font-family="Helvetica,sans-Serif" font-size="10.00">__init__</text>
</g>
<!-- Node2 -->
<g id="node2" class="node"><title>Node2</title>
<g id="a_node2"><a xlink:href="../adb.fastboot_debug.html#adb.fastboot.FastbootCommands.__reset" xlink:title="adb.fastboot.FastbootCommands.\l__reset">
<polygon fill="white" stroke="black" points="205,-0.5 205,-30.5 370,-30.5 370,-0.5 205,-0.5"/>
<text text-anchor="start" x="213" y="-18.5" font-family="Helvetica,sans-Serif" font-size="10.00">adb.fastboot.FastbootCommands.</text>
<text text-anchor="middle" x="287.5" y="-7.5" font-family="Helvetica,sans-Serif" font-size="10.00">__reset</text>
</a>
</g>
</g>
<!-- Node1&#45;&gt;Node2 -->
<g id="edge1" class="edge"><title>Node1&#45;&gt;Node2</title>
<path fill="none" stroke="midnightblue" d="M179.531,-15.5C187.968,-15.5 196.465,-15.5 204.785,-15.5"/>
<polygon fill="midnightblue" stroke="midnightblue" points="179.287,-12.0001 169.287,-15.5 179.287,-19.0001 179.287,-12.0001"/>
</g>
</g>
</svg>
