<?xml version="1.0" encoding="UTF-8" standalone="no"?>
<!DOCTYPE svg PUBLIC "-//W3C//DTD SVG 1.1//EN"
 "http://www.w3.org/Graphics/SVG/1.1/DTD/svg11.dtd">
<!-- Generated by graphviz version 2.38.0 (20140413.2041)
 -->
<!-- Title: adb.adb_commands.AdbCommands.Shell Pages: 1 -->
<svg width="850pt" height="112pt"
 viewBox="0.00 0.00 850.00 112.00" xmlns="http://www.w3.org/2000/svg" xmlns:xlink="http://www.w3.org/1999/xlink">
<g id="graph0" class="graph" transform="scale(1 1) rotate(0) translate(4 108.003)">
<title>adb.adb_commands.AdbCommands.Shell</title>
<polygon fill="white" stroke="none" points="-4,4 -4,-108.003 846,-108.003 846,4 -4,4"/>
<!-- Node1 -->
<g id="node1" class="node"><title>Node1</title>
<polygon fill="#bfbfbf" stroke="black" points="0,-44.5 0,-74.5 178,-74.5 178,-44.5 0,-44.5"/>
<text text-anchor="start" x="8" y="-62.5" font-family="Helvetica,sans-Serif" font-size="10.00">adb.adb_commands.AdbCommands.</text>
<text text-anchor="middle" x="89" y="-51.5" font-family="Helvetica,sans-Serif" font-size="10.00">Shell</text>
</g>
<!-- Node2 -->
<g id="node2" class="node"><title>Node2</title>
<g id="a_node2"><a xlink:href="../adb.adb_commands.html#adb.adb_commands.AdbCommands.Install" xlink:title="adb.adb_commands.AdbCommands.\lInstall">
<polygon fill="white" stroke="black" points="450,-72.5 450,-102.5 628,-102.5 628,-72.5 450,-72.5"/>
<text text-anchor="start" x="458" y="-90.5" font-family="Helvetica,sans-Serif" font-size="10.00">adb.adb_commands.AdbCommands.</text>
<text text-anchor="middle" x="539" y="-79.5" font-family="Helvetica,sans-Serif" font-size="10.00">Install</text>
</a>
</g>
</g>
<!-- Node1&#45;&gt;Node2 -->
<g id="edge1" class="edge"><title>Node1&#45;&gt;Node2</title>
<path fill="none" stroke="midnightblue" d="M139.45,-77.8416C161.869,-85.2194 188.923,-92.8385 214,-96.5 293.207,-108.065 384.428,-103.999 449.855,-98.1017"/>
<polygon fill="midnightblue" stroke="midnightblue" points="140.417,-74.4741 129.822,-74.5957 138.18,-81.1073 140.417,-74.4741"/>
</g>
<!-- Node4 -->
<g id="node4" class="node"><title>Node4</title>
<g id="a_node4"><a xlink:href="../adb.adb_commands.html#adb.adb_commands.AdbCommands.Push" xlink:title="adb.adb_commands.AdbCommands.Push">
<polygon fill="white" stroke="black" points="214,-50 214,-69 414,-69 414,-50 214,-50"/>
<text text-anchor="middle" x="314" y="-57" font-family="Helvetica,sans-Serif" font-size="10.00">adb.adb_commands.AdbCommands.Push</text>
</a>
</g>
</g>
<!-- Node1&#45;&gt;Node4 -->
<g id="edge3" class="edge"><title>Node1&#45;&gt;Node4</title>
<path fill="none" stroke="midnightblue" d="M188.347,-59.5C196.771,-59.5 205.297,-59.5 213.728,-59.5"/>
<polygon fill="midnightblue" stroke="midnightblue" points="188.136,-56.0001 178.136,-59.5 188.135,-63.0001 188.136,-56.0001"/>
</g>
<!-- Node5 -->
<g id="node5" class="node"><title>Node5</title>
<g id="a_node5"><a xlink:href="../adb.adb_commands.html#adb.adb_commands.AdbCommands.Uninstall" xlink:title="adb.adb_commands.AdbCommands.\lUninstall">
<polygon fill="white" stroke="black" points="225,-0.5 225,-30.5 403,-30.5 403,-0.5 225,-0.5"/>
<text text-anchor="start" x="233" y="-18.5" font-family="Helvetica,sans-Serif" font-size="10.00">adb.adb_commands.AdbCommands.</text>
<text text-anchor="middle" x="314" y="-7.5" font-family="Helvetica,sans-Serif" font-size="10.00">Uninstall</text>
</a>
</g>
</g>
<!-- Node1&#45;&gt;Node5 -->
<g id="edge6" class="edge"><title>Node1&#45;&gt;Node5</title>
<path fill="none" stroke="midnightblue" d="M176.148,-42.5023C196.152,-38.5552 217.306,-34.3814 236.844,-30.5262"/>
<polygon fill="midnightblue" stroke="midnightblue" points="175.254,-39.1111 166.12,-44.4808 176.609,-45.9787 175.254,-39.1111"/>
</g>
<!-- Node3 -->
<g id="node3" class="node"><title>Node3</title>
<g id="a_node3"><a xlink:href="../adb.adb_commands.html#adb.adb_commands.AdbCommands.GetState" xlink:title="adb.adb_commands.AdbCommands.\lGetState">
<polygon fill="white" stroke="black" points="664,-72.5 664,-102.5 842,-102.5 842,-72.5 664,-72.5"/>
<text text-anchor="start" x="672" y="-90.5" font-family="Helvetica,sans-Serif" font-size="10.00">adb.adb_commands.AdbCommands.</text>
<text text-anchor="middle" x="753" y="-79.5" font-family="Helvetica,sans-Serif" font-size="10.00">GetState</text>
</a>
</g>
</g>
<!-- Node2&#45;&gt;Node3 -->
<g id="edge2" class="edge"><title>Node2&#45;&gt;Node3</title>
<path fill="none" stroke="midnightblue" d="M638.107,-87.5C646.7,-87.5 655.363,-87.5 663.868,-87.5"/>
<polygon fill="midnightblue" stroke="midnightblue" points="638.065,-84.0001 628.065,-87.5 638.065,-91.0001 638.065,-84.0001"/>
</g>
<!-- Node4&#45;&gt;Node2 -->
<g id="edge4" class="edge"><title>Node4&#45;&gt;Node2</title>
<path fill="none" stroke="midnightblue" d="M401.153,-70.3174C417.075,-72.3166 433.726,-74.4073 449.711,-76.4143"/>
<polygon fill="midnightblue" stroke="midnightblue" points="401.167,-66.7918 390.809,-69.0186 400.295,-73.7372 401.167,-66.7918"/>
</g>
<!-- Node4&#45;&gt;Node4 -->
<g id="edge5" class="edge"><title>Node4&#45;&gt;Node4</title>
<path fill="none" stroke="midnightblue" d="M272.219,-75.7184C270.05,-82.1345 283.977,-87.5 314,-87.5 354.031,-87.5 365.446,-77.9613 348.245,-69.1119"/>
<polygon fill="midnightblue" stroke="midnightblue" points="274.543,-78.3362 279.755,-69.1119 269.928,-73.0727 274.543,-78.3362"/>
</g>
</g>
</svg>
