<?xml version="1.0" encoding="UTF-8" standalone="no"?>
<!DOCTYPE svg PUBLIC "-//W3C//DTD SVG 1.1//EN"
 "http://www.w3.org/Graphics/SVG/1.1/DTD/svg11.dtd">
<!-- Generated by graphviz version 2.38.0 (20140413.2041)
 -->
<!-- Title: adb.fastboot.FastbootCommands.Download Pages: 1 -->
<svg width="797pt" height="323pt"
 viewBox="0.00 0.00 797.00 323.00" xmlns="http://www.w3.org/2000/svg" xmlns:xlink="http://www.w3.org/1999/xlink">
<g id="graph0" class="graph" transform="scale(1 1) rotate(0) translate(4 319)">
<title>adb.fastboot.FastbootCommands.Download</title>
<polygon fill="white" stroke="none" points="-4,4 -4,-319 793,-319 793,4 -4,4"/>
<!-- Node1 -->
<g id="node1" class="node"><title>Node1</title>
<polygon fill="#bfbfbf" stroke="black" points="0,-208.5 0,-238.5 165,-238.5 165,-208.5 0,-208.5"/>
<text text-anchor="start" x="8" y="-226.5" font-family="Helvetica,sans-Serif" font-size="10.00">adb.fastboot.FastbootCommands.</text>
<text text-anchor="middle" x="82.5" y="-215.5" font-family="Helvetica,sans-Serif" font-size="10.00">Download</text>
</g>
<!-- Node2 -->
<g id="node2" class="node"><title>Node2</title>
<g id="a_node2"><a xlink:href="../adb.fastboot_debug.html#adb.fastboot.FastbootCommands.FlashFromFile" xlink:title="adb.fastboot.FastbootCommands.\lFlashFromFile">
<polygon fill="white" stroke="black" points="201,-208.5 201,-238.5 366,-238.5 366,-208.5 201,-208.5"/>
<text text-anchor="start" x="209" y="-226.5" font-family="Helvetica,sans-Serif" font-size="10.00">adb.fastboot.FastbootCommands.</text>
<text text-anchor="middle" x="283.5" y="-215.5" font-family="Helvetica,sans-Serif" font-size="10.00">FlashFromFile</text>
</a>
</g>
</g>
<!-- Node1&#45;&gt;Node2 -->
<g id="edge1" class="edge"><title>Node1&#45;&gt;Node2</title>
<path fill="none" stroke="midnightblue" d="M175.045,-223.5C183.633,-223.5 192.301,-223.5 200.79,-223.5"/>
<polygon fill="midnightblue" stroke="midnightblue" points="175.015,-220 165.015,-223.5 175.015,-227 175.015,-220"/>
</g>
<!-- Node3 -->
<g id="node3" class="node"><title>Node3</title>
<g id="a_node3"><a xlink:href="../adb.fastboot_debug.html#adb.fastboot.FastbootCommands._SimpleCommand" xlink:title="adb.fastboot.FastbootCommands.\l_SimpleCommand">
<polygon fill="white" stroke="black" points="402,-161.5 402,-191.5 567,-191.5 567,-161.5 402,-161.5"/>
<text text-anchor="start" x="410" y="-179.5" font-family="Helvetica,sans-Serif" font-size="10.00">adb.fastboot.FastbootCommands.</text>
<text text-anchor="middle" x="484.5" y="-168.5" font-family="Helvetica,sans-Serif" font-size="10.00">_SimpleCommand</text>
</a>
</g>
</g>
<!-- Node2&#45;&gt;Node3 -->
<g id="edge2" class="edge"><title>Node2&#45;&gt;Node3</title>
<path fill="none" stroke="midnightblue" d="M357.865,-206.173C378.225,-201.364 400.157,-196.184 419.909,-191.519"/>
<polygon fill="midnightblue" stroke="midnightblue" points="356.94,-202.795 348.012,-208.5 358.549,-209.607 356.94,-202.795"/>
</g>
<!-- Node4 -->
<g id="node4" class="node"><title>Node4</title>
<g id="a_node4"><a xlink:href="../adb.fastboot_debug.html#adb.fastboot.FastbootCommands.Continue" xlink:title="adb.fastboot.FastbootCommands.\lContinue">
<polygon fill="white" stroke="black" points="613.5,-235.5 613.5,-265.5 778.5,-265.5 778.5,-235.5 613.5,-235.5"/>
<text text-anchor="start" x="621.5" y="-253.5" font-family="Helvetica,sans-Serif" font-size="10.00">adb.fastboot.FastbootCommands.</text>
<text text-anchor="middle" x="696" y="-242.5" font-family="Helvetica,sans-Serif" font-size="10.00">Continue</text>
</a>
</g>
</g>
<!-- Node3&#45;&gt;Node4 -->
<g id="edge3" class="edge"><title>Node3&#45;&gt;Node4</title>
<path fill="none" stroke="midnightblue" d="M527.914,-195.754C550.03,-205.392 577.684,-216.823 603,-225.5 613.334,-229.042 624.454,-232.419 635.269,-235.482"/>
<polygon fill="midnightblue" stroke="midnightblue" points="529.047,-192.429 518.484,-191.607 526.229,-198.837 529.047,-192.429"/>
</g>
<!-- Node5 -->
<g id="node5" class="node"><title>Node5</title>
<g id="a_node5"><a xlink:href="../adb.fastboot_debug.html#adb.fastboot.FastbootCommands.Erase" xlink:title="adb.fastboot.FastbootCommands.\lErase">
<polygon fill="white" stroke="black" points="613.5,-186.5 613.5,-216.5 778.5,-216.5 778.5,-186.5 613.5,-186.5"/>
<text text-anchor="start" x="621.5" y="-204.5" font-family="Helvetica,sans-Serif" font-size="10.00">adb.fastboot.FastbootCommands.</text>
<text text-anchor="middle" x="696" y="-193.5" font-family="Helvetica,sans-Serif" font-size="10.00">Erase</text>
</a>
</g>
</g>
<!-- Node3&#45;&gt;Node5 -->
<g id="edge4" class="edge"><title>Node3&#45;&gt;Node5</title>
<path fill="none" stroke="midnightblue" d="M577.134,-187.435C589.164,-188.87 601.429,-190.334 613.28,-191.748"/>
<polygon fill="midnightblue" stroke="midnightblue" points="577.442,-183.947 567.098,-186.237 576.613,-190.898 577.442,-183.947"/>
</g>
<!-- Node6 -->
<g id="node6" class="node"><title>Node6</title>
<g id="a_node6"><a xlink:href="../adb.fastboot_debug.html#adb.fastboot.FastbootCommands.Flash" xlink:title="adb.fastboot.FastbootCommands.\lFlash">
<polygon fill="white" stroke="black" points="613.5,-284.5 613.5,-314.5 778.5,-314.5 778.5,-284.5 613.5,-284.5"/>
<text text-anchor="start" x="621.5" y="-302.5" font-family="Helvetica,sans-Serif" font-size="10.00">adb.fastboot.FastbootCommands.</text>
<text text-anchor="middle" x="696" y="-291.5" font-family="Helvetica,sans-Serif" font-size="10.00">Flash</text>
</a>
</g>
</g>
<!-- Node3&#45;&gt;Node6 -->
<g id="edge5" class="edge"><title>Node3&#45;&gt;Node6</title>
<path fill="none" stroke="midnightblue" d="M506.726,-199.174C528.776,-221.442 565.278,-254.85 603,-274.5 610.34,-278.323 618.322,-281.607 626.415,-284.416"/>
<polygon fill="midnightblue" stroke="midnightblue" points="509.034,-196.527 499.551,-191.803 504.018,-201.41 509.034,-196.527"/>
</g>
<!-- Node7 -->
<g id="node7" class="node"><title>Node7</title>
<g id="a_node7"><a xlink:href="../adb.fastboot_debug.html#adb.fastboot.FastbootCommands.Getvar" xlink:title="adb.fastboot.FastbootCommands.\lGetvar">
<polygon fill="white" stroke="black" points="613.5,-137.5 613.5,-167.5 778.5,-167.5 778.5,-137.5 613.5,-137.5"/>
<text text-anchor="start" x="621.5" y="-155.5" font-family="Helvetica,sans-Serif" font-size="10.00">adb.fastboot.FastbootCommands.</text>
<text text-anchor="middle" x="696" y="-144.5" font-family="Helvetica,sans-Serif" font-size="10.00">Getvar</text>
</a>
</g>
</g>
<!-- Node3&#45;&gt;Node7 -->
<g id="edge7" class="edge"><title>Node3&#45;&gt;Node7</title>
<path fill="none" stroke="midnightblue" d="M577.134,-166.003C589.164,-164.624 601.429,-163.219 613.28,-161.862"/>
<polygon fill="midnightblue" stroke="midnightblue" points="576.635,-162.537 567.098,-167.152 577.431,-169.491 576.635,-162.537"/>
</g>
<!-- Node8 -->
<g id="node8" class="node"><title>Node8</title>
<g id="a_node8"><a xlink:href="../adb.fastboot_debug.html#adb.fastboot.FastbootCommands.Oem" xlink:title="adb.fastboot.FastbootCommands.Oem">
<polygon fill="white" stroke="black" points="603,-99 603,-118 789,-118 789,-99 603,-99"/>
<text text-anchor="middle" x="696" y="-106" font-family="Helvetica,sans-Serif" font-size="10.00">adb.fastboot.FastbootCommands.Oem</text>
</a>
</g>
</g>
<!-- Node3&#45;&gt;Node8 -->
<g id="edge8" class="edge"><title>Node3&#45;&gt;Node8</title>
<path fill="none" stroke="midnightblue" d="M526.453,-157.148C548.712,-147.213 576.944,-135.542 603,-127.5 614.844,-123.844 627.764,-120.685 640.077,-118.049"/>
<polygon fill="midnightblue" stroke="midnightblue" points="524.974,-153.976 517.303,-161.284 527.857,-160.354 524.974,-153.976"/>
</g>
<!-- Node9 -->
<g id="node9" class="node"><title>Node9</title>
<g id="a_node9"><a xlink:href="../adb.fastboot_debug.html#adb.fastboot.FastbootCommands.Reboot" xlink:title="adb.fastboot.FastbootCommands.\lReboot">
<polygon fill="white" stroke="black" points="613.5,-49.5 613.5,-79.5 778.5,-79.5 778.5,-49.5 613.5,-49.5"/>
<text text-anchor="start" x="621.5" y="-67.5" font-family="Helvetica,sans-Serif" font-size="10.00">adb.fastboot.FastbootCommands.</text>
<text text-anchor="middle" x="696" y="-56.5" font-family="Helvetica,sans-Serif" font-size="10.00">Reboot</text>
</a>
</g>
</g>
<!-- Node3&#45;&gt;Node9 -->
<g id="edge9" class="edge"><title>Node3&#45;&gt;Node9</title>
<path fill="none" stroke="midnightblue" d="M509.418,-154.561C532.004,-134.923 567.604,-106.657 603,-89.5 610.894,-85.6738 619.462,-82.3603 628.088,-79.5113"/>
<polygon fill="midnightblue" stroke="midnightblue" points="506.888,-152.126 501.711,-161.369 511.523,-157.372 506.888,-152.126"/>
</g>
<!-- Node10 -->
<g id="node10" class="node"><title>Node10</title>
<g id="a_node10"><a xlink:href="../adb.fastboot_debug.html#adb.fastboot.FastbootCommands.RebootBootloader" xlink:title="adb.fastboot.FastbootCommands.\lRebootBootloader">
<polygon fill="white" stroke="black" points="613.5,-0.5 613.5,-30.5 778.5,-30.5 778.5,-0.5 613.5,-0.5"/>
<text text-anchor="start" x="621.5" y="-18.5" font-family="Helvetica,sans-Serif" font-size="10.00">adb.fastboot.FastbootCommands.</text>
<text text-anchor="middle" x="696" y="-7.5" font-family="Helvetica,sans-Serif" font-size="10.00">RebootBootloader</text>
</a>
</g>
</g>
<!-- Node3&#45;&gt;Node10 -->
<g id="edge10" class="edge"><title>Node3&#45;&gt;Node10</title>
<path fill="none" stroke="midnightblue" d="M499.712,-152.229C519.098,-121.3 556.763,-68.3931 603,-39.5 608.459,-36.0885 614.391,-33.1594 620.523,-30.6449"/>
<polygon fill="midnightblue" stroke="midnightblue" points="496.534,-150.716 494.293,-161.072 502.503,-154.374 496.534,-150.716"/>
</g>
<!-- Node6&#45;&gt;Node2 -->
<g id="edge6" class="edge"><title>Node6&#45;&gt;Node2</title>
<path fill="none" stroke="midnightblue" d="M603.836,-282.622C532.502,-269.415 434.223,-251.22 365.602,-238.515"/>
<polygon fill="midnightblue" stroke="midnightblue" points="603.246,-286.072 613.716,-284.451 604.521,-279.189 603.246,-286.072"/>
</g>
</g>
</svg>
