<?xml version="1.0" encoding="UTF-8" standalone="no"?>
<!DOCTYPE svg PUBLIC "-//W3C//DTD SVG 1.1//EN"
 "http://www.w3.org/Graphics/SVG/1.1/DTD/svg11.dtd">
<!-- Generated by graphviz version 2.38.0 (20140413.2041)
 -->
<!-- Title: adb.fastboot.FastbootCommands.Flash Pages: 1 -->
<svg width="776pt" height="61pt"
 viewBox="0.00 0.00 776.00 61.00" xmlns="http://www.w3.org/2000/svg" xmlns:xlink="http://www.w3.org/1999/xlink">
<g id="graph0" class="graph" transform="scale(1 1) rotate(0) translate(4 57)">
<title>adb.fastboot.FastbootCommands.Flash</title>
<polygon fill="white" stroke="none" points="-4,4 -4,-57 772,-57 772,4 -4,4"/>
<!-- Node1 -->
<g id="node1" class="node"><title>Node1</title>
<polygon fill="#bfbfbf" stroke="black" points="0,-0.5 0,-30.5 165,-30.5 165,-0.5 0,-0.5"/>
<text text-anchor="start" x="8" y="-18.5" font-family="Helvetica,sans-Serif" font-size="10.00">adb.fastboot.FastbootCommands.</text>
<text text-anchor="middle" x="82.5" y="-7.5" font-family="Helvetica,sans-Serif" font-size="10.00">Flash</text>
</g>
<!-- Node2 -->
<g id="node2" class="node"><title>Node2</title>
<g id="a_node2"><a xlink:href="../adb.fastboot_debug.html#adb.fastboot.FastbootCommands._SimpleCommand" xlink:title="adb.fastboot.FastbootCommands.\l_SimpleCommand">
<polygon fill="white" stroke="black" points="201,-22.5 201,-52.5 366,-52.5 366,-22.5 201,-22.5"/>
<text text-anchor="start" x="209" y="-40.5" font-family="Helvetica,sans-Serif" font-size="10.00">adb.fastboot.FastbootCommands.</text>
<text text-anchor="middle" x="283.5" y="-29.5" font-family="Helvetica,sans-Serif" font-size="10.00">_SimpleCommand</text>
</a>
</g>
</g>
<!-- Node1&#45;&gt;Node2 -->
<g id="edge1" class="edge"><title>Node1&#45;&gt;Node2</title>
<path fill="none" stroke="midnightblue" d="M165.015,-24.5117C173.501,-25.4499 182.168,-26.4081 190.758,-27.3576"/>
<polygon fill="midnightblue" stroke="midnightblue" points="190.466,-30.8466 200.79,-28.4667 191.235,-23.889 190.466,-30.8466"/>
</g>
<!-- Node3 -->
<g id="node3" class="node"><title>Node3</title>
<g id="a_node3"><a xlink:href="../adb.fastboot_debug.html#adb.fastboot.FastbootCommands.FlashFromFile" xlink:title="adb.fastboot.FastbootCommands.\lFlashFromFile">
<polygon fill="white" stroke="black" points="402,-0.5 402,-30.5 567,-30.5 567,-0.5 402,-0.5"/>
<text text-anchor="start" x="410" y="-18.5" font-family="Helvetica,sans-Serif" font-size="10.00">adb.fastboot.FastbootCommands.</text>
<text text-anchor="middle" x="484.5" y="-7.5" font-family="Helvetica,sans-Serif" font-size="10.00">FlashFromFile</text>
</a>
</g>
</g>
<!-- Node2&#45;&gt;Node3 -->
<g id="edge2" class="edge"><title>Node2&#45;&gt;Node3</title>
<path fill="none" stroke="midnightblue" d="M366.015,-28.4883C374.501,-27.5501 383.168,-26.5919 391.758,-25.6424"/>
<polygon fill="midnightblue" stroke="midnightblue" points="392.235,-29.111 401.79,-24.5333 391.466,-22.1534 392.235,-29.111"/>
</g>
<!-- Node3&#45;&gt;Node1 -->
<g id="edge4" class="edge"><title>Node3&#45;&gt;Node1</title>
<path fill="none" stroke="midnightblue" d="M401.962,-13.9327C389.904,-13.753 377.629,-13.599 366,-13.5 292.669,-12.876 274.331,-12.876 201,-13.5 192.642,-13.5711 183.949,-13.6707 175.244,-13.7878"/>
<polygon fill="midnightblue" stroke="midnightblue" points="174.987,-10.291 165.038,-13.9327 175.087,-17.2903 174.987,-10.291"/>
</g>
<!-- Node4 -->
<g id="node4" class="node"><title>Node4</title>
<g id="a_node4"><a xlink:href="../adb.fastboot_debug.html#adb.fastboot.FastbootCommands.Download" xlink:title="adb.fastboot.FastbootCommands.\lDownload">
<polygon fill="white" stroke="black" points="603,-0.5 603,-30.5 768,-30.5 768,-0.5 603,-0.5"/>
<text text-anchor="start" x="611" y="-18.5" font-family="Helvetica,sans-Serif" font-size="10.00">adb.fastboot.FastbootCommands.</text>
<text text-anchor="middle" x="685.5" y="-7.5" font-family="Helvetica,sans-Serif" font-size="10.00">Download</text>
</a>
</g>
</g>
<!-- Node3&#45;&gt;Node4 -->
<g id="edge3" class="edge"><title>Node3&#45;&gt;Node4</title>
<path fill="none" stroke="midnightblue" d="M567.015,-15.5C575.501,-15.5 584.168,-15.5 592.758,-15.5"/>
<polygon fill="midnightblue" stroke="midnightblue" points="592.79,-19.0001 602.79,-15.5 592.79,-12.0001 592.79,-19.0001"/>
</g>
</g>
</svg>
