<?xml version="1.0" encoding="UTF-8" standalone="no"?>
<!DOCTYPE svg PUBLIC "-//W3C//DTD SVG 1.1//EN"
 "http://www.w3.org/Graphics/SVG/1.1/DTD/svg11.dtd">
<!-- Generated by graphviz version 2.38.0 (20140413.2041)
 -->
<!-- Title: adb.fastboot.FastbootProtocol.HandleDataSending Pages: 1 -->
<svg width="533pt" height="88pt"
 viewBox="0.00 0.00 533.00 88.00" xmlns="http://www.w3.org/2000/svg" xmlns:xlink="http://www.w3.org/1999/xlink">
<g id="graph0" class="graph" transform="scale(1 1) rotate(0) translate(4 84)">
<title>adb.fastboot.FastbootProtocol.HandleDataSending</title>
<polygon fill="white" stroke="none" points="-4,4 -4,-84 529,-84 529,4 -4,4"/>
<!-- Node1 -->
<g id="node1" class="node"><title>Node1</title>
<polygon fill="#bfbfbf" stroke="black" points="0,-24.5 0,-54.5 151,-54.5 151,-24.5 0,-24.5"/>
<text text-anchor="start" x="8" y="-42.5" font-family="Helvetica,sans-Serif" font-size="10.00">adb.fastboot.FastbootProtocol.</text>
<text text-anchor="middle" x="75.5" y="-31.5" font-family="Helvetica,sans-Serif" font-size="10.00">HandleDataSending</text>
</g>
<!-- Node2 -->
<g id="node2" class="node"><title>Node2</title>
<g id="a_node2"><a xlink:href="../adb.fastboot_debug.html#adb.fastboot.FastbootProtocol._AcceptResponses" xlink:title="adb.fastboot.FastbootProtocol.\l_AcceptResponses">
<polygon fill="white" stroke="black" points="187,-49.5 187,-79.5 338,-79.5 338,-49.5 187,-49.5"/>
<text text-anchor="start" x="195" y="-67.5" font-family="Helvetica,sans-Serif" font-size="10.00">adb.fastboot.FastbootProtocol.</text>
<text text-anchor="middle" x="262.5" y="-56.5" font-family="Helvetica,sans-Serif" font-size="10.00">_AcceptResponses</text>
</a>
</g>
</g>
<!-- Node1&#45;&gt;Node2 -->
<g id="edge1" class="edge"><title>Node1&#45;&gt;Node2</title>
<path fill="none" stroke="midnightblue" d="M151.213,-49.5964C159.646,-50.736 168.284,-51.9033 176.833,-53.0585"/>
<polygon fill="midnightblue" stroke="midnightblue" points="176.43,-56.5358 186.809,-54.4066 177.367,-49.5988 176.43,-56.5358"/>
</g>
<!-- Node3 -->
<g id="node3" class="node"><title>Node3</title>
<g id="a_node3"><a xlink:href="../adb.fastboot_debug.html#adb.fastboot.FastbootProtocol._Write" xlink:title="adb.fastboot.FastbootProtocol.\l_Write">
<polygon fill="white" stroke="black" points="187,-0.5 187,-30.5 338,-30.5 338,-0.5 187,-0.5"/>
<text text-anchor="start" x="195" y="-18.5" font-family="Helvetica,sans-Serif" font-size="10.00">adb.fastboot.FastbootProtocol.</text>
<text text-anchor="middle" x="262.5" y="-7.5" font-family="Helvetica,sans-Serif" font-size="10.00">_Write</text>
</a>
</g>
</g>
<!-- Node1&#45;&gt;Node3 -->
<g id="edge2" class="edge"><title>Node1&#45;&gt;Node3</title>
<path fill="none" stroke="midnightblue" d="M151.213,-29.8075C159.646,-28.7134 168.284,-27.5928 176.833,-26.4839"/>
<polygon fill="midnightblue" stroke="midnightblue" points="177.342,-29.9472 186.809,-25.1897 176.441,-23.0054 177.342,-29.9472"/>
</g>
<!-- Node4 -->
<g id="node4" class="node"><title>Node4</title>
<g id="a_node4"><a xlink:href="../adb.fastboot_debug.html#adb.fastboot.FastbootProtocol._HandleProgress" xlink:title="adb.fastboot.FastbootProtocol.\l_HandleProgress">
<polygon fill="white" stroke="black" points="374,-0.5 374,-30.5 525,-30.5 525,-0.5 374,-0.5"/>
<text text-anchor="start" x="382" y="-18.5" font-family="Helvetica,sans-Serif" font-size="10.00">adb.fastboot.FastbootProtocol.</text>
<text text-anchor="middle" x="449.5" y="-7.5" font-family="Helvetica,sans-Serif" font-size="10.00">_HandleProgress</text>
</a>
</g>
</g>
<!-- Node3&#45;&gt;Node4 -->
<g id="edge3" class="edge"><title>Node3&#45;&gt;Node4</title>
<path fill="none" stroke="midnightblue" d="M338.213,-15.5C346.555,-15.5 355.097,-15.5 363.554,-15.5"/>
<polygon fill="midnightblue" stroke="midnightblue" points="363.809,-19.0001 373.809,-15.5 363.809,-12.0001 363.809,-19.0001"/>
</g>
</g>
</svg>
