<?xml version="1.0" encoding="UTF-8" standalone="no"?>
<!DOCTYPE svg PUBLIC "-//W3C//DTD SVG 1.1//EN"
 "http://www.w3.org/Graphics/SVG/1.1/DTD/svg11.dtd">
<!-- Generated by graphviz version 2.38.0 (20140413.2041)
 -->
<!-- Title: adb.common.UsbHandle.BulkRead Pages: 1 -->
<svg width="565pt" height="72pt"
 viewBox="0.00 0.00 565.00 71.50" xmlns="http://www.w3.org/2000/svg" xmlns:xlink="http://www.w3.org/1999/xlink">
<g id="graph0" class="graph" transform="scale(1 1) rotate(0) translate(4 67.5)">
<title>adb.common.UsbHandle.BulkRead</title>
<polygon fill="white" stroke="none" points="-4,4 -4,-67.5 561,-67.5 561,4 -4,4"/>
<!-- Node1 -->
<g id="node1" class="node"><title>Node1</title>
<polygon fill="#bfbfbf" stroke="black" points="0,-25 0,-44 170,-44 170,-25 0,-25"/>
<text text-anchor="middle" x="85" y="-32" font-family="Helvetica,sans-Serif" font-size="10.00">adb.common.UsbHandle.BulkRead</text>
</g>
<!-- Node2 -->
<g id="node2" class="node"><title>Node2</title>
<g id="a_node2"><a xlink:href="../adb.common_cli.html#adb.common.UsbHandle.Timeout" xlink:title="adb.common.UsbHandle.Timeout">
<polygon fill="white" stroke="black" points="206.5,-44 206.5,-63 369.5,-63 369.5,-44 206.5,-44"/>
<text text-anchor="middle" x="288" y="-51" font-family="Helvetica,sans-Serif" font-size="10.00">adb.common.UsbHandle.Timeout</text>
</a>
</g>
</g>
<!-- Node1&#45;&gt;Node2 -->
<g id="edge1" class="edge"><title>Node1&#45;&gt;Node2</title>
<path fill="none" stroke="midnightblue" d="M170.077,-42.4476C178.737,-43.2662 187.565,-44.1006 196.292,-44.9256"/>
<polygon fill="midnightblue" stroke="midnightblue" points="196.191,-48.4316 206.476,-45.8883 196.85,-41.4627 196.191,-48.4316"/>
</g>
<!-- Node3 -->
<g id="node3" class="node"><title>Node3</title>
<g id="a_node3"><a xlink:href="../adb.common_cli.html#adb.common.UsbHandle.usb_info" xlink:title="adb.common.UsbHandle.usb_info">
<polygon fill="white" stroke="black" points="206,-6 206,-25 370,-25 370,-6 206,-6"/>
<text text-anchor="middle" x="288" y="-13" font-family="Helvetica,sans-Serif" font-size="10.00">adb.common.UsbHandle.usb_info</text>
</a>
</g>
</g>
<!-- Node1&#45;&gt;Node3 -->
<g id="edge2" class="edge"><title>Node1&#45;&gt;Node3</title>
<path fill="none" stroke="midnightblue" d="M170.077,-26.5524C178.583,-25.7484 187.249,-24.9292 195.825,-24.1186"/>
<polygon fill="midnightblue" stroke="midnightblue" points="196.208,-27.598 205.834,-23.1724 195.549,-20.6291 196.208,-27.598"/>
</g>
<!-- Node4 -->
<g id="node4" class="node"><title>Node4</title>
<g id="a_node4"><a xlink:href="../adb.common_cli.html#adb.common.UsbHandle.serial_number" xlink:title="adb.common.UsbHandle.serial\l_number">
<polygon fill="white" stroke="black" points="406,-0.5 406,-30.5 557,-30.5 557,-0.5 406,-0.5"/>
<text text-anchor="start" x="414" y="-18.5" font-family="Helvetica,sans-Serif" font-size="10.00">adb.common.UsbHandle.serial</text>
<text text-anchor="middle" x="481.5" y="-7.5" font-family="Helvetica,sans-Serif" font-size="10.00">_number</text>
</a>
</g>
</g>
<!-- Node3&#45;&gt;Node4 -->
<g id="edge3" class="edge"><title>Node3&#45;&gt;Node4</title>
<path fill="none" stroke="midnightblue" d="M370.213,-15.5C378.62,-15.5 387.18,-15.5 395.626,-15.5"/>
<polygon fill="midnightblue" stroke="midnightblue" points="395.853,-19.0001 405.853,-15.5 395.853,-12.0001 395.853,-19.0001"/>
</g>
</g>
</svg>
