<?xml version="1.0" encoding="UTF-8" standalone="no"?>
<!DOCTYPE svg PUBLIC "-//W3C//DTD SVG 1.1//EN"
 "http://www.w3.org/Graphics/SVG/1.1/DTD/svg11.dtd">
<!-- Generated by graphviz version 2.38.0 (20140413.2041)
 -->
<!-- Title: adb.common.UsbHandle.Find Pages: 1 -->
<svg width="524pt" height="61pt"
 viewBox="0.00 0.00 524.00 61.00" xmlns="http://www.w3.org/2000/svg" xmlns:xlink="http://www.w3.org/1999/xlink">
<g id="graph0" class="graph" transform="scale(1 1) rotate(0) translate(4 57)">
<title>adb.common.UsbHandle.Find</title>
<polygon fill="white" stroke="none" points="-4,4 -4,-57 520,-57 520,4 -4,4"/>
<!-- Node1 -->
<g id="node1" class="node"><title>Node1</title>
<polygon fill="#bfbfbf" stroke="black" points="0,-6 0,-25 146,-25 146,-6 0,-6"/>
<text text-anchor="middle" x="73" y="-13" font-family="Helvetica,sans-Serif" font-size="10.00">adb.common.UsbHandle.Find</text>
</g>
<!-- Node2 -->
<g id="node2" class="node"><title>Node2</title>
<g id="a_node2"><a xlink:href="../adb.common_cli.html#adb.common.UsbHandle.FindAndOpen" xlink:title="adb.common.UsbHandle.Find\lAndOpen">
<polygon fill="white" stroke="black" points="182,-22.5 182,-52.5 328,-52.5 328,-22.5 182,-22.5"/>
<text text-anchor="start" x="190" y="-40.5" font-family="Helvetica,sans-Serif" font-size="10.00">adb.common.UsbHandle.Find</text>
<text text-anchor="middle" x="255" y="-29.5" font-family="Helvetica,sans-Serif" font-size="10.00">AndOpen</text>
</a>
</g>
</g>
<!-- Node1&#45;&gt;Node2 -->
<g id="edge1" class="edge"><title>Node1&#45;&gt;Node2</title>
<path fill="none" stroke="midnightblue" d="M156.16,-25.5418C164.718,-26.5878 173.372,-27.6455 181.808,-28.6765"/>
<polygon fill="midnightblue" stroke="midnightblue" points="156.527,-22.0606 146.176,-24.3215 155.677,-29.0089 156.527,-22.0606"/>
</g>
<!-- Node3 -->
<g id="node3" class="node"><title>Node3</title>
<g id="a_node3"><a xlink:href="../adb.common_cli.html#adb.common.UsbHandle.SerialMatcher" xlink:title="adb.common.UsbHandle.Serial\lMatcher">
<polygon fill="white" stroke="black" points="364,-0.5 364,-30.5 516,-30.5 516,-0.5 364,-0.5"/>
<text text-anchor="start" x="372" y="-18.5" font-family="Helvetica,sans-Serif" font-size="10.00">adb.common.UsbHandle.Serial</text>
<text text-anchor="middle" x="440" y="-7.5" font-family="Helvetica,sans-Serif" font-size="10.00">Matcher</text>
</a>
</g>
</g>
<!-- Node2&#45;&gt;Node3 -->
<g id="edge2" class="edge"><title>Node2&#45;&gt;Node3</title>
<path fill="none" stroke="midnightblue" d="M338.111,-27.6288C346.729,-26.5927 355.46,-25.5431 363.992,-24.5173"/>
<polygon fill="midnightblue" stroke="midnightblue" points="337.574,-24.1679 328.064,-28.8366 338.41,-31.1179 337.574,-24.1679"/>
</g>
<!-- Node3&#45;&gt;Node1 -->
<g id="edge3" class="edge"><title>Node3&#45;&gt;Node1</title>
<path fill="none" stroke="midnightblue" d="M353.63,-13.8065C344.973,-13.6813 336.312,-13.5749 328,-13.5 263.114,-12.9155 246.886,-12.8993 182,-13.5 170.374,-13.6076 158.044,-13.7805 146.034,-13.9806"/>
<polygon fill="midnightblue" stroke="midnightblue" points="353.717,-17.3081 363.77,-13.9613 353.824,-10.3089 353.717,-17.3081"/>
</g>
</g>
</svg>
