<?xml version="1.0" encoding="UTF-8" standalone="no"?>
<!DOCTYPE svg PUBLIC "-//W3C//DTD SVG 1.1//EN"
 "http://www.w3.org/Graphics/SVG/1.1/DTD/svg11.dtd">
<!-- Generated by graphviz version 2.38.0 (20140413.2041)
 -->
<!-- Title: adb.fastboot.FastbootProtocol._Write Pages: 1 -->
<svg width="720pt" height="61pt"
 viewBox="0.00 0.00 720.00 61.00" xmlns="http://www.w3.org/2000/svg" xmlns:xlink="http://www.w3.org/1999/xlink">
<g id="graph0" class="graph" transform="scale(1 1) rotate(0) translate(4 57)">
<title>adb.fastboot.FastbootProtocol._Write</title>
<polygon fill="white" stroke="none" points="-4,4 -4,-57 716,-57 716,4 -4,4"/>
<!-- Node1 -->
<g id="node1" class="node"><title>Node1</title>
<polygon fill="#bfbfbf" stroke="black" points="0,-0.5 0,-30.5 151,-30.5 151,-0.5 0,-0.5"/>
<text text-anchor="start" x="8" y="-18.5" font-family="Helvetica,sans-Serif" font-size="10.00">adb.fastboot.FastbootProtocol.</text>
<text text-anchor="middle" x="75.5" y="-7.5" font-family="Helvetica,sans-Serif" font-size="10.00">_Write</text>
</g>
<!-- Node2 -->
<g id="node2" class="node"><title>Node2</title>
<g id="a_node2"><a xlink:href="../adb.fastboot_debug.html#adb.fastboot.FastbootProtocol.HandleDataSending" xlink:title="adb.fastboot.FastbootProtocol.\lHandleDataSending">
<polygon fill="white" stroke="black" points="187,-22.5 187,-52.5 338,-52.5 338,-22.5 187,-22.5"/>
<text text-anchor="start" x="195" y="-40.5" font-family="Helvetica,sans-Serif" font-size="10.00">adb.fastboot.FastbootProtocol.</text>
<text text-anchor="middle" x="262.5" y="-29.5" font-family="Helvetica,sans-Serif" font-size="10.00">HandleDataSending</text>
</a>
</g>
</g>
<!-- Node1&#45;&gt;Node2 -->
<g id="edge1" class="edge"><title>Node1&#45;&gt;Node2</title>
<path fill="none" stroke="midnightblue" d="M161.19,-25.5712C169.738,-26.5877 178.376,-27.615 186.809,-28.6178"/>
<polygon fill="midnightblue" stroke="midnightblue" points="161.557,-22.0903 151.213,-24.3848 160.73,-29.0413 161.557,-22.0903"/>
</g>
<!-- Node4 -->
<g id="node4" class="node"><title>Node4</title>
<g id="a_node4"><a xlink:href="../adb.fastboot_debug.html#adb.fastboot.FastbootProtocol.SendCommand" xlink:title="adb.fastboot.FastbootProtocol.\lSendCommand">
<polygon fill="white" stroke="black" points="561,-0.5 561,-30.5 712,-30.5 712,-0.5 561,-0.5"/>
<text text-anchor="start" x="569" y="-18.5" font-family="Helvetica,sans-Serif" font-size="10.00">adb.fastboot.FastbootProtocol.</text>
<text text-anchor="middle" x="636.5" y="-7.5" font-family="Helvetica,sans-Serif" font-size="10.00">SendCommand</text>
</a>
</g>
</g>
<!-- Node1&#45;&gt;Node4 -->
<g id="edge4" class="edge"><title>Node1&#45;&gt;Node4</title>
<path fill="none" stroke="midnightblue" d="M161.267,-12.9644C169.958,-12.7746 178.656,-12.6133 187,-12.5 337.208,-10.4613 374.792,-10.4613 525,-12.5 536.61,-12.6576 548.903,-12.9082 560.909,-13.1991"/>
<polygon fill="midnightblue" stroke="midnightblue" points="161.007,-9.46938 151.091,-13.1991 161.169,-16.4675 161.007,-9.46938"/>
</g>
<!-- Node3 -->
<g id="node3" class="node"><title>Node3</title>
<g id="a_node3"><a xlink:href="../adb.fastboot_debug.html#adb.fastboot.FastbootProtocol.HandleSimpleResponses" xlink:title="adb.fastboot.FastbootProtocol.\lHandleSimpleResponses">
<polygon fill="white" stroke="black" points="374,-22.5 374,-52.5 525,-52.5 525,-22.5 374,-22.5"/>
<text text-anchor="start" x="382" y="-40.5" font-family="Helvetica,sans-Serif" font-size="10.00">adb.fastboot.FastbootProtocol.</text>
<text text-anchor="middle" x="449.5" y="-29.5" font-family="Helvetica,sans-Serif" font-size="10.00">HandleSimpleResponses</text>
</a>
</g>
</g>
<!-- Node2&#45;&gt;Node3 -->
<g id="edge2" class="edge"><title>Node2&#45;&gt;Node3</title>
<path fill="none" stroke="midnightblue" d="M348.468,-37.5C356.926,-37.5 365.467,-37.5 373.809,-37.5"/>
<polygon fill="midnightblue" stroke="midnightblue" points="348.213,-34.0001 338.213,-37.5 348.213,-41.0001 348.213,-34.0001"/>
</g>
<!-- Node3&#45;&gt;Node4 -->
<g id="edge3" class="edge"><title>Node3&#45;&gt;Node4</title>
<path fill="none" stroke="midnightblue" d="M535.19,-27.4288C543.738,-26.4123 552.376,-25.385 560.809,-24.3822"/>
<polygon fill="midnightblue" stroke="midnightblue" points="534.73,-23.9587 525.213,-28.6152 535.557,-30.9097 534.73,-23.9587"/>
</g>
</g>
</svg>
