<?xml version="1.0" encoding="UTF-8" standalone="no"?>
<!DOCTYPE svg PUBLIC "-//W3C//DTD SVG 1.1//EN"
 "http://www.w3.org/Graphics/SVG/1.1/DTD/svg11.dtd">
<!-- Generated by graphviz version 2.38.0 (20140413.2041)
 -->
<!-- Title: adb.common.UsbHandle.FindAndOpen Pages: 1 -->
<svg width="524pt" height="61pt"
 viewBox="0.00 0.00 524.00 61.00" xmlns="http://www.w3.org/2000/svg" xmlns:xlink="http://www.w3.org/1999/xlink">
<g id="graph0" class="graph" transform="scale(1 1) rotate(0) translate(4 57)">
<title>adb.common.UsbHandle.FindAndOpen</title>
<polygon fill="white" stroke="none" points="-4,4 -4,-57 520,-57 520,4 -4,4"/>
<!-- Node1 -->
<g id="node1" class="node"><title>Node1</title>
<polygon fill="#bfbfbf" stroke="black" points="0,-0.5 0,-30.5 146,-30.5 146,-0.5 0,-0.5"/>
<text text-anchor="start" x="8" y="-18.5" font-family="Helvetica,sans-Serif" font-size="10.00">adb.common.UsbHandle.Find</text>
<text text-anchor="middle" x="73" y="-7.5" font-family="Helvetica,sans-Serif" font-size="10.00">AndOpen</text>
</g>
<!-- Node2 -->
<g id="node2" class="node"><title>Node2</title>
<g id="a_node2"><a xlink:href="../adb.common_cli.html#adb.common.UsbHandle.SerialMatcher" xlink:title="adb.common.UsbHandle.Serial\lMatcher">
<polygon fill="white" stroke="black" points="182,-22.5 182,-52.5 334,-52.5 334,-22.5 182,-22.5"/>
<text text-anchor="start" x="190" y="-40.5" font-family="Helvetica,sans-Serif" font-size="10.00">adb.common.UsbHandle.Serial</text>
<text text-anchor="middle" x="258" y="-29.5" font-family="Helvetica,sans-Serif" font-size="10.00">Matcher</text>
</a>
</g>
</g>
<!-- Node1&#45;&gt;Node2 -->
<g id="edge1" class="edge"><title>Node1&#45;&gt;Node2</title>
<path fill="none" stroke="midnightblue" d="M156.111,-25.3712C164.729,-26.4073 173.46,-27.4569 181.992,-28.4827"/>
<polygon fill="midnightblue" stroke="midnightblue" points="156.41,-21.8821 146.064,-24.1634 155.574,-28.8321 156.41,-21.8821"/>
</g>
<!-- Node3 -->
<g id="node3" class="node"><title>Node3</title>
<g id="a_node3"><a xlink:href="../adb.common_cli.html#adb.common.UsbHandle.Find" xlink:title="adb.common.UsbHandle.Find">
<polygon fill="white" stroke="black" points="370,-6 370,-25 516,-25 516,-6 370,-6"/>
<text text-anchor="middle" x="443" y="-13" font-family="Helvetica,sans-Serif" font-size="10.00">adb.common.UsbHandle.Find</text>
</a>
</g>
</g>
<!-- Node2&#45;&gt;Node3 -->
<g id="edge2" class="edge"><title>Node2&#45;&gt;Node3</title>
<path fill="none" stroke="midnightblue" d="M344.193,-27.2582C352.728,-26.2321 361.337,-25.1972 369.72,-24.1894"/>
<polygon fill="midnightblue" stroke="midnightblue" points="343.736,-23.7879 334.225,-28.4565 344.572,-30.7378 343.736,-23.7879"/>
</g>
<!-- Node3&#45;&gt;Node1 -->
<g id="edge3" class="edge"><title>Node3&#45;&gt;Node1</title>
<path fill="none" stroke="midnightblue" d="M359.78,-13.819C351.076,-13.6884 342.357,-13.5774 334,-13.5 266.447,-12.8746 249.553,-12.8746 182,-13.5 170.374,-13.6076 158.044,-13.7805 146.034,-13.9806"/>
<polygon fill="midnightblue" stroke="midnightblue" points="359.912,-17.3215 369.966,-13.9806 360.023,-10.3224 359.912,-17.3215"/>
</g>
</g>
</svg>
