<?xml version="1.0" encoding="UTF-8" standalone="no"?>
<!DOCTYPE svg PUBLIC "-//W3C//DTD SVG 1.1//EN"
 "http://www.w3.org/Graphics/SVG/1.1/DTD/svg11.dtd">
<!-- Generated by graphviz version 2.38.0 (20140413.2041)
 -->
<!-- Title: adb.adb_protocol.AdbMessage.StreamingCommand Pages: 1 -->
<svg width="778pt" height="88pt"
 viewBox="0.00 0.00 778.00 88.00" xmlns="http://www.w3.org/2000/svg" xmlns:xlink="http://www.w3.org/1999/xlink">
<g id="graph0" class="graph" transform="scale(1 1) rotate(0) translate(4 84)">
<title>adb.adb_protocol.AdbMessage.StreamingCommand</title>
<polygon fill="white" stroke="none" points="-4,4 -4,-84 774,-84 774,4 -4,4"/>
<!-- Node1 -->
<g id="node1" class="node"><title>Node1</title>
<polygon fill="#bfbfbf" stroke="black" points="0,-24.5 0,-54.5 154,-54.5 154,-24.5 0,-24.5"/>
<text text-anchor="start" x="8" y="-42.5" font-family="Helvetica,sans-Serif" font-size="10.00">adb.adb_protocol.AdbMessage.</text>
<text text-anchor="middle" x="77" y="-31.5" font-family="Helvetica,sans-Serif" font-size="10.00">StreamingCommand</text>
</g>
<!-- Node2 -->
<g id="node2" class="node"><title>Node2</title>
<g id="a_node2"><a xlink:href="../adb.adb_protocol.html#adb.adb_protocol.AdbMessage.Open" xlink:title="adb.adb_protocol.AdbMessage.Open">
<polygon fill="white" stroke="black" points="190,-30 190,-49 367,-49 367,-30 190,-30"/>
<text text-anchor="middle" x="278.5" y="-37" font-family="Helvetica,sans-Serif" font-size="10.00">adb.adb_protocol.AdbMessage.Open</text>
</a>
</g>
</g>
<!-- Node1&#45;&gt;Node2 -->
<g id="edge1" class="edge"><title>Node1&#45;&gt;Node2</title>
<path fill="none" stroke="midnightblue" d="M154.276,-39.5C162.657,-39.5 171.272,-39.5 179.866,-39.5"/>
<polygon fill="midnightblue" stroke="midnightblue" points="179.93,-43.0001 189.929,-39.5 179.929,-36.0001 179.93,-43.0001"/>
</g>
<!-- Node3 -->
<g id="node3" class="node"><title>Node3</title>
<g id="a_node3"><a xlink:href="../adb.adb_protocol.html#adb.adb_protocol.AdbMessage.Read" xlink:title="adb.adb_protocol.AdbMessage.Read">
<polygon fill="white" stroke="black" points="403,-30 403,-49 580,-49 580,-30 403,-30"/>
<text text-anchor="middle" x="491.5" y="-37" font-family="Helvetica,sans-Serif" font-size="10.00">adb.adb_protocol.AdbMessage.Read</text>
</a>
</g>
</g>
<!-- Node2&#45;&gt;Node3 -->
<g id="edge2" class="edge"><title>Node2&#45;&gt;Node3</title>
<path fill="none" stroke="midnightblue" d="M367.15,-39.5C375.522,-39.5 384.048,-39.5 392.509,-39.5"/>
<polygon fill="midnightblue" stroke="midnightblue" points="392.783,-43.0001 402.783,-39.5 392.783,-36.0001 392.783,-43.0001"/>
</g>
<!-- Node4 -->
<g id="node4" class="node"><title>Node4</title>
<g id="a_node4"><a xlink:href="../adb.adb_protocol.html#adb.adb_protocol.AdbMessage.Unpack" xlink:title="adb.adb_protocol.AdbMessage.\lUnpack">
<polygon fill="white" stroke="black" points="616,-49.5 616,-79.5 770,-79.5 770,-49.5 616,-49.5"/>
<text text-anchor="start" x="624" y="-67.5" font-family="Helvetica,sans-Serif" font-size="10.00">adb.adb_protocol.AdbMessage.</text>
<text text-anchor="middle" x="693" y="-56.5" font-family="Helvetica,sans-Serif" font-size="10.00">Unpack</text>
</a>
</g>
</g>
<!-- Node3&#45;&gt;Node4 -->
<g id="edge3" class="edge"><title>Node3&#45;&gt;Node4</title>
<path fill="none" stroke="midnightblue" d="M568.492,-49.0227C580.621,-50.5428 593.249,-52.1252 605.598,-53.6727"/>
<polygon fill="midnightblue" stroke="midnightblue" points="605.532,-57.1917 615.889,-54.9623 606.402,-50.246 605.532,-57.1917"/>
</g>
<!-- Node5 -->
<g id="node5" class="node"><title>Node5</title>
<g id="a_node5"><a xlink:href="../adb.adb_protocol.html#adb.adb_protocol.AdbMessage.CalculateChecksum" xlink:title="adb.adb_protocol.AdbMessage.\lCalculateChecksum">
<polygon fill="white" stroke="black" points="616,-0.5 616,-30.5 770,-30.5 770,-0.5 616,-0.5"/>
<text text-anchor="start" x="624" y="-18.5" font-family="Helvetica,sans-Serif" font-size="10.00">adb.adb_protocol.AdbMessage.</text>
<text text-anchor="middle" x="693" y="-7.5" font-family="Helvetica,sans-Serif" font-size="10.00">CalculateChecksum</text>
</a>
</g>
</g>
<!-- Node3&#45;&gt;Node5 -->
<g id="edge4" class="edge"><title>Node3&#45;&gt;Node5</title>
<path fill="none" stroke="midnightblue" d="M571.634,-29.9801C582.909,-28.6237 594.551,-27.2232 605.95,-25.8519"/>
<polygon fill="midnightblue" stroke="midnightblue" points="606.379,-29.3256 615.889,-24.6562 605.543,-22.3757 606.379,-29.3256"/>
</g>
</g>
</svg>
