<?xml version="1.0" encoding="UTF-8" standalone="no"?>
<!DOCTYPE svg PUBLIC "-//W3C//DTD SVG 1.1//EN"
 "http://www.w3.org/Graphics/SVG/1.1/DTD/svg11.dtd">
<!-- Generated by graphviz version 2.38.0 (20140413.2041)
 -->
<!-- Title: adb.adb_protocol.AdbMessage.Send Pages: 1 -->
<svg width="821pt" height="39pt"
 viewBox="0.00 0.00 821.00 39.00" xmlns="http://www.w3.org/2000/svg" xmlns:xlink="http://www.w3.org/1999/xlink">
<g id="graph0" class="graph" transform="scale(1 1) rotate(0) translate(4 35)">
<title>adb.adb_protocol.AdbMessage.Send</title>
<polygon fill="white" stroke="none" points="-4,4 -4,-35 817,-35 817,4 -4,4"/>
<!-- Node1 -->
<g id="node1" class="node"><title>Node1</title>
<polygon fill="#bfbfbf" stroke="black" points="0,-6 0,-25 176,-25 176,-6 0,-6"/>
<text text-anchor="middle" x="88" y="-13" font-family="Helvetica,sans-Serif" font-size="10.00">adb.adb_protocol.AdbMessage.Send</text>
</g>
<!-- Node2 -->
<g id="node2" class="node"><title>Node2</title>
<g id="a_node2"><a xlink:href="../adb.adb_protocol.html#adb.adb_protocol.AdbMessage.Pack" xlink:title="adb.adb_protocol.AdbMessage.Pack">
<polygon fill="white" stroke="black" points="212,-6 212,-25 388,-25 388,-6 212,-6"/>
<text text-anchor="middle" x="300" y="-13" font-family="Helvetica,sans-Serif" font-size="10.00">adb.adb_protocol.AdbMessage.Pack</text>
</a>
</g>
</g>
<!-- Node1&#45;&gt;Node2 -->
<g id="edge1" class="edge"><title>Node1&#45;&gt;Node2</title>
<path fill="none" stroke="midnightblue" d="M176.235,-15.5C184.567,-15.5 193.052,-15.5 201.474,-15.5"/>
<polygon fill="midnightblue" stroke="midnightblue" points="201.699,-19.0001 211.699,-15.5 201.699,-12.0001 201.699,-19.0001"/>
</g>
<!-- Node3 -->
<g id="node3" class="node"><title>Node3</title>
<g id="a_node3"><a xlink:href="../adb.adb_protocol.html#adb.adb_protocol.AdbMessage.checksum" xlink:title="adb.adb_protocol.AdbMessage.checksum">
<polygon fill="white" stroke="black" points="424,-6 424,-25 623,-25 623,-6 424,-6"/>
<text text-anchor="middle" x="523.5" y="-13" font-family="Helvetica,sans-Serif" font-size="10.00">adb.adb_protocol.AdbMessage.checksum</text>
</a>
</g>
</g>
<!-- Node2&#45;&gt;Node3 -->
<g id="edge2" class="edge"><title>Node2&#45;&gt;Node3</title>
<path fill="none" stroke="midnightblue" d="M388.225,-15.5C396.487,-15.5 404.933,-15.5 413.366,-15.5"/>
<polygon fill="midnightblue" stroke="midnightblue" points="413.633,-19.0001 423.633,-15.5 413.633,-12.0001 413.633,-19.0001"/>
</g>
<!-- Node4 -->
<g id="node4" class="node"><title>Node4</title>
<g id="a_node4"><a xlink:href="../adb.adb_protocol.html#adb.adb_protocol.AdbMessage.CalculateChecksum" xlink:title="adb.adb_protocol.AdbMessage.\lCalculateChecksum">
<polygon fill="white" stroke="black" points="659,-0.5 659,-30.5 813,-30.5 813,-0.5 659,-0.5"/>
<text text-anchor="start" x="667" y="-18.5" font-family="Helvetica,sans-Serif" font-size="10.00">adb.adb_protocol.AdbMessage.</text>
<text text-anchor="middle" x="736" y="-7.5" font-family="Helvetica,sans-Serif" font-size="10.00">CalculateChecksum</text>
</a>
</g>
</g>
<!-- Node3&#45;&gt;Node4 -->
<g id="edge3" class="edge"><title>Node3&#45;&gt;Node4</title>
<path fill="none" stroke="midnightblue" d="M623.278,-15.5C631.784,-15.5 640.346,-15.5 648.741,-15.5"/>
<polygon fill="midnightblue" stroke="midnightblue" points="648.884,-19.0001 658.884,-15.5 648.884,-12.0001 648.884,-19.0001"/>
</g>
</g>
</svg>
