<?xml version="1.0" encoding="UTF-8" standalone="no"?>
<!DOCTYPE svg PUBLIC "-//W3C//DTD SVG 1.1//EN"
 "http://www.w3.org/Graphics/SVG/1.1/DTD/svg11.dtd">
<!-- Generated by graphviz version 2.38.0 (20140413.2041)
 -->
<!-- Title: adb.common.UsbHandle.Timeout Pages: 1 -->
<svg width="582pt" height="176pt"
 viewBox="0.00 0.00 582.00 176.00" xmlns="http://www.w3.org/2000/svg" xmlns:xlink="http://www.w3.org/1999/xlink">
<g id="graph0" class="graph" transform="scale(1 1) rotate(0) translate(4 172)">
<title>adb.common.UsbHandle.Timeout</title>
<polygon fill="white" stroke="none" points="-4,4 -4,-172 578,-172 578,4 -4,4"/>
<!-- Node1 -->
<g id="node1" class="node"><title>Node1</title>
<polygon fill="#bfbfbf" stroke="black" points="0,-99 0,-118 163,-118 163,-99 0,-99"/>
<text text-anchor="middle" x="81.5" y="-106" font-family="Helvetica,sans-Serif" font-size="10.00">adb.common.UsbHandle.Timeout</text>
</g>
<!-- Node2 -->
<g id="node2" class="node"><title>Node2</title>
<g id="a_node2"><a xlink:href="../adb.common_cli.html#adb.common.UsbHandle.BulkRead" xlink:title="adb.common.UsbHandle.BulkRead">
<polygon fill="white" stroke="black" points="199,-143 199,-162 369,-162 369,-143 199,-143"/>
<text text-anchor="middle" x="284" y="-150" font-family="Helvetica,sans-Serif" font-size="10.00">adb.common.UsbHandle.BulkRead</text>
</a>
</g>
</g>
<!-- Node1&#45;&gt;Node2 -->
<g id="edge1" class="edge"><title>Node1&#45;&gt;Node2</title>
<path fill="none" stroke="midnightblue" d="M135.778,-120.192C168.212,-127.31 209.121,-136.287 239.579,-142.971"/>
<polygon fill="midnightblue" stroke="midnightblue" points="136.523,-116.772 126.006,-118.047 135.023,-123.61 136.523,-116.772"/>
</g>
<!-- Node4 -->
<g id="node4" class="node"><title>Node4</title>
<g id="a_node4"><a xlink:href="../adb.common_cli.html#adb.common.UsbHandle.BulkWrite" xlink:title="adb.common.UsbHandle.Bulk\lWrite">
<polygon fill="white" stroke="black" points="210.5,-93.5 210.5,-123.5 357.5,-123.5 357.5,-93.5 210.5,-93.5"/>
<text text-anchor="start" x="218.5" y="-111.5" font-family="Helvetica,sans-Serif" font-size="10.00">adb.common.UsbHandle.Bulk</text>
<text text-anchor="middle" x="284" y="-100.5" font-family="Helvetica,sans-Serif" font-size="10.00">Write</text>
</a>
</g>
</g>
<!-- Node1&#45;&gt;Node4 -->
<g id="edge3" class="edge"><title>Node1&#45;&gt;Node4</title>
<path fill="none" stroke="midnightblue" d="M173.473,-108.5C185.795,-108.5 198.305,-108.5 210.25,-108.5"/>
<polygon fill="midnightblue" stroke="midnightblue" points="173.184,-105 163.184,-108.5 173.184,-112 173.184,-105"/>
</g>
<!-- Node5 -->
<g id="node5" class="node"><title>Node5</title>
<g id="a_node5"><a xlink:href="../adb.common_cli.html#adb.common.TcpHandle.TimeoutSeconds" xlink:title="adb.common.TcpHandle.Timeout\lSeconds">
<polygon fill="white" stroke="black" points="203.5,-44.5 203.5,-74.5 364.5,-74.5 364.5,-44.5 203.5,-44.5"/>
<text text-anchor="start" x="211.5" y="-62.5" font-family="Helvetica,sans-Serif" font-size="10.00">adb.common.TcpHandle.Timeout</text>
<text text-anchor="middle" x="284" y="-51.5" font-family="Helvetica,sans-Serif" font-size="10.00">Seconds</text>
</a>
</g>
</g>
<!-- Node1&#45;&gt;Node5 -->
<g id="edge4" class="edge"><title>Node1&#45;&gt;Node5</title>
<path fill="none" stroke="midnightblue" d="M131.66,-96.4858C158.751,-89.865 192.636,-81.5839 221.471,-74.537"/>
<polygon fill="midnightblue" stroke="midnightblue" points="130.518,-93.1619 121.634,-98.936 132.179,-99.9618 130.518,-93.1619"/>
</g>
<!-- Node3 -->
<g id="node3" class="node"><title>Node3</title>
<g id="a_node3"><a xlink:href="../adb.common_cli.html#adb.common.UsbHandle.FlushBuffers" xlink:title="adb.common.UsbHandle.Flush\lBuffers">
<polygon fill="white" stroke="black" points="413.5,-137.5 413.5,-167.5 565.5,-167.5 565.5,-137.5 413.5,-137.5"/>
<text text-anchor="start" x="421.5" y="-155.5" font-family="Helvetica,sans-Serif" font-size="10.00">adb.common.UsbHandle.Flush</text>
<text text-anchor="middle" x="489.5" y="-144.5" font-family="Helvetica,sans-Serif" font-size="10.00">Buffers</text>
</a>
</g>
</g>
<!-- Node2&#45;&gt;Node3 -->
<g id="edge2" class="edge"><title>Node2&#45;&gt;Node3</title>
<path fill="none" stroke="midnightblue" d="M379.261,-152.5C390.719,-152.5 402.303,-152.5 413.43,-152.5"/>
<polygon fill="midnightblue" stroke="midnightblue" points="379.24,-149 369.24,-152.5 379.24,-156 379.24,-149"/>
</g>
<!-- Node6 -->
<g id="node6" class="node"><title>Node6</title>
<g id="a_node6"><a xlink:href="../adb.common_cli.html#adb.common.TcpHandle._connect" xlink:title="adb.common.TcpHandle.\l_connect">
<polygon fill="white" stroke="black" points="426.5,-88.5 426.5,-118.5 552.5,-118.5 552.5,-88.5 426.5,-88.5"/>
<text text-anchor="start" x="434.5" y="-106.5" font-family="Helvetica,sans-Serif" font-size="10.00">adb.common.TcpHandle.</text>
<text text-anchor="middle" x="489.5" y="-95.5" font-family="Helvetica,sans-Serif" font-size="10.00">_connect</text>
</a>
</g>
</g>
<!-- Node5&#45;&gt;Node6 -->
<g id="edge5" class="edge"><title>Node5&#45;&gt;Node6</title>
<path fill="none" stroke="midnightblue" d="M364.41,-76.6696C384.909,-81.102 406.681,-85.8095 426.171,-90.0234"/>
<polygon fill="midnightblue" stroke="midnightblue" points="364.978,-73.2117 354.464,-74.5192 363.498,-80.0536 364.978,-73.2117"/>
</g>
<!-- Node7 -->
<g id="node7" class="node"><title>Node7</title>
<g id="a_node7"><a xlink:href="../adb.common_cli.html#adb.common.TcpHandle.BulkRead" xlink:title="adb.common.TcpHandle.BulkRead">
<polygon fill="white" stroke="black" points="405,-50 405,-69 574,-69 574,-50 405,-50"/>
<text text-anchor="middle" x="489.5" y="-57" font-family="Helvetica,sans-Serif" font-size="10.00">adb.common.TcpHandle.BulkRead</text>
</a>
</g>
</g>
<!-- Node5&#45;&gt;Node7 -->
<g id="edge6" class="edge"><title>Node5&#45;&gt;Node7</title>
<path fill="none" stroke="midnightblue" d="M374.586,-59.5C384.689,-59.5 394.954,-59.5 404.975,-59.5"/>
<polygon fill="midnightblue" stroke="midnightblue" points="374.553,-56.0001 364.553,-59.5 374.553,-63.0001 374.553,-56.0001"/>
</g>
<!-- Node8 -->
<g id="node8" class="node"><title>Node8</title>
<g id="a_node8"><a xlink:href="../adb.common_cli.html#adb.common.TcpHandle.BulkWrite" xlink:title="adb.common.TcpHandle.Bulk\lWrite">
<polygon fill="white" stroke="black" points="416.5,-0.5 416.5,-30.5 562.5,-30.5 562.5,-0.5 416.5,-0.5"/>
<text text-anchor="start" x="424.5" y="-18.5" font-family="Helvetica,sans-Serif" font-size="10.00">adb.common.TcpHandle.Bulk</text>
<text text-anchor="middle" x="489.5" y="-7.5" font-family="Helvetica,sans-Serif" font-size="10.00">Write</text>
</a>
</g>
</g>
<!-- Node5&#45;&gt;Node8 -->
<g id="edge7" class="edge"><title>Node5&#45;&gt;Node8</title>
<path fill="none" stroke="midnightblue" d="M364.365,-42.3399C382.398,-38.441 401.418,-34.3286 419.004,-30.5262"/>
<polygon fill="midnightblue" stroke="midnightblue" points="363.498,-38.9464 354.464,-44.4808 364.978,-45.7883 363.498,-38.9464"/>
</g>
</g>
</svg>
