<?xml version="1.0" encoding="UTF-8" standalone="no"?>
<!DOCTYPE svg PUBLIC "-//W3C//DTD SVG 1.1//EN"
 "http://www.w3.org/Graphics/SVG/1.1/DTD/svg11.dtd">
<!-- Generated by graphviz version 2.38.0 (20140413.2041)
 -->
<!-- Title: adb.adb_protocol._AdbConnection.Okay Pages: 1 -->
<svg width="797pt" height="137pt"
 viewBox="0.00 0.00 797.00 137.00" xmlns="http://www.w3.org/2000/svg" xmlns:xlink="http://www.w3.org/1999/xlink">
<g id="graph0" class="graph" transform="scale(1 1) rotate(0) translate(4 133)">
<title>adb.adb_protocol._AdbConnection.Okay</title>
<polygon fill="white" stroke="none" points="-4,4 -4,-133 793,-133 793,4 -4,4"/>
<!-- Node1 -->
<g id="node1" class="node"><title>Node1</title>
<polygon fill="#bfbfbf" stroke="black" points="0,-55 0,-74 192,-74 192,-55 0,-55"/>
<text text-anchor="middle" x="96" y="-62" font-family="Helvetica,sans-Serif" font-size="10.00">adb.adb_protocol._AdbConnection.Okay</text>
</g>
<!-- Node2 -->
<g id="node2" class="node"><title>Node2</title>
<g id="a_node2"><a xlink:href="../adb.adb_protocol.html#adb.adb_protocol._AdbConnection.ReadUntil" xlink:title="adb.adb_protocol._AdbConnection.\lReadUntil">
<polygon fill="white" stroke="black" points="228,-49.5 228,-79.5 397,-79.5 397,-49.5 228,-49.5"/>
<text text-anchor="start" x="236" y="-67.5" font-family="Helvetica,sans-Serif" font-size="10.00">adb.adb_protocol._AdbConnection.</text>
<text text-anchor="middle" x="312.5" y="-56.5" font-family="Helvetica,sans-Serif" font-size="10.00">ReadUntil</text>
</a>
</g>
</g>
<!-- Node1&#45;&gt;Node2 -->
<g id="edge1" class="edge"><title>Node1&#45;&gt;Node2</title>
<path fill="none" stroke="midnightblue" d="M202.077,-64.5C210.663,-64.5 219.267,-64.5 227.67,-64.5"/>
<polygon fill="midnightblue" stroke="midnightblue" points="202.02,-61.0001 192.02,-64.5 202.02,-68.0001 202.02,-61.0001"/>
</g>
<!-- Node3 -->
<g id="node3" class="node"><title>Node3</title>
<g id="a_node3"><a xlink:href="../adb.adb_protocol.html#adb.adb_protocol._AdbConnection.Write" xlink:title="adb.adb_protocol._AdbConnection.\lWrite">
<polygon fill="white" stroke="black" points="433,-98.5 433,-128.5 602,-128.5 602,-98.5 433,-98.5"/>
<text text-anchor="start" x="441" y="-116.5" font-family="Helvetica,sans-Serif" font-size="10.00">adb.adb_protocol._AdbConnection.</text>
<text text-anchor="middle" x="517.5" y="-105.5" font-family="Helvetica,sans-Serif" font-size="10.00">Write</text>
</a>
</g>
</g>
<!-- Node2&#45;&gt;Node3 -->
<g id="edge2" class="edge"><title>Node2&#45;&gt;Node3</title>
<path fill="none" stroke="midnightblue" d="M385.602,-81.9038C408.058,-87.3243 432.616,-93.252 454.332,-98.4938"/>
<polygon fill="midnightblue" stroke="midnightblue" points="386.328,-78.4788 375.786,-79.5346 384.686,-85.2834 386.328,-78.4788"/>
</g>
<!-- Node4 -->
<g id="node4" class="node"><title>Node4</title>
<g id="a_node4"><a xlink:href="../adb.adb_protocol.html#adb.adb_protocol._AdbConnection.ReadUntilClose" xlink:title="adb.adb_protocol._AdbConnection.\lReadUntilClose">
<polygon fill="white" stroke="black" points="433,-49.5 433,-79.5 602,-79.5 602,-49.5 433,-49.5"/>
<text text-anchor="start" x="441" y="-67.5" font-family="Helvetica,sans-Serif" font-size="10.00">adb.adb_protocol._AdbConnection.</text>
<text text-anchor="middle" x="517.5" y="-56.5" font-family="Helvetica,sans-Serif" font-size="10.00">ReadUntilClose</text>
</a>
</g>
</g>
<!-- Node2&#45;&gt;Node4 -->
<g id="edge3" class="edge"><title>Node2&#45;&gt;Node4</title>
<path fill="none" stroke="midnightblue" d="M407.256,-64.5C415.829,-64.5 424.477,-64.5 432.953,-64.5"/>
<polygon fill="midnightblue" stroke="midnightblue" points="407.24,-61.0001 397.24,-64.5 407.24,-68.0001 407.24,-61.0001"/>
</g>
<!-- Node5 -->
<g id="node5" class="node"><title>Node5</title>
<g id="a_node5"><a xlink:href="../adb.adb_protocol.html#adb.adb_protocol._AdbConnection.Close" xlink:title="adb.adb_protocol._AdbConnection.\lClose">
<polygon fill="white" stroke="black" points="433,-0.5 433,-30.5 602,-30.5 602,-0.5 433,-0.5"/>
<text text-anchor="start" x="441" y="-18.5" font-family="Helvetica,sans-Serif" font-size="10.00">adb.adb_protocol._AdbConnection.</text>
<text text-anchor="middle" x="517.5" y="-7.5" font-family="Helvetica,sans-Serif" font-size="10.00">Close</text>
</a>
</g>
</g>
<!-- Node2&#45;&gt;Node5 -->
<g id="edge4" class="edge"><title>Node2&#45;&gt;Node5</title>
<path fill="none" stroke="midnightblue" d="M385.602,-47.0962C408.058,-41.6757 432.616,-35.748 454.332,-30.5062"/>
<polygon fill="midnightblue" stroke="midnightblue" points="384.686,-43.7166 375.786,-49.4654 386.328,-50.5212 384.686,-43.7166"/>
</g>
<!-- Node6 -->
<g id="node6" class="node"><title>Node6</title>
<g id="a_node6"><a xlink:href="../adb.common_cli.html#adb.common.UsbHandle.Open" xlink:title="adb.common.UsbHandle.Open">
<polygon fill="white" stroke="black" points="638,-6 638,-25 789,-25 789,-6 638,-6"/>
<text text-anchor="middle" x="713.5" y="-13" font-family="Helvetica,sans-Serif" font-size="10.00">adb.common.UsbHandle.Open</text>
</a>
</g>
</g>
<!-- Node5&#45;&gt;Node6 -->
<g id="edge5" class="edge"><title>Node5&#45;&gt;Node6</title>
<path fill="none" stroke="midnightblue" d="M612.267,-15.5C620.885,-15.5 629.538,-15.5 637.952,-15.5"/>
<polygon fill="midnightblue" stroke="midnightblue" points="612.181,-12.0001 602.181,-15.5 612.181,-19.0001 612.181,-12.0001"/>
</g>
</g>
</svg>
