<?xml version="1.0" encoding="UTF-8" standalone="no"?>
<!DOCTYPE svg PUBLIC "-//W3C//DTD SVG 1.1//EN"
 "http://www.w3.org/Graphics/SVG/1.1/DTD/svg11.dtd">
<!-- Generated by graphviz version 2.38.0 (20140413.2041)
 -->
<!-- Title: adb.fastboot.FastbootCommands._SimpleCommand Pages: 1 -->
<svg width="596pt" height="355pt"
 viewBox="0.00 0.00 596.00 355.11" xmlns="http://www.w3.org/2000/svg" xmlns:xlink="http://www.w3.org/1999/xlink">
<g id="graph0" class="graph" transform="scale(1 1) rotate(0) translate(4 351.113)">
<title>adb.fastboot.FastbootCommands._SimpleCommand</title>
<polygon fill="white" stroke="none" points="-4,4 -4,-351.113 592,-351.113 592,4 -4,4"/>
<!-- Node1 -->
<g id="node1" class="node"><title>Node1</title>
<polygon fill="#bfbfbf" stroke="black" points="0,-147.613 0,-177.613 165,-177.613 165,-147.613 0,-147.613"/>
<text text-anchor="start" x="8" y="-165.613" font-family="Helvetica,sans-Serif" font-size="10.00">adb.fastboot.FastbootCommands.</text>
<text text-anchor="middle" x="82.5" y="-154.613" font-family="Helvetica,sans-Serif" font-size="10.00">_SimpleCommand</text>
</g>
<!-- Node2 -->
<g id="node2" class="node"><title>Node2</title>
<g id="a_node2"><a xlink:href="../adb.fastboot_debug.html#adb.fastboot.FastbootCommands.Continue" xlink:title="adb.fastboot.FastbootCommands.\lContinue">
<polygon fill="white" stroke="black" points="211.5,-316.613 211.5,-346.613 376.5,-346.613 376.5,-316.613 211.5,-316.613"/>
<text text-anchor="start" x="219.5" y="-334.613" font-family="Helvetica,sans-Serif" font-size="10.00">adb.fastboot.FastbootCommands.</text>
<text text-anchor="middle" x="294" y="-323.613" font-family="Helvetica,sans-Serif" font-size="10.00">Continue</text>
</a>
</g>
</g>
<!-- Node1&#45;&gt;Node2 -->
<g id="edge1" class="edge"><title>Node1&#45;&gt;Node2</title>
<path fill="none" stroke="midnightblue" d="M96.5269,-186.877C115.261,-219.401 152.911,-276.621 201,-307.613 206.272,-311.011 212.007,-313.929 217.95,-316.434"/>
<polygon fill="midnightblue" stroke="midnightblue" points="99.495,-185.014 91.5402,-178.016 93.3947,-188.448 99.495,-185.014"/>
</g>
<!-- Node3 -->
<g id="node3" class="node"><title>Node3</title>
<g id="a_node3"><a xlink:href="../adb.fastboot_debug.html#adb.fastboot.FastbootCommands.Erase" xlink:title="adb.fastboot.FastbootCommands.\lErase">
<polygon fill="white" stroke="black" points="211.5,-267.613 211.5,-297.613 376.5,-297.613 376.5,-267.613 211.5,-267.613"/>
<text text-anchor="start" x="219.5" y="-285.613" font-family="Helvetica,sans-Serif" font-size="10.00">adb.fastboot.FastbootCommands.</text>
<text text-anchor="middle" x="294" y="-274.613" font-family="Helvetica,sans-Serif" font-size="10.00">Erase</text>
</a>
</g>
</g>
<!-- Node1&#45;&gt;Node3 -->
<g id="edge2" class="edge"><title>Node1&#45;&gt;Node3</title>
<path fill="none" stroke="midnightblue" d="M104.776,-184.884C126.865,-206.744 163.396,-239.506 201,-258.613 207.769,-262.052 215.077,-265.031 222.51,-267.603"/>
<polygon fill="midnightblue" stroke="midnightblue" points="107.117,-182.275 97.5865,-177.646 102.151,-187.208 107.117,-182.275"/>
</g>
<!-- Node4 -->
<g id="node4" class="node"><title>Node4</title>
<g id="a_node4"><a xlink:href="../adb.fastboot_debug.html#adb.fastboot.FastbootCommands.Flash" xlink:title="adb.fastboot.FastbootCommands.\lFlash">
<polygon fill="white" stroke="black" points="211.5,-218.613 211.5,-248.613 376.5,-248.613 376.5,-218.613 211.5,-218.613"/>
<text text-anchor="start" x="219.5" y="-236.613" font-family="Helvetica,sans-Serif" font-size="10.00">adb.fastboot.FastbootCommands.</text>
<text text-anchor="middle" x="294" y="-225.613" font-family="Helvetica,sans-Serif" font-size="10.00">Flash</text>
</a>
</g>
</g>
<!-- Node1&#45;&gt;Node4 -->
<g id="edge3" class="edge"><title>Node1&#45;&gt;Node4</title>
<path fill="none" stroke="midnightblue" d="M127.151,-181.589C149.072,-190.729 176.184,-201.449 201,-209.613 210.565,-212.76 220.795,-215.769 230.83,-218.529"/>
<polygon fill="midnightblue" stroke="midnightblue" points="128.359,-178.3 117.784,-177.649 125.644,-184.753 128.359,-178.3"/>
</g>
<!-- Node6 -->
<g id="node6" class="node"><title>Node6</title>
<g id="a_node6"><a xlink:href="../adb.fastboot_debug.html#adb.fastboot.FastbootCommands.Getvar" xlink:title="adb.fastboot.FastbootCommands.\lGetvar">
<polygon fill="white" stroke="black" points="211.5,-169.613 211.5,-199.613 376.5,-199.613 376.5,-169.613 211.5,-169.613"/>
<text text-anchor="start" x="219.5" y="-187.613" font-family="Helvetica,sans-Serif" font-size="10.00">adb.fastboot.FastbootCommands.</text>
<text text-anchor="middle" x="294" y="-176.613" font-family="Helvetica,sans-Serif" font-size="10.00">Getvar</text>
</a>
</g>
</g>
<!-- Node1&#45;&gt;Node6 -->
<g id="edge6" class="edge"><title>Node1&#45;&gt;Node6</title>
<path fill="none" stroke="midnightblue" d="M175.134,-172.236C187.164,-173.499 199.429,-174.787 211.28,-176.031"/>
<polygon fill="midnightblue" stroke="midnightblue" points="175.409,-168.745 165.098,-171.182 174.678,-175.707 175.409,-168.745"/>
</g>
<!-- Node7 -->
<g id="node7" class="node"><title>Node7</title>
<g id="a_node7"><a xlink:href="../adb.fastboot_debug.html#adb.fastboot.FastbootCommands.Oem" xlink:title="adb.fastboot.FastbootCommands.Oem">
<polygon fill="white" stroke="black" points="201,-131.113 201,-150.113 387,-150.113 387,-131.113 201,-131.113"/>
<text text-anchor="middle" x="294" y="-138.113" font-family="Helvetica,sans-Serif" font-size="10.00">adb.fastboot.FastbootCommands.Oem</text>
</a>
</g>
</g>
<!-- Node1&#45;&gt;Node7 -->
<g id="edge7" class="edge"><title>Node1&#45;&gt;Node7</title>
<path fill="none" stroke="midnightblue" d="M175.172,-152.986C184.157,-152.043 193.272,-151.085 202.248,-150.143"/>
<polygon fill="midnightblue" stroke="midnightblue" points="174.678,-149.519 165.098,-154.044 175.409,-156.48 174.678,-149.519"/>
</g>
<!-- Node8 -->
<g id="node8" class="node"><title>Node8</title>
<g id="a_node8"><a xlink:href="../adb.fastboot_debug.html#adb.fastboot.FastbootCommands.Reboot" xlink:title="adb.fastboot.FastbootCommands.\lReboot">
<polygon fill="white" stroke="black" points="211.5,-81.6129 211.5,-111.613 376.5,-111.613 376.5,-81.6129 211.5,-81.6129"/>
<text text-anchor="start" x="219.5" y="-99.6129" font-family="Helvetica,sans-Serif" font-size="10.00">adb.fastboot.FastbootCommands.</text>
<text text-anchor="middle" x="294" y="-88.6129" font-family="Helvetica,sans-Serif" font-size="10.00">Reboot</text>
</a>
</g>
</g>
<!-- Node1&#45;&gt;Node8 -->
<g id="edge8" class="edge"><title>Node1&#45;&gt;Node8</title>
<path fill="none" stroke="midnightblue" d="M133.86,-144.166C154.552,-136.816 178.819,-128.487 201,-121.613 211.909,-118.232 223.62,-114.858 234.91,-111.732"/>
<polygon fill="midnightblue" stroke="midnightblue" points="132.56,-140.914 124.321,-147.575 134.916,-147.506 132.56,-140.914"/>
</g>
<!-- Node9 -->
<g id="node9" class="node"><title>Node9</title>
<g id="a_node9"><a xlink:href="../adb.fastboot_debug.html#adb.fastboot.FastbootCommands.RebootBootloader" xlink:title="adb.fastboot.FastbootCommands.\lRebootBootloader">
<polygon fill="white" stroke="black" points="211.5,-32.6129 211.5,-62.6129 376.5,-62.6129 376.5,-32.6129 211.5,-32.6129"/>
<text text-anchor="start" x="219.5" y="-50.6129" font-family="Helvetica,sans-Serif" font-size="10.00">adb.fastboot.FastbootCommands.</text>
<text text-anchor="middle" x="294" y="-39.6129" font-family="Helvetica,sans-Serif" font-size="10.00">RebootBootloader</text>
</a>
</g>
</g>
<!-- Node1&#45;&gt;Node9 -->
<g id="edge9" class="edge"><title>Node1&#45;&gt;Node9</title>
<path fill="none" stroke="midnightblue" d="M106.6,-140.493C129.05,-120.128 164.947,-90.452 201,-72.6129 208.714,-68.7959 217.09,-65.4981 225.541,-62.666"/>
<polygon fill="midnightblue" stroke="midnightblue" points="104.223,-137.923 99.2411,-147.274 108.967,-143.071 104.223,-137.923"/>
</g>
<!-- Node5 -->
<g id="node5" class="node"><title>Node5</title>
<g id="a_node5"><a xlink:href="../adb.fastboot_debug.html#adb.fastboot.FastbootCommands.FlashFromFile" xlink:title="adb.fastboot.FastbootCommands.\lFlashFromFile">
<polygon fill="white" stroke="black" points="423,-103.613 423,-133.613 588,-133.613 588,-103.613 423,-103.613"/>
<text text-anchor="start" x="431" y="-121.613" font-family="Helvetica,sans-Serif" font-size="10.00">adb.fastboot.FastbootCommands.</text>
<text text-anchor="middle" x="505.5" y="-110.613" font-family="Helvetica,sans-Serif" font-size="10.00">FlashFromFile</text>
</a>
</g>
</g>
<!-- Node4&#45;&gt;Node5 -->
<g id="edge4" class="edge"><title>Node4&#45;&gt;Node5</title>
<path fill="none" stroke="midnightblue" d="M374.463,-215.111C378.768,-213.422 382.975,-211.592 387,-209.613 427.749,-189.572 468.005,-154.075 489.186,-133.847"/>
<polygon fill="midnightblue" stroke="midnightblue" points="373.113,-211.878 364.915,-218.589 375.509,-218.455 373.113,-211.878"/>
</g>
<!-- Node5&#45;&gt;Node1 -->
<g id="edge5" class="edge"><title>Node5&#45;&gt;Node1</title>
<path fill="none" stroke="midnightblue" d="M485.13,-95.671C463.837,-72.4032 427.264,-37.8536 387,-23.6129 309.064,3.95185 275.985,11.1871 201,-23.6129 144.822,-49.6849 105.79,-117.313 90.5799,-147.582"/>
<polygon fill="midnightblue" stroke="midnightblue" points="482.737,-98.2459 492.005,-103.379 487.961,-93.5864 482.737,-98.2459"/>
</g>
</g>
</svg>
