<?xml version="1.0" encoding="UTF-8" standalone="no"?>
<!DOCTYPE svg PUBLIC "-//W3C//DTD SVG 1.1//EN"
 "http://www.w3.org/Graphics/SVG/1.1/DTD/svg11.dtd">
<!-- Generated by graphviz version 2.38.0 (20140413.2041)
 -->
<!-- Title: adb.common.UsbHandle.FlushBuffers Pages: 1 -->
<svg width="753pt" height="72pt"
 viewBox="0.00 0.00 753.00 71.50" xmlns="http://www.w3.org/2000/svg" xmlns:xlink="http://www.w3.org/1999/xlink">
<g id="graph0" class="graph" transform="scale(1 1) rotate(0) translate(4 67.5)">
<title>adb.common.UsbHandle.FlushBuffers</title>
<polygon fill="white" stroke="none" points="-4,4 -4,-67.5 749,-67.5 749,4 -4,4"/>
<!-- Node1 -->
<g id="node1" class="node"><title>Node1</title>
<polygon fill="#bfbfbf" stroke="black" points="0,-19.5 0,-49.5 152,-49.5 152,-19.5 0,-19.5"/>
<text text-anchor="start" x="8" y="-37.5" font-family="Helvetica,sans-Serif" font-size="10.00">adb.common.UsbHandle.Flush</text>
<text text-anchor="middle" x="76" y="-26.5" font-family="Helvetica,sans-Serif" font-size="10.00">Buffers</text>
</g>
<!-- Node2 -->
<g id="node2" class="node"><title>Node2</title>
<g id="a_node2"><a xlink:href="../adb.common_cli.html#adb.common.UsbHandle.BulkRead" xlink:title="adb.common.UsbHandle.BulkRead">
<polygon fill="white" stroke="black" points="188,-25 188,-44 358,-44 358,-25 188,-25"/>
<text text-anchor="middle" x="273" y="-32" font-family="Helvetica,sans-Serif" font-size="10.00">adb.common.UsbHandle.BulkRead</text>
</a>
</g>
</g>
<!-- Node1&#45;&gt;Node2 -->
<g id="edge1" class="edge"><title>Node1&#45;&gt;Node2</title>
<path fill="none" stroke="midnightblue" d="M152.113,-34.5C160.519,-34.5 169.159,-34.5 177.765,-34.5"/>
<polygon fill="midnightblue" stroke="midnightblue" points="177.836,-38.0001 187.836,-34.5 177.836,-31.0001 177.836,-38.0001"/>
</g>
<!-- Node3 -->
<g id="node3" class="node"><title>Node3</title>
<g id="a_node3"><a xlink:href="../adb.common_cli.html#adb.common.UsbHandle.Timeout" xlink:title="adb.common.UsbHandle.Timeout">
<polygon fill="white" stroke="black" points="394.5,-44 394.5,-63 557.5,-63 557.5,-44 394.5,-44"/>
<text text-anchor="middle" x="476" y="-51" font-family="Helvetica,sans-Serif" font-size="10.00">adb.common.UsbHandle.Timeout</text>
</a>
</g>
</g>
<!-- Node2&#45;&gt;Node3 -->
<g id="edge2" class="edge"><title>Node2&#45;&gt;Node3</title>
<path fill="none" stroke="midnightblue" d="M358.077,-42.4476C366.737,-43.2662 375.565,-44.1006 384.292,-44.9256"/>
<polygon fill="midnightblue" stroke="midnightblue" points="384.191,-48.4316 394.476,-45.8883 384.85,-41.4627 384.191,-48.4316"/>
</g>
<!-- Node4 -->
<g id="node4" class="node"><title>Node4</title>
<g id="a_node4"><a xlink:href="../adb.common_cli.html#adb.common.UsbHandle.usb_info" xlink:title="adb.common.UsbHandle.usb_info">
<polygon fill="white" stroke="black" points="394,-6 394,-25 558,-25 558,-6 394,-6"/>
<text text-anchor="middle" x="476" y="-13" font-family="Helvetica,sans-Serif" font-size="10.00">adb.common.UsbHandle.usb_info</text>
</a>
</g>
</g>
<!-- Node2&#45;&gt;Node4 -->
<g id="edge3" class="edge"><title>Node2&#45;&gt;Node4</title>
<path fill="none" stroke="midnightblue" d="M358.077,-26.5524C366.583,-25.7484 375.249,-24.9292 383.825,-24.1186"/>
<polygon fill="midnightblue" stroke="midnightblue" points="384.208,-27.598 393.834,-23.1724 383.549,-20.6291 384.208,-27.598"/>
</g>
<!-- Node5 -->
<g id="node5" class="node"><title>Node5</title>
<g id="a_node5"><a xlink:href="../adb.common_cli.html#adb.common.UsbHandle.serial_number" xlink:title="adb.common.UsbHandle.serial\l_number">
<polygon fill="white" stroke="black" points="594,-0.5 594,-30.5 745,-30.5 745,-0.5 594,-0.5"/>
<text text-anchor="start" x="602" y="-18.5" font-family="Helvetica,sans-Serif" font-size="10.00">adb.common.UsbHandle.serial</text>
<text text-anchor="middle" x="669.5" y="-7.5" font-family="Helvetica,sans-Serif" font-size="10.00">_number</text>
</a>
</g>
</g>
<!-- Node4&#45;&gt;Node5 -->
<g id="edge4" class="edge"><title>Node4&#45;&gt;Node5</title>
<path fill="none" stroke="midnightblue" d="M558.213,-15.5C566.62,-15.5 575.18,-15.5 583.626,-15.5"/>
<polygon fill="midnightblue" stroke="midnightblue" points="583.853,-19.0001 593.853,-15.5 583.853,-12.0001 583.853,-19.0001"/>
</g>
</g>
</svg>
