<?xml version="1.0" encoding="UTF-8" standalone="no"?>
<!DOCTYPE svg PUBLIC "-//W3C//DTD SVG 1.1//EN"
 "http://www.w3.org/Graphics/SVG/1.1/DTD/svg11.dtd">
<!-- Generated by graphviz version 2.38.0 (20140413.2041)
 -->
<!-- Title: adb.filesync_protocol.FilesyncProtocol.Push Pages: 1 -->
<svg width="344pt" height="88pt"
 viewBox="0.00 0.00 344.00 88.00" xmlns="http://www.w3.org/2000/svg" xmlns:xlink="http://www.w3.org/1999/xlink">
<g id="graph0" class="graph" transform="scale(1 1) rotate(0) translate(4 84)">
<title>adb.filesync_protocol.FilesyncProtocol.Push</title>
<polygon fill="white" stroke="none" points="-4,4 -4,-84 340,-84 340,4 -4,4"/>
<!-- Node1 -->
<g id="node1" class="node"><title>Node1</title>
<polygon fill="#bfbfbf" stroke="black" points="0,-0.5 0,-30.5 149,-30.5 149,-0.5 0,-0.5"/>
<text text-anchor="start" x="8" y="-18.5" font-family="Helvetica,sans-Serif" font-size="10.00">adb.filesync_protocol.Filesync</text>
<text text-anchor="middle" x="74.5" y="-7.5" font-family="Helvetica,sans-Serif" font-size="10.00">Protocol.Push</text>
</g>
<!-- Node2 -->
<g id="node2" class="node"><title>Node2</title>
<g id="a_node2"><a xlink:href="../adb.fastboot_debug.html#adb.fastboot.FastbootProtocol._HandleProgress" xlink:title="adb.fastboot.FastbootProtocol.\l_HandleProgress">
<polygon fill="white" stroke="black" points="185,-49.5 185,-79.5 336,-79.5 336,-49.5 185,-49.5"/>
<text text-anchor="start" x="193" y="-67.5" font-family="Helvetica,sans-Serif" font-size="10.00">adb.fastboot.FastbootProtocol.</text>
<text text-anchor="middle" x="260.5" y="-56.5" font-family="Helvetica,sans-Serif" font-size="10.00">_HandleProgress</text>
</a>
</g>
</g>
<!-- Node1&#45;&gt;Node2 -->
<g id="edge1" class="edge"><title>Node1&#45;&gt;Node2</title>
<path fill="none" stroke="midnightblue" d="M131.957,-30.5346C151.384,-35.7083 173.311,-41.5475 193.435,-46.9066"/>
<polygon fill="midnightblue" stroke="midnightblue" points="192.586,-50.3025 203.15,-49.4938 194.388,-43.5383 192.586,-50.3025"/>
</g>
<!-- Node3 -->
<g id="node3" class="node"><title>Node3</title>
<g id="a_node3"><a xlink:href="../adb.filesync_protocol.html#adb.filesync_protocol.FilesyncProtocol._HandleProgress" xlink:title="adb.filesync_protocol.Filesync\lProtocol._HandleProgress">
<polygon fill="white" stroke="black" points="186,-0.5 186,-30.5 335,-30.5 335,-0.5 186,-0.5"/>
<text text-anchor="start" x="194" y="-18.5" font-family="Helvetica,sans-Serif" font-size="10.00">adb.filesync_protocol.Filesync</text>
<text text-anchor="middle" x="260.5" y="-7.5" font-family="Helvetica,sans-Serif" font-size="10.00">Protocol._HandleProgress</text>
</a>
</g>
</g>
<!-- Node1&#45;&gt;Node3 -->
<g id="edge2" class="edge"><title>Node1&#45;&gt;Node3</title>
<path fill="none" stroke="midnightblue" d="M149.015,-8.87259C157.815,-8.75443 166.851,-8.72169 175.781,-8.77437"/>
<polygon fill="midnightblue" stroke="midnightblue" points="175.769,-12.2743 185.802,-8.87014 175.835,-5.27463 175.769,-12.2743"/>
</g>
<!-- Node3&#45;&gt;Node1 -->
<g id="edge3" class="edge"><title>Node3&#45;&gt;Node1</title>
<path fill="none" stroke="midnightblue" d="M185.802,-22.1299C176.998,-22.2468 167.962,-22.2784 159.033,-22.2245"/>
<polygon fill="midnightblue" stroke="midnightblue" points="159.048,-18.7246 149.015,-22.1274 158.98,-25.7243 159.048,-18.7246"/>
</g>
</g>
</svg>
