<?xml version="1.0" encoding="UTF-8" standalone="no"?>
<!DOCTYPE svg PUBLIC "-//W3C//DTD SVG 1.1//EN"
 "http://www.w3.org/Graphics/SVG/1.1/DTD/svg11.dtd">
<!-- Generated by graphviz version 2.38.0 (20140413.2041)
 -->
<!-- Title: adb.common.UsbHandle.SerialMatcher Pages: 1 -->
<svg width="524pt" height="53pt"
 viewBox="0.00 0.00 524.00 52.50" xmlns="http://www.w3.org/2000/svg" xmlns:xlink="http://www.w3.org/1999/xlink">
<g id="graph0" class="graph" transform="scale(1 1) rotate(0) translate(4 48.5)">
<title>adb.common.UsbHandle.SerialMatcher</title>
<polygon fill="white" stroke="none" points="-4,4 -4,-48.5 520,-48.5 520,4 -4,4"/>
<!-- Node1 -->
<g id="node1" class="node"><title>Node1</title>
<polygon fill="#bfbfbf" stroke="black" points="0,-0.5 0,-30.5 152,-30.5 152,-0.5 0,-0.5"/>
<text text-anchor="start" x="8" y="-18.5" font-family="Helvetica,sans-Serif" font-size="10.00">adb.common.UsbHandle.Serial</text>
<text text-anchor="middle" x="76" y="-7.5" font-family="Helvetica,sans-Serif" font-size="10.00">Matcher</text>
</g>
<!-- Node2 -->
<g id="node2" class="node"><title>Node2</title>
<g id="a_node2"><a xlink:href="../adb.common_cli.html#adb.common.UsbHandle.Find" xlink:title="adb.common.UsbHandle.Find">
<polygon fill="white" stroke="black" points="188,-25 188,-44 334,-44 334,-25 188,-25"/>
<text text-anchor="middle" x="261" y="-32" font-family="Helvetica,sans-Serif" font-size="10.00">adb.common.UsbHandle.Find</text>
</a>
</g>
</g>
<!-- Node1&#45;&gt;Node2 -->
<g id="edge1" class="edge"><title>Node1&#45;&gt;Node2</title>
<path fill="none" stroke="midnightblue" d="M162.193,-24.3452C170.728,-25.2314 179.337,-26.1252 187.72,-26.9955"/>
<polygon fill="midnightblue" stroke="midnightblue" points="162.533,-20.8618 152.225,-23.3103 161.81,-27.8244 162.533,-20.8618"/>
</g>
<!-- Node3 -->
<g id="node3" class="node"><title>Node3</title>
<g id="a_node3"><a xlink:href="../adb.common_cli.html#adb.common.UsbHandle.FindAndOpen" xlink:title="adb.common.UsbHandle.Find\lAndOpen">
<polygon fill="white" stroke="black" points="370,-0.5 370,-30.5 516,-30.5 516,-0.5 370,-0.5"/>
<text text-anchor="start" x="378" y="-18.5" font-family="Helvetica,sans-Serif" font-size="10.00">adb.common.UsbHandle.Find</text>
<text text-anchor="middle" x="443" y="-7.5" font-family="Helvetica,sans-Serif" font-size="10.00">AndOpen</text>
</a>
</g>
</g>
<!-- Node2&#45;&gt;Node3 -->
<g id="edge2" class="edge"><title>Node2&#45;&gt;Node3</title>
<path fill="none" stroke="midnightblue" d="M344.16,-25.8276C352.718,-24.9242 361.372,-24.0107 369.808,-23.1203"/>
<polygon fill="midnightblue" stroke="midnightblue" points="343.753,-22.351 334.176,-26.8815 344.488,-29.3123 343.753,-22.351"/>
</g>
<!-- Node3&#45;&gt;Node1 -->
<g id="edge3" class="edge"><title>Node3&#45;&gt;Node1</title>
<path fill="none" stroke="midnightblue" d="M359.532,-15.5C297.287,-15.5 212.578,-15.5 152.186,-15.5"/>
<polygon fill="midnightblue" stroke="midnightblue" points="359.71,-19.0001 369.71,-15.5 359.71,-12.0001 359.71,-19.0001"/>
</g>
</g>
</svg>
