<?xml version="1.0" encoding="UTF-8" standalone="no"?>
<!DOCTYPE svg PUBLIC "-//W3C//DTD SVG 1.1//EN"
 "http://www.w3.org/Graphics/SVG/1.1/DTD/svg11.dtd">
<!-- Generated by graphviz version 2.38.0 (20140413.2041)
 -->
<!-- Title: adb.common.UsbHandle.BulkWrite Pages: 1 -->
<svg width="542pt" height="72pt"
 viewBox="0.00 0.00 542.00 71.50" xmlns="http://www.w3.org/2000/svg" xmlns:xlink="http://www.w3.org/1999/xlink">
<g id="graph0" class="graph" transform="scale(1 1) rotate(0) translate(4 67.5)">
<title>adb.common.UsbHandle.BulkWrite</title>
<polygon fill="white" stroke="none" points="-4,4 -4,-67.5 538,-67.5 538,4 -4,4"/>
<!-- Node1 -->
<g id="node1" class="node"><title>Node1</title>
<polygon fill="#bfbfbf" stroke="black" points="0,-19.5 0,-49.5 147,-49.5 147,-19.5 0,-19.5"/>
<text text-anchor="start" x="8" y="-37.5" font-family="Helvetica,sans-Serif" font-size="10.00">adb.common.UsbHandle.Bulk</text>
<text text-anchor="middle" x="73.5" y="-26.5" font-family="Helvetica,sans-Serif" font-size="10.00">Write</text>
</g>
<!-- Node2 -->
<g id="node2" class="node"><title>Node2</title>
<g id="a_node2"><a xlink:href="../adb.common_cli.html#adb.common.UsbHandle.Timeout" xlink:title="adb.common.UsbHandle.Timeout">
<polygon fill="white" stroke="black" points="183.5,-44 183.5,-63 346.5,-63 346.5,-44 183.5,-44"/>
<text text-anchor="middle" x="265" y="-51" font-family="Helvetica,sans-Serif" font-size="10.00">adb.common.UsbHandle.Timeout</text>
</a>
</g>
</g>
<!-- Node1&#45;&gt;Node2 -->
<g id="edge1" class="edge"><title>Node1&#45;&gt;Node2</title>
<path fill="none" stroke="midnightblue" d="M147.224,-41.7916C155.701,-42.6415 164.427,-43.5164 173.11,-44.387"/>
<polygon fill="midnightblue" stroke="midnightblue" points="172.966,-47.8901 183.266,-45.4053 173.665,-40.925 172.966,-47.8901"/>
</g>
<!-- Node3 -->
<g id="node3" class="node"><title>Node3</title>
<g id="a_node3"><a xlink:href="../adb.common_cli.html#adb.common.UsbHandle.usb_info" xlink:title="adb.common.UsbHandle.usb_info">
<polygon fill="white" stroke="black" points="183,-6 183,-25 347,-25 347,-6 183,-6"/>
<text text-anchor="middle" x="265" y="-13" font-family="Helvetica,sans-Serif" font-size="10.00">adb.common.UsbHandle.usb_info</text>
</a>
</g>
</g>
<!-- Node1&#45;&gt;Node3 -->
<g id="edge2" class="edge"><title>Node1&#45;&gt;Node3</title>
<path fill="none" stroke="midnightblue" d="M147.224,-27.2084C155.626,-26.366 164.273,-25.499 172.88,-24.6361"/>
<polygon fill="midnightblue" stroke="midnightblue" points="173.347,-28.1069 182.948,-23.6266 172.648,-21.1418 173.347,-28.1069"/>
</g>
<!-- Node4 -->
<g id="node4" class="node"><title>Node4</title>
<g id="a_node4"><a xlink:href="../adb.common_cli.html#adb.common.UsbHandle.serial_number" xlink:title="adb.common.UsbHandle.serial\l_number">
<polygon fill="white" stroke="black" points="383,-0.5 383,-30.5 534,-30.5 534,-0.5 383,-0.5"/>
<text text-anchor="start" x="391" y="-18.5" font-family="Helvetica,sans-Serif" font-size="10.00">adb.common.UsbHandle.serial</text>
<text text-anchor="middle" x="458.5" y="-7.5" font-family="Helvetica,sans-Serif" font-size="10.00">_number</text>
</a>
</g>
</g>
<!-- Node3&#45;&gt;Node4 -->
<g id="edge3" class="edge"><title>Node3&#45;&gt;Node4</title>
<path fill="none" stroke="midnightblue" d="M347.213,-15.5C355.62,-15.5 364.18,-15.5 372.626,-15.5"/>
<polygon fill="midnightblue" stroke="midnightblue" points="372.853,-19.0001 382.853,-15.5 372.853,-12.0001 372.853,-19.0001"/>
</g>
</g>
</svg>
