<?xml version="1.0" encoding="UTF-8" standalone="no"?>
<!DOCTYPE svg PUBLIC "-//W3C//DTD SVG 1.1//EN"
 "http://www.w3.org/Graphics/SVG/1.1/DTD/svg11.dtd">
<!-- Generated by graphviz version 2.38.0 (20140413.2041)
 -->
<!-- Title: adb.adb_protocol.AdbMessage.Unpack Pages: 1 -->
<svg width="968pt" height="127pt"
 viewBox="0.00 0.00 968.00 127.00" xmlns="http://www.w3.org/2000/svg" xmlns:xlink="http://www.w3.org/1999/xlink">
<g id="graph0" class="graph" transform="scale(1 1) rotate(0) translate(4 123)">
<title>adb.adb_protocol.AdbMessage.Unpack</title>
<polygon fill="white" stroke="none" points="-4,4 -4,-123 964,-123 964,4 -4,4"/>
<!-- Node1 -->
<g id="node1" class="node"><title>Node1</title>
<polygon fill="#bfbfbf" stroke="black" points="0,-44.5 0,-74.5 154,-74.5 154,-44.5 0,-44.5"/>
<text text-anchor="start" x="8" y="-62.5" font-family="Helvetica,sans-Serif" font-size="10.00">adb.adb_protocol.AdbMessage.</text>
<text text-anchor="middle" x="77" y="-51.5" font-family="Helvetica,sans-Serif" font-size="10.00">Unpack</text>
</g>
<!-- Node2 -->
<g id="node2" class="node"><title>Node2</title>
<g id="a_node2"><a xlink:href="../adb.adb_protocol.html#adb.adb_protocol.AdbMessage.Read" xlink:title="adb.adb_protocol.AdbMessage.Read">
<polygon fill="white" stroke="black" points="190,-50 190,-69 367,-69 367,-50 190,-50"/>
<text text-anchor="middle" x="278.5" y="-57" font-family="Helvetica,sans-Serif" font-size="10.00">adb.adb_protocol.AdbMessage.Read</text>
</a>
</g>
</g>
<!-- Node1&#45;&gt;Node2 -->
<g id="edge1" class="edge"><title>Node1&#45;&gt;Node2</title>
<path fill="none" stroke="midnightblue" d="M164.485,-59.5C172.92,-59.5 181.484,-59.5 189.929,-59.5"/>
<polygon fill="midnightblue" stroke="midnightblue" points="164.276,-56.0001 154.276,-59.5 164.276,-63.0001 164.276,-56.0001"/>
</g>
<!-- Node3 -->
<g id="node3" class="node"><title>Node3</title>
<g id="a_node3"><a xlink:href="../adb.adb_protocol.html#adb.adb_protocol.AdbMessage.Connect" xlink:title="adb.adb_protocol.AdbMessage.\lConnect">
<polygon fill="white" stroke="black" points="414.5,-88.5 414.5,-118.5 568.5,-118.5 568.5,-88.5 414.5,-88.5"/>
<text text-anchor="start" x="422.5" y="-106.5" font-family="Helvetica,sans-Serif" font-size="10.00">adb.adb_protocol.AdbMessage.</text>
<text text-anchor="middle" x="491.5" y="-95.5" font-family="Helvetica,sans-Serif" font-size="10.00">Connect</text>
</a>
</g>
</g>
<!-- Node2&#45;&gt;Node3 -->
<g id="edge2" class="edge"><title>Node2&#45;&gt;Node3</title>
<path fill="none" stroke="midnightblue" d="M335.133,-71.1013C360.583,-76.4083 391.061,-82.7638 418.255,-88.4346"/>
<polygon fill="midnightblue" stroke="midnightblue" points="335.788,-67.6625 325.284,-69.0473 334.359,-74.5151 335.788,-67.6625"/>
</g>
<!-- Node4 -->
<g id="node4" class="node"><title>Node4</title>
<g id="a_node4"><a xlink:href="../adb.adb_protocol.html#adb.adb_protocol.AdbMessage.Open" xlink:title="adb.adb_protocol.AdbMessage.Open">
<polygon fill="white" stroke="black" points="403,-50 403,-69 580,-69 580,-50 403,-50"/>
<text text-anchor="middle" x="491.5" y="-57" font-family="Helvetica,sans-Serif" font-size="10.00">adb.adb_protocol.AdbMessage.Open</text>
</a>
</g>
</g>
<!-- Node2&#45;&gt;Node4 -->
<g id="edge3" class="edge"><title>Node2&#45;&gt;Node4</title>
<path fill="none" stroke="midnightblue" d="M377.423,-59.5C385.884,-59.5 394.411,-59.5 402.783,-59.5"/>
<polygon fill="midnightblue" stroke="midnightblue" points="377.15,-56.0001 367.15,-59.5 377.15,-63.0001 377.15,-56.0001"/>
</g>
<!-- Node7 -->
<g id="node7" class="node"><title>Node7</title>
<g id="a_node7"><a xlink:href="../adb.filesync_protocol.html#adb.filesync_protocol.FileSyncConnection.ReadUntil" xlink:title="adb.filesync_protocol.File\lSyncConnection.ReadUntil">
<polygon fill="white" stroke="black" points="424,-0.5 424,-30.5 559,-30.5 559,-0.5 424,-0.5"/>
<text text-anchor="start" x="432" y="-18.5" font-family="Helvetica,sans-Serif" font-size="10.00">adb.filesync_protocol.File</text>
<text text-anchor="middle" x="491.5" y="-7.5" font-family="Helvetica,sans-Serif" font-size="10.00">SyncConnection.ReadUntil</text>
</a>
</g>
</g>
<!-- Node2&#45;&gt;Node7 -->
<g id="edge6" class="edge"><title>Node2&#45;&gt;Node7</title>
<path fill="none" stroke="midnightblue" d="M335.408,-47.8414C362.606,-42.1698 395.497,-35.311 423.978,-29.3719"/>
<polygon fill="midnightblue" stroke="midnightblue" points="334.359,-44.4849 325.284,-49.9527 335.788,-51.3375 334.359,-44.4849"/>
</g>
<!-- Node5 -->
<g id="node5" class="node"><title>Node5</title>
<g id="a_node5"><a xlink:href="../adb.adb_protocol.html#adb.adb_protocol.AdbMessage.StreamingCommand" xlink:title="adb.adb_protocol.AdbMessage.\lStreamingCommand">
<polygon fill="white" stroke="black" points="616,-44.5 616,-74.5 770,-74.5 770,-44.5 616,-44.5"/>
<text text-anchor="start" x="624" y="-62.5" font-family="Helvetica,sans-Serif" font-size="10.00">adb.adb_protocol.AdbMessage.</text>
<text text-anchor="middle" x="693" y="-51.5" font-family="Helvetica,sans-Serif" font-size="10.00">StreamingCommand</text>
</a>
</g>
</g>
<!-- Node4&#45;&gt;Node5 -->
<g id="edge4" class="edge"><title>Node4&#45;&gt;Node5</title>
<path fill="none" stroke="midnightblue" d="M590.115,-59.5C598.749,-59.5 607.405,-59.5 615.824,-59.5"/>
<polygon fill="midnightblue" stroke="midnightblue" points="590.004,-56.0001 580.004,-59.5 590.004,-63.0001 590.004,-56.0001"/>
</g>
<!-- Node6 -->
<g id="node6" class="node"><title>Node6</title>
<g id="a_node6"><a xlink:href="../adb.adb_protocol.html#adb.adb_protocol.AdbMessage.Command" xlink:title="adb.adb_protocol.AdbMessage.\lCommand">
<polygon fill="white" stroke="black" points="806,-44.5 806,-74.5 960,-74.5 960,-44.5 806,-44.5"/>
<text text-anchor="start" x="814" y="-62.5" font-family="Helvetica,sans-Serif" font-size="10.00">adb.adb_protocol.AdbMessage.</text>
<text text-anchor="middle" x="883" y="-51.5" font-family="Helvetica,sans-Serif" font-size="10.00">Command</text>
</a>
</g>
</g>
<!-- Node5&#45;&gt;Node6 -->
<g id="edge5" class="edge"><title>Node5&#45;&gt;Node6</title>
<path fill="none" stroke="midnightblue" d="M780.424,-59.5C788.857,-59.5 797.372,-59.5 805.696,-59.5"/>
<polygon fill="midnightblue" stroke="midnightblue" points="780.196,-56.0001 770.196,-59.5 780.196,-63.0001 780.196,-56.0001"/>
</g>
</g>
</svg>
