<?xml version="1.0" encoding="UTF-8" standalone="no"?>
<!DOCTYPE svg PUBLIC "-//W3C//DTD SVG 1.1//EN"
 "http://www.w3.org/Graphics/SVG/1.1/DTD/svg11.dtd">
<!-- Generated by graphviz version 2.38.0 (20140413.2041)
 -->
<!-- Title: adb.common.UsbHandle.Find Pages: 1 -->
<svg width="524pt" height="176pt"
 viewBox="0.00 0.00 524.00 176.00" xmlns="http://www.w3.org/2000/svg" xmlns:xlink="http://www.w3.org/1999/xlink">
<g id="graph0" class="graph" transform="scale(1 1) rotate(0) translate(4 172)">
<title>adb.common.UsbHandle.Find</title>
<polygon fill="white" stroke="none" points="-4,4 -4,-172 520,-172 520,4 -4,4"/>
<!-- Node1 -->
<g id="node1" class="node"><title>Node1</title>
<polygon fill="#bfbfbf" stroke="black" points="0,-72 0,-91 146,-91 146,-72 0,-72"/>
<text text-anchor="middle" x="73" y="-79" font-family="Helvetica,sans-Serif" font-size="10.00">adb.common.UsbHandle.Find</text>
</g>
<!-- Node2 -->
<g id="node2" class="node"><title>Node2</title>
<g id="a_node2"><a xlink:href="../adb.common_cli.html#adb.common.UsbHandle.PortPathMatcher" xlink:title="adb.common.UsbHandle.Port\lPathMatcher">
<polygon fill="white" stroke="black" points="185,-137.5 185,-167.5 331,-167.5 331,-137.5 185,-137.5"/>
<text text-anchor="start" x="193" y="-155.5" font-family="Helvetica,sans-Serif" font-size="10.00">adb.common.UsbHandle.Port</text>
<text text-anchor="middle" x="258" y="-144.5" font-family="Helvetica,sans-Serif" font-size="10.00">PathMatcher</text>
</a>
</g>
</g>
<!-- Node1&#45;&gt;Node2 -->
<g id="edge1" class="edge"><title>Node1&#45;&gt;Node2</title>
<path fill="none" stroke="midnightblue" d="M94.4506,-91.1357C115.984,-101.107 150.998,-116.828 182,-128.5 187.118,-130.427 192.467,-132.337 197.851,-134.19"/>
<polygon fill="midnightblue" stroke="midnightblue" points="196.943,-137.577 207.537,-137.452 199.177,-130.943 196.943,-137.577"/>
</g>
<!-- Node3 -->
<g id="node3" class="node"><title>Node3</title>
<g id="a_node3"><a xlink:href="../adb.common_cli.html#adb.common.UsbHandle.SerialMatcher" xlink:title="adb.common.UsbHandle.Serial\lMatcher">
<polygon fill="white" stroke="black" points="182,-88.5 182,-118.5 334,-118.5 334,-88.5 182,-88.5"/>
<text text-anchor="start" x="190" y="-106.5" font-family="Helvetica,sans-Serif" font-size="10.00">adb.common.UsbHandle.Serial</text>
<text text-anchor="middle" x="258" y="-95.5" font-family="Helvetica,sans-Serif" font-size="10.00">Matcher</text>
</a>
</g>
</g>
<!-- Node1&#45;&gt;Node3 -->
<g id="edge2" class="edge"><title>Node1&#45;&gt;Node3</title>
<path fill="none" stroke="midnightblue" d="M146.064,-90.1634C154.547,-91.1832 163.263,-92.2311 171.903,-93.2698"/>
<polygon fill="midnightblue" stroke="midnightblue" points="171.646,-96.764 181.992,-94.4827 172.482,-89.814 171.646,-96.764"/>
</g>
<!-- Node5 -->
<g id="node5" class="node"><title>Node5</title>
<g id="a_node5"><a xlink:href="../adb.common_cli.html#adb.common.UsbHandle.FindFirst" xlink:title="adb.common.UsbHandle.Find\lFirst">
<polygon fill="white" stroke="black" points="185,-0.5 185,-30.5 331,-30.5 331,-0.5 185,-0.5"/>
<text text-anchor="start" x="193" y="-18.5" font-family="Helvetica,sans-Serif" font-size="10.00">adb.common.UsbHandle.Find</text>
<text text-anchor="middle" x="258" y="-7.5" font-family="Helvetica,sans-Serif" font-size="10.00">First</text>
</a>
</g>
</g>
<!-- Node1&#45;&gt;Node5 -->
<g id="edge5" class="edge"><title>Node1&#45;&gt;Node5</title>
<path fill="none" stroke="midnightblue" d="M100.61,-71.903C127.948,-62.0435 171.208,-46.4416 205.306,-34.1437"/>
<polygon fill="midnightblue" stroke="midnightblue" points="206.893,-37.2923 215.112,-30.6071 204.518,-30.7074 206.893,-37.2923"/>
</g>
<!-- Node4 -->
<g id="node4" class="node"><title>Node4</title>
<g id="a_node4"><a xlink:href="../adb.common_cli.html#adb.common.UsbHandle.FindAndOpen" xlink:title="adb.common.UsbHandle.Find\lAndOpen">
<polygon fill="white" stroke="black" points="370,-68.5 370,-98.5 516,-98.5 516,-68.5 370,-68.5"/>
<text text-anchor="start" x="378" y="-86.5" font-family="Helvetica,sans-Serif" font-size="10.00">adb.common.UsbHandle.Find</text>
<text text-anchor="middle" x="443" y="-75.5" font-family="Helvetica,sans-Serif" font-size="10.00">AndOpen</text>
</a>
</g>
</g>
<!-- Node3&#45;&gt;Node4 -->
<g id="edge3" class="edge"><title>Node3&#45;&gt;Node4</title>
<path fill="none" stroke="midnightblue" d="M334.225,-95.2787C342.565,-94.3672 351.092,-93.4353 359.516,-92.5147"/>
<polygon fill="midnightblue" stroke="midnightblue" points="360.16,-95.9652 369.72,-91.3994 359.399,-89.0067 360.16,-95.9652"/>
</g>
<!-- Node4&#45;&gt;Node1 -->
<g id="edge4" class="edge"><title>Node4&#45;&gt;Node1</title>
<path fill="none" stroke="midnightblue" d="M369.974,-80.4612C357.963,-80.061 345.631,-79.7153 334,-79.5 274.446,-78.3975 207.209,-78.9629 156.031,-79.7697"/>
<polygon fill="midnightblue" stroke="midnightblue" points="155.957,-76.2704 146.016,-79.9339 156.072,-83.2694 155.957,-76.2704"/>
</g>
<!-- Node6 -->
<g id="node6" class="node"><title>Node6</title>
<g id="a_node6"><a xlink:href="../adb.common_cli.html#adb.common.UsbHandle.FindDevices" xlink:title="adb.common.UsbHandle.Find\lDevices">
<polygon fill="white" stroke="black" points="370,-0.5 370,-30.5 516,-30.5 516,-0.5 370,-0.5"/>
<text text-anchor="start" x="378" y="-18.5" font-family="Helvetica,sans-Serif" font-size="10.00">adb.common.UsbHandle.Find</text>
<text text-anchor="middle" x="443" y="-7.5" font-family="Helvetica,sans-Serif" font-size="10.00">Devices</text>
</a>
</g>
</g>
<!-- Node5&#45;&gt;Node6 -->
<g id="edge6" class="edge"><title>Node5&#45;&gt;Node6</title>
<path fill="none" stroke="midnightblue" d="M331.064,-15.5C340.392,-15.5 350.003,-15.5 359.484,-15.5"/>
<polygon fill="midnightblue" stroke="midnightblue" points="359.702,-19.0001 369.702,-15.5 359.702,-12.0001 359.702,-19.0001"/>
</g>
</g>
</svg>
